<?xml version="1.0" standalone="no"?>
<!DOCTYPE svg PUBLIC "-//W3C//DTD SVG 20010904//EN"
 "http://www.w3.org/TR/2001/REC-SVG-20010904/DTD/svg10.dtd">
<svg version="1.0" xmlns="http://www.w3.org/2000/svg"
 width="780.000000pt" height="1760.000000pt" viewBox="0 0 780.000000 1760.000000"
 preserveAspectRatio="xMidYMid meet">

<g transform="translate(0.000000,1760.000000) scale(0.100000,-0.100000)"
fill="#000000" stroke="none">
<path d="M7123 16969 c-48 -30 -73 -78 -73 -135 0 -95 65 -164 154 -164 28 0
64 7 80 15 29 15 30 15 76 -30 25 -25 51 -45 58 -45 23 0 12 25 -33 70 l-45
46 16 33 c22 44 15 127 -14 168 -44 62 -155 83 -219 42z m163 -29 c34 -21 54
-64 54 -115 0 -42 -5 -52 -39 -86 -87 -87 -221 -31 -221 93 0 107 113 166 206
108z"/>
<path d="M3174 16940 c-31 -12 -74 -68 -76 -98 -6 -108 40 -162 137 -162 38 0
52 5 76 29 16 16 29 37 29 45 0 23 -42 20 -63 -4 -21 -25 -78 -27 -100 -2 -24
26 -31 69 -17 103 23 54 85 67 118 24 22 -28 62 -34 62 -10 0 60 -96 103 -166
75z"/>
<path d="M3610 16815 l0 -135 30 0 30 0 0 135 0 135 -30 0 -30 0 0 -135z"/>
<path d="M4270 16898 c0 -40 -3 -49 -12 -40 -7 7 -29 12 -49 12 -50 0 -79 -36
-79 -95 0 -76 59 -118 121 -85 13 7 19 7 19 0 0 -5 11 -10 25 -10 l25 0 0 135
0 135 -25 0 c-23 0 -25 -3 -25 -52z m-10 -87 c21 -40 1 -91 -35 -91 -21 0 -45
29 -45 55 0 48 59 74 80 36z"/>
<path d="M3400 16845 c-53 -56 -17 -165 55 -165 17 0 37 6 44 13 11 10 14 10
18 0 3 -7 16 -13 29 -13 24 0 24 1 24 95 0 95 0 95 -25 95 -14 0 -25 -5 -25
-10 0 -7 -6 -7 -19 0 -34 18 -76 12 -101 -15z m104 -37 c20 -29 20 -41 -2 -68
-37 -46 -90 9 -63 66 13 30 45 31 65 2z"/>
<path d="M3743 16855 c-34 -24 -47 -76 -29 -118 17 -42 41 -57 91 -57 26 0 43
8 63 28 l27 27 -24 3 c-13 2 -35 -2 -48 -9 -25 -14 -53 -5 -61 19 -2 8 16 12
62 12 60 0 66 2 66 20 0 29 -26 76 -45 84 -29 11 -80 6 -102 -9z m86 -38 c15
-19 4 -27 -36 -27 -36 0 -36 0 -27 24 7 19 47 21 63 3z"/>
<path d="M3920 16775 c0 -95 0 -95 25 -95 24 0 25 3 25 58 0 69 19 103 47 86
14 -9 19 -26 21 -78 3 -63 4 -66 27 -66 24 0 25 2 25 78 0 64 -4 82 -18 95
-21 19 -54 22 -83 7 -13 -7 -19 -7 -19 0 0 5 -11 10 -25 10 -25 0 -25 0 -25
-95z"/>
<path d="M4384 16849 c-14 -15 -19 -36 -19 -76 0 -45 4 -58 24 -74 26 -21 81
-25 99 -7 9 9 12 9 12 0 0 -7 13 -12 30 -12 l30 0 0 95 0 95 -30 0 c-17 0 -30
-5 -30 -12 0 -9 -3 -9 -12 0 -20 20 -83 15 -104 -9z m104 -31 c7 -7 12 -26 12
-44 0 -58 -51 -73 -79 -23 -13 24 -13 29 2 53 19 28 45 34 65 14z"/>
<path d="M4590 16775 l0 -95 30 0 c30 0 30 0 30 58 0 60 11 82 42 82 13 0 18
8 18 25 0 27 -18 32 -51 15 -13 -7 -19 -7 -19 0 0 5 -11 10 -25 10 -25 0 -25
0 -25 -95z"/>
<path d="M440 15553 c0 -138 -7 -156 -64 -157 -32 -1 -36 -4 -36 -28 0 -27 2
-28 51 -28 42 0 55 5 79 28 34 34 42 80 38 207 l-3 90 -32 3 -33 3 0 -118z"/>
<path d="M2234 15661 c-30 -13 -65 -61 -62 -85 4 -29 47 -29 61 1 12 27 52 41
76 26 9 -6 17 -24 19 -40 3 -27 -7 -39 -77 -103 -58 -52 -81 -80 -81 -96 0
-24 1 -24 120 -24 l120 0 0 30 0 29 -71 3 -71 3 47 35 c87 65 108 134 57 191
-21 24 -38 32 -72 35 -25 2 -55 0 -66 -5z"/>
<path d="M2522 15653 c-45 -22 -72 -78 -72 -148 0 -108 46 -165 132 -165 43 0
55 5 83 33 77 77 67 226 -18 277 -39 24 -81 25 -125 3z m97 -62 c37 -37 40
-134 4 -173 -23 -25 -68 -23 -87 4 -25 35 -22 138 4 166 26 27 54 28 79 3z"/>
<path d="M2825 15661 c-31 -14 -64 -54 -67 -81 -2 -20 2 -26 24 -28 21 -3 29
3 40 25 22 47 98 39 98 -11 0 -31 -27 -63 -105 -127 -46 -37 -65 -59 -65 -76
0 -23 1 -23 120 -23 l120 0 0 30 0 30 -65 0 -66 0 61 58 c51 47 62 64 67 98 4
35 1 46 -24 74 -22 25 -38 33 -73 36 -25 2 -54 0 -65 -5z"/>
<path d="M3110 15659 c-32 -13 -59 -48 -60 -76 0 -33 42 -31 64 2 27 41 96 30
96 -17 0 -21 -29 -38 -64 -38 -21 0 -26 -5 -26 -25 0 -22 4 -25 34 -25 61 0
86 -46 41 -76 -30 -20 -70 -12 -85 16 -7 13 -21 20 -40 20 -33 0 -36 -7 -18
-45 16 -36 57 -55 117 -55 68 0 111 35 111 90 0 29 -6 43 -24 58 -24 18 -24
19 -6 35 31 26 36 65 13 95 -36 49 -94 64 -153 41z"/>
<path d="M612 15567 c-69 -39 -79 -141 -20 -204 26 -28 92 -31 120 -6 17 15
18 15 18 0 0 -12 9 -17 30 -17 l30 0 0 115 0 115 -29 0 c-16 0 -31 -5 -33 -12
-3 -8 -11 -7 -28 5 -29 20 -56 21 -88 4z m102 -69 c31 -44 7 -108 -39 -108
-28 0 -55 34 -55 69 0 55 65 81 94 39z"/>
<path d="M930 15563 c-17 -12 -25 -13 -28 -5 -2 7 -17 12 -33 12 l-29 0 0
-115 0 -115 30 0 30 0 0 64 c0 89 12 118 48 114 27 -3 27 -3 30 -90 l3 -88 34
0 35 0 0 85 c0 96 -15 139 -52 149 -34 9 -41 8 -68 -11z"/>
<path d="M1384 15546 c-31 -31 -34 -40 -34 -91 0 -49 4 -60 29 -86 34 -34 93
-40 123 -12 17 15 18 15 18 0 0 -13 9 -17 35 -17 l35 0 0 115 0 115 -35 0
c-19 0 -35 -5 -35 -10 0 -6 -13 -4 -30 5 -44 23 -69 18 -106 -19z m126 -45
c25 -48 0 -111 -45 -111 -43 0 -68 64 -41 105 21 31 70 35 86 6z"/>
<path d="M1722 15564 c-12 -8 -22 -10 -22 -5 0 6 -16 11 -35 11 l-35 0 0 -115
0 -115 35 0 35 0 0 69 c0 77 13 101 56 101 21 0 24 5 24 35 0 40 -19 46 -58
19z"/>
<path d="M1100 15472 c0 -112 11 -132 70 -132 18 0 42 7 52 17 17 15 18 15 18
0 0 -12 9 -17 30 -17 l30 0 0 115 0 115 -30 0 -30 0 0 -64 c0 -77 -13 -116
-38 -116 -33 0 -42 21 -42 102 l0 78 -30 0 -30 0 0 -98z"/>
<path d="M1846 15453 c41 -109 43 -119 27 -130 -9 -7 -27 -13 -40 -13 -18 0
-23 -6 -23 -24 0 -14 4 -27 8 -30 15 -9 85 12 104 32 14 13 117 258 118 280 0
1 -15 2 -33 2 -33 0 -34 -1 -57 -75 -13 -41 -26 -73 -28 -70 -2 2 -15 35 -27
72 -22 65 -24 68 -58 71 l-35 3 44 -118z"/>
<path d="M2870 14212 c0 -94 -8 -112 -47 -112 -16 0 -23 -6 -23 -20 0 -17 7
-20 39 -20 31 0 44 6 60 26 18 23 21 41 21 120 0 94 0 94 -25 94 -25 0 -25 -1
-25 -88z"/>
<path d="M4195 14275 c-14 -13 -25 -31 -25 -40 0 -19 39 -20 46 -1 13 35 74
23 74 -14 0 -11 -26 -42 -60 -72 -33 -29 -60 -60 -60 -70 0 -16 10 -18 85 -18
78 0 85 2 85 20 0 17 -7 20 -45 20 -25 0 -45 2 -45 5 0 3 16 20 36 37 20 18
40 43 45 57 29 75 -78 135 -136 76z"/>
<path d="M4417 14279 c-31 -23 -51 -88 -42 -130 11 -50 52 -89 92 -89 72 0
109 49 100 134 -8 88 -89 134 -150 85z m83 -39 c38 -38 17 -140 -29 -140 -63
0 -61 159 2 160 4 0 16 -9 27 -20z"/>
<path d="M4638 14280 c-34 -26 -43 -60 -17 -60 10 0 28 9 39 20 24 24 34 25
53 5 24 -23 10 -50 -54 -105 -83 -72 -79 -80 31 -80 83 0 90 1 90 20 0 17 -7
20 -51 20 l-52 0 47 43 c59 55 65 94 20 135 -31 27 -73 28 -106 2z"/>
<path d="M4867 14293 c-15 -4 -47 -50 -47 -68 0 -13 37 -3 53 15 9 11 22 20
29 20 46 -1 50 -53 5 -58 -36 -4 -39 -42 -3 -42 33 0 53 -25 36 -45 -7 -8 -23
-15 -35 -15 -12 0 -28 7 -35 15 -15 19 -50 20 -50 2 0 -8 10 -23 23 -35 28
-26 92 -30 125 -6 28 19 31 78 5 93 -17 9 -17 10 0 28 50 56 -20 118 -106 96z"/>
<path d="M995 14220 l-59 -60 59 -60 c33 -33 66 -60 74 -60 9 0 -11 26 -44 60
l-59 60 59 60 c33 34 53 60 44 60 -8 0 -41 -27 -74 -60z"/>
<path d="M6775 14220 l59 -60 -59 -60 c-33 -34 -53 -60 -44 -60 8 0 41 27 74
60 l59 60 -59 60 c-33 33 -66 60 -74 60 -9 0 11 -26 44 -60z"/>
<path d="M2981 14204 c-57 -73 12 -175 90 -134 13 7 19 7 19 0 0 -5 9 -10 20
-10 18 0 20 7 20 85 0 78 -2 85 -20 85 -11 0 -20 -5 -20 -10 0 -7 -6 -7 -19 0
-34 18 -68 12 -90 -16z m100 -35 c16 -31 -3 -69 -35 -69 -28 0 -41 27 -32 66
8 31 50 33 67 3z"/>
<path d="M3170 14145 c0 -84 0 -85 25 -85 23 0 25 3 25 53 0 60 10 80 36 75
16 -3 20 -14 22 -66 3 -58 4 -62 27 -62 24 0 25 3 25 63 0 74 -18 107 -59 107
-15 0 -32 -5 -39 -12 -9 -9 -12 -9 -12 0 0 7 -11 12 -25 12 -25 0 -25 -1 -25
-85z"/>
<path d="M3360 14167 c0 -74 18 -107 59 -107 15 0 32 5 39 12 9 9 12 9 12 0 0
-7 9 -12 20 -12 18 0 20 7 20 85 0 78 -2 85 -20 85 -17 0 -20 -7 -20 -52 0
-61 -10 -81 -36 -76 -16 3 -20 14 -22 66 -3 58 -4 62 -27 62 -24 0 -25 -3 -25
-63z"/>
<path d="M3571 14204 c-57 -73 12 -175 90 -134 13 7 19 7 19 0 0 -5 9 -10 20
-10 18 0 20 7 20 85 0 78 -2 85 -20 85 -11 0 -20 -5 -20 -10 0 -7 -6 -7 -19 0
-34 18 -68 12 -90 -16z m100 -35 c16 -31 -3 -69 -35 -69 -28 0 -41 27 -32 66
8 31 50 33 67 3z"/>
<path d="M3760 14145 c0 -84 0 -85 25 -85 23 0 25 3 25 49 0 40 4 53 22 65 12
8 25 13 30 10 4 -3 8 6 8 20 0 28 -26 36 -48 14 -9 -9 -12 -9 -12 0 0 7 -11
12 -25 12 -25 0 -25 -1 -25 -85z"/>
<path d="M3921 14148 c32 -87 32 -108 -1 -108 -13 0 -20 -7 -20 -20 0 -28 42
-26 73 3 21 19 87 170 87 199 0 5 -10 8 -22 6 -17 -2 -26 -15 -37 -50 -8 -27
-18 -48 -22 -48 -4 0 -15 23 -24 50 -14 41 -21 50 -41 50 l-23 0 30 -82z"/>
<path d="M968 13279 c-21 -12 -24 -62 -5 -77 6 -6 26 -14 42 -18 43 -10 58
-23 44 -40 -15 -18 -38 -18 -60 2 -10 9 -25 14 -34 12 -15 -3 -14 -6 5 -30 17
-22 30 -28 59 -28 98 0 104 97 7 116 -26 4 -36 11 -36 25 0 13 7 19 24 19 14
0 28 -4 31 -10 7 -12 45 -13 45 -2 0 34 -83 54 -122 31z"/>
<path d="M1880 13195 c0 -88 1 -95 20 -95 18 0 20 7 20 63 l1 62 20 -37 c12
-24 27 -38 39 -38 13 0 26 13 37 38 l18 37 3 -62 c3 -55 6 -63 22 -63 18 0 20
7 20 95 l0 95 -28 0 c-23 0 -32 -8 -52 -47 l-23 -48 -20 48 c-18 40 -25 47
-49 47 l-28 0 0 -95z"/>
<path d="M2860 13275 c0 -10 10 -15 30 -15 l30 0 0 -80 c0 -73 2 -80 20 -80
18 0 20 7 20 80 l0 80 30 0 c20 0 30 5 30 15 0 12 -16 15 -80 15 -64 0 -80 -3
-80 -15z"/>
<path d="M3774 13268 c3 -13 13 -56 23 -95 15 -68 19 -73 43 -73 23 0 28 6 41
58 l16 57 12 -45 c19 -70 19 -70 45 -70 27 0 24 -7 60 133 14 58 14 58 -7 55
-17 -2 -24 -16 -38 -68 l-16 -65 -11 40 c-6 22 -14 53 -18 68 -5 21 -12 27
-27 25 -17 -2 -24 -15 -35 -60 -8 -32 -17 -56 -21 -53 -4 2 -13 29 -20 60 -10
45 -16 55 -33 55 -16 0 -19 -5 -14 -22z"/>
<path d="M4780 13275 c0 -10 10 -15 30 -15 l30 0 0 -80 c0 -73 2 -80 20 -80
18 0 20 7 20 80 l0 80 30 0 c20 0 30 5 30 15 0 12 -16 15 -80 15 -64 0 -80 -3
-80 -15z"/>
<path d="M5750 13195 c0 -88 1 -95 20 -95 16 0 20 7 20 35 0 34 1 35 38 35 43
0 53 6 45 26 -3 9 -20 14 -44 14 -35 0 -39 3 -39 25 0 23 3 25 50 25 38 0 50
4 50 15 0 12 -14 15 -70 15 l-70 0 0 -95z"/>
<path d="M6728 13279 c-21 -12 -24 -62 -5 -77 6 -6 26 -14 42 -18 43 -10 58
-23 44 -40 -15 -18 -38 -18 -60 2 -10 9 -25 14 -34 12 -15 -3 -14 -6 5 -30 17
-22 30 -28 59 -28 98 0 104 97 7 116 -26 4 -36 11 -36 25 0 13 7 19 24 19 14
0 28 -4 31 -10 7 -12 45 -13 45 -2 0 34 -83 54 -122 31z"/>
<path d="M3888 12272 c-33 -20 -35 -28 -8 -35 18 -5 20 -14 20 -81 0 -61 3
-76 15 -76 12 0 15 18 15 105 0 58 -3 105 -7 104 -5 0 -20 -8 -35 -17z"/>
<path d="M4811 12271 c-23 -23 -28 -51 -8 -51 7 0 18 9 25 20 24 38 81 14 67
-29 -3 -11 -28 -39 -56 -61 -69 -58 -65 -70 21 -70 56 0 70 3 70 15 0 11 -12
15 -46 15 l-47 0 47 43 c67 63 61 121 -15 133 -29 5 -41 2 -58 -15z"/>
<path d="M5772 12267 c-12 -13 -22 -29 -22 -35 0 -20 28 -13 35 8 8 24 47 27
65 5 16 -19 -3 -45 -31 -45 -30 0 -22 -28 9 -32 35 -4 43 -41 13 -58 -22 -11
-61 1 -61 20 0 6 -7 10 -15 10 -21 0 -19 -23 3 -43 25 -23 85 -22 105 1 21 23
22 68 1 80 -14 8 -14 10 0 21 22 18 20 47 -4 71 -27 27 -71 26 -98 -3z"/>
<path d="M6740 12218 c-27 -39 -50 -75 -50 -79 0 -4 24 -9 53 -11 45 -3 52 -6
55 -25 5 -32 32 -30 32 2 0 16 6 25 15 25 8 0 15 5 15 10 0 6 -7 10 -15 10
-12 0 -15 14 -15 70 0 63 -2 70 -20 70 -13 0 -36 -24 -70 -72z m58 -20 c-3
-41 -5 -43 -37 -46 -18 -2 -32 0 -30 5 10 22 55 83 62 83 5 0 7 -19 5 -42z"/>
<path d="M1205 11621 c-3 -5 -2 -12 3 -15 5 -3 9 1 9 9 0 17 -3 19 -12 6z"/>
<path d="M1321 11544 c0 -11 3 -14 6 -6 3 7 2 16 -1 19 -3 4 -6 -2 -5 -13z"/>
<path d="M687 11543 c-4 -3 -7 -11 -7 -17 0 -6 5 -5 12 2 6 6 9 14 7 17 -3 3
-9 2 -12 -2z"/>
<path d="M583 11365 c0 -8 4 -12 9 -9 5 3 6 10 3 15 -9 13 -12 11 -12 -6z"/>
<path d="M1963 11320 c-51 -21 -73 -140 -32 -181 48 -48 146 5 123 68 -13 37
-53 57 -88 43 -32 -12 -34 2 -6 30 11 11 33 20 50 20 20 0 30 5 30 15 0 17
-41 19 -77 5z m51 -106 c21 -20 20 -30 -4 -54 -17 -17 -24 -18 -41 -10 -27 15
-33 34 -19 59 13 25 42 27 64 5z"/>
<path d="M2870 11315 c0 -12 13 -15 55 -15 l54 0 -30 -49 c-35 -55 -51 -131
-28 -131 9 0 19 20 27 53 6 28 26 71 42 95 17 24 28 47 25 53 -4 5 -37 9 -76
9 -55 0 -69 -3 -69 -15z"/>
<path d="M3850 11310 c-24 -24 -25 -38 -5 -67 13 -19 13 -22 0 -27 -21 -8 -19
-59 3 -79 25 -23 85 -22 105 1 21 23 22 71 2 78 -13 5 -13 8 0 27 8 12 15 27
15 34 0 23 -39 53 -70 53 -17 0 -39 -9 -50 -20z m84 -26 c8 -20 -11 -44 -34
-44 -10 0 -23 6 -29 14 -18 21 -2 46 29 46 17 0 30 -7 34 -16z m-13 -74 c25
-14 24 -46 -1 -60 -43 -23 -84 35 -42 59 21 13 20 13 43 1z"/>
<path d="M4812 11314 c-16 -11 -22 -25 -22 -54 0 -29 6 -43 22 -54 27 -19 59
-21 76 -4 9 9 12 9 12 -3 0 -25 -34 -49 -68 -49 -22 0 -32 -5 -32 -15 0 -10
10 -15 34 -15 92 0 140 134 69 190 -31 24 -61 26 -91 4z m82 -36 c16 -26 -4
-53 -40 -53 -23 0 -30 5 -32 23 -2 13 -1 30 2 38 8 20 56 14 70 -8z"/>
<path d="M5720 11315 c-7 -8 -19 -15 -26 -15 -8 0 -14 -4 -14 -10 0 -5 9 -10
20 -10 18 0 20 -7 20 -80 0 -64 3 -80 15 -80 12 0 15 18 15 105 0 103 -5 120
-30 90z"/>
<path d="M5831 11313 c-43 -35 -45 -130 -5 -174 24 -26 75 -25 101 4 78 84
-11 239 -96 170z m73 -29 c19 -19 22 -104 4 -122 -18 -18 -56 -14 -68 7 -26
49 -4 131 35 131 7 0 21 -7 29 -16z"/>
<path d="M6720 11315 c-7 -8 -19 -15 -26 -15 -8 0 -14 -4 -14 -10 0 -5 9 -10
20 -10 18 0 20 -7 20 -80 0 -64 3 -80 15 -80 12 0 15 18 15 105 0 103 -5 120
-30 90z"/>
<path d="M6830 11315 c-7 -8 -19 -15 -26 -15 -8 0 -14 -4 -14 -10 0 -5 9 -10
20 -10 18 0 20 -7 20 -80 0 -64 3 -80 15 -80 12 0 15 18 15 105 0 103 -5 120
-30 90z"/>
<path d="M1020 11279 c0 -5 5 -7 10 -4 6 3 10 8 10 11 0 2 -4 4 -10 4 -5 0
-10 -5 -10 -11z"/>
<path d="M985 11189 c-4 -6 -5 -12 -2 -15 2 -3 7 2 10 11 7 17 1 20 -8 4z"/>
<path d="M1100 11181 c0 -6 4 -13 10 -16 6 -3 7 1 4 9 -7 18 -14 21 -14 7z"/>
<path d="M910 10347 c-32 -20 -33 -22 -12 -25 21 -3 22 -8 22 -83 0 -64 3 -79
15 -79 11 0 15 14 16 58 1 31 2 74 3 95 1 54 -5 59 -44 34z"/>
<path d="M1032 10354 c-24 -17 -30 -54 -8 -54 7 0 16 9 19 21 4 16 12 20 34
17 22 -2 29 -9 31 -31 3 -23 -6 -37 -47 -74 -70 -63 -67 -73 19 -73 56 0 70 3
70 15 0 11 -12 15 -47 15 l-48 1 31 28 c37 34 64 71 64 89 0 21 -47 62 -72 62
-13 0 -34 -7 -46 -16z"/>
<path d="M1880 10355 c-7 -8 -19 -15 -26 -15 -8 0 -14 -4 -14 -10 0 -5 9 -10
20 -10 18 0 20 -7 20 -80 0 -64 3 -80 15 -80 12 0 15 18 15 105 0 103 -5 120
-30 90z"/>
<path d="M1992 10354 c-12 -8 -22 -24 -22 -35 0 -25 16 -24 30 2 17 31 65 23
65 -11 0 -20 -6 -26 -27 -28 -38 -5 -37 -32 1 -32 30 0 45 -19 35 -45 -9 -24
-63 -23 -77 1 -9 16 -37 19 -37 4 0 -23 41 -50 75 -50 59 0 98 59 60 90 -11 9
-13 16 -5 24 31 31 -5 96 -55 96 -11 0 -31 -7 -43 -16z"/>
<path d="M2828 10352 c-33 -20 -35 -28 -8 -35 18 -5 20 -14 20 -81 0 -61 3
-76 15 -76 12 0 15 18 15 105 0 58 -3 105 -7 104 -5 0 -20 -8 -35 -17z"/>
<path d="M2957 10302 c-26 -37 -47 -73 -47 -80 0 -8 17 -12 50 -12 47 0 50 -2
50 -25 0 -16 6 -25 15 -25 9 0 15 9 15 21 0 12 8 23 20 26 11 3 20 9 20 13 0
4 -9 10 -20 13 -17 4 -20 14 -20 71 0 57 -2 66 -18 66 -12 0 -36 -26 -65 -68z
m53 -27 c0 -43 -1 -45 -30 -45 -16 0 -30 3 -30 8 0 9 49 82 55 82 3 0 5 -20 5
-45z"/>
<path d="M3800 10355 c-7 -8 -19 -15 -26 -15 -8 0 -14 -4 -14 -10 0 -5 9 -10
20 -10 18 0 20 -7 20 -80 0 -64 3 -80 15 -80 12 0 15 18 15 105 0 103 -5 120
-30 90z"/>
<path d="M3895 10315 c-8 -63 -3 -75 25 -57 38 24 80 8 80 -29 0 -39 -71 -58
-84 -23 -6 16 -36 19 -36 4 0 -23 41 -50 75 -50 67 0 100 75 54 121 -16 16
-29 20 -55 16 -31 -5 -34 -3 -34 19 0 22 4 24 51 24 72 0 61 24 -14 28 l-55 3
-7 -56z"/>
<path d="M4760 10355 c-7 -8 -19 -15 -26 -15 -8 0 -14 -4 -14 -10 0 -5 9 -10
20 -10 18 0 20 -7 20 -80 0 -64 3 -80 15 -80 12 0 15 18 15 105 0 103 -5 120
-30 90z"/>
<path d="M4880 10342 c-44 -38 -53 -113 -20 -154 27 -35 80 -38 111 -7 46 46
-8 137 -66 111 -20 -9 -25 -9 -25 3 0 20 40 45 73 45 39 0 30 24 -10 28 -23 2
-40 -4 -63 -26z m68 -84 c34 -34 -6 -90 -48 -68 -35 19 -20 80 20 80 9 0 21
-5 28 -12z"/>
<path d="M5730 10355 c-7 -8 -19 -15 -26 -15 -8 0 -14 -4 -14 -10 0 -5 9 -10
20 -10 18 0 20 -7 20 -80 0 -64 3 -80 15 -80 12 0 15 18 15 105 0 103 -5 120
-30 90z"/>
<path d="M5810 10355 c0 -11 12 -15 49 -15 l50 0 -29 -57 c-37 -74 -47 -123
-27 -123 10 0 19 18 27 50 7 27 25 69 41 92 42 63 40 68 -41 68 -56 0 -70 -3
-70 -15z"/>
<path d="M6670 10347 c-32 -20 -33 -22 -12 -25 21 -3 22 -8 22 -83 0 -64 3
-79 15 -79 11 0 15 14 16 58 1 31 2 74 3 95 1 54 -5 59 -44 34z"/>
<path d="M6792 10354 c-24 -16 -29 -53 -10 -72 9 -9 8 -16 -5 -30 -36 -40 -3
-92 58 -92 61 0 94 52 58 92 -13 14 -14 21 -5 30 31 31 -4 88 -53 88 -11 0
-31 -7 -43 -16z m76 -40 c3 -24 -20 -38 -49 -29 -19 6 -26 35 -12 49 15 15 58
1 61 -20z m-4 -70 c9 -8 16 -19 16 -24 0 -13 -30 -40 -45 -40 -15 0 -45 27
-45 40 0 13 30 40 45 40 7 0 21 -7 29 -16z"/>
<path d="M920 9395 c-7 -8 -19 -15 -26 -15 -8 0 -14 -4 -14 -10 0 -5 9 -10 20
-10 18 0 20 -7 20 -80 0 -64 3 -80 15 -80 12 0 15 18 15 105 0 103 -5 120 -30
90z"/>
<path d="M1026 9389 c-33 -26 -34 -68 -3 -97 26 -24 48 -27 78 -11 19 10 20 9
8 -13 -16 -30 -28 -38 -61 -38 -18 0 -28 -5 -28 -15 0 -18 51 -21 81 -5 51 28
66 134 24 175 -30 30 -64 32 -99 4z m79 -49 c0 -29 -4 -36 -23 -38 -43 -6 -69
37 -40 66 7 7 24 12 38 10 21 -3 25 -8 25 -38z"/>
<path d="M1835 9385 c-14 -13 -25 -29 -25 -35 0 -18 29 -11 40 10 18 34 70 19
70 -20 0 -9 -25 -40 -55 -70 -30 -30 -55 -58 -55 -62 0 -4 34 -8 75 -8 60 0
75 3 75 15 0 11 -12 15 -47 15 l-47 0 42 43 c31 32 42 51 42 74 0 60 -71 83
-115 38z"/>
<path d="M2021 9386 c-49 -52 -33 -168 24 -182 61 -15 105 27 105 101 0 91
-75 138 -129 81z m83 -28 c32 -45 9 -128 -34 -128 -30 0 -54 44 -47 86 11 64
51 85 81 42z"/>
<path d="M2835 9385 c-14 -13 -25 -29 -25 -35 0 -18 29 -11 40 10 18 34 70 19
70 -20 0 -9 -25 -40 -55 -70 -30 -30 -55 -58 -55 -62 0 -4 34 -8 75 -8 60 0
75 3 75 15 0 11 -12 15 -47 15 l-47 0 42 43 c31 32 42 51 42 74 0 60 -71 83
-115 38z"/>
<path d="M3018 9392 c-33 -20 -35 -28 -8 -35 18 -5 20 -14 20 -81 0 -61 3 -76
15 -76 12 0 15 18 15 105 0 58 -3 105 -7 104 -5 0 -20 -8 -35 -17z"/>
<path d="M3760 9390 c-22 -22 -27 -50 -7 -50 7 0 18 9 25 20 24 39 81 14 67
-29 -3 -12 -29 -40 -56 -63 -68 -57 -65 -68 21 -68 56 0 70 3 70 15 0 11 -12
15 -46 15 l-46 0 46 45 c51 49 59 82 26 115 -11 11 -33 20 -50 20 -17 0 -39
-9 -50 -20z"/>
<path d="M3941 9384 c-12 -15 -21 -31 -21 -35 0 -17 25 -9 38 11 24 38 81 14
67 -29 -3 -11 -28 -40 -56 -65 -27 -24 -49 -49 -49 -55 0 -7 27 -11 75 -11 60
0 75 3 75 15 0 11 -12 15 -46 15 l-47 0 42 45 c46 50 52 84 21 115 -29 29 -74
26 -99 -6z"/>
<path d="M4722 9394 c-24 -17 -30 -54 -8 -54 7 0 16 9 19 21 4 16 12 20 34 17
22 -2 29 -9 31 -30 3 -22 -7 -37 -47 -74 -70 -64 -67 -74 19 -74 56 0 70 3 70
15 0 11 -12 15 -47 15 l-48 1 32 28 c51 47 65 74 54 104 -17 45 -68 60 -109
31z"/>
<path d="M4902 9390 c-24 -23 -29 -50 -9 -50 7 0 18 9 25 20 14 24 45 26 62 5
16 -19 -3 -45 -31 -45 -30 0 -22 -28 9 -32 35 -4 43 -41 13 -58 -22 -11 -61 1
-61 20 0 6 -7 10 -15 10 -21 0 -19 -23 3 -43 25 -23 85 -22 105 1 21 23 22 68
1 80 -14 8 -14 10 0 21 22 18 20 47 -4 71 -26 26 -70 26 -98 0z"/>
<path d="M5675 9385 c-14 -13 -25 -29 -25 -35 0 -18 29 -11 40 10 18 34 70 19
70 -20 0 -9 -25 -40 -55 -70 -30 -30 -55 -58 -55 -62 0 -4 34 -8 75 -8 60 0
75 3 75 15 0 11 -12 15 -47 15 l-47 0 42 43 c31 32 42 51 42 74 0 60 -71 83
-115 38z"/>
<path d="M5871 9343 c-28 -37 -51 -74 -51 -80 0 -9 17 -13 50 -13 47 0 50 -2
50 -25 0 -16 6 -25 15 -25 9 0 15 9 15 21 0 12 8 23 20 26 23 6 27 23 5 23
-15 0 -17 10 -19 95 -2 64 -27 58 -85 -22z m49 -28 c0 -43 -1 -45 -30 -45 -16
0 -30 2 -30 5 0 7 52 85 56 85 2 0 4 -20 4 -45z"/>
<path d="M6642 9394 c-24 -17 -30 -54 -8 -54 7 0 16 9 19 21 4 16 12 20 34 17
22 -2 29 -9 31 -30 3 -22 -7 -37 -47 -74 -70 -64 -67 -74 19 -74 56 0 70 3 70
15 0 11 -12 15 -47 15 l-48 1 32 28 c51 47 65 74 54 104 -17 45 -68 60 -109
31z"/>
<path d="M6816 9388 c-16 -76 -17 -98 -3 -98 7 0 18 5 24 11 6 6 23 9 39 7 24
-2 29 -8 32 -35 2 -24 -2 -34 -17 -43 -22 -11 -61 1 -61 20 0 6 -7 10 -15 10
-21 0 -19 -23 3 -43 26 -24 85 -22 107 3 45 50 4 127 -61 117 -28 -5 -31 -3
-26 19 4 21 10 24 48 24 32 0 44 4 44 15 0 12 -13 15 -55 15 -49 0 -55 -2 -59
-22z"/>
<path d="M875 8425 c-14 -13 -25 -29 -25 -35 0 -18 29 -11 40 10 18 34 70 19
70 -20 0 -9 -25 -40 -55 -70 -30 -30 -55 -58 -55 -62 0 -4 34 -8 75 -8 60 0
75 3 75 15 0 11 -12 15 -47 15 l-47 0 42 43 c31 32 42 51 42 74 0 60 -71 83
-115 38z"/>
<path d="M1094 8440 c-54 -22 -75 -134 -33 -179 48 -51 146 2 123 66 -13 37
-53 57 -88 43 -32 -12 -34 2 -6 30 11 11 33 20 50 20 20 0 30 5 30 15 0 17
-41 20 -76 5z m50 -106 c21 -20 20 -30 -4 -54 -17 -17 -24 -18 -41 -10 -27 15
-33 34 -19 59 13 25 42 27 64 5z"/>
<path d="M1852 8434 c-24 -17 -30 -54 -8 -54 7 0 16 9 19 21 4 16 12 20 34 17
22 -2 29 -9 31 -31 3 -23 -6 -37 -47 -74 -70 -63 -67 -73 19 -73 56 0 70 3 70
15 0 11 -12 15 -47 15 l-48 1 30 26 c35 30 65 72 65 91 0 21 -47 62 -72 62
-13 0 -34 -7 -46 -16z"/>
<path d="M2000 8435 c0 -12 13 -15 55 -15 l54 0 -30 -49 c-35 -55 -51 -131
-28 -131 9 0 19 20 27 53 6 28 26 71 42 95 17 24 28 47 25 53 -4 5 -37 9 -76
9 -55 0 -69 -3 -69 -15z"/>
<path d="M2800 8430 c-22 -22 -27 -50 -7 -50 7 0 18 9 25 20 24 39 81 14 67
-29 -3 -12 -29 -40 -56 -63 -68 -57 -65 -68 21 -68 56 0 70 3 70 15 0 11 -12
15 -46 15 l-46 0 46 45 c51 49 59 82 26 115 -11 11 -33 20 -50 20 -17 0 -39
-9 -50 -20z"/>
<path d="M2980 8430 c-24 -24 -25 -38 -5 -67 13 -19 13 -22 0 -27 -21 -8 -19
-59 3 -79 25 -23 85 -22 105 1 19 21 22 63 6 79 -8 8 -8 17 0 31 6 11 11 25
11 31 0 22 -41 51 -70 51 -17 0 -39 -9 -50 -20z m84 -26 c8 -20 -11 -44 -34
-44 -10 0 -23 6 -29 14 -18 21 -2 46 29 46 17 0 30 -7 34 -16z m-10 -77 c36
-26 -4 -84 -41 -61 -25 16 -28 45 -7 61 10 7 21 13 24 13 3 0 14 -6 24 -13z"/>
<path d="M3755 8425 c-14 -13 -25 -29 -25 -35 0 -18 29 -11 40 10 18 34 70 19
70 -20 0 -9 -25 -40 -55 -70 -30 -30 -55 -58 -55 -62 0 -4 34 -8 75 -8 60 0
75 3 75 15 0 11 -12 15 -47 15 l-47 0 42 43 c31 32 42 51 42 74 0 60 -71 83
-115 38z"/>
<path d="M3942 8434 c-16 -11 -22 -25 -22 -54 0 -29 6 -43 22 -54 27 -19 59
-21 76 -4 9 9 12 9 12 -3 0 -25 -34 -49 -68 -49 -22 0 -32 -5 -32 -15 0 -10
10 -15 34 -15 92 0 140 134 69 190 -31 24 -61 26 -91 4z m82 -36 c16 -26 -4
-53 -40 -53 -23 0 -30 5 -32 23 -2 13 -1 30 2 38 8 20 56 14 70 -8z"/>
<path d="M4722 8434 c-12 -8 -22 -24 -22 -35 0 -25 16 -24 30 2 17 31 65 23
65 -11 0 -20 -6 -26 -27 -28 -35 -4 -38 -32 -4 -32 13 0 30 -7 37 -16 11 -14
10 -19 -9 -34 -24 -20 -57 -16 -66 6 -6 16 -36 19 -36 4 0 -23 41 -50 75 -50
59 0 98 59 60 90 -11 9 -13 16 -5 24 31 31 -5 96 -55 96 -11 0 -31 -7 -43 -16z"/>
<path d="M4901 8426 c-49 -52 -33 -168 24 -182 61 -15 105 27 105 101 0 91
-75 138 -129 81z m83 -28 c32 -45 9 -128 -34 -128 -30 0 -54 44 -47 86 11 64
51 85 81 42z"/>
<path d="M684 7133 c-9 -21 -20 -48 -24 -60 -9 -21 -30 -29 -104 -35 -16 -2
-34 -11 -40 -21 -9 -15 -3 -24 38 -61 l49 -43 -12 -60 c-20 -92 -4 -103 80
-55 l49 27 49 -27 c84 -48 98 -38 80 54 l-12 62 49 42 c63 55 55 76 -30 85
-65 7 -65 8 -91 69 -31 72 -56 80 -81 23z m62 -56 c23 -56 36 -63 118 -66 l39
-1 -47 -41 c-49 -44 -55 -63 -36 -128 5 -19 8 -36 6 -38 -2 -2 -27 10 -55 27
l-51 32 -51 -32 c-28 -17 -53 -29 -55 -27 -2 2 1 19 6 38 18 62 13 84 -31 124
-22 20 -39 38 -37 39 1 2 30 7 63 12 l59 9 21 53 c11 28 22 52 25 52 3 0 15
-24 26 -53z"/>
<path d="M7188 7058 l-3 -83 -82 -3 c-46 -2 -83 -7 -83 -12 0 -5 37 -10 83
-12 l82 -3 3 -82 c2 -46 7 -83 12 -83 5 0 10 37 12 83 l3 82 83 3 c45 2 82 7
82 12 0 5 -37 10 -82 12 l-83 3 -3 83 c-2 45 -7 82 -12 82 -5 0 -10 -37 -12
-82z"/>
<path d="M1470 6981 c0 -101 2 -121 15 -121 12 0 15 16 15 87 l0 87 61 -87
c33 -48 67 -87 75 -87 11 0 14 23 14 120 0 99 -3 120 -15 120 -11 0 -15 -19
-17 -91 l-3 -91 -60 88 c-33 48 -66 90 -72 92 -10 3 -13 -25 -13 -117z"/>
<path d="M2259 7027 c31 -57 41 -85 41 -121 0 -34 4 -46 15 -46 10 0 15 11 15
35 0 21 16 67 40 115 45 90 45 90 25 90 -8 0 -15 -3 -15 -7 0 -5 -14 -32 -31
-62 l-31 -54 -32 59 c-18 34 -39 60 -50 62 -15 3 -12 -8 23 -71z"/>
<path d="M2937 7093 c-10 -10 -8 -63 2 -63 11 0 21 25 21 51 0 19 -11 25 -23
12z"/>
<path d="M3237 7093 c-4 -3 -7 -58 -7 -121 l0 -114 65 4 c54 3 70 9 91 30 56
55 38 165 -31 194 -36 14 -107 19 -118 7z m128 -48 c19 -18 25 -35 25 -65 0
-56 -34 -90 -90 -90 l-40 0 0 90 0 90 40 0 c30 0 47 -7 65 -25z"/>
<path d="M1727 7017 c-38 -27 -38 -117 0 -144 25 -19 77 -16 96 5 21 23 21 32
2 32 -8 0 -15 -4 -15 -9 0 -16 -38 -23 -60 -11 -11 6 -20 20 -20 30 0 18 7 20
61 20 l61 0 -7 28 c-3 15 -14 35 -22 45 -19 20 -72 23 -96 4z m75 -24 c28 -25
22 -33 -27 -33 -48 0 -62 19 -27 39 24 14 33 13 54 -6z"/>
<path d="M1899 6945 c32 -105 51 -113 77 -30 10 30 21 55 24 55 3 0 14 -25 24
-56 24 -75 42 -69 73 20 26 78 28 99 11 94 -6 -2 -20 -28 -30 -58 -10 -29 -20
-55 -22 -57 -2 -2 -13 22 -23 54 -27 79 -45 80 -68 3 -10 -33 -21 -58 -24 -55
-3 4 -12 29 -21 58 -9 31 -22 53 -32 55 -13 3 -12 -10 11 -83z"/>
<path d="M2443 7015 c-30 -21 -39 -74 -19 -113 17 -33 34 -42 75 -42 25 0 61
26 61 43 0 13 -27 7 -40 -8 -17 -21 -36 -19 -60 5 -29 29 -17 40 46 40 51 0
54 1 54 25 0 54 -69 84 -117 50z m68 -15 c36 -20 23 -40 -26 -40 -42 0 -45 2
-35 19 8 16 21 26 38 30 2 1 12 -4 23 -9z"/>
<path d="M2629 7011 c-31 -25 -34 -98 -5 -130 21 -24 74 -28 95 -8 11 10 14
10 18 0 3 -7 11 -13 19 -13 12 0 14 16 13 85 -1 62 -5 85 -14 85 -8 0 -15 -6
-18 -12 -4 -10 -7 -10 -18 0 -19 18 -63 15 -90 -7z m83 -18 c35 -31 15 -113
-28 -113 -22 0 -54 38 -54 65 0 26 31 65 52 65 6 0 20 -7 30 -17z"/>
<path d="M2810 6945 c0 -69 3 -85 15 -85 12 0 15 13 15 58 0 60 11 82 42 82
10 0 18 7 18 15 0 18 -31 20 -48 3 -9 -9 -12 -9 -12 0 0 7 -7 12 -15 12 -12 0
-15 -16 -15 -85z"/>
<path d="M3006 7014 c-25 -24 -19 -52 14 -69 16 -8 36 -15 44 -15 21 0 30 -19
16 -35 -16 -19 -35 -19 -54 0 -16 17 -36 20 -36 6 0 -20 33 -41 65 -41 26 0
39 6 50 24 23 34 6 62 -46 76 -29 8 -39 16 -37 28 4 23 32 27 51 7 17 -17 37
-20 37 -6 0 19 -32 41 -60 41 -16 0 -36 -7 -44 -16z"/>
<path d="M3481 7004 c-44 -56 -12 -144 53 -144 17 0 37 5 44 12 9 9 12 9 12 0
0 -7 7 -12 15 -12 12 0 15 16 15 85 0 69 -3 85 -15 85 -8 0 -15 -5 -15 -12 0
-9 -3 -9 -12 0 -22 22 -75 14 -97 -14z m87 -10 c41 -28 19 -114 -29 -114 -22
0 -49 37 -49 67 0 22 31 63 48 63 4 0 18 -7 30 -16z"/>
<path d="M3660 7020 c0 -5 14 -44 31 -87 l31 -78 -22 -17 c-12 -10 -28 -18
-36 -18 -8 0 -14 -4 -14 -10 0 -15 43 -12 67 5 12 8 36 55 57 108 41 105 41
107 22 107 -7 0 -24 -29 -38 -67 l-25 -68 -24 68 c-13 37 -29 67 -36 67 -7 0
-13 -4 -13 -10z"/>
<path d="M680 6030 c-15 -15 -20 -33 -20 -70 l0 -49 -72 -38 c-72 -37 -73 -39
-76 -80 -4 -49 -5 -48 86 -29 58 13 62 12 62 -5 0 -9 -7 -24 -15 -33 -17 -16
-21 -96 -5 -96 6 0 26 7 45 14 31 13 39 13 70 0 19 -7 39 -14 45 -14 15 0 12
74 -5 96 -8 10 -15 26 -15 35 0 15 6 15 63 3 90 -19 89 -20 85 29 -3 41 -4 43
-75 80 l-73 38 0 49 c0 55 -24 90 -60 90 -11 0 -29 -9 -40 -20z m68 -78 l3
-63 74 -37 c48 -23 75 -42 75 -53 0 -15 -6 -15 -62 -3 -35 7 -69 13 -75 14
-19 0 -17 -84 2 -100 22 -18 20 -44 -2 -34 -10 4 -29 8 -43 8 -14 0 -33 -4
-42 -8 -23 -10 -25 16 -3 34 16 14 21 85 6 94 -5 4 -39 0 -75 -8 -60 -12 -66
-12 -66 3 0 11 27 30 75 54 l75 37 0 58 c0 65 5 74 35 70 17 -3 20 -11 23 -66z"/>
<path d="M7188 5938 l-3 -83 -82 -3 c-46 -2 -83 -7 -83 -12 0 -5 37 -10 83
-12 l82 -3 3 -82 c2 -46 7 -83 12 -83 5 0 10 37 12 83 l3 82 83 3 c45 2 82 7
82 12 0 5 -37 10 -82 12 l-83 3 -3 83 c-2 45 -7 82 -12 82 -5 0 -10 -37 -12
-82z"/>
<path d="M1457 5973 c-16 -15 -5 -23 33 -23 l40 0 0 -105 c0 -87 3 -105 15
-105 12 0 15 18 15 105 l0 105 35 0 c24 0 35 5 35 15 0 12 -16 15 -83 15 -46
0 -87 -3 -90 -7z"/>
<path d="M2330 5860 c0 -100 3 -120 15 -120 13 0 15 20 15 120 0 100 -2 120
-15 120 -12 0 -15 -20 -15 -120z"/>
<path d="M2900 5860 l0 -120 75 0 c60 0 75 3 75 15 0 12 -13 15 -60 15 l-60 0
0 105 c0 87 -3 105 -15 105 -12 0 -15 -20 -15 -120z"/>
<path d="M3600 5935 c0 -42 -2 -45 -19 -35 -34 18 -68 12 -90 -16 -44 -56 -12
-144 53 -144 17 0 37 5 44 12 9 9 12 9 12 0 0 -7 7 -12 15 -12 13 0 15 20 15
120 0 100 -2 120 -15 120 -11 0 -15 -12 -15 -45z m-20 -65 c11 -11 20 -30 20
-43 0 -29 -27 -67 -47 -67 -50 0 -73 85 -31 114 29 20 34 20 58 -4z"/>
<path d="M2500 5930 c0 -12 -7 -20 -16 -20 -9 0 -14 -5 -12 -11 2 -6 8 -9 13
-7 6 2 13 -28 16 -65 4 -43 11 -72 20 -78 17 -11 59 -12 59 -1 0 4 -10 12 -22
17 -20 9 -23 18 -23 65 0 47 3 55 19 55 11 0 21 6 23 13 3 7 -5 12 -21 12 -19
0 -26 5 -26 20 0 11 -7 20 -15 20 -8 0 -15 -9 -15 -20z"/>
<path d="M1650 5824 c0 -68 3 -84 15 -84 11 0 15 13 15 54 0 70 7 86 36 86 14
0 24 6 24 15 0 10 -12 14 -45 13 l-45 -1 0 -83z"/>
<path d="M1782 5887 c-31 -33 -30 -96 1 -125 25 -24 57 -28 88 -12 13 7 19 7
19 0 0 -5 7 -10 15 -10 12 0 15 16 15 85 0 69 -3 85 -15 85 -8 0 -15 -5 -15
-10 0 -7 -6 -7 -19 0 -32 16 -66 12 -89 -13z m88 -17 c11 -11 20 -31 20 -45 0
-26 -31 -65 -52 -65 -42 0 -63 76 -31 112 21 23 38 23 63 -2z"/>
<path d="M1951 5903 c2 -5 17 -43 33 -86 22 -58 33 -77 47 -77 11 0 19 2 19 4
0 3 14 41 30 86 25 69 27 81 14 78 -10 -2 -25 -26 -37 -60 -12 -32 -24 -58
-27 -58 -3 0 -15 26 -27 58 -13 36 -27 58 -38 60 -9 2 -16 0 -14 -5z"/>
<path d="M2167 5897 c-38 -27 -38 -117 0 -144 25 -19 77 -16 96 5 21 23 21 32
2 32 -8 0 -15 -4 -15 -9 0 -16 -38 -23 -60 -11 -11 6 -20 20 -20 30 0 18 7 20
61 20 l61 0 -7 28 c-3 15 -14 35 -22 45 -19 20 -72 23 -96 4z m75 -24 c28 -25
22 -33 -27 -33 -48 0 -62 19 -27 39 24 14 33 13 54 -6z"/>
<path d="M2640 5890 c-27 -27 -35 -65 -20 -101 15 -34 37 -49 75 -49 38 0 60
15 75 49 24 60 -14 121 -75 121 -22 0 -43 -8 -55 -20z m83 -12 c28 -22 32 -73
8 -97 -39 -39 -85 -16 -85 44 0 54 39 81 77 53z"/>
<path d="M3101 5884 c-12 -15 -21 -41 -21 -59 0 -50 33 -85 80 -85 47 0 80 35
80 85 0 50 -33 85 -80 85 -30 0 -43 -6 -59 -26z m87 -10 c32 -22 30 -78 -3
-100 -23 -15 -27 -15 -50 0 -33 22 -35 78 -3 100 12 9 25 16 28 16 3 0 16 -7
28 -16z"/>
<path d="M3290 5825 c0 -69 3 -85 15 -85 12 0 15 14 15 65 0 53 3 66 19 75 42
22 61 -7 61 -92 0 -38 4 -48 16 -48 14 0 16 10 12 70 -3 38 -11 77 -18 85 -15
18 -61 20 -78 3 -9 -9 -12 -9 -12 0 0 7 -7 12 -15 12 -12 0 -15 -16 -15 -85z"/>
<path d="M3701 5886 c-51 -54 -15 -146 56 -146 47 0 83 37 83 85 0 75 -89 114
-139 61z m89 -16 c11 -11 20 -31 20 -45 0 -26 -31 -65 -52 -65 -46 0 -66 87
-26 114 29 20 34 20 58 -4z"/>
<path d="M3890 5893 c-1 -10 -2 -48 -3 -86 -2 -57 0 -67 15 -67 14 0 18 12 20
66 2 49 7 70 20 77 31 20 48 -8 48 -79 0 -50 3 -64 15 -64 22 0 21 132 -1 154
-19 19 -55 21 -73 4 -11 -10 -14 -10 -18 0 -7 18 -23 15 -23 -5z"/>
<path d="M660 4907 c-14 -7 -26 -21 -28 -32 -2 -16 -11 -20 -47 -20 -24 0 -46
-3 -49 -6 -7 -7 -10 -108 -8 -221 l2 -68 190 0 190 0 2 68 c1 55 1 145 -2 210
0 7 -14 12 -34 12 -44 0 -66 9 -66 26 0 38 -97 58 -150 31z m104 -23 c9 -3 16
-11 16 -18 0 -7 -20 -10 -60 -8 -56 4 -76 14 -47 25 18 8 73 8 91 1z m111 -66
c2 -1 5 -19 7 -38 3 -33 1 -35 -42 -52 -58 -22 -172 -23 -233 -2 -42 14 -47
19 -47 45 0 16 0 32 -1 37 0 4 10 9 22 12 24 6 288 4 294 -2z m-155 -138 c37
0 89 7 116 15 27 8 50 15 50 15 1 0 1 -26 0 -57 l-1 -58 -165 0 -165 0 -3 24
c-2 13 -1 38 2 56 l7 33 46 -14 c25 -8 76 -14 113 -14z"/>
<path d="M689 4759 c-19 -11 -6 -20 30 -21 51 -2 58 21 8 26 -14 2 -31 -1 -38
-5z"/>
<path d="M7188 4818 l-3 -83 -82 -3 c-46 -2 -83 -7 -83 -12 0 -5 37 -10 83
-12 l82 -3 3 -82 c2 -46 7 -83 12 -83 5 0 10 37 12 83 l3 82 83 3 c45 2 82 7
82 12 0 5 -37 10 -82 12 l-83 3 -3 83 c-2 45 -7 82 -12 82 -5 0 -10 -37 -12
-82z"/>
<path d="M1457 4853 c-16 -15 -5 -23 33 -23 l40 0 0 -105 c0 -87 3 -105 15
-105 12 0 15 18 15 105 l0 105 35 0 c24 0 35 5 35 15 0 12 -16 15 -83 15 -46
0 -87 -3 -90 -7z"/>
<path d="M3202 4843 c4 -21 33 -25 33 -3 0 8 -8 16 -18 18 -14 3 -18 -1 -15
-15z"/>
<path d="M3080 4810 c0 -11 -7 -20 -15 -20 -8 0 -15 -4 -15 -9 0 -5 7 -11 15
-15 11 -4 15 -21 15 -64 0 -65 11 -82 52 -82 35 0 37 16 3 24 -23 6 -25 11
-25 65 0 48 3 59 16 57 9 0 19 5 21 12 3 7 -4 12 -16 12 -14 0 -21 6 -21 20 0
11 -7 20 -15 20 -8 0 -15 -9 -15 -20z"/>
<path d="M1661 4764 c-12 -15 -21 -41 -21 -59 0 -50 33 -85 80 -85 29 0 43 6
55 22 19 28 2 37 -24 14 -23 -21 -44 -20 -64 2 -30 33 -21 42 43 42 56 0 60 2
60 23 0 63 -90 91 -129 41z m80 -4 c36 -20 23 -40 -26 -40 -49 0 -53 4 -28 32
19 21 27 22 54 8z"/>
<path d="M1851 4764 c-44 -56 -12 -144 53 -144 17 0 37 5 44 12 9 9 12 9 12 0
0 -7 7 -12 15 -12 12 0 15 16 15 85 0 69 -3 85 -15 85 -8 0 -15 -5 -15 -12 0
-9 -3 -9 -12 0 -22 22 -75 14 -97 -14z m91 -11 c36 -32 13 -113 -33 -113 -22
0 -49 37 -49 67 0 24 32 63 52 63 6 0 20 -7 30 -17z"/>
<path d="M2040 4705 c0 -69 3 -85 15 -85 12 0 15 14 15 65 0 55 3 66 21 75 35
19 49 -3 49 -76 0 -50 3 -64 15 -64 11 0 15 13 15 53 0 50 19 97 40 97 25 0
40 -34 40 -91 0 -46 3 -59 15 -59 21 0 21 117 -1 148 -18 26 -65 30 -84 7 -11
-13 -14 -13 -27 0 -17 18 -55 19 -71 3 -9 -9 -12 -9 -12 0 0 7 -7 12 -15 12
-12 0 -15 -16 -15 -85z"/>
<path d="M2400 4705 c0 -69 3 -85 15 -85 12 0 15 14 15 65 0 55 3 66 21 75 35
19 49 -3 49 -76 0 -50 3 -64 15 -64 11 0 15 13 15 53 0 55 20 97 45 97 22 0
35 -34 35 -94 0 -43 3 -56 15 -56 21 0 21 117 -1 148 -18 26 -65 30 -84 7 -11
-13 -14 -13 -27 0 -17 18 -55 19 -71 3 -9 -9 -12 -9 -12 0 0 7 -7 12 -15 12
-12 0 -15 -16 -15 -85z"/>
<path d="M2701 4764 c-12 -15 -21 -41 -21 -59 0 -50 33 -85 80 -85 29 0 43 6
55 22 19 28 2 37 -24 14 -23 -21 -44 -20 -64 2 -30 33 -21 42 43 42 56 0 60 2
60 23 0 63 -90 91 -129 41z m80 -4 c36 -20 23 -40 -26 -40 -49 0 -53 4 -28 32
19 21 27 22 54 8z"/>
<path d="M2891 4764 c-65 -83 38 -195 111 -122 26 26 7 39 -21 14 -23 -21 -44
-20 -64 2 -30 33 -21 42 43 42 56 0 60 2 60 23 0 63 -90 91 -129 41z m80 -4
c36 -20 23 -40 -26 -40 -49 0 -53 4 -28 32 19 21 27 22 54 8z"/>
<path d="M3200 4705 c0 -69 3 -85 15 -85 12 0 15 16 15 85 0 69 -3 85 -15 85
-12 0 -15 -16 -15 -85z"/>
<path d="M3280 4705 c0 -69 3 -85 15 -85 11 0 15 13 15 54 0 66 27 108 57 90
14 -9 19 -26 21 -78 2 -50 6 -66 17 -66 24 0 21 132 -3 153 -22 20 -63 22 -80
5 -9 -9 -12 -9 -12 0 0 7 -7 12 -15 12 -12 0 -15 -16 -15 -85z"/>
<path d="M3487 4772 c-61 -67 1 -179 80 -143 33 15 40 8 19 -24 -19 -28 -57
-33 -76 -10 -13 16 -40 20 -40 7 0 -12 30 -37 54 -46 10 -3 34 -2 52 4 42 14
54 49 54 151 0 62 -3 79 -14 79 -8 0 -16 -6 -19 -12 -4 -10 -7 -10 -18 0 -19
18 -73 15 -92 -6z m87 -18 c19 -18 21 -75 4 -92 -7 -7 -24 -12 -39 -12 -20 0
-30 7 -38 28 -25 61 31 119 73 76z"/>
<path d="M637 3757 c-10 -16 -26 -24 -52 -25 -21 -2 -42 -5 -47 -8 -11 -7 -10
-271 1 -278 4 -3 86 -6 180 -7 122 -1 176 2 184 10 15 15 22 193 10 241 -8 31
-14 35 -54 42 -27 5 -49 15 -58 28 -11 17 -24 20 -81 20 -60 0 -70 -3 -83 -23z
m154 -31 c12 -16 27 -22 44 -21 45 5 55 -16 55 -126 0 -94 -1 -100 -22 -107
-13 -4 -88 -5 -168 -2 l-145 5 -3 97 c-3 115 5 137 49 134 22 -2 35 4 47 21
14 18 27 22 71 23 44 0 56 -4 72 -24z"/>
<path d="M662 3647 c-59 -63 9 -160 88 -127 36 15 50 37 50 78 0 65 -92 98
-138 49z m96 -19 c28 -28 2 -88 -38 -88 -40 0 -66 60 -38 88 7 7 24 12 38 12
14 0 31 -5 38 -12z"/>
<path d="M7188 3698 l-3 -83 -82 -3 c-46 -2 -83 -7 -83 -12 0 -5 37 -10 83
-12 l82 -3 3 -82 c2 -46 7 -83 12 -83 5 0 10 37 12 83 l3 82 83 3 c45 2 82 7
82 12 0 5 -37 10 -82 12 l-83 3 -3 83 c-2 45 -7 82 -12 82 -5 0 -10 -37 -12
-82z"/>
<path d="M1453 3728 c3 -7 22 -62 42 -121 33 -95 40 -108 58 -105 17 2 29 23
59 108 41 117 44 130 25 130 -7 0 -28 -44 -48 -102 l-36 -101 -28 79 c-16 43
-32 89 -36 102 -5 12 -16 22 -25 22 -8 0 -13 -6 -11 -12z"/>
<path d="M1690 3726 c0 -21 21 -31 30 -15 5 7 6 17 4 21 -9 14 -34 9 -34 -6z"/>
<path d="M1900 3693 c0 -37 -3 -44 -12 -35 -22 22 -75 14 -97 -14 -44 -56 -12
-144 53 -144 17 0 37 5 44 12 9 9 12 9 12 0 0 -7 7 -12 15 -12 13 0 15 20 15
120 0 100 -2 120 -15 120 -11 0 -15 -12 -15 -47z m-22 -59 c39 -27 20 -114
-25 -114 -22 0 -53 38 -53 65 0 23 31 65 48 65 4 0 18 -7 30 -16z"/>
<path d="M2860 3620 c0 -100 3 -120 15 -120 13 0 15 20 15 120 0 100 -2 120
-15 120 -12 0 -15 -20 -15 -120z"/>
<path d="M2940 3620 c0 -100 3 -120 15 -120 13 0 15 20 15 120 0 100 -2 120
-15 120 -12 0 -15 -20 -15 -120z"/>
<path d="M3370 3726 c0 -21 21 -31 30 -15 5 7 6 17 4 21 -9 14 -34 9 -34 -6z"/>
<path d="M3590 3620 c0 -100 3 -120 15 -120 11 0 15 13 15 54 0 66 27 108 57
90 14 -9 19 -26 21 -78 2 -50 6 -66 17 -66 24 0 21 132 -3 153 -22 20 -63 22
-80 5 -9 -9 -12 -2 -12 35 0 35 -4 47 -15 47 -12 0 -15 -20 -15 -120z"/>
<path d="M3470 3690 c0 -12 -7 -20 -16 -20 -9 0 -14 -6 -11 -12 2 -7 10 -12
16 -10 7 1 11 -18 11 -54 0 -71 12 -94 50 -94 36 0 39 15 5 24 -23 6 -25 11
-25 61 0 52 5 61 33 56 4 0 7 6 7 14 0 8 -9 15 -20 15 -13 0 -20 7 -20 20 0
11 -7 20 -15 20 -8 0 -15 -9 -15 -20z"/>
<path d="M1690 3585 c0 -69 3 -85 15 -85 12 0 15 16 15 85 0 69 -3 85 -15 85
-12 0 -15 -16 -15 -85z"/>
<path d="M2001 3644 c-65 -83 38 -195 111 -122 26 26 7 39 -21 14 -23 -21 -44
-20 -64 2 -30 33 -21 42 43 42 57 0 60 1 60 25 0 62 -90 89 -129 39z m80 -4
c36 -20 23 -40 -26 -40 -50 0 -57 11 -23 34 27 19 24 19 49 6z"/>
<path d="M2195 3645 c-53 -52 -16 -145 58 -145 74 0 107 90 54 148 -28 31 -80
30 -112 -3z m83 -12 c41 -35 24 -113 -24 -113 -22 0 -54 38 -54 65 0 24 31 65
49 65 5 0 18 -8 29 -17z"/>
<path d="M2475 3645 c-53 -52 -18 -145 54 -145 37 0 71 23 71 48 0 18 -11 15
-37 -10 -22 -21 -26 -21 -51 -7 -40 22 -43 81 -7 105 25 16 27 16 55 -5 16
-11 32 -21 35 -21 12 0 4 28 -13 43 -28 25 -78 21 -107 -8z"/>
<path d="M2677 3658 c-26 -19 -36 -68 -23 -108 14 -43 52 -60 96 -43 17 6 30
7 30 2 0 -5 7 -9 15 -9 12 0 15 16 15 85 0 69 -3 85 -15 85 -8 0 -15 -5 -15
-10 0 -7 -6 -7 -19 0 -26 14 -64 13 -84 -2z m73 -18 c23 -12 33 -52 21 -83
-18 -47 -76 -46 -88 1 -9 34 -5 52 14 75 18 20 27 21 53 7z"/>
<path d="M3083 3658 c2 -7 15 -46 28 -85 30 -94 48 -96 75 -10 l20 62 21 -60
c28 -86 45 -84 77 12 30 90 30 93 13 93 -8 0 -22 -26 -32 -60 -10 -33 -21 -58
-24 -54 -3 3 -13 29 -21 57 -22 73 -44 74 -66 3 -10 -31 -21 -56 -24 -56 -3 0
-14 25 -24 55 -11 36 -22 55 -33 55 -8 0 -13 -6 -10 -12z"/>
<path d="M3370 3585 c0 -69 3 -85 15 -85 12 0 15 16 15 85 0 69 -3 85 -15 85
-12 0 -15 -16 -15 -85z"/>
<path d="M3850 3585 c0 -69 3 -85 15 -85 12 0 15 13 15 59 0 55 15 91 38 91
25 -1 36 -24 40 -84 3 -48 8 -66 18 -66 10 0 14 16 14 64 0 71 17 99 48 79 13
-7 18 -28 20 -77 2 -50 6 -66 17 -66 24 0 21 132 -3 153 -22 20 -63 22 -80 5
-9 -9 -15 -9 -24 0 -15 15 -61 15 -76 0 -9 -9 -12 -9 -12 0 0 7 -7 12 -15 12
-12 0 -15 -16 -15 -85z"/>
<path d="M4160 3650 c-27 -27 -35 -65 -20 -101 15 -34 37 -49 75 -49 38 0 60
15 75 49 24 60 -14 121 -75 121 -22 0 -43 -8 -55 -20z m92 -19 c4 -4 10 -21
14 -38 5 -24 1 -36 -15 -52 -25 -25 -40 -26 -66 -7 -26 19 -26 83 0 102 18 13
50 11 67 -5z"/>
<path d="M4340 3585 c0 -69 3 -85 15 -85 12 0 15 13 15 59 0 55 15 91 38 91
25 -1 36 -24 40 -84 3 -48 8 -66 18 -66 11 0 14 16 14 65 0 55 3 66 21 75 35
19 49 -3 49 -76 0 -50 3 -64 15 -64 24 0 21 131 -3 153 -22 20 -63 22 -80 5
-9 -9 -15 -9 -24 0 -15 15 -61 15 -76 0 -9 -9 -12 -9 -12 0 0 7 -7 12 -15 12
-12 0 -15 -16 -15 -85z"/>
<path d="M577 2646 c-14 -13 -29 -36 -33 -51 -10 -40 4 -149 27 -209 35 -96
92 -132 104 -67 13 64 20 76 45 76 22 0 27 -7 37 -49 19 -78 47 -82 88 -12 45
76 69 230 44 279 -25 50 -46 57 -170 57 -109 0 -118 -1 -142 -24z m270 -31
c24 -27 25 -34 19 -97 -6 -71 -38 -169 -60 -187 -11 -9 -15 -4 -19 25 -8 46
-33 74 -67 74 -34 0 -57 -25 -68 -76 l-8 -39 -22 35 c-28 44 -41 89 -49 167
-5 49 -2 68 11 88 25 38 50 45 149 42 85 -2 90 -3 114 -32z"/>
<path d="M630 2600 c0 -6 9 -14 20 -17 11 -3 20 -9 20 -13 0 -4 -9 -10 -20
-13 -36 -9 -24 -30 13 -22 17 5 43 8 57 8 14 0 40 -3 58 -8 36 -8 48 13 12 22
-11 3 -20 9 -20 13 0 4 9 10 20 13 36 9 24 30 -12 22 -18 -5 -44 -8 -58 -8
-14 0 -40 3 -57 8 -24 5 -33 4 -33 -5z"/>
<path d="M7188 2578 l-3 -83 -82 -3 c-46 -2 -83 -7 -83 -12 0 -5 37 -10 83
-12 l82 -3 3 -82 c2 -46 7 -83 12 -83 5 0 10 37 12 83 l3 82 83 3 c45 2 82 7
82 12 0 5 -37 10 -82 12 l-83 3 -3 83 c-2 45 -7 82 -12 82 -5 0 -10 -37 -12
-82z"/>
<path d="M1470 2500 l0 -120 56 0 c50 0 59 3 90 34 29 29 34 41 34 83 0 29 -7
58 -16 72 -21 30 -72 51 -124 51 l-40 0 0 -120z m125 65 c32 -31 34 -91 4
-129 -16 -20 -29 -26 -60 -26 l-39 0 0 90 0 90 35 0 c25 0 44 -8 60 -25z"/>
<path d="M2204 2609 c-10 -17 13 -36 27 -22 12 12 4 33 -11 33 -5 0 -12 -5
-16 -11z"/>
<path d="M3484 2609 c-3 -6 -2 -15 4 -21 13 -13 32 -2 32 18 0 16 -26 19 -36
3z"/>
<path d="M2080 2570 c0 -12 -7 -20 -16 -20 -9 0 -14 -5 -12 -11 2 -6 8 -9 13
-7 6 2 13 -28 16 -65 4 -43 11 -72 20 -78 17 -11 59 -12 59 -1 0 4 -10 12 -22
17 -20 9 -23 18 -23 65 0 48 3 55 19 55 11 0 21 6 24 13 2 7 -6 12 -22 12 -19
0 -26 5 -26 20 0 11 -7 20 -15 20 -8 0 -15 -9 -15 -20z"/>
<path d="M2460 2570 c0 -12 -7 -20 -16 -20 -9 0 -14 -6 -11 -12 2 -7 10 -12
16 -10 7 1 11 -16 11 -47 0 -74 13 -101 50 -101 36 0 39 11 8 25 -20 9 -23 18
-23 65 0 47 3 55 19 55 11 0 21 6 23 13 3 7 -5 12 -21 12 -19 0 -26 5 -26 20
0 11 -7 20 -15 20 -8 0 -15 -9 -15 -20z"/>
<path d="M3760 2570 c0 -11 -7 -20 -15 -20 -8 0 -15 -5 -15 -10 0 -6 7 -13 15
-16 11 -4 15 -21 15 -56 0 -65 13 -88 50 -88 37 0 39 15 5 24 -25 6 -26 10
-23 64 2 41 7 57 17 57 8 0 16 6 19 13 2 7 -5 12 -17 12 -14 0 -21 6 -21 20 0
11 -7 20 -15 20 -8 0 -15 -9 -15 -20z"/>
<path d="M4550 2570 c0 -11 -7 -20 -15 -20 -19 0 -20 -16 -1 -23 9 -4 15 -27
18 -67 3 -38 10 -65 19 -71 17 -11 59 -12 59 -1 0 4 -10 12 -22 17 -20 9 -23
18 -23 65 0 49 2 55 23 58 30 5 28 22 -3 22 -18 0 -25 5 -25 20 0 11 -7 20
-15 20 -8 0 -15 -9 -15 -20z"/>
<path d="M1723 2535 c-30 -21 -39 -74 -19 -113 17 -33 34 -42 75 -42 25 0 61
26 61 43 0 13 -27 7 -40 -8 -17 -21 -36 -19 -60 5 -29 29 -17 40 46 40 51 0
54 1 54 25 0 54 -69 84 -117 50z m68 -15 c36 -20 23 -40 -26 -40 -42 0 -45 2
-35 19 8 16 21 26 38 30 2 1 12 -4 23 -9z"/>
<path d="M1890 2465 c0 -69 3 -85 15 -85 12 0 15 14 15 65 0 53 3 66 19 75 42
22 61 -7 61 -92 0 -38 4 -48 16 -48 14 0 16 10 12 70 -3 38 -11 77 -18 85 -15
18 -61 20 -78 3 -9 -9 -12 -9 -12 0 0 7 -7 12 -15 12 -12 0 -15 -16 -15 -85z"/>
<path d="M2207 2543 c-2 -4 -5 -43 -6 -85 -2 -74 -1 -78 19 -78 21 0 21 4 18
82 -2 50 -7 83 -15 85 -6 2 -13 0 -16 -4z"/>
<path d="M2296 2531 c-27 -29 -12 -57 37 -74 23 -7 43 -21 45 -29 5 -24 -36
-33 -57 -14 -19 17 -41 21 -41 8 0 -18 38 -42 67 -42 34 0 66 30 61 56 -3 16
-21 29 -76 53 -18 8 -18 23 1 35 11 7 21 5 35 -7 23 -21 32 -22 32 -2 0 35
-76 47 -104 16z"/>
<path d="M2679 2531 c-19 -15 -24 -29 -24 -66 0 -37 5 -51 24 -66 27 -22 71
-25 90 -6 11 10 14 10 18 0 3 -7 11 -13 18 -13 10 0 13 19 12 81 -1 78 -11
106 -28 78 -6 -11 -11 -11 -21 -1 -18 18 -63 15 -89 -7z m83 -18 c35 -31 15
-113 -28 -113 -22 0 -54 38 -54 65 0 26 31 65 52 65 6 0 20 -7 30 -17z"/>
<path d="M2860 2435 c0 -96 3 -115 15 -115 11 0 15 11 15 40 0 38 12 52 25 30
8 -13 51 -13 75 0 44 24 45 126 0 150 -26 14 -63 13 -79 -2 -11 -10 -14 -10
-18 0 -3 6 -11 12 -19 12 -11 0 -14 -22 -14 -115z m114 80 c50 -50 6 -137 -52
-106 -25 14 -36 55 -21 84 21 39 47 47 73 22z"/>
<path d="M3070 2435 c0 -96 3 -115 15 -115 11 0 15 11 15 40 0 38 12 52 25 30
8 -13 51 -13 75 0 44 24 45 126 0 150 -26 14 -63 13 -79 -2 -11 -10 -14 -10
-18 0 -3 6 -11 12 -19 12 -11 0 -14 -22 -14 -115z m106 87 c37 -25 39 -93 2
-113 -44 -24 -93 35 -67 83 13 25 28 38 44 38 6 0 15 -4 21 -8z"/>
<path d="M3301 2526 c-52 -55 -15 -146 60 -146 46 0 79 36 79 87 0 73 -90 111
-139 59z m89 -16 c11 -11 20 -31 20 -45 0 -26 -31 -65 -52 -65 -46 0 -66 87
-26 114 29 20 34 20 58 -4z"/>
<path d="M3490 2465 c0 -69 3 -85 15 -85 12 0 15 16 15 85 0 69 -3 85 -15 85
-12 0 -15 -16 -15 -85z"/>
<path d="M3570 2465 c0 -69 3 -85 15 -85 12 0 15 14 15 65 0 53 3 66 19 75 42
22 61 -7 61 -92 0 -36 4 -48 15 -48 19 0 21 103 2 140 -14 28 -59 39 -83 19
-10 -8 -14 -8 -14 0 0 6 -7 11 -15 11 -12 0 -15 -16 -15 -85z"/>
<path d="M3880 2465 c0 -69 3 -85 15 -85 12 0 15 13 15 59 0 55 15 91 38 91
25 -1 36 -24 40 -84 3 -48 8 -66 18 -66 11 0 14 16 14 65 0 55 3 66 21 75 35
19 49 -3 49 -76 0 -50 3 -64 15 -64 24 0 21 131 -3 153 -22 20 -63 22 -80 5
-9 -9 -15 -9 -24 0 -7 7 -24 12 -38 12 -14 0 -31 -5 -38 -12 -9 -9 -12 -9 -12
0 0 7 -7 12 -15 12 -12 0 -15 -16 -15 -85z"/>
<path d="M4202 2543 c-23 -9 -44 -64 -37 -99 7 -40 38 -64 81 -64 27 0 64 25
64 43 0 13 -27 7 -40 -8 -17 -21 -36 -19 -60 5 -29 29 -17 40 46 40 51 0 54 1
54 25 0 47 -57 79 -108 58z m59 -23 c36 -20 23 -40 -26 -40 -42 0 -45 2 -35
19 8 16 21 26 38 30 2 1 12 -4 23 -9z"/>
<path d="M4360 2465 c0 -69 3 -85 15 -85 12 0 15 14 15 65 0 53 3 66 19 75 42
22 61 -7 61 -92 0 -36 4 -48 15 -48 19 0 21 103 2 140 -14 28 -59 39 -83 19
-10 -8 -14 -8 -14 0 0 6 -7 11 -15 11 -12 0 -15 -16 -15 -85z"/>
<path d="M6340 1831 c0 -6 4 -13 10 -16 6 -3 7 1 4 9 -7 18 -14 21 -14 7z"/>
<path d="M6335 910 c3 -5 8 -10 11 -10 2 0 4 5 4 10 0 6 -5 10 -11 10 -5 0 -7
-4 -4 -10z"/>
</g>
</svg>
