<?xml version="1.0" standalone="no"?>
<!DOCTYPE svg PUBLIC "-//W3C//DTD SVG 20010904//EN"
 "http://www.w3.org/TR/2001/REC-SVG-20010904/DTD/svg10.dtd">
<svg version="1.0" xmlns="http://www.w3.org/2000/svg"
 width="780.000000pt" height="1688.000000pt" viewBox="0 0 780.000000 1688.000000"
 preserveAspectRatio="xMidYMid meet">

<g transform="translate(0.000000,1688.000000) scale(0.100000,-0.100000)"
fill="#000000" stroke="none">
<path d="M415 16220 c-4 -6 22 -39 56 -75 l62 -65 -63 -66 c-49 -50 -60 -68
-51 -77 9 -9 26 4 76 57 l63 70 65 -68 c37 -38 70 -65 76 -62 15 9 0 36 -36
68 -16 13 -39 36 -52 51 l-24 27 62 65 c53 55 69 85 44 85 -3 0 -34 -29 -69
-65 l-65 -65 -63 65 c-65 68 -71 71 -81 55z"/>
<path d="M3080 16095 l0 -135 25 0 c23 0 24 2 27 82 l3 83 58 -83 c46 -65 63
-82 82 -82 l25 0 0 135 0 135 -25 0 c-24 0 -24 -2 -27 -87 l-3 -86 -59 86
c-46 67 -65 87 -83 87 -23 0 -23 0 -23 -135z"/>
<path d="M3930 16205 c0 -23 4 -25 40 -25 l40 0 0 -110 0 -110 30 0 30 0 0
110 0 110 41 0 c36 0 40 2 37 23 -3 21 -8 22 -110 25 l-108 3 0 -26z"/>
<path d="M4560 16095 l0 -135 24 0 c22 0 25 5 28 43 l3 42 30 -42 c25 -35 36
-43 63 -43 l34 0 -36 49 c-20 27 -36 53 -36 58 0 5 14 22 30 38 37 35 38 45 4
45 -18 0 -37 -12 -60 -37 l-33 -38 -1 78 c0 75 -1 77 -25 77 l-25 0 0 -135z"/>
<path d="M3373 16135 c-34 -24 -47 -76 -29 -118 17 -42 41 -57 91 -57 26 0 43
8 63 28 l27 27 -24 3 c-13 2 -35 -2 -48 -9 -25 -14 -53 -5 -61 19 -2 8 16 12
62 12 60 0 66 2 66 20 0 29 -26 76 -45 84 -29 11 -80 6 -102 -9z m86 -38 c15
-19 4 -27 -36 -27 -31 0 -44 16 -26 33 11 12 50 8 62 -6z"/>
<path d="M3540 16123 c54 -171 50 -163 81 -163 26 0 30 5 40 45 6 25 15 48 19
50 5 3 14 -18 21 -45 12 -48 15 -51 43 -48 29 3 32 8 57 88 34 106 34 102 2
98 -23 -3 -29 -11 -43 -63 l-17 -60 -18 63 c-17 58 -20 63 -44 60 -22 -3 -28
-11 -41 -55 -8 -29 -17 -53 -21 -53 -3 0 -11 25 -18 55 -12 51 -14 55 -41 55
-27 0 -28 -2 -20 -27z"/>
<path d="M4161 16124 c-46 -59 -14 -164 50 -164 17 0 39 5 50 10 13 7 19 7 19
0 0 -5 11 -10 25 -10 25 0 25 0 25 95 0 95 0 95 -25 95 -14 0 -25 -5 -25 -10
0 -7 -6 -7 -19 0 -36 19 -78 12 -100 -16z m103 -30 c30 -30 10 -94 -29 -94
-21 0 -45 29 -45 55 0 26 24 55 45 55 7 0 21 -7 29 -16z"/>
<path d="M4387 16132 c-37 -41 -11 -82 61 -97 38 -8 44 -35 8 -35 -14 0 -28 5
-31 10 -3 6 -17 10 -31 10 -29 0 -31 -13 -4 -40 42 -42 140 -15 140 38 0 25
-27 48 -69 59 -19 5 -37 15 -39 22 -3 10 7 12 47 6 54 -7 63 1 33 28 -26 23
-94 22 -115 -1z"/>
<path d="M1220 14660 c0 -73 4 -120 10 -120 6 0 10 19 10 42 l0 42 45 -44 c55
-54 68 -48 20 10 l-36 43 38 39 c48 49 22 50 -29 1 l-38 -37 0 72 c0 41 -4 72
-10 72 -6 0 -10 -47 -10 -120z"/>
<path d="M660 14760 c0 -5 16 -10 35 -10 l35 0 1 -97 c1 -54 1 -101 0 -105 0
-5 6 -8 14 -8 12 0 15 18 15 105 l0 105 35 0 c19 0 35 5 35 10 0 6 -35 10 -85
10 -50 0 -85 -4 -85 -10z"/>
<path d="M878 14700 c-9 -6 -22 -26 -28 -45 -24 -74 45 -140 105 -101 22 15
25 15 25 1 0 -8 4 -15 10 -15 6 0 9 36 9 85 0 47 -5 85 -10 85 -5 0 -9 -7 -9
-15 0 -8 -4 -15 -9 -15 -5 0 -14 7 -21 15 -14 17 -47 19 -72 5z m84 -28 c4 -4
10 -22 14 -39 11 -55 -52 -95 -90 -57 -21 21 -21 90 0 98 8 3 13 10 9 15 -6
11 54 -4 67 -17z"/>
<path d="M1066 14697 c-31 -23 -17 -60 29 -75 45 -15 59 -30 43 -49 -14 -17
-43 -16 -62 2 -18 19 -26 19 -26 0 0 -35 65 -45 101 -16 20 16 22 22 12 44 -8
17 -24 28 -50 34 -28 6 -38 14 -38 28 0 23 40 34 58 16 20 -20 31 -11 12 9
-21 23 -53 26 -79 7z"/>
<path d="M1460 14625 c0 -68 3 -85 15 -85 11 0 15 16 17 66 3 74 21 99 56 78
13 -8 18 -27 20 -78 2 -36 7 -66 12 -66 9 0 15 75 10 125 -3 41 -55 59 -84 29
-15 -14 -16 -14 -16 0 0 9 -7 16 -15 16 -12 0 -15 -16 -15 -85z"/>
<path d="M1672 14687 c-25 -27 -30 -91 -9 -119 20 -26 63 -33 92 -14 22 14 25
15 25 1 0 -8 5 -15 10 -15 6 0 10 34 9 85 -1 47 -5 85 -10 85 -5 0 -9 -7 -9
-16 0 -15 -2 -15 -25 0 -34 22 -58 20 -83 -7z m92 -19 c44 -63 -21 -141 -76
-91 -10 9 -18 30 -18 46 0 60 63 90 94 45z"/>
<path d="M1850 14625 c0 -68 3 -85 15 -85 11 0 15 16 17 66 3 74 21 99 56 78
13 -8 18 -27 20 -78 4 -82 22 -88 22 -7 0 66 17 94 54 89 19 -3 21 -10 24 -75
2 -55 6 -73 17 -73 19 0 16 130 -4 153 -17 22 -49 22 -73 0 -17 -15 -19 -15
-36 0 -23 21 -46 22 -66 1 -15 -14 -16 -14 -16 0 0 9 -7 16 -15 16 -12 0 -15
-16 -15 -85z"/>
<path d="M2166 14689 c-35 -27 -37 -98 -4 -129 28 -26 72 -26 99 1 25 25 17
39 -9 16 -23 -21 -56 -22 -76 -1 -32 32 -20 44 44 44 52 0 60 3 60 19 0 28
-39 71 -64 71 -13 0 -35 -9 -50 -21z m78 -15 c26 -26 18 -34 -34 -34 -27 0
-50 4 -50 9 0 16 31 41 50 41 10 0 26 -7 34 -16z"/>
<path d="M1586 13173 c-11 -11 -6 -23 9 -23 8 0 15 4 15 9 0 13 -16 22 -24 14z"/>
<path d="M2010 13166 c0 -9 7 -16 16 -16 9 0 14 5 12 12 -6 18 -28 21 -28 4z"/>
<path d="M670 13055 l0 -115 43 0 c82 0 137 47 137 118 0 34 -27 98 -37 88 -3
-3 -12 1 -20 9 -9 10 -35 15 -69 15 l-54 0 0 -115z m127 75 c67 -62 18 -170
-77 -170 l-30 0 0 95 0 95 43 0 c29 0 50 -6 64 -20z"/>
<path d="M1890 13130 c0 -11 -7 -20 -15 -20 -8 0 -15 -4 -15 -10 0 -5 7 -10
15 -10 12 0 15 -14 15 -63 0 -68 10 -87 47 -87 30 0 30 18 1 22 -21 3 -23 9
-26 66 -3 57 -1 62 18 62 11 0 20 5 20 10 0 6 -9 10 -20 10 -13 0 -20 7 -20
20 0 11 -4 20 -10 20 -5 0 -10 -9 -10 -20z"/>
<path d="M935 13098 c-29 -17 -35 -28 -35 -75 0 -33 5 -46 26 -62 34 -27 68
-27 95 0 25 25 17 39 -9 16 -23 -21 -56 -22 -76 -1 -32 32 -20 44 44 44 52 0
60 3 60 19 0 28 -39 71 -63 71 -12 0 -31 -6 -42 -12z m69 -24 c24 -24 19 -32
-23 -36 -44 -4 -61 -1 -61 12 0 15 31 40 50 40 10 0 26 -7 34 -16z"/>
<path d="M1106 13097 c-32 -23 -17 -60 32 -77 33 -11 42 -19 40 -35 -4 -27
-47 -33 -65 -9 -15 20 -26 14 -17 -9 14 -38 88 -32 106 9 14 31 -1 48 -52 61
-25 7 -35 15 -35 29 0 22 41 32 58 15 20 -20 31 -11 12 9 -21 23 -53 26 -79 7z"/>
<path d="M1275 13085 c-51 -50 -17 -145 53 -145 30 0 71 34 58 48 -4 4 -13 -1
-20 -11 -18 -24 -62 -22 -80 5 -44 63 21 141 76 91 10 -9 21 -13 26 -9 11 12
-37 46 -65 46 -13 0 -35 -11 -48 -25z"/>
<path d="M1450 13025 c0 -50 4 -85 10 -85 6 0 10 26 10 59 0 61 15 91 46 91 8
0 14 5 14 10 0 13 -16 13 -41 0 -13 -7 -19 -7 -19 0 0 5 -4 10 -10 10 -6 0
-10 -35 -10 -85z"/>
<path d="M1580 13025 c0 -69 3 -85 15 -85 12 0 15 16 15 85 0 69 -3 85 -15 85
-12 0 -15 -16 -15 -85z"/>
<path d="M1678 13104 c-12 -11 -10 -224 2 -224 6 0 10 21 10 46 0 45 0 45 22
30 30 -21 50 -20 82 5 36 28 37 89 1 124 -28 29 -51 31 -82 10 -19 -14 -22
-13 -25 1 -2 9 -6 12 -10 8z m106 -36 c31 -44 7 -108 -39 -108 -27 0 -55 33
-55 65 0 32 28 65 55 65 13 0 31 -10 39 -22z"/>
<path d="M2010 13025 c0 -105 17 -113 22 -10 3 81 1 95 -13 95 -5 0 -9 -38 -9
-85z"/>
<path d="M2116 13089 c-21 -16 -26 -29 -26 -64 0 -35 5 -48 26 -64 58 -46 124
-10 124 66 0 33 -6 46 -26 62 -15 12 -37 21 -49 21 -12 0 -34 -9 -49 -21z m88
-21 c32 -45 9 -108 -40 -108 -27 0 -54 34 -54 69 0 55 65 81 94 39z"/>
<path d="M2300 13025 c0 -50 4 -85 10 -85 6 0 10 25 10 56 0 67 13 94 45 94
33 0 38 -13 36 -86 -1 -52 1 -64 14 -64 12 0 15 12 15 54 0 30 -4 66 -10 80
-12 34 -54 44 -80 21 -18 -16 -20 -17 -20 -2 0 10 -4 17 -10 17 -6 0 -10 -35
-10 -85z"/>
<path d="M350 9940 l0 -120 56 0 c50 0 59 3 90 34 29 29 34 41 34 83 0 29 -7
58 -16 72 -21 30 -72 51 -124 51 l-40 0 0 -120z m125 65 c32 -31 34 -91 4
-129 -16 -20 -29 -26 -60 -26 l-39 0 0 90 0 90 35 0 c25 0 44 -8 60 -25z"/>
<path d="M1030 9940 l0 -120 56 0 c50 0 59 3 90 34 29 29 34 41 34 83 0 29 -7
58 -16 72 -21 30 -72 51 -124 51 l-40 0 0 -120z m125 65 c32 -31 34 -91 4
-129 -16 -20 -29 -26 -60 -26 l-39 0 0 90 0 90 35 0 c25 0 44 -8 60 -25z"/>
<path d="M6516 10045 c-4 -12 3 -15 34 -15 l40 0 0 -105 c0 -87 3 -105 15
-105 12 0 15 18 15 105 l0 105 35 0 c24 0 35 5 35 15 0 12 -16 15 -84 15 -65
0 -85 -3 -90 -15z"/>
<path d="M7040 10016 l0 -44 -28 10 c-60 23 -104 -10 -104 -77 0 -67 44 -100
104 -77 16 6 28 6 28 1 0 -5 7 -9 15 -9 13 0 15 20 15 120 0 100 -2 120 -15
120 -11 0 -15 -12 -15 -44z m-30 -56 c36 -20 33 -99 -6 -114 -43 -17 -81 34
-62 84 14 38 35 48 68 30z"/>
<path d="M1470 10010 c0 -11 -7 -20 -15 -20 -8 0 -15 -4 -15 -10 0 -5 7 -10
15 -10 11 0 15 -12 15 -49 0 -74 13 -101 50 -101 36 0 39 11 8 25 -20 9 -23
18 -23 65 0 49 2 55 23 58 30 5 28 22 -3 22 -18 0 -25 5 -25 20 0 11 -7 20
-15 20 -8 0 -15 -9 -15 -20z"/>
<path d="M580 9917 c0 -80 9 -97 50 -97 14 0 31 5 38 12 9 9 12 9 12 0 0 -7 7
-12 15 -12 12 0 15 16 15 85 0 69 -3 85 -15 85 -12 0 -15 -13 -15 -59 0 -41
-5 -65 -16 -75 -32 -32 -58 -10 -60 51 -1 26 -3 56 -3 66 -1 9 -5 17 -11 17
-6 0 -10 -31 -10 -73z"/>
<path d="M787 9977 c-38 -27 -38 -117 0 -144 25 -19 77 -16 96 5 21 23 21 32
2 32 -8 0 -15 -4 -15 -9 0 -16 -38 -23 -60 -11 -11 6 -20 20 -20 30 0 18 7 20
61 20 l61 0 -7 28 c-3 15 -14 35 -22 45 -19 20 -72 23 -96 4z m71 -23 c34 -23
27 -34 -23 -34 -48 0 -62 19 -27 39 23 14 24 14 50 -5z"/>
<path d="M1279 9971 c-31 -25 -34 -98 -5 -130 21 -24 74 -28 95 -8 11 10 14
10 18 0 3 -7 11 -13 19 -13 12 0 14 16 12 81 -2 78 -12 105 -29 78 -6 -11 -11
-11 -21 -1 -18 18 -63 15 -89 -7z m83 -18 c35 -31 15 -113 -28 -113 -22 0 -54
38 -54 65 0 26 31 65 52 65 6 0 20 -7 30 -17z"/>
<path d="M1610 9970 c-27 -27 -35 -65 -20 -101 15 -35 37 -49 78 -49 26 0 62
25 62 43 0 13 -27 7 -40 -8 -17 -21 -36 -19 -60 5 -29 29 -17 40 46 40 51 0
54 1 54 25 0 57 -79 86 -120 45z m83 -22 l22 -23 -27 -3 c-16 -2 -40 -2 -55 0
l-28 3 23 23 c12 12 27 22 32 22 6 0 20 -10 33 -22z"/>
<path d="M6725 9965 c-53 -53 -16 -145 58 -145 45 0 79 36 79 85 0 77 -84 114
-137 60z m83 -12 c41 -35 24 -113 -24 -113 -22 0 -54 38 -54 65 0 24 31 65 49
65 5 0 18 -8 29 -17z"/>
<path d="M7139 9971 c-31 -25 -34 -98 -5 -130 21 -24 74 -28 95 -8 11 10 14
10 18 0 3 -7 10 -13 17 -13 10 0 13 21 12 79 -1 80 -10 107 -26 81 -7 -12 -12
-12 -22 -2 -18 18 -63 15 -89 -7z m83 -18 c35 -31 15 -113 -28 -113 -22 0 -54
38 -54 65 0 26 31 65 52 65 6 0 20 -7 30 -17z"/>
<path d="M7310 9985 c0 -3 14 -41 30 -84 17 -43 28 -85 24 -94 -3 -9 -19 -19
-35 -22 -37 -8 -38 -25 -1 -25 40 0 64 31 101 128 35 94 36 102 18 102 -7 0
-23 -30 -36 -67 l-24 -68 -25 68 c-14 38 -31 67 -38 67 -8 0 -14 -2 -14 -5z"/>
<path d="M350 8820 c0 -100 3 -120 15 -120 11 0 15 11 15 39 l0 38 47 6 c67 7
99 53 77 112 -10 25 -58 45 -109 45 l-45 0 0 -120z m114 74 c19 -18 20 -38 6
-65 -8 -14 -21 -19 -50 -19 l-40 0 0 50 0 50 34 0 c19 0 42 -7 50 -16z"/>
<path d="M684 8929 c-10 -17 13 -36 27 -22 12 12 4 33 -11 33 -5 0 -12 -5 -16
-11z"/>
<path d="M1104 8929 c-8 -14 11 -33 25 -25 6 4 11 14 11 22 0 16 -26 19 -36 3z"/>
<path d="M6287 8934 c-4 -4 -7 -58 -7 -121 0 -92 3 -113 15 -113 11 0 15 19
17 93 l3 92 33 -62 c18 -35 39 -63 47 -63 8 0 28 26 44 58 l30 57 1 -87 c0
-71 3 -88 15 -88 13 0 15 20 15 120 0 108 -2 120 -18 120 -12 0 -29 -23 -54
-72 l-36 -73 -34 70 c-31 65 -53 86 -71 69z"/>
<path d="M6870 8893 c0 -37 -3 -44 -12 -35 -22 22 -75 14 -97 -14 -44 -56 -12
-144 53 -144 17 0 37 5 44 12 9 9 12 9 12 0 0 -7 7 -12 15 -12 13 0 15 20 15
120 0 100 -2 120 -15 120 -11 0 -15 -12 -15 -47z m-18 -60 c36 -32 13 -113
-33 -113 -22 0 -49 37 -49 67 0 24 32 63 52 63 6 0 20 -7 30 -17z"/>
<path d="M6954 8929 c-10 -17 13 -36 27 -22 12 12 4 33 -11 33 -5 0 -12 -5
-16 -11z"/>
<path d="M1210 8890 c0 -11 -7 -20 -15 -20 -8 0 -15 -4 -15 -9 0 -5 7 -11 15
-15 11 -4 15 -21 15 -64 0 -63 11 -82 47 -82 28 0 30 16 3 23 -17 4 -20 14
-20 62 0 48 3 58 20 62 11 3 20 9 20 14 0 5 -9 9 -20 9 -13 0 -20 7 -20 20 0
11 -7 20 -15 20 -8 0 -15 -9 -15 -20z"/>
<path d="M550 8783 c0 -67 3 -83 15 -83 11 0 15 13 15 54 0 70 7 86 36 86 14
0 24 6 24 14 0 10 -13 14 -45 14 l-45 -1 0 -84z"/>
<path d="M689 8866 c-8 -8 3 -166 12 -166 5 0 9 34 9 75 0 41 0 78 1 82 1 9
-15 15 -22 9z"/>
<path d="M790 8850 c-27 -27 -35 -65 -20 -101 15 -34 37 -49 75 -49 38 0 60
15 75 49 24 60 -14 121 -75 121 -22 0 -43 -8 -55 -20z m90 -20 c11 -11 20 -31
20 -45 0 -27 -31 -65 -53 -65 -29 0 -51 28 -51 65 0 59 46 83 84 45z"/>
<path d="M970 8785 c0 -69 3 -85 15 -85 12 0 15 13 15 58 0 60 11 82 42 82 10
0 18 7 18 15 0 18 -31 20 -48 3 -9 -9 -12 -9 -12 0 0 7 -7 12 -15 12 -12 0
-15 -16 -15 -85z"/>
<path d="M1110 8785 c0 -69 3 -85 15 -85 12 0 15 16 15 85 0 69 -3 85 -15 85
-12 0 -15 -16 -15 -85z"/>
<path d="M1331 8818 c50 -126 50 -126 26 -143 -12 -8 -27 -15 -34 -15 -7 0
-13 -4 -13 -10 0 -14 43 -12 63 3 9 6 32 48 51 92 47 114 50 125 32 125 -9 0
-23 -23 -37 -60 -12 -33 -25 -60 -28 -60 -4 0 -15 26 -26 57 -13 37 -26 59
-38 61 -16 3 -16 -1 4 -50z"/>
<path d="M6571 8844 c-65 -83 38 -195 111 -122 26 26 7 39 -21 14 -23 -21 -44
-20 -64 2 -30 33 -21 42 43 42 56 0 60 2 60 23 0 63 -90 91 -129 41z m80 -4
c36 -20 23 -40 -26 -40 -49 0 -53 4 -28 32 19 21 27 22 54 8z"/>
<path d="M6959 8863 c-5 -59 0 -158 9 -161 6 -2 12 13 14 35 5 57 -3 133 -13
133 -5 0 -9 -3 -10 -7z"/>
<path d="M7040 8798 c0 -81 9 -98 50 -98 14 0 31 5 38 12 9 9 12 9 12 0 0 -7
7 -12 15 -12 12 0 15 16 15 85 0 69 -3 85 -15 85 -12 0 -15 -13 -15 -59 0 -55
-15 -91 -38 -91 -25 1 -35 23 -36 81 -2 38 -7 64 -14 67 -9 3 -12 -18 -12 -70z"/>
<path d="M7220 8785 c0 -69 3 -85 15 -85 12 0 15 14 15 65 0 55 3 66 21 75 35
19 49 -3 49 -76 0 -50 3 -64 15 -64 11 0 15 13 15 53 0 55 20 97 45 97 22 0
35 -34 35 -94 0 -43 3 -56 15 -56 21 0 21 117 -1 148 -18 26 -65 30 -84 7 -11
-13 -14 -13 -27 0 -17 18 -55 19 -71 3 -9 -9 -12 -9 -12 0 0 7 -7 12 -15 12
-12 0 -15 -16 -15 -85z"/>
<path d="M4000 1211 c0 -6 4 -13 10 -16 6 -3 7 1 4 9 -7 18 -14 21 -14 7z"/>
<path d="M4592 1186 c1 -14 5 -23 9 -20 7 4 0 44 -7 44 -2 0 -3 -11 -2 -24z"/>
<path d="M3213 1185 c0 -8 4 -12 9 -9 5 3 6 10 3 15 -9 13 -12 11 -12 -6z"/>
<path d="M3086 1173 c-6 -14 -5 -15 5 -6 7 7 10 15 7 18 -3 3 -9 -2 -12 -12z"/>
<path d="M4325 1140 c3 -5 8 -10 11 -10 2 0 4 5 4 10 0 6 -5 10 -11 10 -5 0
-7 -4 -4 -10z"/>
<path d="M4072 1100 c0 -14 2 -19 5 -12 2 6 2 18 0 25 -3 6 -5 1 -5 -13z"/>
<path d="M4325 1070 c-3 -5 -1 -10 4 -10 6 0 11 5 11 10 0 6 -2 10 -4 10 -3 0
-8 -4 -11 -10z"/>
<path d="M3265 1010 c3 -5 8 -10 11 -10 2 0 4 5 4 10 0 6 -5 10 -11 10 -5 0
-7 -4 -4 -10z"/>
<path d="M528 663 c7 -3 16 -2 19 1 4 3 -2 6 -13 5 -11 0 -14 -3 -6 -6z"/>
</g>
</svg>
