<?xml version="1.0" standalone="no"?>
<!DOCTYPE svg PUBLIC "-//W3C//DTD SVG 20010904//EN"
 "http://www.w3.org/TR/2001/REC-SVG-20010904/DTD/svg10.dtd">
<svg version="1.0" xmlns="http://www.w3.org/2000/svg"
 width="780.000000pt" height="1688.000000pt" viewBox="0 0 780.000000 1688.000000"
 preserveAspectRatio="xMidYMid meet">

<g transform="translate(0.000000,1688.000000) scale(0.100000,-0.100000)"
fill="#000000" stroke="none">
<path d="M3477 16216 c-7 -19 18 -40 39 -32 8 3 14 14 12 23 -4 22 -43 29 -51
9z"/>
<path d="M3296 16197 c-44 -44 -28 -87 45 -129 29 -16 39 -28 37 -43 -2 -15
-10 -20 -33 -20 -16 1 -40 4 -52 9 -20 6 -23 4 -23 -17 0 -29 16 -37 75 -37
55 0 88 26 88 68 0 38 -15 58 -65 83 -62 32 -46 78 21 59 26 -7 31 -5 36 12 9
26 3 30 -54 36 -43 4 -53 1 -75 -21z"/>
<path d="M3480 16060 l0 -100 25 0 25 0 0 100 0 100 -25 0 -25 0 0 -100z"/>
<path d="M3595 16135 c-33 -32 -36 -120 -5 -153 22 -24 59 -28 91 -12 16 9 19
7 19 -9 0 -43 -42 -61 -94 -41 -24 9 -26 7 -26 -15 0 -20 5 -25 28 -27 66 -4
97 3 120 28 20 23 22 35 22 140 0 106 -1 114 -19 114 -11 0 -23 -5 -26 -10 -4
-7 -12 -7 -25 0 -31 16 -59 12 -85 -15z m89 -31 c19 -18 21 -75 4 -92 -30 -30
-68 -1 -68 52 0 24 23 56 40 56 5 0 16 -7 24 -16z"/>
<path d="M3800 16060 c0 -99 0 -100 24 -100 22 0 24 4 28 65 5 74 26 108 56
89 13 -9 18 -28 20 -83 3 -68 4 -71 27 -71 25 0 25 1 25 84 0 76 -2 86 -22
100 -27 19 -61 20 -91 5 -16 -9 -22 -9 -25 0 -2 6 -12 11 -23 11 -17 0 -19 -8
-19 -100z"/>
<path d="M4120 16082 c0 -97 14 -122 69 -122 20 0 43 6 50 13 11 10 14 10 18
0 3 -7 13 -13 24 -13 17 0 19 8 19 100 l0 100 -25 0 c-24 0 -25 -3 -25 -54 0
-68 -14 -106 -38 -106 -32 0 -42 22 -42 92 0 66 -1 68 -25 68 -25 0 -25 -1
-25 -78z"/>
<path d="M4350 16015 l0 -145 25 0 c24 0 25 3 25 57 0 44 3 54 12 45 20 -20
75 -14 98 10 28 31 28 115 -1 152 -23 30 -69 35 -90 10 -11 -14 -13 -14 -21 0
-5 9 -18 16 -28 16 -19 0 -20 -8 -20 -145z m124 72 c23 -63 -41 -123 -65 -61
-5 16 -7 40 -4 54 12 48 53 52 69 7z"/>
<path d="M1017 15074 c-14 -14 -7 -35 11 -32 9 2 17 10 17 17 0 16 -18 25 -28
15z"/>
<path d="M1100 14960 c0 -100 3 -120 15 -120 13 0 15 20 15 120 0 100 -2 120
-15 120 -12 0 -15 -20 -15 -120z"/>
<path d="M350 14955 l0 -115 65 0 c50 0 65 3 65 14 0 11 -14 16 -47 18 -46 3
-48 4 -51 35 -3 27 1 33 21 38 13 4 27 5 33 4 19 -3 34 1 34 10 0 6 -19 11
-42 13 -40 3 -43 5 -46 36 l-3 32 50 0 c39 0 51 4 51 15 0 12 -14 15 -65 15
l-65 0 0 -115z"/>
<path d="M705 15012 c-11 -2 -25 -8 -32 -14 -7 -6 -14 -5 -18 2 -9 14 -78 13
-93 -2 -9 -9 -12 -9 -12 0 0 7 -7 12 -15 12 -12 0 -15 -16 -15 -85 0 -78 2
-85 20 -85 18 0 20 7 20 64 0 69 14 92 50 81 18 -6 20 -15 20 -76 0 -62 2 -69
20 -69 18 0 20 7 20 64 0 69 14 92 50 81 18 -6 20 -15 20 -76 0 -62 2 -69 20
-69 18 0 20 6 19 58 -2 98 -20 126 -74 114z"/>
<path d="M868 15012 c-17 -2 -28 -9 -28 -18 0 -11 8 -13 33 -9 24 5 37 2 46
-9 18 -21 5 -36 -30 -36 -45 0 -69 -17 -69 -48 0 -16 5 -33 12 -40 15 -15 74
-16 84 -1 4 8 9 8 17 0 22 -22 27 -10 27 63 0 89 -17 107 -92 98z m62 -104 c0
-16 -30 -48 -45 -48 -7 0 -18 7 -25 15 -10 12 -10 18 0 30 15 18 70 20 70 3z"/>
<path d="M1010 14925 c0 -76 2 -85 19 -85 16 0 19 9 20 85 2 79 0 85 -19 85
-19 0 -20 -6 -20 -85z"/>
<path d="M1410 14000 c0 -73 4 -120 10 -120 6 0 10 47 10 120 0 73 -4 120 -10
120 -6 0 -10 -47 -10 -120z"/>
<path d="M1330 14094 c0 -8 5 -12 10 -9 6 3 10 10 10 16 0 5 -4 9 -10 9 -5 0
-10 -7 -10 -16z"/>
<path d="M676 14023 c-3 -42 -6 -91 -6 -110 l0 -33 65 0 c37 0 65 4 65 10 0 6
-22 10 -50 10 l-50 0 0 45 0 45 45 0 c25 0 45 5 45 10 0 6 -20 10 -45 10 l-45
0 0 39 0 40 53 4 52 3 -61 2 -61 2 -7 -77z"/>
<path d="M850 13966 c0 -51 4 -86 10 -86 6 0 10 28 10 64 0 63 6 76 42 89 32
11 48 -19 48 -89 0 -36 4 -64 10 -64 6 0 10 28 10 63 0 67 10 87 45 87 35 0
45 -20 45 -87 0 -35 4 -63 10 -63 17 0 12 136 -6 154 -19 20 -54 21 -79 2 -16
-11 -21 -11 -33 0 -15 16 -50 18 -72 4 -9 -5 -19 -5 -27 2 -10 8 -13 -7 -13
-76z"/>
<path d="M1173 14043 c-23 -9 -14 -23 10 -14 37 14 67 -4 67 -41 0 -11 -6 -15
-19 -11 -11 3 -36 0 -55 -7 -30 -9 -36 -16 -36 -39 0 -49 43 -67 88 -35 20 14
22 14 22 0 0 -9 5 -16 11 -16 18 0 7 149 -11 160 -16 10 -57 12 -77 3z m73
-87 c3 -8 0 -24 -6 -36 -16 -30 -74 -25 -78 8 -2 16 3 25 20 31 34 14 58 13
64 -3z"/>
<path d="M1330 13965 c0 -50 4 -85 10 -85 6 0 10 35 10 85 0 50 -4 85 -10 85
-6 0 -10 -35 -10 -85z"/>
<path d="M1730 12802 l0 -37 -44 3 c-36 3 -46 0 -60 -19 -27 -39 -17 -118 18
-141 17 -12 64 -9 72 3 4 8 9 8 17 0 23 -23 27 -7 27 109 0 100 -2 120 -15
120 -11 0 -15 -11 -15 -38z m-12 -64 c7 -7 12 -31 12 -55 0 -32 -5 -45 -20
-53 -26 -14 -56 2 -64 34 -14 58 36 110 72 74z"/>
<path d="M350 12715 c0 -94 3 -115 14 -115 10 0 16 14 18 43 3 41 4 42 46 48
47 6 71 30 72 71 0 40 -41 68 -101 68 l-49 0 0 -115z m98 76 c8 -5 12 -21 10
-37 -3 -26 -7 -29 -40 -32 l-38 -3 0 40 c0 38 2 41 28 41 15 0 33 -4 40 -9z"/>
<path d="M581 12771 c-36 -10 -42 -36 -6 -27 37 9 65 -1 65 -25 0 -15 -7 -19
-38 -19 -58 0 -94 -54 -60 -88 16 -16 70 -15 87 1 11 10 14 10 18 0 3 -7 9
-13 14 -13 14 0 11 146 -3 158 -20 15 -51 20 -77 13z m59 -105 c0 -18 -27 -46
-44 -46 -8 0 -19 7 -26 15 -10 12 -10 18 0 30 16 19 70 20 70 1z"/>
<path d="M1547 12765 c-15 -8 -27 -10 -27 -4 0 5 -7 9 -15 9 -12 0 -15 -16
-15 -85 0 -69 3 -85 15 -85 11 0 15 12 15 51 0 63 13 89 45 89 15 0 25 6 25
14 0 23 -14 26 -43 11z"/>
<path d="M733 12763 c-7 -2 -13 -18 -13 -34 0 -25 7 -33 45 -51 25 -12 45 -28
45 -34 0 -17 -33 -26 -64 -18 -20 5 -26 2 -26 -10 0 -12 10 -16 44 -16 83 0
102 57 31 97 -51 29 -52 48 -2 47 25 -1 37 3 37 12 0 14 -69 19 -97 7z"/>
<path d="M882 12758 c-27 -27 -7 -61 51 -86 19 -8 27 -18 25 -30 -3 -13 -13
-16 -47 -14 -31 2 -42 -1 -39 -10 3 -7 24 -14 50 -16 38 -2 49 1 61 18 23 33
9 60 -40 81 -55 24 -52 45 6 42 30 -1 41 2 41 13 0 18 -90 20 -108 2z"/>
<path d="M1020 12759 c0 -6 10 -44 22 -85 27 -94 49 -100 72 -20 9 30 16 60
16 67 0 25 15 -4 31 -59 12 -43 21 -58 36 -60 17 -3 23 8 41 76 26 94 26 92 7
92 -8 0 -19 -17 -25 -42 -16 -61 -28 -95 -29 -80 -1 8 -8 38 -17 68 -12 41
-20 54 -34 54 -14 0 -23 -13 -35 -52 -8 -28 -15 -59 -16 -67 -1 -22 -14 10
-29 72 -8 27 -18 47 -26 47 -8 0 -14 -5 -14 -11z"/>
<path d="M1308 12753 c-23 -26 -29 -67 -17 -102 12 -35 35 -51 74 -51 39 0 62
16 74 51 23 66 -10 119 -74 119 -27 0 -47 -6 -57 -17z m86 -19 c16 -16 21 -71
8 -90 -13 -19 -39 -23 -61 -8 -38 27 -20 114 24 114 7 0 21 -7 29 -16z"/>
<path d="M6856 11896 c-26 -8 -52 -19 -56 -26 -4 -6 -11 -10 -15 -8 -4 1 -26
-19 -48 -45 l-41 -48 19 -35 c86 -160 343 -152 418 13 8 19 4 29 -26 67 -62
75 -159 107 -251 82z m162 -37 c24 -12 57 -40 73 -62 l29 -40 -29 -36 c-85
-107 -256 -108 -340 -2 l-30 38 19 30 c19 32 62 66 101 82 44 18 130 12 177
-10z"/>
<path d="M6895 11840 c-60 -24 -76 -93 -32 -137 51 -52 140 -16 140 57 0 52
-63 99 -108 80z m67 -37 c39 -35 11 -103 -43 -103 -35 0 -59 24 -59 57 0 55
62 83 102 46z"/>
<path d="M2039 11858 c-1 -13 0 -33 1 -45 1 -23 -14 -31 -25 -13 -3 6 -19 10
-35 10 -36 0 -70 -41 -70 -85 0 -39 34 -85 61 -85 11 0 30 5 42 11 16 9 22 9
25 0 2 -6 8 -11 13 -11 5 0 9 54 9 120 0 73 -4 120 -10 120 -5 0 -10 -10 -11
-22z m-7 -104 c10 -39 -4 -88 -26 -92 -10 -2 -28 -1 -41 2 -42 11 -43 101 -2
127 21 14 61 -7 69 -37z"/>
<path d="M679 11857 c-1 -7 -2 -58 -4 -114 -2 -82 0 -103 11 -103 10 0 14 13
14 44 0 43 1 44 39 50 49 7 71 28 71 66 0 37 -24 60 -63 61 -18 0 -40 2 -49 4
-10 2 -18 -2 -19 -8z m95 -23 c37 -37 10 -84 -48 -84 -24 0 -26 3 -26 50 0 49
1 50 29 50 16 0 37 -7 45 -16z"/>
<path d="M880 11800 c-11 -8 -6 -10 20 -8 43 2 60 -7 60 -31 0 -14 -10 -20
-41 -24 -53 -7 -74 -27 -65 -61 8 -32 47 -44 82 -25 22 11 27 11 34 -1 7 -10
10 11 10 61 0 45 -5 80 -12 87 -14 14 -67 16 -88 2z m80 -93 c0 -31 -18 -47
-51 -47 -32 0 -43 12 -34 39 6 20 22 28 63 30 17 1 22 -4 22 -22z"/>
<path d="M1046 11794 c-19 -18 -19 -20 -6 -44 5 -10 25 -23 44 -30 36 -11 53
-37 37 -53 -5 -5 -28 -8 -50 -5 -41 4 -55 -5 -25 -16 29 -11 62 -6 85 13 29
24 19 47 -31 73 -18 9 -38 22 -43 27 -18 18 9 35 49 33 23 -2 33 1 29 8 -10
16 -72 12 -89 -6z"/>
<path d="M1206 11797 c-27 -20 -15 -50 29 -73 25 -13 41 -28 43 -42 3 -20 -1
-22 -43 -22 -28 0 -44 -4 -40 -10 8 -13 61 -13 86 0 11 6 19 21 19 35 0 20
-10 30 -45 47 -29 14 -45 29 -45 40 0 18 13 22 58 18 12 -1 22 3 22 9 0 15
-63 14 -84 -2z"/>
<path d="M1336 11783 c19 -76 41 -137 51 -140 7 -3 20 23 33 66 12 39 23 71
25 71 2 0 13 -31 24 -70 13 -40 27 -70 35 -70 8 0 21 31 34 79 25 89 25 91 13
91 -5 0 -17 -31 -26 -70 -9 -38 -19 -70 -21 -70 -2 0 -13 32 -24 70 -12 42
-26 70 -34 70 -8 0 -21 -26 -31 -65 -21 -77 -30 -87 -39 -43 -13 67 -27 108
-37 108 -5 0 -7 -12 -3 -27z"/>
<path d="M1619 11791 c-34 -28 -34 -104 0 -132 30 -25 62 -24 95 2 21 16 26
29 26 63 0 74 -67 111 -121 67z m81 -11 c22 -22 26 -70 10 -101 -11 -19 -54
-26 -76 -11 -32 22 -26 103 9 120 31 15 35 14 57 -8z"/>
<path d="M1801 11728 c-1 -53 3 -88 9 -88 6 0 10 28 10 63 0 68 10 87 47 87
13 0 23 5 23 10 0 15 -36 12 -50 -5 -16 -20 -27 -19 -33 3 -3 9 -5 -22 -6 -70z"/>
<path d="M973 10593 c-7 -2 -13 -13 -13 -23 0 -10 -8 -26 -17 -36 -13 -13 -14
-19 -5 -22 8 -2 12 -28 12 -78 0 -67 2 -74 20 -74 18 0 20 7 20 75 0 68 2 75
20 75 11 0 20 5 20 10 0 6 -9 10 -21 10 -15 0 -20 5 -17 23 2 15 10 22 25 21
12 0 24 5 27 13 4 9 -4 13 -27 12 -18 0 -38 -3 -44 -6z"/>
<path d="M1067 10594 c-14 -14 -7 -35 11 -32 9 2 17 10 17 17 0 16 -18 25 -28
15z"/>
<path d="M3060 10553 c0 -37 -3 -44 -12 -35 -19 19 -73 14 -93 -8 -24 -26 -24
-104 1 -131 19 -21 73 -26 92 -7 9 9 12 9 12 0 0 -7 7 -12 15 -12 13 0 15 20
15 120 0 100 -2 120 -15 120 -11 0 -15 -12 -15 -47z m-16 -65 c22 -31 20 -64
-4 -88 -24 -24 -34 -25 -54 -4 -33 32 -11 114 29 114 8 0 21 -10 29 -22z"/>
<path d="M389 10575 c-57 -31 -66 -148 -14 -192 32 -28 125 -34 125 -8 0 11
-11 15 -43 15 -57 0 -77 21 -77 83 0 64 27 91 81 84 40 -5 62 9 38 24 -21 13
-81 10 -110 -6z"/>
<path d="M591 10529 c-35 -14 -50 -39 -51 -80 0 -54 31 -89 80 -89 30 0 43 6
59 26 54 69 -11 174 -88 143z m67 -51 c25 -52 -13 -112 -57 -89 -47 26 -28
126 23 119 11 -2 27 -15 34 -30z"/>
<path d="M1908 10532 c-17 -2 -28 -9 -28 -18 0 -11 8 -13 33 -9 24 5 37 2 46
-9 18 -21 5 -36 -30 -36 -45 0 -69 -17 -69 -48 0 -16 5 -33 12 -40 15 -15 74
-16 84 -1 4 8 9 8 17 0 22 -22 27 -10 27 63 0 89 -17 107 -92 98z m62 -104 c0
-16 -30 -48 -45 -48 -7 0 -18 7 -25 15 -10 12 -10 18 0 30 15 18 70 20 70 3z"/>
<path d="M2081 10530 c-13 -3 -29 -13 -35 -23 -15 -24 1 -47 48 -70 25 -12 36
-23 34 -35 -3 -13 -13 -16 -47 -14 -31 2 -42 -1 -39 -10 3 -7 24 -14 51 -16
39 -3 48 0 62 21 22 34 10 56 -42 78 -53 23 -52 44 2 44 21 0 40 5 42 11 5 14
-42 22 -76 14z"/>
<path d="M2664 10528 c-53 -14 -72 -93 -33 -142 46 -58 139 -19 139 59 0 35
-29 80 -57 87 -10 3 -32 1 -49 -4z m64 -50 c15 -33 6 -75 -19 -89 -46 -24 -87
48 -54 97 21 32 55 29 73 -8z"/>
<path d="M740 10445 c0 -78 2 -85 20 -85 18 0 20 7 20 65 0 60 2 66 25 77 40
18 55 -3 55 -78 0 -50 3 -64 15 -64 12 0 15 15 15 73 0 83 -8 97 -60 97 -20 0
-41 -5 -48 -12 -9 -9 -12 -9 -12 0 0 7 -7 12 -15 12 -12 0 -15 -16 -15 -85z"/>
<path d="M1060 10445 c0 -69 3 -85 15 -85 12 0 15 16 15 85 0 69 -3 85 -15 85
-12 0 -15 -16 -15 -85z"/>
<path d="M1150 10445 c0 -69 3 -85 15 -85 11 0 15 12 15 51 0 63 13 89 45 89
16 0 25 6 25 15 0 18 -41 20 -57 4 -8 -8 -13 -8 -17 0 -18 28 -26 4 -26 -74z"/>
<path d="M1280 10445 c0 -78 2 -85 20 -85 18 0 20 7 20 64 0 69 14 92 50 81
18 -6 20 -15 20 -76 0 -62 2 -69 20 -69 18 0 20 7 20 64 0 69 14 92 50 81 18
-6 20 -15 20 -76 0 -62 2 -69 20 -69 18 0 20 7 20 54 0 29 -5 67 -11 85 -10
27 -15 31 -48 31 -20 0 -42 -5 -48 -11 -8 -8 -13 -8 -17 0 -10 15 -79 14 -94
-1 -9 -9 -12 -9 -12 0 0 7 -7 12 -15 12 -12 0 -15 -16 -15 -85z"/>
<path d="M1670 10405 c0 -104 2 -125 15 -125 11 0 15 12 15 52 0 40 3 49 12
40 21 -21 75 -15 92 10 23 32 21 110 -2 131 -22 20 -73 22 -90 5 -9 -9 -12 -9
-12 0 0 7 -7 12 -15 12 -13 0 -15 -21 -15 -125z m104 89 c21 -21 20 -67 -2
-94 -15 -19 -22 -21 -39 -11 -26 14 -37 44 -28 79 11 43 41 54 69 26z"/>
<path d="M2213 10523 c-7 -2 -13 -18 -13 -34 0 -25 7 -33 45 -51 25 -12 45
-28 45 -34 0 -17 -33 -26 -64 -18 -20 5 -26 2 -26 -10 0 -12 10 -16 44 -16 83
0 102 57 31 97 -51 29 -52 48 -2 47 25 -1 37 3 37 12 0 14 -69 19 -97 7z"/>
<path d="M2343 10518 c3 -7 13 -46 23 -86 15 -63 21 -72 38 -70 16 2 25 18 40
68 l20 65 19 -68 c17 -57 23 -68 40 -65 16 2 25 20 43 86 21 77 21 82 4 82
-13 0 -21 -14 -31 -60 -7 -32 -15 -57 -18 -54 -3 3 -12 28 -21 57 -12 38 -21
53 -36 55 -18 3 -23 -7 -39 -64 l-18 -67 -16 64 c-12 46 -22 65 -35 67 -12 3
-17 -1 -13 -10z"/>
<path d="M2810 10445 c0 -78 2 -85 20 -85 18 0 20 7 20 59 0 60 8 76 44 82 29
6 32 29 4 29 -13 0 -30 -6 -37 -12 -11 -10 -14 -10 -18 0 -3 6 -11 12 -19 12
-11 0 -14 -18 -14 -85z"/>
<path d="M6856 9656 c-26 -8 -52 -20 -57 -27 -5 -8 -9 -10 -9 -5 0 14 -49 -34
-72 -72 l-20 -33 26 -39 c90 -136 302 -136 392 0 l26 39 -22 36 c-29 47 -78
83 -136 101 -56 17 -64 17 -128 0z m179 -47 c19 -15 47 -41 60 -59 l24 -33
-28 -36 c-64 -80 -183 -105 -274 -57 -25 14 -49 21 -54 18 -4 -4 -5 -3 -1 1 3
5 -4 24 -18 44 l-23 35 31 39 c47 58 99 81 180 77 52 -3 74 -9 103 -29z"/>
<path d="M6895 9600 c-33 -13 -58 -48 -58 -81 0 -41 41 -82 83 -82 71 0 109
89 59 138 -29 28 -57 36 -84 25z m69 -36 c37 -36 7 -104 -45 -104 -36 0 -59
24 -59 60 0 16 7 36 16 44 8 9 28 16 44 16 16 0 36 -7 44 -16z"/>
<path d="M1286 9624 c-9 -8 -16 -24 -16 -34 0 -11 -8 -24 -17 -29 -17 -10 -17
-10 0 -11 15 0 17 -10 17 -75 0 -43 4 -75 10 -75 6 0 10 32 10 75 0 68 2 75
20 75 11 0 20 5 20 10 0 6 -9 10 -20 10 -13 0 -20 7 -20 20 0 21 27 40 48 33
6 -3 12 0 12 6 0 17 -46 13 -64 -5z"/>
<path d="M3340 9595 c0 -42 -11 -58 -25 -35 -10 17 -54 11 -75 -10 -14 -14
-20 -33 -20 -65 0 -72 47 -105 98 -69 20 14 22 14 22 0 0 -9 5 -16 10 -16 6 0
10 47 10 120 0 73 -4 120 -10 120 -5 0 -10 -20 -10 -45z m-12 -63 c15 -20 16
-84 0 -100 -7 -7 -24 -12 -38 -12 -37 0 -50 18 -50 66 0 65 51 91 88 46z"/>
<path d="M730 9623 c-30 -11 -50 -37 -61 -76 -15 -57 10 -121 53 -136 39 -14
85 -14 93 -1 4 6 -11 10 -39 10 -58 0 -86 32 -86 97 0 62 35 98 91 90 42 -6
63 7 26 17 -26 7 -56 7 -77 -1z"/>
<path d="M1372 9619 c2 -6 8 -10 13 -10 5 0 11 4 13 10 2 6 -4 11 -13 11 -9 0
-15 -5 -13 -11z"/>
<path d="M898 9560 c-29 -18 -41 -73 -24 -114 38 -92 164 -32 136 65 -15 52
-67 75 -112 49z m80 -22 c16 -16 16 -90 0 -106 -15 -15 -53 -16 -76 -1 -13 8
-16 21 -14 52 3 23 9 48 14 55 13 15 60 16 76 0z"/>
<path d="M1070 9488 c0 -52 4 -88 10 -88 6 0 10 28 10 64 0 71 12 89 57 84 28
-3 28 -4 31 -75 4 -96 22 -94 22 2 0 71 -1 76 -26 87 -19 9 -33 9 -57 0 -24
-9 -33 -9 -39 1 -4 6 -8 -27 -8 -75z"/>
<path d="M1370 9485 c0 -50 4 -85 10 -85 6 0 10 35 10 85 0 50 -4 85 -10 85
-6 0 -10 -35 -10 -85z"/>
<path d="M1461 9488 c-1 -53 3 -88 9 -88 6 0 10 28 10 63 0 68 10 87 47 87 13
0 23 5 23 10 0 15 -36 12 -50 -5 -16 -20 -27 -19 -33 3 -3 9 -5 -22 -6 -70z"/>
<path d="M1590 9486 c0 -51 4 -86 10 -86 6 0 10 28 10 63 0 70 10 87 51 87 33
0 39 -14 39 -91 0 -33 4 -59 10 -59 6 0 10 28 10 63 0 70 10 87 51 87 33 0 39
-14 39 -91 0 -33 4 -59 10 -59 11 0 14 101 4 138 -8 29 -50 40 -84 20 -22 -12
-28 -12 -38 -1 -15 15 -50 17 -72 3 -9 -5 -19 -5 -27 2 -10 8 -13 -7 -13 -76z"/>
<path d="M1970 9450 c0 -73 4 -120 10 -120 6 0 10 20 10 45 0 49 1 51 29 34
24 -16 68 -4 82 23 18 33 14 95 -6 118 -20 23 -64 26 -84 8 -11 -10 -14 -10
-18 0 -14 38 -23 -2 -23 -108z m118 41 c4 -51 -10 -71 -49 -71 -32 0 -49 23
-49 67 0 87 92 90 98 4z"/>
<path d="M2190 9560 c-11 -7 -4 -9 23 -8 24 1 42 -4 48 -13 17 -27 10 -39 -24
-39 -41 0 -77 -25 -77 -54 0 -45 45 -60 88 -30 20 14 22 14 22 0 0 -9 5 -16
11 -16 18 0 7 149 -11 160 -19 12 -61 12 -80 0z m80 -88 c0 -32 -24 -54 -55
-50 -39 4 -48 43 -13 57 39 16 68 13 68 -7z"/>
<path d="M2356 9557 c-27 -20 -16 -49 29 -74 55 -31 54 -57 -3 -61 -49 -4 -47
-22 2 -22 78 0 90 62 19 94 -28 13 -43 26 -43 38 0 19 14 23 64 19 18 -2 26 1
21 8 -9 15 -67 14 -89 -2z"/>
<path d="M2506 9557 c-27 -20 -15 -50 29 -72 46 -23 55 -33 48 -52 -3 -8 -22
-13 -50 -13 -27 0 -42 -4 -38 -10 9 -14 68 -12 89 3 28 21 17 59 -23 79 -19 9
-39 22 -44 27 -18 18 9 35 49 33 23 -2 33 1 29 8 -9 14 -68 12 -89 -3z"/>
<path d="M2630 9568 c0 -1 11 -39 23 -83 14 -50 28 -80 36 -80 9 0 23 29 36
75 l23 75 22 -77 c14 -46 28 -78 36 -78 7 0 18 19 24 43 6 23 15 55 20 71 12
36 13 56 2 56 -5 0 -15 -26 -22 -57 -20 -91 -25 -93 -49 -14 -13 44 -27 71
-34 68 -6 -2 -21 -35 -33 -73 -23 -73 -25 -72 -47 15 -7 30 -18 56 -25 59 -7
2 -12 2 -12 0z"/>
<path d="M2920 9550 c-31 -31 -28 -102 6 -129 44 -34 86 -26 110 21 43 83 -52
172 -116 108z m98 -31 c23 -45 -3 -99 -47 -99 -37 0 -51 17 -51 62 0 73 65 98
98 37z"/>
<path d="M3100 9485 c0 -47 4 -85 9 -85 9 0 20 124 13 153 -11 43 -22 9 -22
-68z"/>
<path d="M3144 9554 c-17 -14 -17 -15 -1 -10 10 3 25 6 33 6 8 0 14 5 14 10 0
15 -24 12 -46 -6z"/>
<path d="M3042 8173 c2 -10 10 -18 18 -18 8 0 16 8 18 18 2 12 -3 17 -18 17
-15 0 -20 -5 -18 -17z"/>
<path d="M3995 8180 c-4 -7 -3 -16 3 -22 14 -14 45 -2 40 15 -6 16 -34 21 -43
7z"/>
<path d="M4210 8085 c0 -98 1 -105 20 -105 17 0 20 7 20 43 0 50 19 83 44 74
12 -5 16 -20 16 -62 0 -48 2 -55 20 -55 18 0 20 7 20 64 0 74 -12 90 -65 84
-34 -4 -35 -3 -35 29 0 26 -4 33 -20 33 -19 0 -20 -7 -20 -105z"/>
<path d="M5220 8085 c0 -98 1 -105 20 -105 19 0 20 7 20 105 0 98 -1 105 -20
105 -19 0 -20 -7 -20 -105z"/>
<path d="M2390 8160 c-25 -25 -34 -61 -27 -108 8 -49 38 -72 93 -72 37 0 44 3
44 20 0 16 -5 19 -29 14 -60 -12 -96 71 -50 117 15 15 28 19 49 14 17 -4 31
-2 35 6 20 32 -83 41 -115 9z"/>
<path d="M4508 8160 c-30 -23 -43 -66 -33 -110 10 -46 41 -70 91 -70 67 0 74
6 74 61 l0 49 -40 0 c-29 0 -40 -4 -40 -15 0 -8 7 -15 15 -15 9 0 15 -9 15
-25 0 -18 -5 -25 -19 -25 -31 0 -51 28 -51 70 0 46 30 73 77 68 20 -2 28 1 28
12 0 25 -85 26 -117 0z"/>
<path d="M2920 8138 c-15 -21 -19 -33 -12 -36 7 -2 12 -24 12 -52 0 -54 15
-73 56 -68 34 4 43 25 12 30 -19 2 -23 10 -26 46 -3 37 -1 42 17 42 12 0 21 7
21 15 0 8 -9 15 -20 15 -13 0 -20 7 -20 20 0 29 -13 25 -40 -12z"/>
<path d="M4098 8145 c-29 -31 -35 -45 -18 -45 6 0 10 -22 10 -48 0 -55 12 -72
51 -72 38 0 46 18 15 30 -22 8 -26 16 -26 50 0 33 3 40 20 40 11 0 20 7 20 15
0 8 -9 15 -19 15 -13 0 -21 8 -23 22 -3 22 -4 22 -30 -7z"/>
<path d="M2595 8132 c-36 -7 -55 -33 -55 -74 0 -48 28 -78 73 -78 44 0 69 28
69 75 0 54 -37 87 -87 77z m43 -75 c2 -27 -1 -39 -13 -43 -22 -9 -45 14 -45
46 0 33 8 42 35 38 15 -2 21 -12 23 -41z"/>
<path d="M2790 8130 c-8 -5 -27 -6 -42 -3 l-28 6 0 -77 c0 -74 1 -76 25 -76
22 0 24 4 27 58 3 50 6 57 26 60 21 3 22 0 22 -57 0 -59 1 -61 26 -61 26 0 26
1 22 65 -2 36 -8 69 -13 74 -17 15 -49 21 -65 11z"/>
<path d="M3195 8130 c-11 -5 -30 -6 -42 -3 -22 5 -23 3 -23 -71 0 -69 2 -76
20 -76 17 0 20 7 20 48 0 55 10 75 36 70 16 -3 20 -14 22 -61 3 -49 6 -57 22
-57 18 0 20 7 20 64 0 39 -5 67 -12 73 -22 17 -42 21 -63 13z"/>
<path d="M3550 8133 c-35 -13 -50 -37 -50 -79 0 -35 5 -47 24 -59 31 -21 100
-17 104 6 2 13 -6 16 -40 15 -33 -1 -43 3 -46 17 -3 14 4 17 48 17 52 0 52 0
45 28 -10 43 -49 68 -85 55z m40 -49 c0 -8 -10 -14 -25 -14 -27 0 -32 9 -14
27 14 14 39 6 39 -13z"/>
<path d="M4718 8128 c-74 -25 -50 -148 29 -148 43 0 73 30 73 73 0 62 -44 94
-102 75z m58 -55 c8 -32 -6 -58 -32 -58 -20 0 -31 41 -20 71 10 25 45 16 52
-13z"/>
<path d="M4903 8133 c-58 -11 -71 -111 -19 -145 26 -18 75 -8 95 18 24 30 26
52 10 87 -9 20 -53 52 -62 46 -1 -1 -12 -4 -24 -6z m48 -54 c13 -26 -2 -69
-25 -69 -21 0 -39 37 -32 66 8 30 41 32 57 3z"/>
<path d="M5070 8133 c-26 -9 -40 -36 -40 -78 0 -54 26 -80 70 -72 21 5 30 3
30 -7 0 -24 -27 -38 -60 -31 -23 5 -30 3 -30 -9 0 -19 40 -31 74 -22 48 12 56
31 56 126 l0 89 -33 -1 c-19 -1 -38 1 -43 4 -5 3 -16 3 -24 1z m55 -78 c0 -31
-4 -41 -19 -43 -22 -5 -36 14 -36 49 0 32 8 41 35 37 16 -2 20 -10 20 -43z"/>
<path d="M5353 8132 c-45 -7 -66 -68 -42 -115 17 -31 28 -37 77 -37 34 0 42 3
42 18 0 15 -6 18 -30 14 -31 -4 -64 13 -54 29 3 5 25 9 50 9 40 0 44 2 44 23
0 38 -42 67 -87 59z m47 -48 c0 -8 -10 -14 -25 -14 -26 0 -35 25 -12 33 18 6
37 -3 37 -19z"/>
<path d="M3040 8055 c0 -68 2 -75 20 -75 18 0 20 7 20 75 0 68 -2 75 -20 75
-18 0 -20 -7 -20 -75z"/>
<path d="M3320 8067 c0 -69 10 -87 50 -87 14 0 31 5 38 12 9 9 12 9 12 0 0 -7
9 -12 20 -12 18 0 20 7 20 75 0 66 -2 75 -19 75 -15 0 -19 -10 -24 -52 -7 -57
-18 -74 -41 -65 -12 5 -16 21 -16 62 0 48 -2 55 -20 55 -18 0 -20 -7 -20 -63z"/>
<path d="M3740 8123 c0 -5 8 -38 17 -75 15 -58 21 -68 40 -68 17 0 24 8 32 38
6 20 11 43 11 50 0 6 4 12 9 12 5 0 13 -21 18 -47 7 -42 11 -48 33 -48 21 0
26 8 42 60 22 76 22 85 -1 85 -15 0 -21 -10 -26 -40 -10 -56 -23 -58 -31 -5
-6 42 -9 46 -33 43 -22 -3 -28 -10 -37 -47 -11 -49 -18 -46 -29 12 -5 27 -12
37 -26 37 -11 0 -19 -3 -19 -7z"/>
<path d="M3990 8055 c0 -73 1 -75 25 -75 24 0 25 2 25 75 0 73 -1 75 -25 75
-24 0 -25 -2 -25 -75z"/>
<path d="M3132 7133 c2 -10 10 -18 18 -18 8 0 16 8 18 18 2 12 -3 17 -18 17
-15 0 -20 -5 -18 -17z"/>
<path d="M4090 7129 c0 -25 33 -22 38 4 2 12 -3 17 -17 17 -15 0 -21 -6 -21
-21z"/>
<path d="M4300 7045 c0 -98 1 -105 20 -105 17 0 20 7 20 43 0 50 19 83 44 74
12 -5 16 -20 16 -62 0 -49 2 -55 20 -55 19 0 21 5 18 67 -3 60 -6 69 -27 79
-16 8 -32 9 -48 3 -21 -8 -23 -6 -23 26 0 28 -4 35 -20 35 -19 0 -20 -7 -20
-105z"/>
<path d="M5130 7045 c0 -98 1 -105 20 -105 19 0 20 7 20 105 0 98 -1 105 -20
105 -19 0 -20 -7 -20 -105z"/>
<path d="M2486 7118 c-53 -45 -40 -159 18 -174 42 -10 91 -1 94 19 3 16 -1 17
-30 12 -52 -10 -75 18 -69 85 3 31 21 45 58 45 27 0 38 4 38 15 0 10 -13 16
-41 18 -32 2 -48 -2 -68 -20z"/>
<path d="M4582 7047 c-17 -50 -32 -95 -32 -99 0 -20 41 -6 50 17 8 20 16 25
45 25 29 0 36 -4 41 -25 4 -18 13 -25 30 -25 l23 0 -34 95 c-19 53 -35 98 -35
100 0 3 -12 5 -27 5 -26 0 -30 -6 -61 -93z m77 -9 c1 -12 -6 -18 -20 -18 -18
0 -20 4 -14 33 4 17 10 36 13 42 6 10 19 -26 21 -57z"/>
<path d="M3010 7098 c-15 -21 -19 -33 -12 -36 7 -2 12 -24 12 -51 0 -54 12
-71 52 -71 33 0 39 25 8 33 -16 4 -20 14 -20 46 0 34 3 41 20 41 11 0 20 7 20
15 0 8 -9 15 -20 15 -13 0 -20 7 -20 20 0 29 -13 25 -40 -12z"/>
<path d="M4180 7098 c-15 -21 -19 -33 -12 -36 7 -2 12 -24 12 -51 0 -56 12
-71 57 -71 38 0 47 27 11 32 -19 2 -24 10 -26 46 -3 39 -1 42 22 42 16 0 26 6
26 15 0 9 -9 15 -25 15 -18 0 -25 5 -25 20 0 29 -13 25 -40 -12z"/>
<path d="M2683 7092 c-58 -9 -71 -110 -19 -144 19 -13 74 -8 90 8 57 56 8 149
-71 136z m47 -51 c7 -13 7 -28 0 -46 -18 -48 -69 -14 -56 38 8 32 40 36 56 8z"/>
<path d="M2885 7090 c-11 -5 -30 -6 -42 -3 -22 5 -23 3 -23 -71 0 -69 2 -76
20 -76 16 0 19 8 22 57 2 47 6 58 22 61 26 5 36 -15 36 -70 0 -41 3 -48 20
-48 18 0 20 7 20 58 0 77 -27 110 -75 92z"/>
<path d="M3285 7090 c-11 -5 -30 -6 -42 -3 -22 5 -23 3 -23 -71 0 -69 2 -76
20 -76 17 0 20 7 20 48 0 55 10 75 36 70 16 -3 20 -14 22 -61 3 -49 6 -57 22
-57 18 0 20 7 20 64 0 39 -5 67 -12 73 -22 17 -42 21 -63 13z"/>
<path d="M3633 7090 c-45 -18 -58 -95 -22 -131 25 -25 102 -24 107 2 2 12 -5
14 -34 11 -24 -3 -39 0 -45 9 -16 25 -10 29 41 29 42 0 50 3 50 19 0 43 -55
77 -97 61z m55 -47 c2 -9 -7 -13 -27 -13 -30 0 -39 9 -24 24 11 10 46 3 51
-11z"/>
<path d="M4830 7091 c-8 -6 -27 -7 -42 -4 l-29 6 3 -109 c3 -104 4 -109 26
-112 20 -3 22 1 22 35 0 38 1 39 33 35 43 -5 60 16 61 74 1 37 -4 50 -23 65
-26 22 -30 22 -51 10z m25 -76 c0 -33 -3 -40 -20 -40 -15 0 -21 8 -23 28 -5
39 5 59 25 55 14 -2 18 -13 18 -43z"/>
<path d="M5015 7090 c-11 -5 -30 -6 -42 -3 -23 5 -23 4 -23 -106 0 -104 1
-111 20 -111 16 0 20 7 20 38 0 37 1 38 34 34 26 -3 37 1 50 19 41 58 -2 151
-59 129z m31 -57 c8 -32 -6 -58 -32 -58 -20 0 -31 41 -20 71 10 25 45 16 52
-13z"/>
<path d="M5253 7090 c-45 -18 -58 -95 -22 -131 25 -25 102 -24 107 2 2 12 -4
15 -28 11 -29 -4 -60 11 -60 29 0 5 23 9 50 9 42 0 50 3 50 19 0 43 -55 77
-97 61z m57 -50 c0 -6 -13 -10 -30 -10 -32 0 -37 9 -18 28 12 12 48 -1 48 -18z"/>
<path d="M3130 7015 c0 -68 2 -75 20 -75 18 0 20 7 20 75 0 68 -2 75 -20 75
-18 0 -20 -7 -20 -75z"/>
<path d="M3410 7026 c0 -39 5 -68 13 -74 7 -6 38 -10 70 -9 l57 1 0 73 c0 66
-2 73 -20 73 -17 0 -20 -7 -20 -49 0 -51 -18 -78 -45 -67 -11 4 -15 21 -15 61
0 48 -2 55 -20 55 -18 0 -20 -7 -20 -64z"/>
<path d="M3844 7018 c17 -58 26 -74 43 -76 18 -3 24 4 32 35 6 21 11 44 11 51
0 6 4 12 9 12 5 0 13 -21 18 -47 7 -42 11 -48 33 -48 21 0 26 8 42 60 22 76
22 85 -1 85 -14 0 -21 -10 -26 -37 -11 -58 -18 -62 -30 -13 -9 38 -15 45 -35
45 -20 0 -26 -7 -35 -45 -12 -49 -19 -45 -30 13 -6 30 -12 37 -30 37 l-23 0
22 -72z"/>
<path d="M4090 7015 c0 -68 2 -75 20 -75 18 0 20 7 20 75 0 68 -2 75 -20 75
-18 0 -20 -7 -20 -75z"/>
<path d="M3552 6093 c2 -10 10 -18 18 -18 8 0 16 8 18 18 2 12 -3 17 -18 17
-15 0 -20 -5 -18 -17z"/>
<path d="M3394 6075 c-22 -33 -10 -61 37 -91 21 -13 39 -29 39 -34 0 -18 -28
-23 -61 -11 -28 10 -30 9 -27 -12 2 -18 10 -23 47 -25 89 -7 109 60 33 111
-35 24 -41 31 -31 43 8 10 22 13 39 9 30 -7 51 19 24 29 -38 15 -84 6 -100
-19z"/>
<path d="M3670 6053 c-26 -9 -40 -36 -40 -78 0 -54 26 -80 70 -72 21 5 30 3
30 -7 0 -24 -27 -38 -60 -31 -23 5 -30 3 -30 -9 0 -19 40 -31 74 -22 48 12 56
31 56 126 l0 89 -33 -1 c-19 -1 -38 1 -43 4 -5 3 -16 3 -24 1z m55 -78 c0 -31
-4 -41 -19 -43 -22 -5 -36 14 -36 49 0 32 8 41 35 37 16 -2 20 -10 20 -43z"/>
<path d="M3885 6050 c-11 -5 -30 -6 -42 -3 -22 5 -23 3 -23 -71 0 -69 2 -76
20 -76 17 0 20 7 20 48 0 55 10 75 36 70 16 -3 20 -14 22 -61 3 -49 6 -57 22
-57 18 0 20 7 20 64 0 39 -5 67 -12 73 -22 17 -42 21 -63 13z"/>
<path d="M3550 5975 c0 -68 2 -75 20 -75 18 0 20 7 20 75 0 68 -2 75 -20 75
-18 0 -20 -7 -20 -75z"/>
<path d="M4080 5997 c0 -64 20 -97 59 -97 15 0 32 5 39 12 9 9 12 9 12 0 0 -7
7 -12 15 -12 12 0 15 15 15 75 0 68 -2 75 -20 75 -18 0 -20 -7 -20 -55 0 -42
-4 -57 -16 -62 -25 -9 -44 24 -44 74 0 36 -3 43 -20 43 -17 0 -20 -7 -20 -53z"/>
<path d="M4270 5939 c0 -102 1 -109 20 -109 17 0 20 7 20 40 0 39 1 39 30 33
43 -8 70 18 70 69 0 66 -11 77 -80 76 l-60 -1 0 -108z m95 36 c0 -46 -26 -60
-45 -25 -18 33 -4 72 23 68 18 -3 22 -9 22 -43z"/>
<path d="M1800 4965 l0 -105 25 0 25 0 0 105 0 105 -25 0 -25 0 0 -105z"/>
<path d="M2460 5035 c0 -32 -2 -34 -22 -26 -48 17 -78 -12 -78 -75 0 -25 6
-49 16 -58 18 -19 55 -21 72 -4 9 9 12 9 12 0 0 -7 9 -12 20 -12 19 0 20 7 20
105 0 98 -1 105 -20 105 -16 0 -20 -7 -20 -35z m-4 -79 c9 -38 -4 -68 -29 -64
-23 3 -35 43 -23 74 9 24 45 17 52 -10z"/>
<path d="M2787 5063 c-4 -3 -7 -51 -7 -105 0 -97 0 -98 25 -98 22 0 24 4 27
58 3 50 6 57 26 60 21 3 22 0 22 -57 0 -59 1 -61 26 -61 l27 0 -7 67 c-4 36
-10 71 -13 76 -3 5 -24 7 -47 5 l-42 -5 4 33 c4 28 1 34 -15 34 -11 0 -23 -3
-26 -7z"/>
<path d="M5962 5053 c2 -10 10 -18 18 -18 8 0 16 8 18 18 2 12 -3 17 -18 17
-15 0 -20 -5 -18 -17z"/>
<path d="M1623 4967 c-18 -52 -33 -97 -33 -100 0 -18 38 -4 48 18 9 20 19 25
47 25 29 0 36 -4 41 -25 4 -18 13 -25 30 -25 l24 0 -19 48 c-10 26 -26 71 -35
100 -15 45 -21 52 -44 52 -25 0 -29 -7 -59 -93z m76 -4 c1 -17 -5 -23 -20 -23
-18 0 -20 4 -14 33 4 17 10 36 13 41 7 12 20 -21 21 -51z"/>
<path d="M5143 5053 c-7 -2 -13 -11 -13 -19 0 -11 8 -13 34 -9 46 9 55 -10 22
-44 -29 -30 -34 -51 -11 -51 20 0 74 60 75 82 0 37 -60 61 -107 41z"/>
<path d="M5360 4960 l0 -100 65 0 c50 0 65 3 65 14 0 10 -14 16 -42 18 l-43 3
-3 83 c-3 74 -5 82 -22 82 -19 0 -20 -7 -20 -100z"/>
<path d="M5040 5043 c0 -7 -9 -21 -21 -32 -13 -12 -17 -21 -10 -26 6 -3 11
-21 11 -40 0 -62 15 -85 55 -85 24 0 35 5 35 15 0 8 -9 15 -20 15 -17 0 -20 7
-20 45 0 38 3 45 20 45 11 0 20 7 20 15 0 8 -7 15 -16 15 -9 0 -24 10 -35 23
-10 12 -18 17 -19 10z"/>
<path d="M1958 5006 c-16 -8 -28 -11 -28 -5 0 5 -9 9 -20 9 -18 0 -20 -7 -20
-75 0 -73 1 -75 24 -75 23 0 25 4 28 53 2 43 7 54 26 62 12 5 22 18 22 27 0
21 2 21 -32 4z"/>
<path d="M2063 5012 c-64 -10 -70 -132 -7 -148 36 -9 79 0 82 17 2 12 -4 15
-28 11 -31 -4 -64 13 -54 29 3 5 25 9 50 9 40 0 44 2 44 23 0 38 -42 67 -87
59z m47 -48 c0 -8 -10 -14 -25 -14 -26 0 -35 25 -12 33 18 6 37 -3 37 -19z"/>
<path d="M2228 5013 c-34 -5 -39 -35 -5 -33 38 3 47 1 47 -15 0 -10 -10 -15
-33 -15 -38 0 -57 -15 -57 -45 0 -28 19 -45 50 -45 14 0 31 5 38 12 9 9 12 9
12 0 0 -7 9 -12 20 -12 17 0 20 7 20 39 0 67 -10 98 -36 110 -14 6 -26 10 -27
10 -1 -1 -14 -4 -29 -6z m42 -98 c0 -9 -7 -18 -16 -22 -18 -7 -39 11 -30 26
11 17 46 13 46 -4z"/>
<path d="M3012 5011 c-33 -9 -28 -26 8 -27 17 -1 33 -4 36 -7 12 -11 -8 -27
-34 -27 -46 0 -66 -27 -51 -67 9 -25 46 -31 80 -13 13 7 19 7 19 0 0 -5 7 -10
15 -10 12 0 15 14 15 64 0 39 -5 67 -12 74 -20 15 -50 20 -76 13z m46 -98 c-4
-22 -48 -31 -48 -10 0 19 10 27 32 27 13 0 18 -6 16 -17z"/>
<path d="M3353 5012 c-64 -10 -70 -132 -7 -148 36 -9 79 0 82 17 2 12 -4 15
-28 11 -31 -4 -64 13 -54 29 3 5 25 9 50 9 40 0 44 2 44 23 0 38 -42 67 -87
59z m47 -48 c0 -8 -10 -14 -25 -14 -26 0 -35 25 -12 33 18 6 37 -3 37 -19z"/>
<path d="M3592 5011 c-36 -10 -31 -26 11 -29 48 -4 52 -32 4 -32 -38 0 -57
-15 -57 -45 0 -28 19 -45 50 -45 14 0 31 5 38 12 9 9 12 9 12 0 0 -7 7 -12 15
-12 12 0 15 14 15 64 0 39 -5 67 -12 74 -20 15 -50 20 -76 13z m46 -98 c-4
-22 -48 -31 -48 -10 0 19 10 27 32 27 13 0 18 -6 16 -17z"/>
<path d="M3795 5010 c-11 -5 -30 -6 -42 -3 -22 5 -23 3 -23 -71 0 -69 2 -76
20 -76 17 0 20 7 20 48 0 55 10 75 36 70 16 -3 20 -14 22 -61 3 -49 6 -57 22
-57 18 0 20 7 20 64 0 39 -5 67 -12 73 -22 17 -42 21 -63 13z"/>
<path d="M4032 5011 c-36 -10 -31 -26 11 -29 48 -4 52 -32 4 -32 -38 0 -57
-15 -57 -45 0 -28 19 -45 50 -45 14 0 31 5 38 12 9 9 12 9 12 0 0 -7 7 -12 15
-12 12 0 15 14 15 64 0 39 -5 67 -12 74 -20 15 -50 20 -76 13z m46 -98 c-4
-22 -48 -31 -48 -10 0 19 10 27 32 27 13 0 18 -6 16 -17z"/>
<path d="M4365 5013 c-37 -9 -55 -34 -55 -78 0 -55 24 -77 76 -73 27 2 40 8
42 20 2 12 -4 16 -29 15 -38 -2 -55 19 -45 56 5 22 12 27 36 27 25 0 49 15 39
24 -9 8 -46 13 -64 9z"/>
<path d="M4906 5013 c-3 -4 -22 -6 -41 -5 l-35 1 0 -74 c0 -68 2 -75 20 -75
17 0 20 7 20 43 0 50 19 83 44 74 12 -5 16 -20 16 -62 0 -48 2 -55 20 -55 18
0 20 7 20 64 0 39 -5 67 -12 73 -19 15 -45 22 -52 16z"/>
<path d="M5558 5008 c-74 -25 -50 -148 29 -148 43 0 73 30 73 73 0 62 -44 94
-102 75z m58 -55 c8 -31 -6 -58 -31 -58 -22 0 -35 33 -24 63 12 32 47 29 55
-5z"/>
<path d="M6115 5010 c-11 -5 -30 -6 -42 -3 -22 5 -23 3 -23 -71 0 -69 2 -76
20 -76 16 0 19 8 22 57 2 47 6 58 22 61 26 5 36 -15 36 -70 0 -41 3 -48 20
-48 18 0 20 7 20 58 0 77 -27 110 -75 92z"/>
<path d="M2530 5003 c0 -4 12 -38 26 -75 28 -71 27 -98 -6 -98 -11 0 -20 -7
-20 -15 0 -36 59 -25 80 15 5 10 24 55 40 100 l30 81 -22 -3 c-18 -2 -27 -15
-39 -52 l-16 -49 -18 52 c-12 38 -22 51 -36 51 -10 0 -19 -3 -19 -7z"/>
<path d="M3133 4998 c2 -7 14 -41 27 -75 19 -52 27 -63 45 -63 18 0 26 11 45
63 13 34 25 68 28 75 3 10 -2 13 -18 10 -18 -2 -27 -15 -40 -53 l-17 -50 -17
53 c-14 40 -22 52 -38 52 -12 0 -18 -5 -15 -12z"/>
<path d="M4176 4988 c-23 -32 -20 -84 5 -109 25 -25 92 -24 97 3 2 12 -4 16
-29 15 -37 -2 -55 19 -45 56 5 20 13 26 38 29 52 5 47 28 -6 28 -35 0 -48 -5
-60 -22z"/>
<path d="M4477 4992 c-23 -26 -22 -94 1 -115 25 -23 78 -21 102 3 26 26 27 90
2 113 -25 23 -85 22 -105 -1z m81 -35 c2 -10 1 -30 -2 -43 -10 -37 -50 -29
-54 9 -2 16 -1 35 2 44 8 20 50 12 54 -10z"/>
<path d="M4640 4954 c0 -73 12 -94 53 -94 18 0 38 5 45 12 9 9 12 9 12 0 0 -7
7 -12 15 -12 12 0 15 15 15 75 0 68 -2 75 -19 75 -17 0 -20 -8 -23 -51 -2 -37
-8 -55 -21 -63 -24 -15 -37 7 -37 67 0 40 -3 47 -20 47 -18 0 -20 -7 -20 -56z"/>
<path d="M5705 4987 c-20 -28 -19 -77 1 -106 13 -18 24 -22 50 -19 22 3 34 0
34 -8 0 -22 -27 -34 -59 -28 -24 5 -31 3 -31 -9 0 -19 47 -31 84 -21 38 9 46
32 46 127 l0 83 -55 2 c-46 1 -57 -2 -70 -21z m80 -52 c0 -33 -4 -40 -19 -40
-26 0 -40 26 -32 59 5 21 12 27 29 24 18 -3 22 -9 22 -43z"/>
<path d="M5960 4935 c0 -68 2 -75 20 -75 18 0 20 7 20 75 0 68 -2 75 -20 75
-18 0 -20 -7 -20 -75z"/>
<path d="M5160 4880 c0 -13 7 -20 20 -20 13 0 20 7 20 20 0 13 -7 20 -20 20
-13 0 -20 -7 -20 -20z"/>
<path d="M4143 4045 c0 -60 2 -92 4 -70 6 65 12 84 33 95 14 8 26 8 40 0 17
-9 20 -21 20 -70 0 -33 4 -60 10 -60 16 0 12 103 -6 128 -16 23 -58 30 -69 12
-13 -21 -24 -8 -28 33 -2 23 -4 -7 -4 -68z"/>
<path d="M5611 4141 c-18 -12 -29 -201 -12 -201 7 0 11 27 11 71 0 58 3 70 15
66 8 -4 17 -2 20 3 4 6 -3 10 -15 10 -29 0 -23 31 10 47 22 11 22 13 5 13 -11
0 -26 -4 -34 -9z"/>
<path d="M6990 4111 l0 -39 -29 11 c-25 9 -33 8 -49 -7 -25 -22 -33 -61 -20
-98 12 -33 46 -45 78 -28 18 10 24 9 31 -1 5 -8 9 30 9 94 0 65 -4 107 -10
107 -5 0 -10 -18 -10 -39z m-19 -41 c28 -15 27 -95 -1 -110 -56 -30 -97 53
-50 100 23 23 25 23 51 10z"/>
<path d="M350 4041 l0 -101 43 0 c23 0 53 7 65 16 27 19 29 58 2 77 -19 13
-19 13 0 30 39 33 14 65 -57 74 l-53 6 0 -102z m101 63 c20 -24 -1 -48 -45
-52 -35 -3 -36 -2 -36 32 0 34 2 36 34 36 18 0 39 -7 47 -16z m-1 -78 c6 -8
10 -25 8 -38 -2 -19 -10 -23 -45 -26 l-43 -3 0 40 c0 40 1 41 34 41 18 0 39
-7 46 -14z"/>
<path d="M1320 4130 c0 -5 5 -10 10 -10 6 0 10 5 10 10 0 6 -4 10 -10 10 -5 0
-10 -4 -10 -10z"/>
<path d="M1740 4130 c0 -5 5 -10 10 -10 6 0 10 5 10 10 0 6 -4 10 -10 10 -5 0
-10 -4 -10 -10z"/>
<path d="M4520 4130 c0 -5 14 -10 30 -10 l30 0 0 -90 c0 -53 4 -90 10 -90 6 0
10 37 10 90 l0 90 30 0 c17 0 30 5 30 10 0 6 -30 10 -70 10 -40 0 -70 -4 -70
-10z"/>
<path d="M5760 4060 c0 -67 3 -83 20 -100 25 -25 71 -26 101 -1 21 17 24 30
27 100 3 55 1 81 -7 81 -7 0 -11 -26 -11 -71 0 -88 -10 -109 -53 -109 -49 0
-57 14 -57 102 0 45 -4 78 -10 78 -6 0 -10 -33 -10 -80z"/>
<path d="M6412 4039 c1 -72 3 -90 7 -59 5 36 10 46 27 48 16 2 28 -8 48 -42
15 -26 31 -46 37 -46 5 0 -2 18 -16 40 -30 48 -30 45 -4 71 14 14 18 27 13 42
-10 33 -18 39 -68 44 l-46 6 2 -104z m92 59 c17 -27 -5 -52 -48 -56 l-36 -3 0
41 0 41 36 -3 c22 -2 42 -10 48 -20z"/>
<path d="M1231 4111 c0 -8 -9 -20 -18 -28 -10 -8 -12 -12 -5 -8 6 3 12 3 12
-2 1 -4 2 -32 3 -61 2 -54 14 -72 50 -72 9 0 17 4 17 10 0 5 -6 7 -13 4 -24
-9 -38 22 -35 73 2 39 6 48 21 47 9 -1 17 2 17 7 0 5 -9 9 -19 9 -11 0 -22 8
-24 18 -3 10 -5 11 -6 3z"/>
<path d="M3701 4108 c0 -10 -6 -18 -12 -18 -5 0 -7 -5 -3 -12 4 -6 8 -36 8
-65 1 -56 13 -73 51 -73 17 0 17 2 -5 13 -22 11 -25 19 -25 67 0 49 2 55 25
61 l25 7 -27 1 c-16 1 -28 8 -31 19 -4 16 -5 16 -6 0z"/>
<path d="M4033 4095 c-6 -14 -7 -25 -2 -25 5 0 9 -27 9 -59 0 -60 8 -71 48
-71 14 1 13 3 -3 12 -29 16 -35 28 -35 74 0 35 4 42 28 51 l27 11 -27 1 c-15
1 -28 8 -30 16 -2 10 -7 7 -15 -10z"/>
<path d="M510 4084 c0 -3 14 -37 30 -75 33 -75 30 -101 -13 -119 l-22 -9 21 0
c29 -1 39 13 79 115 40 101 38 94 26 94 -5 0 -19 -29 -31 -65 -12 -36 -23 -65
-25 -65 -1 0 -13 29 -26 65 -12 36 -26 65 -31 65 -4 0 -8 -3 -8 -6z"/>
<path d="M762 4074 c-17 -12 -22 -25 -22 -59 0 -34 5 -47 22 -59 26 -19 64
-21 74 -5 5 8 -1 10 -18 6 -37 -10 -60 12 -60 58 0 45 20 65 58 57 19 -3 25
-1 20 7 -10 16 -48 14 -74 -5z"/>
<path d="M891 4064 c-12 -15 -21 -37 -21 -49 0 -33 37 -75 66 -75 35 0 64 34
64 75 0 69 -69 100 -109 49z m70 6 c28 -16 27 -95 -2 -110 -32 -17 -69 11 -69
53 0 42 11 57 48 66 2 1 12 -4 23 -9z"/>
<path d="M1050 4018 c0 -46 4 -78 10 -78 6 0 10 27 10 60 0 49 3 61 20 70 14
8 26 8 40 0 17 -9 20 -21 20 -70 0 -33 4 -60 10 -60 11 0 13 81 4 118 -8 27
-44 38 -74 22 -18 -10 -24 -9 -31 1 -5 9 -9 -17 -9 -63z"/>
<path d="M1320 4015 c0 -43 4 -75 10 -75 6 0 10 32 10 75 0 43 -4 75 -10 75
-6 0 -10 -32 -10 -75z"/>
<path d="M1399 4086 c-2 -2 -2 -37 0 -78 l5 -73 6 65 c6 59 1 98 -11 86z"/>
<path d="M1434 4079 c-4 -7 0 -9 12 -5 34 10 49 -10 55 -76 l6 -63 1 66 c1 39
-3 70 -10 77 -15 15 -55 16 -64 1z"/>
<path d="M1573 4040 c0 -30 2 -43 4 -27 2 15 2 39 0 55 -2 15 -4 2 -4 -28z"/>
<path d="M1670 4042 c0 -75 -37 -113 -75 -76 -20 20 -33 11 -15 -11 15 -18 51
-20 69 -2 11 10 14 9 18 -1 3 -6 9 -10 14 -6 12 7 12 144 -1 144 -5 0 -10 -21
-10 -48z"/>
<path d="M1740 4015 c0 -43 4 -75 10 -75 6 0 10 32 10 75 0 43 -4 75 -10 75
-6 0 -10 -32 -10 -75z"/>
<path d="M1810 4015 c0 -43 4 -75 10 -75 6 0 10 24 10 54 0 36 5 60 16 70 36
37 64 10 65 -63 2 -76 19 -73 19 4 0 60 -2 66 -25 77 -19 8 -31 8 -50 0 -15
-7 -25 -8 -25 -2 0 6 -4 10 -10 10 -6 0 -10 -32 -10 -75z"/>
<path d="M2000 4070 c-12 -12 -20 -33 -20 -55 0 -56 55 -96 88 -63 18 18 27 1
16 -30 -8 -24 -15 -27 -52 -27 -23 0 -42 -3 -42 -7 0 -13 87 -9 98 5 12 14 15
45 13 137 -1 45 -4 60 -11 50 -7 -12 -12 -12 -22 -2 -18 18 -45 15 -68 -8z
m70 -10 c27 -27 26 -75 -2 -94 -28 -20 -33 -20 -52 0 -30 30 -12 114 25 114 5
0 18 -9 29 -20z"/>
<path d="M2290 4084 c0 -4 12 -36 26 -71 30 -75 28 -103 -6 -120 -23 -12 -23
-13 -4 -13 26 0 40 15 58 66 8 21 23 63 35 92 14 34 17 52 9 50 -6 -2 -21 -33
-33 -68 -23 -70 -24 -70 -49 7 -15 46 -36 79 -36 57z"/>
<path d="M2465 4065 c-14 -13 -25 -36 -25 -50 0 -30 41 -75 68 -75 54 0 83 89
42 130 -27 27 -56 25 -85 -5z m66 5 c14 -8 19 -21 19 -56 0 -38 -4 -46 -25
-56 -33 -15 -65 12 -65 56 0 41 12 56 48 65 2 1 12 -4 23 -9z"/>
<path d="M2622 4024 c4 -79 18 -96 68 -77 16 6 30 7 30 2 0 -5 5 -9 10 -9 6 0
10 32 10 75 0 43 -4 75 -10 75 -5 0 -10 -24 -10 -54 0 -58 -20 -92 -47 -82 -8
3 -19 6 -24 6 -5 0 -9 29 -9 65 0 39 -4 65 -10 65 -7 0 -10 -25 -8 -66z"/>
<path d="M2880 4079 c-11 -8 -8 -9 13 -4 45 9 83 -37 40 -48 -17 -4 -17 -5 0
-6 28 -2 22 -49 -8 -63 -21 -9 -29 -9 -41 3 -17 18 -10 46 14 52 12 3 10 5 -5
6 -25 1 -46 -29 -37 -53 8 -21 47 -30 72 -17 13 7 22 7 30 -1 9 -9 12 3 12 49
0 43 -5 66 -16 77 -18 18 -52 21 -74 5z"/>
<path d="M3039 4072 c-19 -20 -30 -60 -19 -67 4 -2 10 9 13 25 7 35 33 51 65
39 18 -7 22 -16 22 -53 0 -35 -5 -48 -20 -56 -22 -12 -55 0 -63 22 -2 7 -7 10
-11 7 -12 -11 6 -39 29 -45 13 -3 33 -1 44 6 19 9 21 8 21 -13 0 -33 -23 -50
-60 -45 -16 3 -30 1 -30 -4 0 -15 78 -9 94 8 21 21 24 203 3 186 -8 -7 -18 -7
-27 -2 -22 14 -43 11 -61 -8z"/>
<path d="M3202 4015 c1 -75 1 -76 7 -25 7 65 15 80 42 80 10 0 19 5 19 10 0
16 -26 12 -41 -6 -12 -14 -14 -14 -20 3 -4 10 -7 -18 -7 -62z"/>
<path d="M3320 4070 c-29 -29 -27 -94 2 -114 26 -19 74 -21 84 -4 5 8 0 9 -16
5 -33 -8 -70 9 -70 33 0 17 6 20 50 20 52 0 58 6 39 43 -23 42 -57 49 -89 17z
m64 -6 c25 -25 19 -34 -24 -34 -43 0 -55 20 -22 39 23 14 28 14 46 -5z"/>
<path d="M3480 4070 c-29 -29 -27 -94 2 -114 26 -18 56 -20 78 -5 11 8 7 9
-17 4 -24 -5 -37 -1 -52 14 -32 32 -26 41 29 41 46 0 50 2 50 23 0 27 -28 57
-53 57 -9 0 -26 -9 -37 -20z m68 -18 c14 -22 14 -22 -32 -22 -43 0 -46 2 -36
19 19 36 45 37 68 3z"/>
<path d="M3812 4074 c-17 -12 -22 -25 -22 -59 0 -34 5 -47 22 -59 49 -34 100
-4 100 59 0 63 -51 93 -100 59z m69 -15 c16 -16 20 -28 15 -52 -7 -35 -23 -57
-42 -57 -23 0 -54 38 -54 65 0 25 31 65 50 65 6 0 19 -9 31 -21z"/>
<path d="M4321 4064 c-12 -15 -21 -37 -21 -49 0 -55 68 -94 110 -64 12 8 8 9
-16 5 -34 -5 -74 16 -74 40 0 10 13 14 50 14 46 0 50 2 50 24 0 26 -33 56 -61
56 -10 0 -27 -12 -38 -26z m60 6 c34 -19 23 -40 -21 -40 -44 0 -48 5 -23 32
19 21 19 21 44 8z"/>
<path d="M4690 4070 c-45 -45 -13 -130 49 -130 17 0 33 5 37 11 5 8 -1 10 -18
6 -28 -7 -68 16 -68 39 0 10 13 14 50 14 43 0 50 3 50 20 0 11 -9 29 -20 40
-11 11 -29 20 -40 20 -11 0 -29 -9 -40 -20z m61 0 c34 -19 23 -40 -21 -40 -43
0 -49 9 -24 34 18 19 20 19 45 6z"/>
<path d="M4837 4050 c-3 -25 -2 -61 3 -80 8 -35 8 -35 9 13 1 58 15 87 41 87
11 0 20 5 20 10 0 16 -26 12 -41 -6 -12 -14 -14 -14 -19 2 -5 12 -9 3 -13 -26z"/>
<path d="M4950 4017 c0 -45 4 -77 10 -77 6 0 10 27 10 60 0 48 4 61 19 70 41
21 54 1 64 -100 3 -23 4 -15 5 21 2 67 26 98 61 79 18 -9 21 -20 21 -70 0 -33
4 -60 10 -60 17 0 12 116 -6 134 -19 20 -49 21 -66 2 -11 -12 -16 -12 -31 2
-14 13 -24 14 -47 5 -20 -8 -31 -8 -39 0 -8 8 -11 -11 -11 -66z"/>
<path d="M5216 4074 c-23 -22 -20 -33 15 -52 61 -34 65 -38 49 -57 -10 -12
-23 -15 -42 -11 -18 3 -27 2 -23 -4 8 -13 41 -13 66 0 32 18 23 47 -21 70 -60
30 -47 68 18 54 21 -4 24 -3 12 5 -22 16 -56 13 -74 -5z"/>
<path d="M5435 4065 c-30 -30 -32 -64 -4 -99 40 -51 109 -20 109 49 0 40 -28
75 -60 75 -12 0 -32 -11 -45 -25z m66 5 c28 -16 27 -95 -2 -110 -54 -30 -98
68 -47 104 27 19 24 19 49 6z"/>
<path d="M5966 4074 c-23 -22 -20 -33 15 -52 62 -35 66 -40 44 -57 -13 -10
-30 -13 -49 -9 -19 4 -26 3 -22 -5 10 -15 58 -14 80 2 27 20 15 50 -27 70 -20
9 -37 24 -37 31 0 18 31 29 54 20 9 -3 16 -1 16 5 0 17 -56 13 -74 -5z"/>
<path d="M6109 4069 c-16 -16 -20 -29 -16 -62 3 -23 12 -46 23 -54 20 -15 70
-17 78 -4 3 5 -10 9 -30 8 -21 -1 -39 5 -45 13 -19 31 -10 40 41 40 43 0 50 3
50 20 0 26 -34 60 -60 60 -11 0 -29 -9 -41 -21z m62 1 c34 -19 23 -40 -21 -40
-43 0 -55 20 -22 39 21 13 20 13 43 1z"/>
<path d="M6590 4070 c-22 -22 -26 -69 -10 -100 13 -24 77 -38 93 -20 10 10 7
11 -14 7 -29 -7 -69 16 -69 39 0 10 13 14 50 14 43 0 50 3 50 20 0 26 -34 60
-60 60 -11 0 -29 -9 -40 -20z m61 0 c34 -19 23 -40 -21 -40 -43 0 -55 20 -22
39 21 13 20 13 43 1z"/>
<path d="M6750 4079 c-11 -8 -8 -9 13 -4 30 6 57 -8 57 -30 0 -7 -19 -16 -42
-21 -39 -8 -43 -12 -46 -42 -4 -38 17 -51 59 -35 19 8 31 7 38 0 8 -8 11 6 11
50 0 43 -5 66 -16 77 -18 18 -52 21 -74 5z m70 -84 c0 -32 -41 -55 -65 -35
-22 18 -19 39 8 50 41 16 57 12 57 -15z"/>
<path d="M2160 3956 c0 -8 -3 -23 -6 -33 -5 -12 -4 -15 3 -8 16 15 26 55 14
55 -6 0 -11 -6 -11 -14z"/>
<path d="M6250 3956 c0 -9 7 -16 16 -16 17 0 14 22 -4 28 -7 2 -12 -3 -12 -12z"/>
<path d="M2228 3628 c3 -135 12 -139 12 -5 0 59 -3 107 -7 107 -5 0 -7 -46 -5
-102z"/>
<path d="M880 3621 c0 -61 4 -101 10 -101 6 0 10 17 10 39 0 36 2 39 36 44 47
8 64 23 64 57 0 36 -17 49 -74 56 l-46 7 0 -102z m95 39 c0 -28 -4 -35 -25
-40 -39 -10 -50 -1 -50 42 l0 39 38 -3 c35 -3 37 -5 37 -38z"/>
<path d="M1160 3710 c0 -5 5 -10 10 -10 6 0 10 5 10 10 0 6 -4 10 -10 10 -5 0
-10 -4 -10 -10z"/>
<path d="M1890 3620 c0 -60 4 -100 10 -100 6 0 10 18 10 40 0 33 3 40 20 40
84 0 109 98 29 114 -71 14 -69 16 -69 -94z m90 65 c18 -21 8 -48 -23 -63 -36
-17 -47 -9 -47 39 0 36 2 39 29 39 16 0 34 -7 41 -15z"/>
<path d="M2295 3710 c3 -5 8 -10 11 -10 2 0 4 5 4 10 0 6 -5 10 -11 10 -5 0
-7 -4 -4 -10z"/>
<path d="M367 3659 c-9 -6 -15 -14 -12 -20 4 -5 1 -9 -4 -9 -19 0 -12 -69 9
-90 43 -43 110 -9 110 55 0 59 -54 93 -103 64z m67 -15 c32 -32 11 -114 -29
-114 -24 0 -45 30 -45 65 0 35 21 65 45 65 7 0 21 -7 29 -16z"/>
<path d="M524 3606 c1 -81 15 -98 66 -79 16 6 30 7 30 2 0 -5 4 -9 8 -9 4 0 9
34 10 75 1 45 -2 75 -8 75 -5 0 -10 -24 -10 -54 0 -44 -4 -58 -21 -69 -11 -8
-29 -12 -40 -10 -21 6 -27 23 -32 93 -2 25 -4 14 -3 -24z"/>
<path d="M690 3597 c0 -45 4 -77 10 -77 6 0 10 24 10 53 0 55 12 77 42 77 10
0 18 5 18 10 0 16 -26 12 -41 -6 -12 -14 -14 -14 -26 2 -11 15 -13 7 -13 -59z"/>
<path d="M1052 3595 l0 -80 9 58 c5 33 4 67 -1 80 -6 16 -9 -1 -8 -58z"/>
<path d="M1084 3654 c-17 -14 -17 -15 -1 -10 10 3 25 6 33 6 8 0 14 5 14 10 0
15 -24 12 -46 -6z"/>
<path d="M1160 3595 c0 -43 4 -75 10 -75 6 0 10 32 10 75 0 43 -4 75 -10 75
-6 0 -10 -32 -10 -75z"/>
<path d="M1239 3598 c14 -39 31 -73 38 -75 9 -3 63 116 63 140 0 23 -21 -10
-35 -56 -17 -52 -35 -82 -35 -59 0 20 -41 122 -50 122 -4 0 4 -32 19 -72z"/>
<path d="M1394 3658 c-5 -8 -2 -9 11 -4 26 10 55 -3 55 -24 0 -10 -8 -21 -17
-23 -17 -4 -17 -5 0 -6 28 -2 22 -49 -9 -63 -22 -10 -28 -10 -39 6 -16 22 -9
46 14 47 10 0 12 2 3 6 -17 7 -42 -15 -42 -37 0 -31 27 -45 63 -32 24 9 33 9
39 -1 4 -6 8 17 8 54 0 37 -5 70 -12 77 -15 15 -65 16 -74 0z"/>
<path d="M1552 3654 c-17 -12 -22 -25 -22 -59 0 -34 5 -47 22 -59 26 -19 64
-21 74 -5 5 8 -1 10 -18 6 -38 -10 -62 14 -61 58 1 44 12 58 47 58 14 0 26 3
26 8 0 15 -44 10 -68 -7z"/>
<path d="M1650 3664 c0 -3 13 -37 30 -75 32 -77 30 -102 -13 -119 l-22 -9 22
0 c28 -1 43 22 82 124 35 91 34 85 22 85 -5 0 -19 -29 -31 -65 -12 -36 -23
-65 -25 -65 -1 0 -13 29 -26 65 -12 36 -26 65 -31 65 -4 0 -8 -2 -8 -6z"/>
<path d="M2070 3650 c-43 -43 -13 -130 44 -130 29 0 66 42 66 75 0 33 -37 75
-66 75 -13 0 -33 -9 -44 -20z m82 -14 c4 -6 8 -26 8 -43 0 -42 -37 -70 -69
-53 -30 16 -32 85 -3 108 17 13 52 7 64 -12z"/>
<path d="M2303 3595 c0 -44 2 -61 4 -37 2 23 2 59 0 80 -2 20 -4 1 -4 -43z"/>
<path d="M2380 3648 c-26 -28 -26 -82 0 -108 21 -21 65 -27 75 -10 4 7 -2 9
-18 5 -31 -8 -57 17 -57 55 0 48 9 60 47 60 20 0 32 4 28 10 -11 18 -54 11
-75 -12z"/>
<path d="M2496 3633 c39 -91 44 -113 32 -138 -6 -15 -20 -25 -31 -25 -11 0
-18 -3 -14 -6 3 -4 17 -4 31 0 19 5 30 21 54 83 42 110 45 123 33 123 -6 0
-11 -4 -11 -10 0 -5 -10 -35 -21 -66 l-22 -58 -25 67 c-13 37 -28 67 -33 67
-5 0 -2 -17 7 -37z"/>
<path d="M2630 3535 c0 -8 7 -15 15 -15 8 0 15 7 15 15 0 8 -7 15 -15 15 -8 0
-15 -7 -15 -15z"/>
</g>
</svg>
