<?xml version="1.0" standalone="no"?>
<!DOCTYPE svg PUBLIC "-//W3C//DTD SVG 20010904//EN"
 "http://www.w3.org/TR/2001/REC-SVG-20010904/DTD/svg10.dtd">
<svg version="1.0" xmlns="http://www.w3.org/2000/svg"
 width="780.000000pt" height="1688.000000pt" viewBox="0 0 780.000000 1688.000000"
 preserveAspectRatio="xMidYMid meet">

<g transform="translate(0.000000,1688.000000) scale(0.100000,-0.100000)"
fill="#000000" stroke="none">
<path d="M4010 16233 c-23 -8 -40 -34 -40 -60 0 -14 -6 -23 -15 -23 -8 0 -15
-9 -15 -20 0 -11 7 -20 15 -20 12 0 15 -15 15 -75 0 -73 1 -75 25 -75 24 0 25
2 25 75 0 68 2 75 20 75 13 0 20 7 20 20 0 13 -7 20 -20 20 -11 0 -20 7 -20
15 0 8 9 20 20 27 42 26 18 58 -30 41z"/>
<path d="M4102 16231 c-23 -14 -10 -46 18 -46 20 0 25 5 25 25 0 26 -20 36
-43 21z"/>
<path d="M450 16155 l-74 -75 74 -75 c41 -41 78 -75 82 -75 20 0 3 30 -42 75
-27 27 -50 53 -50 57 0 4 68 8 150 8 93 0 150 4 150 10 0 6 -57 10 -150 10
-82 0 -150 4 -150 8 0 4 23 30 50 57 45 45 62 75 42 75 -4 0 -41 -34 -82 -75z"/>
<path d="M3347 16223 c-4 -3 -7 -64 -7 -135 l0 -128 30 0 c29 0 30 2 30 45 l0
45 46 0 c115 0 145 139 36 170 -42 11 -125 14 -135 3z m133 -57 c6 -8 10 -25
8 -38 -2 -19 -10 -23 -45 -26 l-43 -3 0 40 c0 40 1 41 34 41 18 0 39 -7 46
-14z"/>
<path d="M4190 16095 l0 -135 30 0 30 0 0 135 0 135 -30 0 -30 0 0 -135z"/>
<path d="M3580 16055 c0 -95 0 -95 25 -95 23 0 25 4 25 43 0 67 9 87 41 94 22
4 29 11 29 29 0 18 -5 24 -23 24 -13 0 -28 -5 -35 -12 -9 -9 -12 -9 -12 0 0 7
-11 12 -25 12 -25 0 -25 0 -25 -95z"/>
<path d="M3745 16124 c-35 -38 -35 -102 1 -138 29 -28 87 -36 126 -15 32 17
51 74 38 115 -15 45 -45 64 -98 64 -34 0 -48 -6 -67 -26z m106 -38 c25 -55
-21 -107 -62 -70 -23 21 -25 57 -3 78 23 23 53 20 65 -8z"/>
<path d="M4090 16055 l0 -95 30 0 30 0 0 95 0 95 -30 0 -30 0 0 -95z"/>
<path d="M4323 16135 c-34 -24 -47 -76 -29 -118 17 -42 41 -57 91 -57 26 0 43
8 63 28 l27 27 -24 3 c-13 2 -35 -2 -48 -9 -25 -14 -53 -5 -61 19 -2 8 16 12
62 12 60 0 66 2 66 20 0 29 -26 76 -45 84 -29 11 -80 6 -102 -9z m86 -38 c15
-19 4 -27 -36 -27 -31 0 -44 16 -26 33 11 12 50 8 62 -6z"/>
<path d="M5248 15113 c6 -2 18 -2 25 0 6 3 1 5 -13 5 -14 0 -19 -2 -12 -5z"/>
<path d="M5292 15081 c-2 -45 6 -53 73 -70 64 -16 95 -36 95 -63 0 -12 11 -36
26 -55 22 -29 31 -33 70 -33 48 0 47 -3 29 57 -3 12 -14 25 -24 28 -14 4 -20
19 -23 63 -3 31 -10 69 -16 85 l-12 27 -108 0 -109 0 -1 -39z"/>
<path d="M6370 15111 c0 -23 32 -81 56 -100 14 -11 52 -28 83 -38 96 -29 172
-90 253 -200 73 -101 81 -125 73 -229 -7 -91 -6 -94 19 -119 14 -14 33 -41 42
-61 9 -20 22 -37 28 -39 6 -2 24 -6 40 -10 37 -8 126 -96 127 -126 1 -13 2
-35 3 -48 1 -20 8 -28 45 -48 2 -1 7 -23 12 -49 8 -42 6 -51 -16 -79 -35 -47
-92 -73 -178 -81 l-73 -6 -37 42 c-20 24 -46 68 -58 99 -27 73 -33 79 -86 87
-58 9 -113 -15 -113 -48 1 -58 25 -107 72 -142 26 -20 56 -36 67 -36 13 0 26
-14 41 -45 24 -50 24 -110 0 -110 -12 0 -14 -11 -12 -50 3 -42 -2 -58 -29
-100 -18 -27 -47 -66 -63 -87 -17 -20 -38 -47 -47 -59 -14 -20 -27 -24 -88
-27 -51 -3 -80 0 -105 12 -19 9 -51 16 -71 16 -20 0 -74 13 -119 29 -75 27
-84 28 -115 15 -46 -19 -91 -17 -126 6 -35 24 -83 26 -111 5 -10 -8 -35 -15
-54 -15 -47 0 -60 -15 -60 -68 0 -33 -3 -43 -14 -39 -25 10 -49 -32 -42 -72 4
-20 8 -47 10 -61 2 -14 13 -50 25 -80 23 -59 25 -71 14 -68 -15 3 -73 -14 -73
-21 0 -19 40 -41 83 -47 26 -4 47 -10 47 -14 0 -4 -24 -13 -54 -20 -40 -9 -57
-19 -65 -36 -6 -13 -18 -24 -27 -24 -13 0 -14 -3 -4 -15 7 -8 21 -15 31 -15
11 0 19 -4 19 -10 0 -5 -9 -10 -20 -10 -11 0 -20 -7 -20 -15 0 -8 -4 -15 -10
-15 -19 0 -10 -32 10 -37 23 -6 24 -14 10 -63 -10 -33 -8 -37 21 -62 27 -23
30 -28 16 -34 -24 -9 -12 -22 15 -17 32 5 57 -12 40 -29 -6 -6 -12 -24 -12
-38 0 -21 7 -29 36 -40 34 -14 34 -15 12 -23 -12 -4 -31 -6 -40 -3 -10 2 -20
0 -23 -5 -8 -12 13 -49 28 -49 19 0 68 -50 61 -62 -4 -5 -9 -6 -13 -2 -8 12
-48 34 -61 34 -25 0 -5 -19 48 -46 31 -16 59 -32 60 -36 2 -5 10 -8 17 -8 8 0
17 -9 20 -20 8 -27 79 -63 135 -71 l45 -6 -57 -1 c-60 -2 -75 -16 -34 -32 13
-5 27 -13 30 -19 3 -5 38 -21 76 -36 67 -26 90 -45 53 -45 -21 1 -80 14 -106
25 -11 5 0 -17 30 -57 65 -87 113 -206 113 -282 0 -34 -2 -37 -16 -26 -8 8
-23 30 -33 49 -30 60 -93 175 -103 189 -6 6 -14 12 -18 12 -10 0 -40 -57 -40
-75 0 -17 -44 -55 -63 -55 -10 0 -22 -11 -27 -25 -5 -14 -18 -25 -27 -25 -10
0 -24 -9 -31 -20 -7 -11 -21 -20 -32 -20 -21 0 -24 -13 -20 -93 l2 -38 -32 16
-31 16 12 -22 c14 -27 49 -58 65 -59 6 0 17 -7 24 -15 10 -12 9 -15 -6 -15
-11 0 -36 -3 -56 -6 -34 -6 -39 -4 -48 20 -5 14 -12 26 -16 26 -15 0 -84 -57
-85 -70 -3 -29 3 -55 17 -80 15 -27 54 -130 54 -143 0 -4 -28 19 -61 53 l-62
60 7 -37 c4 -21 9 -56 11 -78 l4 -40 -8 35 c-37 146 -61 197 -97 206 -35 9
-43 -4 -16 -26 12 -10 22 -28 22 -40 0 -12 5 -30 10 -41 6 -11 8 -40 4 -69 -6
-49 -7 -50 -25 -34 -11 9 -19 25 -19 34 0 21 -27 46 -38 36 -8 -9 -7 -155 2
-192 6 -23 11 -26 36 -20 17 3 30 2 30 -3 0 -17 -38 -41 -63 -41 -25 0 -27 -3
-21 -27 10 -41 12 -43 45 -43 18 0 28 -4 24 -10 -3 -5 -15 -10 -25 -10 -27 0
-60 -39 -60 -71 0 -32 23 -53 58 -54 14 0 27 -6 30 -14 3 -9 -1 -11 -15 -7
-13 4 -26 -1 -37 -13 -16 -18 -15 -20 25 -60 23 -22 46 -41 52 -41 5 0 20 -9
34 -20 24 -19 24 -20 5 -20 -11 0 -24 5 -27 10 -3 6 -17 10 -30 10 -12 0 -25
7 -29 15 -3 8 -10 15 -16 15 -16 0 -3 -37 26 -81 28 -41 30 -54 8 -45 -12 5
-15 2 -9 -11 4 -10 11 -33 15 -51 4 -18 15 -42 24 -55 8 -12 28 -40 43 -61 32
-45 127 -114 163 -118 19 -2 26 -10 28 -31 2 -18 26 -52 67 -95 44 -47 66 -80
75 -111 7 -27 28 -62 58 -93 41 -44 44 -51 29 -59 -9 -6 -17 -18 -17 -28 0 -9
-6 -26 -14 -36 -13 -18 -11 -21 18 -39 79 -48 157 -86 178 -86 29 0 121 -57
116 -72 -3 -7 -33 -12 -74 -13 -87 -1 -186 -39 -157 -60 10 -7 41 -15 68 -18
28 -3 77 -15 110 -27 33 -12 96 -25 140 -30 49 -4 111 -19 160 -38 44 -16 113
-42 153 -57 62 -23 144 -62 234 -110 10 -5 18 -13 18 -17 0 -5 5 -8 11 -8 18
0 133 -102 194 -171 103 -118 148 -238 185 -494 11 -77 26 -183 34 -235 48
-314 71 -870 49 -1196 -15 -233 -15 -413 -1 -494 6 -36 12 -123 13 -195 1 -71
5 -158 10 -192 6 -51 5 -67 -9 -87 -17 -27 -20 -58 -10 -119 l7 -38 24 23 c14
13 35 41 46 63 l22 40 3 1458 2 1457 -34 0 c-24 0 -43 -8 -61 -26 -22 -22 -33
-25 -61 -21 -33 6 -64 27 -64 44 0 4 -17 17 -37 28 -20 11 -40 27 -44 35 -22
44 -39 85 -39 96 0 8 -9 19 -20 26 -11 7 -20 17 -20 22 0 5 -10 17 -22 27 -11
11 -16 19 -10 19 7 0 12 9 12 20 0 11 5 20 10 20 6 0 10 8 10 18 0 10 9 24 20
32 11 8 20 22 20 32 0 10 5 18 10 18 6 0 10 -4 10 -10 0 -5 6 -10 14 -10 9 0
12 -7 9 -20 -4 -15 0 -20 14 -20 33 0 72 -24 84 -52 13 -31 53 -39 63 -12 3 8
10 12 16 9 5 -3 10 -1 10 4 0 14 57 14 65 1 3 -5 15 -10 26 -10 19 0 19 31 19
2371 l0 2370 -29 25 c-16 14 -44 54 -61 89 -17 36 -35 65 -40 65 -4 0 -20 16
-34 35 -25 32 -26 39 -20 101 8 75 39 125 77 121 16 -1 22 3 22 18 0 17 -9 21
-52 26 -79 10 -178 74 -293 191 -42 42 -87 79 -101 83 -26 6 -73 86 -99 168
l-12 37 -234 0 c-129 0 -234 -4 -234 -9z m757 -2171 c60 -26 118 -81 149 -142
42 -82 26 -250 -29 -314 -79 -92 -247 -85 -350 14 -57 55 -99 143 -105 222 -4
59 -2 70 24 110 34 52 74 94 109 113 44 22 148 21 202 -3z m-1232 -570 c3 -5
1 -10 -4 -10 -6 0 -11 5 -11 10 0 6 2 10 4 10 3 0 8 -4 11 -10z m403 -900 c50
-77 42 -96 -15 -32 -29 33 -45 83 -25 81 4 0 22 -22 40 -49z m-700 -265 c8 3
12 0 10 -7 -6 -18 -22 -20 -43 -5 -13 10 -16 20 -11 33 8 18 9 18 19 -4 6 -14
16 -21 25 -17z m1482 -1745 c0 -11 -4 -20 -10 -20 -5 0 -10 9 -10 20 0 11 5
20 10 20 6 0 10 -9 10 -20z"/>
<path d="M4040 14302 c0 -4 9 -15 20 -25 21 -18 27 -37 11 -37 -6 0 -13 5 -16
10 -3 6 -20 10 -36 10 -17 0 -28 -4 -25 -9 3 -5 -13 -12 -37 -15 l-42 -7 30
-13 c17 -7 59 -16 95 -19 36 -4 74 -9 85 -11 11 -3 24 -5 28 -5 5 -1 5 -5 2
-11 -3 -5 -22 -10 -42 -10 -20 0 -33 -3 -30 -7 4 -3 20 -6 37 -5 40 1 46 -13
16 -33 -17 -12 -36 -15 -58 -10 l-33 6 24 -21 c13 -11 31 -20 40 -20 13 -1 12
-4 -6 -19 -28 -23 -29 -31 -5 -31 19 0 42 -18 42 -32 0 -12 -25 -10 -55 4 -14
6 -24 17 -21 24 11 28 -49 53 -150 64 -212 22 -261 29 -304 39 -56 13 -60 13
-60 1 0 -6 24 -21 53 -35 28 -13 44 -24 35 -25 -9 0 -19 4 -22 8 -2 4 -23 9
-45 10 -22 2 -65 9 -97 18 -42 11 -60 12 -70 3 -10 -9 -21 -5 -45 15 -38 33
-59 33 -89 1 -14 -15 -52 -34 -92 -46 -55 -16 -71 -25 -83 -49 -9 -17 -20 -30
-25 -30 -18 0 -10 -17 13 -27 30 -14 42 -15 42 -4 0 20 17 25 29 9 6 -9 23
-16 36 -16 14 0 53 -5 88 -13 73 -15 86 -39 21 -39 -26 0 -38 -4 -33 -11 4 -7
-17 -9 -72 -5 -129 9 -142 11 -150 19 -25 24 -64 -16 -79 -84 -4 -15 -18 -37
-32 -48 -13 -12 -31 -37 -39 -56 -7 -18 -18 -37 -24 -40 -6 -4 -8 -15 -5 -25
4 -13 -1 -22 -14 -30 -12 -6 -20 -14 -19 -18 2 -13 -14 -42 -25 -42 -6 0 -43
-16 -84 -36 -52 -26 -73 -42 -73 -55 0 -20 15 -26 25 -9 3 6 14 10 25 10 10 0
20 7 24 15 3 8 12 15 21 15 17 0 20 -16 5 -25 -5 -3 -10 -19 -10 -36 0 -16 -5
-29 -10 -29 -6 0 -10 -15 -9 -32 4 -90 -38 -274 -66 -290 -7 -4 -16 -23 -19
-43 -4 -19 -16 -41 -27 -48 -20 -14 -20 -14 1 -20 16 -4 21 -13 21 -44 0 -21
1 -63 3 -93 6 -78 -7 -147 -33 -174 -13 -13 -44 -34 -69 -47 -92 -44 -97 -48
-94 -70 1 -16 -2 -20 -14 -15 -8 3 -28 -1 -45 -9 -39 -21 -40 -63 -1 -105 23
-26 36 -31 86 -34 63 -4 76 -14 68 -52 -7 -37 87 -250 119 -270 5 -3 9 -14 9
-26 0 -26 53 -183 85 -254 14 -30 25 -58 25 -63 0 -21 71 -69 112 -76 90 -14
83 -3 109 -180 34 -239 53 -301 150 -478 l31 -58 5 -192 c5 -207 -8 -311 -56
-437 -24 -64 -102 -198 -148 -257 -18 -22 -33 -44 -33 -48 0 -4 -11 -18 -24
-30 -13 -12 -25 -26 -27 -32 -5 -13 -176 -143 -189 -143 -5 0 -29 -13 -52 -29
-24 -16 -46 -27 -50 -25 -4 3 -15 -8 -25 -23 -10 -15 -24 -33 -31 -39 -11 -8
-8 -16 15 -40 30 -32 45 -39 183 -76 47 -12 87 -26 88 -30 5 -11 46 -10 96 3
44 11 108 2 271 -36 39 -9 87 -19 108 -22 21 -3 41 -12 44 -20 5 -12 7 -12 14
-1 7 10 9 10 9 -2 0 -13 1 -13 10 0 7 11 10 12 10 2 0 -10 4 -10 16 2 24 25
51 19 94 -20 45 -40 66 -40 75 3 13 60 33 92 57 90 13 -1 54 2 92 7 43 5 71 5
75 -1 8 -13 120 -63 141 -63 9 0 26 -8 38 -17 11 -10 34 -25 50 -35 26 -14 31
-24 37 -73 8 -62 4 -74 -57 -166 -19 -30 -15 -39 18 -39 39 0 145 120 149 167
1 16 4 35 7 43 6 17 26 109 33 154 2 16 9 34 15 40 5 5 10 19 10 31 0 12 7 30
15 41 51 66 73 196 40 240 -20 26 -19 63 5 117 11 25 18 52 14 60 -3 8 -1 18
5 22 6 3 11 28 11 54 0 26 7 56 15 67 9 12 14 42 15 80 0 34 6 77 14 95 8 19
17 60 21 92 l7 57 -53 0 c-62 0 -129 28 -229 95 -43 28 -85 47 -125 56 -33 7
-69 17 -79 22 -18 9 -18 10 5 28 13 10 35 19 50 19 14 0 29 4 35 9 12 12 153
47 224 56 89 10 100 15 100 40 0 26 -24 55 -46 55 -8 0 -14 10 -14 24 0 13 -6
28 -12 33 -21 16 -126 42 -146 36 -26 -6 -48 22 -33 41 16 18 44 24 156 33
166 12 176 11 231 -25 38 -24 60 -32 89 -30 l37 3 -6 44 c-8 59 -26 84 -78
110 -42 20 -45 20 -96 4 -50 -16 -55 -16 -100 1 -117 46 -159 57 -197 53 -22
-2 -74 0 -116 6 -70 9 -82 8 -157 -17 -49 -17 -90 -25 -103 -21 l-21 7 24 25
c37 39 100 59 219 67 15 1 30 4 31 7 2 2 12 21 22 42 23 44 39 43 46 -3 7 -44
36 -62 56 -35 12 15 15 37 11 88 -2 37 -1 70 3 72 5 3 31 0 58 -6 44 -11 52
-10 75 7 32 23 34 57 5 84 -24 22 -47 20 -90 -11 -36 -25 -38 -25 -38 14 0 30
-4 34 -48 50 -26 10 -85 19 -131 22 -83 4 -84 4 -130 -31 l-46 -36 -3 37 c-4
49 22 91 87 136 29 20 57 41 62 46 15 15 49 202 49 272 0 87 17 175 42 225 25
49 32 56 89 89 l46 27 23 -25 c17 -18 25 -40 28 -81 4 -48 8 -57 31 -67 32
-14 66 -55 66 -79 0 -9 7 -24 15 -32 23 -22 185 -106 204 -106 10 0 29 9 43
20 14 11 35 20 46 20 39 0 147 60 147 82 0 4 -16 8 -36 8 -28 0 -35 3 -30 15
4 10 -1 15 -14 15 -26 0 -25 4 5 34 14 14 28 39 32 56 7 38 25 34 38 -8 7 -23
14 -31 25 -26 8 3 40 8 70 11 81 8 119 62 82 114 -10 13 -21 37 -27 53 -5 16
-19 34 -30 40 -61 34 -76 48 -64 62 6 8 23 20 37 27 32 15 39 35 15 43 -10 4
-27 15 -39 26 -27 24 -133 45 -209 41 -33 -2 -118 -5 -190 -8 -71 -3 -147 -7
-168 -11 -21 -3 -43 -2 -50 3 -20 16 -51 9 -57 -12 -3 -11 -13 -32 -24 -47
l-18 -28 -30 25 c-16 14 -42 28 -56 32 -15 3 -43 14 -62 25 -19 10 -42 18 -50
18 -8 0 -55 20 -105 45 -49 24 -98 45 -108 45 -10 0 -27 5 -38 11 -15 7 -24 7
-35 -2 -8 -6 -14 -8 -14 -3 0 4 -5 3 -11 -3 -8 -8 -7 -17 5 -34 9 -13 16 -32
16 -42 0 -18 -6 -19 -97 -12 -190 14 -224 12 -270 -18 -24 -15 -49 -27 -57
-27 -8 0 -17 -4 -20 -9 -3 -5 -18 -12 -32 -15 -15 -4 -42 -19 -62 -34 l-35
-26 8 34 c12 56 53 159 75 191 14 18 30 29 46 29 13 0 32 8 42 18 11 11 38 22
61 25 24 3 50 12 60 21 24 21 54 20 102 -4 22 -12 44 -18 50 -14 6 3 9 29 8
58 -4 50 5 81 20 72 4 -3 15 10 24 29 9 19 23 35 31 35 9 0 20 9 26 19 5 11
17 17 27 15 22 -5 67 31 58 46 -3 5 -14 10 -24 10 -10 0 -26 9 -36 20 -17 19
-77 51 -116 63 -23 7 -31 62 -15 101 14 33 77 94 118 113 13 5 68 20 123 32
175 39 259 63 281 82 11 11 25 19 31 19 5 0 18 9 28 20 10 11 24 20 32 20 7 0
13 5 13 10 0 6 -7 10 -15 10 -28 0 -14 30 23 49 12 7 20 17 16 22 -3 6 -7 22
-9 37 -1 14 -8 28 -14 30 -22 7 -11 32 14 32 16 0 25 6 25 15 0 8 -5 15 -11
15 -6 0 10 17 35 38 28 23 45 46 45 60 1 26 17 29 25 5 8 -28 7 -72 -4 -147
-9 -65 -8 -71 16 -112 14 -24 30 -42 34 -39 5 3 37 -13 72 -35 35 -22 69 -40
77 -40 17 0 128 -56 159 -81 14 -10 32 -19 41 -19 9 -1 41 -16 71 -35 30 -20
62 -38 70 -41 9 -3 26 -22 39 -42 13 -20 37 -56 53 -79 15 -23 28 -44 28 -46
0 -3 38 -65 85 -139 l86 -133 -3 -135 c-3 -149 11 -258 64 -485 19 -79 33
-169 35 -230 5 -99 15 -125 48 -125 21 0 45 69 45 128 0 64 14 97 29 72 16
-24 25 14 12 51 -6 18 -11 36 -11 40 0 14 22 10 42 -8 10 -9 21 -13 26 -9 4 4
-5 18 -20 30 -39 30 -36 52 7 60 44 9 54 3 47 -29 -3 -17 0 -25 9 -25 8 0 25
-3 38 -7 l25 -6 -30 41 c-26 37 -42 46 -80 41 -3 0 -12 8 -19 18 -12 16 -10
19 17 30 34 14 30 29 -10 38 -17 4 -33 18 -44 40 l-17 33 43 -18 c23 -11 61
-22 85 -26 42 -7 43 -6 31 15 -6 13 -9 25 -6 28 11 11 36 -7 36 -25 0 -21 27
-49 37 -38 3 3 -1 14 -11 25 -9 10 -16 24 -14 30 2 7 -19 21 -45 31 -49 19
-122 68 -114 77 4 3 50 -14 90 -35 4 -2 7 1 7 8 0 6 -16 18 -35 25 -35 15 -61
48 -50 65 3 5 -6 20 -20 34 -14 14 -25 31 -25 39 0 8 -7 20 -15 27 -8 7 -15
17 -15 23 0 5 16 -6 35 -26 41 -42 41 -42 63 -21 15 15 14 19 -14 44 -16 15
-30 31 -30 36 -1 5 -5 28 -9 52 -4 23 -3 42 2 41 21 -4 22 3 7 32 -13 26 -14
33 -2 40 19 12 -8 58 -49 84 -17 11 -34 28 -36 37 -3 10 -13 21 -23 25 -32 12
-114 113 -207 253 -19 30 -51 72 -69 93 -47 54 -78 94 -79 104 0 4 -27 31 -59
58 -32 28 -54 51 -49 53 5 2 37 -15 71 -38 60 -39 91 -64 182 -142 49 -43 62
-48 46 -17 -10 17 -9 20 7 19 50 -6 59 13 16 32 -25 11 -139 92 -153 108 -3 3
-24 12 -47 18 -23 7 -48 18 -55 25 -7 6 -25 18 -40 26 -31 16 -37 31 -13 31 8
0 15 -4 15 -9 0 -5 11 -11 25 -13 14 -3 25 -2 25 2 0 8 -45 30 -61 30 -6 0
-34 11 -62 24 -29 13 -68 29 -88 36 -20 7 -47 21 -60 31 l-24 19 25 0 c20 0
22 2 10 10 -8 5 -27 10 -42 10 -15 0 -30 5 -33 10 -3 6 -17 10 -31 10 -13 0
-24 4 -24 9 0 20 64 19 214 -5 107 -17 174 -24 204 -19 l46 7 -24 18 c-20 15
-23 21 -12 31 15 16 16 50 0 84 -14 32 -28 32 -28 1 0 -31 -17 -43 -25 -17 -8
27 -45 58 -53 45 -12 -19 -42 -25 -42 -9 0 23 -16 18 -40 -12 -19 -24 -22 -25
-20 -8 4 39 0 55 -15 55 -8 0 -15 6 -15 14 0 8 -13 19 -30 25 -23 7 -30 16
-30 35 0 31 -26 35 -35 7 -3 -11 -13 -25 -22 -33 -14 -12 -16 -10 -11 17 4 17
0 41 -8 58 -12 22 -20 27 -37 21 -38 -11 -42 -10 -45 19 -3 23 -7 26 -28 21
-17 -4 -34 1 -57 18 -50 39 -73 43 -104 18 l-27 -21 -16 20 c-9 12 -29 21 -50
23 -19 1 -43 11 -52 20 -19 19 -38 24 -38 10z m137 -78 c-3 -3 -12 -4 -19 -1
-8 3 -5 6 6 6 11 1 17 -2 13 -5z m-387 -188 c25 -7 92 -21 149 -31 72 -12 118
-25 147 -44 24 -14 44 -29 44 -33 0 -13 -126 1 -180 20 -76 27 -110 44 -110
54 0 4 -13 8 -29 8 -31 0 -90 18 -105 31 -15 14 33 11 84 -5z m877 -323 c43
-18 56 -33 28 -33 -17 0 -95 37 -95 45 0 10 25 5 67 -12z m-685 -24 c-12 -5
-22 -13 -22 -19 0 -11 -78 -3 -95 10 -5 5 -21 10 -35 12 -14 3 20 5 74 5 62 0
91 -3 78 -8z m-187 -29 c14 -7 8 -8 -20 -3 -22 3 -42 7 -44 9 -9 8 45 2 64 -6z
m-300 -50 c-3 -5 -11 -10 -16 -10 -6 0 -7 5 -4 10 3 6 11 10 16 10 6 0 7 -4 4
-10z m5 -34 c0 -3 -4 -8 -10 -11 -5 -3 -10 -1 -10 4 0 6 5 11 10 11 6 0 10 -2
10 -4z m-30 -24 c0 -4 -14 -16 -32 -27 -18 -10 -58 -42 -90 -72 -88 -80 -91
-64 -4 21 60 58 126 99 126 78z m1423 -195 c4 -11 16 -21 26 -24 10 -2 25 -17
32 -31 7 -15 26 -42 41 -60 30 -35 39 -63 13 -42 -30 25 -25 2 15 -63 45 -74
53 -108 15 -62 -14 17 -31 37 -39 45 -7 8 -21 29 -30 45 -9 17 -28 48 -41 70
-46 73 -71 130 -67 147 3 14 6 15 16 5 7 -6 15 -20 19 -30z m-2463 -897 c8 -5
12 -11 9 -14 -7 -8 -49 5 -49 15 0 12 21 11 40 -1z m2256 -88 c-2 -4 12 -6 32
-4 32 4 35 3 24 -10 -6 -8 -8 -18 -4 -23 7 -8 -18 -2 -75 18 -36 12 -34 27 3
27 14 0 23 -4 20 -8z m101 -28 c-3 -3 -12 -4 -19 -1 -8 3 -5 6 6 6 11 1 17 -2
13 -5z m-107 -65 c0 -5 -4 -9 -10 -9 -5 0 -10 7 -10 16 0 8 5 12 10 9 6 -3 10
-10 10 -16z m-981 -63 c6 -7 9 -21 5 -30 -5 -13 1 -16 27 -16 32 0 69 -14 59
-23 -10 -8 -235 -23 -244 -16 -5 4 -21 6 -35 5 -14 -2 -19 -1 -11 1 8 3 19 9
25 14 5 5 19 9 31 9 34 0 92 28 104 50 13 23 23 25 39 6z m-604 -116 c11 -1
31 -7 45 -15 14 -8 36 -14 49 -15 13 0 41 -16 63 -35 108 -98 296 -129 367
-61 15 14 34 26 42 26 7 0 23 7 33 15 11 8 30 15 43 15 21 0 23 -4 23 -50 0
-28 -7 -61 -15 -73 -8 -12 -17 -47 -20 -77 -10 -91 -11 -94 -23 -98 -7 -2 -12
-14 -12 -26 0 -33 -33 -58 -107 -82 -60 -19 -68 -20 -95 -6 -21 10 -27 17 -19
25 15 15 14 27 -3 27 -8 0 -18 9 -21 21 -10 32 -65 88 -99 103 -17 8 -41 24
-54 36 -13 12 -40 26 -60 32 -56 15 -92 32 -92 44 0 6 -19 19 -42 30 -36 16
-44 24 -48 54 -4 28 -12 39 -39 52 -19 10 -39 25 -44 33 -14 25 0 65 23 65 10
0 22 5 26 12 5 7 16 0 33 -21 14 -17 35 -31 46 -31z m577 -740 c-2 -22 -6 -40
-8 -40 -2 0 -4 18 -4 40 0 22 3 40 8 40 4 0 6 -18 4 -40z m556 -1020 c2 -52
-1 -72 -19 -104 -14 -26 -22 -54 -20 -78 2 -38 -22 -98 -39 -98 -6 0 -10 -13
-10 -30 0 -23 -4 -30 -20 -30 -11 0 -20 5 -20 12 0 6 -15 24 -32 39 l-33 27
19 38 c13 28 18 58 17 104 -1 45 3 71 13 85 9 11 16 26 16 34 0 14 39 55 62
64 7 3 24 5 38 4 24 -2 25 -6 28 -67z"/>
<path d="M3920 14280 c0 -11 48 -25 56 -17 4 3 3 10 -1 16 -8 14 -55 14 -55 1z"/>
<path d="M3736 14272 c-3 -5 -29 -7 -58 -5 -29 3 -73 0 -98 -7 -25 -6 -54 -12
-65 -14 -26 -4 -136 -44 -144 -52 -10 -10 29 -32 71 -39 26 -5 49 -3 65 6 24
13 28 13 348 -17 28 -2 62 -9 77 -15 34 -14 74 -5 82 17 6 15 1 16 -38 11 -28
-4 -46 -2 -48 4 -2 6 -46 19 -98 28 -59 10 -95 21 -98 30 -4 11 6 13 49 8 30
-3 63 -8 74 -12 11 -3 29 0 40 9 29 21 10 35 -56 41 -30 3 -64 7 -76 10 -12 3
-24 1 -27 -3z m-69 -48 c-3 -3 -12 -4 -19 -1 -8 3 -5 6 6 6 11 1 17 -2 13 -5z"/>
<path d="M2995 14033 c-17 -17 -16 -18 20 -25 44 -9 54 -4 39 20 -16 24 -39
26 -59 5z"/>
<path d="M5345 13950 c-17 -19 -17 -23 -2 -67 10 -30 16 -40 16 -25 1 25 39
46 57 31 14 -11 104 -24 104 -15 0 4 -7 18 -16 32 -20 29 -55 49 -105 58 -28
5 -39 2 -54 -14z"/>
<path d="M4917 13833 c-12 -11 -8 -23 7 -23 8 0 16 7 20 15 5 15 -14 21 -27 8z"/>
<path d="M5091 13746 c-7 -8 -26 -18 -42 -21 -16 -4 -31 -11 -35 -16 -5 -9 57
-79 70 -79 3 0 3 14 -1 32 -6 29 -5 31 18 24 53 -16 69 -18 69 -7 0 6 -5 11
-11 11 -5 0 -9 8 -8 18 4 41 -1 52 -25 52 -13 0 -29 -6 -35 -14z"/>
<path d="M4946 13595 c27 -20 51 -20 34 0 -7 8 -22 15 -33 15 -20 0 -20 0 -1
-15z"/>
<path d="M5026 13555 c4 -8 14 -15 23 -15 9 0 27 -3 41 -6 20 -4 18 -1 -10 15
-42 24 -61 26 -54 6z"/>
<path d="M5070 13387 c0 -7 45 -52 65 -67 11 -8 4 4 -15 27 -30 36 -50 51 -50
40z"/>
<path d="M320 11873 c0 -1204 3 -1513 13 -1513 6 0 23 9 37 20 21 16 41 20
126 20 l101 0 12 59 c7 34 20 66 31 76 11 10 20 24 20 30 0 17 40 23 150 20
78 -3 107 -8 160 -31 36 -15 72 -33 81 -41 10 -8 42 -13 86 -13 53 0 84 -6
126 -24 30 -14 81 -28 113 -31 59 -7 59 -7 99 34 21 23 43 41 48 41 5 0 15 7
24 15 8 8 20 12 26 8 6 -4 29 -10 52 -14 22 -4 68 -12 103 -18 35 -7 80 -20
100 -31 39 -21 126 -27 137 -10 3 6 16 10 29 10 25 0 66 38 66 61 0 9 20 22
50 33 34 12 50 24 50 35 0 10 9 26 20 36 12 11 28 33 36 51 15 32 55 54 97 54
19 0 20 4 14 122 -5 81 -12 127 -21 137 -13 15 -19 31 -47 129 -9 30 -21 48
-40 58 -32 16 -99 19 -99 4 0 -5 -9 -10 -20 -10 -11 0 -20 -7 -20 -15 0 -12
-14 -15 -70 -15 -54 0 -70 3 -70 14 0 8 -8 17 -19 21 -21 6 -51 -3 -51 -17 0
-5 -11 2 -25 16 -14 14 -25 30 -25 36 0 5 -9 10 -20 10 -13 0 -27 15 -44 48
-13 26 -50 72 -81 102 -33 32 -69 80 -86 114 -16 33 -39 70 -50 83 -12 12 -27
32 -33 44 -6 12 -20 27 -31 33 -30 17 -44 32 -55 60 -5 14 -16 26 -23 26 -8 0
-19 11 -25 25 -6 14 -16 25 -22 25 -5 0 -10 6 -10 13 0 7 -9 19 -20 27 -11 8
-20 22 -20 32 0 11 -7 18 -20 18 -15 0 -20 7 -20 24 0 16 -7 27 -20 31 -11 3
-20 11 -20 16 0 5 -9 9 -20 9 -13 0 -20 7 -20 20 0 13 -7 20 -20 20 -13 0 -20
7 -20 20 0 13 -7 20 -20 20 -11 0 -20 7 -20 15 0 8 -4 15 -10 15 -5 0 -10 7
-10 15 0 8 -9 15 -20 15 -11 0 -20 5 -20 10 0 6 -13 10 -30 10 -20 0 -30 5
-30 15 0 8 -9 15 -20 15 -11 0 -20 7 -20 15 0 8 -9 15 -20 15 -11 0 -20 5 -20
10 0 6 -9 10 -20 10 -14 0 -20 7 -20 21 0 24 -22 49 -44 49 -9 0 -16 8 -16 20
0 13 -7 20 -20 20 -13 0 -20 7 -20 20 0 13 -7 20 -20 20 -13 0 -20 7 -20 20 0
13 -7 20 -20 20 -17 0 -20 7 -20 39 0 31 -4 41 -20 46 -14 5 -20 15 -20 37 0
20 -9 39 -30 58 -29 27 -40 60 -20 60 6 0 10 9 10 20 0 13 7 20 20 20 11 0 20
-4 20 -10 0 -5 18 -10 40 -10 22 0 40 -4 40 -10 0 -5 9 -10 20 -10 16 0 20 -7
20 -30 0 -23 4 -30 20 -30 11 0 20 -4 20 -10 0 -5 9 -10 20 -10 11 0 20 -4 20
-9 0 -4 24 -11 53 -15 28 -3 64 -9 80 -12 23 -5 27 -3 27 15 0 12 4 19 10 16
19 -12 -14 49 -56 105 -23 30 -45 65 -48 76 -4 12 -20 40 -36 63 -23 32 -37
41 -59 41 -16 0 -31 -6 -34 -14 -3 -7 -31 -22 -62 -31 -47 -15 -63 -16 -89 -7
-18 7 -42 12 -53 12 -13 0 -37 19 -62 49 -46 55 -47 57 -27 77 19 18 45 18 91
-2 21 -8 48 -13 60 -10 14 4 29 -2 43 -14 23 -22 42 -26 42 -10 0 6 15 10 34
10 l34 0 -5 41 c-4 24 1 70 12 112 18 72 18 72 -5 125 -26 60 -34 62 -112 32
-59 -22 -123 -25 -195 -9 -63 13 -84 32 -127 115 l-36 69 0 -1512z"/>
<path d="M5484 12269 c-10 -17 13 -36 27 -22 12 12 4 33 -11 33 -5 0 -12 -5
-16 -11z"/>
<path d="M5570 12236 c0 -37 3 -43 18 -40 25 6 64 -28 56 -49 -8 -22 -30 -22
-43 1 -10 16 -10 16 -11 -1 0 -11 -9 -30 -20 -44 -28 -35 -25 -73 8 -119 16
-21 35 -52 43 -68 20 -42 39 -45 39 -6 0 35 16 71 36 83 8 4 17 25 20 47 4 21
13 41 20 44 24 9 15 41 -21 74 -22 19 -42 29 -53 26 -16 -5 -16 -5 0 9 17 13
17 15 0 30 -14 13 -21 14 -30 5 -9 -9 -12 -9 -12 0 0 7 -4 12 -10 12 -5 0 -10
-7 -10 -16 0 -8 -4 -12 -10 -9 -5 3 -10 15 -10 26 0 10 5 19 10 19 6 0 10 5
10 10 0 6 -7 10 -15 10 -11 0 -15 -12 -15 -44z m30 -141 c-7 -8 -17 -15 -22
-15 -6 0 -5 7 2 15 7 8 17 15 22 15 6 0 5 -7 -2 -15z"/>
<path d="M5810 12174 c0 -25 9 -36 45 -54 17 -8 38 -23 47 -34 9 -12 20 -18
23 -14 6 6 -59 78 -97 107 -16 12 -18 11 -18 -5z"/>
<path d="M5367 12127 c-6 -17 31 -79 43 -72 7 4 -12 47 -36 83 -1 2 -4 -3 -7
-11z"/>
<path d="M6010 12030 c0 -11 4 -20 9 -20 5 0 7 9 4 20 -3 11 -7 20 -9 20 -2 0
-4 -9 -4 -20z"/>
<path d="M5506 11979 c4 -28 15 -52 30 -66 13 -12 21 -28 18 -36 -11 -30 51
-137 79 -137 28 0 -74 233 -118 270 -14 12 -15 8 -9 -31z"/>
<path d="M5356 11961 c-3 -5 0 -11 6 -13 10 -4 10 -14 0 -49 -13 -45 -23 -85
-15 -61 4 10 8 10 18 2 22 -18 35 -3 34 38 -2 67 -25 113 -43 83z"/>
<path d="M5460 11924 c0 -33 7 -57 20 -74 11 -14 20 -31 20 -37 0 -18 19 -16
26 2 3 8 -4 26 -15 41 -12 15 -21 41 -21 59 0 18 -7 38 -15 45 -13 11 -15 6
-15 -36z"/>
<path d="M5142 11868 c-10 -38 -9 -43 13 -35 16 7 22 67 5 67 -5 0 -13 -15
-18 -32z"/>
<path d="M5434 11822 c-8 -21 -6 -36 10 -69 12 -23 25 -42 29 -43 12 0 -3 101
-17 122 -11 16 -13 15 -22 -10z"/>
<path d="M5617 11700 c-5 -21 1 -60 11 -60 9 0 31 35 32 51 0 9 -7 20 -16 23
-21 8 -21 8 -27 -14z"/>
<path d="M4337 11660 c3 -14 10 -40 14 -59 4 -18 12 -38 16 -42 13 -13 113
-24 113 -13 0 16 -105 114 -122 114 -9 0 -19 6 -22 13 -3 6 -3 1 1 -13z"/>
<path d="M5473 11658 c2 -7 10 -13 17 -13 7 0 15 6 18 13 2 7 -5 12 -18 12
-13 0 -20 -5 -17 -12z"/>
<path d="M5084 11618 c-4 -7 -11 -53 -15 -103 -5 -49 -11 -126 -15 -171 l-7
-80 45 -37 c57 -47 72 -48 64 -4 -3 17 -11 104 -16 192 -10 154 -10 161 10
187 l21 28 -40 0 c-22 0 -43 -5 -47 -12z"/>
<path d="M5517 11584 c-13 -13 -7 -29 18 -47 l25 -18 -12 28 c-15 36 -23 45
-31 37z"/>
<path d="M5014 11067 c4 -19 20 -65 36 -101 31 -67 30 -66 103 -81 24 -4 22 4
-15 60 -18 27 -37 56 -43 65 -5 9 -28 33 -49 55 l-39 39 7 -37z"/>
<path d="M4868 10963 c-46 -54 -106 -124 -132 -156 l-49 -57 -13 -118 c-7 -64
-10 -155 -7 -202 8 -119 -32 -380 -59 -380 -4 0 -8 -6 -8 -13 0 -20 -60 -97
-75 -97 -14 0 -87 -70 -112 -107 -9 -13 -24 -23 -34 -23 -25 0 -31 -14 -17
-45 9 -21 9 -31 0 -46 -25 -39 -6 -109 45 -170 24 -28 28 -43 32 -107 3 -69 2
-77 -20 -93 l-24 -18 25 -26 c14 -15 59 -43 100 -63 84 -41 91 -47 125 -115
20 -40 22 -53 13 -78 -8 -22 -7 -34 1 -42 6 -6 11 -32 11 -58 0 -26 5 -51 10
-54 6 -3 10 -15 10 -25 0 -11 18 -57 39 -102 22 -46 45 -99 52 -118 14 -36 82
-112 111 -123 22 -8 41 -44 28 -52 -5 -3 3 -18 18 -33 15 -15 33 -41 41 -59 7
-17 22 -40 33 -50 31 -28 60 -92 60 -132 0 -24 6 -40 19 -49 26 -18 24 -69 -4
-123 -13 -24 -27 -57 -31 -72 -3 -15 -18 -37 -31 -49 -14 -12 -25 -31 -25 -43
0 -12 -9 -30 -20 -40 -11 -10 -20 -26 -20 -35 0 -9 -9 -25 -20 -35 -11 -10
-34 -43 -51 -72 -17 -29 -36 -59 -43 -66 -28 -28 -96 -119 -96 -128 0 -6 11 1
25 15 14 14 25 28 25 32 0 3 9 16 20 28 65 71 87 98 175 218 72 99 261 375
295 431 19 32 48 74 63 92 27 33 29 34 48 17 65 -56 99 -94 99 -111 0 -11 6
-21 13 -24 8 -2 11 -22 11 -54 -2 -45 0 -50 17 -46 30 8 24 -19 -24 -110 -24
-45 -46 -90 -50 -101 -7 -18 -6 -18 19 -1 22 14 30 15 50 5 21 -12 28 -31 39
-113 5 -39 24 -76 51 -99 28 -25 84 -103 84 -119 0 -5 4 -9 8 -9 14 0 31 -47
22 -56 -12 -12 22 -105 36 -100 11 4 24 -44 24 -93 0 -23 67 -184 110 -263 11
-20 44 -70 74 -112 100 -139 113 -228 110 -763 l-1 -93 301 3 300 2 0 35 1 35
60 7 c33 4 75 9 93 13 55 9 299 45 307 45 3 0 5 4 5 10 0 6 -70 10 -177 10
-202 1 -229 2 -238 12 -4 4 -13 4 -19 2 -7 -3 -20 6 -30 20 -17 27 -22 71 -7
62 11 -7 24 41 15 56 -4 6 -3 8 3 5 13 -8 24 18 17 38 -4 8 -1 15 4 15 6 0 14
20 17 45 4 24 13 49 20 55 8 6 11 18 8 26 -3 8 0 21 6 28 8 9 8 16 2 20 -6 4
-8 13 -4 22 3 9 0 14 -8 12 -7 -2 -15 5 -17 16 -2 10 -15 29 -29 41 -14 12
-24 28 -21 36 3 10 15 4 42 -23 21 -21 40 -38 42 -38 2 0 4 21 4 48 0 66 9 92
31 92 17 0 24 11 20 33 -1 4 3 16 9 26 6 12 6 37 1 65 -5 26 -5 46 0 46 15 0
10 57 -8 101 -15 39 -15 43 0 54 10 7 17 21 17 31 0 16 2 17 11 4 7 -11 8 -2
3 31 -5 41 -4 47 15 52 16 4 21 13 21 37 0 38 19 121 31 135 5 5 9 23 9 40 0
16 7 43 15 59 17 33 20 126 4 126 -6 0 -13 -9 -16 -20 -3 -10 -14 -22 -24 -25
-10 -4 -19 -13 -19 -22 0 -9 -10 -26 -22 -39 -48 -48 -58 -61 -58 -71 0 -6
-15 -30 -33 -54 -19 -24 -52 -76 -74 -114 -40 -68 -78 -113 -88 -104 -2 3 12
48 31 100 20 51 42 117 50 144 7 28 32 115 54 195 44 155 61 230 53 243 -10
17 -22 3 -43 -50 -12 -32 -26 -66 -31 -75 -5 -10 -9 -29 -9 -42 0 -14 -4 -35
-9 -48 -5 -13 -19 -59 -31 -103 -71 -250 -124 -363 -211 -451 -42 -43 -4 -107
116 -194 52 -38 64 -50 47 -50 -28 0 -28 -11 2 -47 13 -15 27 -39 31 -51 6
-22 5 -23 -14 -13 -14 8 -21 8 -21 1 0 -5 -7 -10 -16 -10 -20 0 -12 -41 14
-80 23 -34 43 -82 38 -88 -3 -2 -13 12 -22 32 -26 53 -63 43 -43 -11 10 -26 2
-29 -20 -9 -15 13 -16 9 -15 -37 0 -29 2 -56 3 -62 2 -5 4 -26 6 -45 1 -19 6
-45 10 -57 5 -15 3 -23 -4 -23 -6 0 -11 6 -11 14 0 7 -7 19 -15 26 -13 11 -15
6 -15 -36 0 -42 -32 -134 -47 -134 -2 0 -18 30 -34 66 -17 37 -34 63 -39 58
-5 -5 -10 -38 -13 -74 -3 -36 -9 -81 -15 -100 -9 -29 -10 -18 -7 60 3 52 5
110 5 128 0 18 4 42 10 52 6 11 6 21 1 24 -5 3 -15 -18 -22 -47 -12 -51 -12
-51 -22 -23 -6 19 -6 41 2 66 6 20 11 69 11 109 0 41 4 71 10 71 6 0 10 23 10
52 0 60 -16 55 -23 -7 -3 -22 -4 -11 -3 25 1 36 6 74 11 84 6 14 5 17 -3 12
-9 -5 -12 11 -12 58 0 36 -4 68 -10 71 -5 3 -12 28 -16 55 -7 54 -15 55 -45 6
-10 -17 -19 -25 -19 -18 0 6 -6 12 -14 12 -8 0 -18 9 -21 21 -7 21 12 119 23
119 4 0 23 13 42 29 29 25 32 31 21 45 -14 17 -6 40 11 30 23 -14 -23 53 -51
75 -17 13 -31 29 -31 37 0 27 30 12 49 -23 11 -22 41 -32 41 -14 0 20 -13 41
-24 41 -7 0 -20 16 -29 35 -20 43 -16 44 22 6 34 -33 45 -31 28 6 -10 23 -80
81 -176 145 -18 13 -44 33 -58 45 -23 22 -25 22 -61 6 -20 -9 -40 -19 -44 -21
-4 -2 -3 12 3 30 10 37 12 121 3 131 -10 10 -34 -4 -34 -22 -1 -14 -2 -14 -11
2 -8 13 -4 27 15 60 14 23 26 35 26 26 0 -9 13 -33 30 -54 16 -20 32 -45 35
-56 14 -44 60 -13 67 44 3 29 1 36 -10 32 -34 -13 -62 -16 -62 -8 0 5 14 22
30 38 32 31 39 59 16 72 -8 4 -16 24 -18 43 l-3 35 -18 -33 c-10 -18 -22 -30
-27 -27 -14 8 -12 59 2 90 10 21 9 27 -6 38 -17 13 -17 15 3 54 11 23 26 43
33 46 16 5 -26 54 -54 63 -29 9 -21 27 10 22 28 -4 29 -4 19 29 -6 18 -14 33
-19 33 -4 0 -8 6 -8 13 0 7 -15 17 -32 22 -27 8 -32 14 -30 33 3 21 0 23 -19
17 -20 -7 -22 -5 -16 26 3 19 7 41 9 49 2 10 -3 14 -14 12 -22 -3 -22 5 -4 40
13 25 13 27 -7 30 -17 2 -21 9 -19 29 1 15 -4 32 -13 39 -8 7 -15 19 -15 26 0
8 -7 14 -16 14 -13 0 -15 6 -10 28 14 58 16 130 5 158 -7 16 -12 32 -11 35 2
13 -70 89 -85 89 -15 0 -42 27 -43 43 0 17 47 5 74 -18 51 -44 61 -27 12 20
-25 25 -46 47 -46 50 0 15 27 0 69 -40 59 -55 84 -59 45 -7 -15 20 -33 40 -39
44 -12 7 -71 65 -97 95 -14 15 -16 26 -9 51 8 28 5 37 -32 85 -22 29 -55 64
-73 78 -29 21 -30 25 -14 31 11 4 26 18 35 31 14 22 14 28 -1 76 -10 28 -15
52 -13 54 2 1 25 12 50 25 41 21 47 29 53 62 5 31 0 51 -21 95 -29 59 -34 63
-53 40 -17 -21 -42 -19 -38 3 2 11 -2 16 -12 14 -8 -2 -23 -5 -33 -7 -9 -2
-21 -7 -27 -10 -12 -7 -97 70 -105 96 -9 26 -32 12 -115 -66 -97 -92 -120
-106 -149 -90 -15 8 -20 15 -12 19 6 4 11 11 11 17 0 5 -22 -7 -49 -26 -55
-40 -66 -43 -51 -15 10 19 6 24 -14 21 -10 -2 2 52 14 59 11 7 32 61 27 67 -3
2 -17 -11 -32 -29 -102 -122 -129 -135 -94 -45 11 29 21 57 22 62 5 20 56 100
84 130 35 37 133 81 133 59 0 -8 -7 -26 -16 -39 -9 -14 -12 -25 -6 -25 5 0 18
12 28 28 23 35 47 53 55 40 10 -16 43 -16 55 1 10 13 14 13 28 2 21 -18 20
-28 -4 -58 -30 -38 -17 -39 24 -1 47 43 46 62 -4 84 -48 21 -51 43 -20 144 25
83 25 119 -2 183 -29 71 -65 109 -90 96 -26 -14 -34 -6 -42 43 -4 23 -13 49
-21 58 -8 8 -18 33 -24 55 -6 22 -24 78 -40 125 -29 82 -30 83 -29 40 1 -25
-2 -56 -7 -69 -10 -33 -19 -16 -49 101 -14 51 -32 110 -40 130 -9 21 -21 60
-27 88 -6 29 -16 50 -24 50 -7 0 -51 -44 -97 -97z m388 -708 c14 -76 0 -102
-118 -217 -61 -60 -113 -106 -116 -103 -3 2 0 10 5 17 5 7 13 20 16 29 4 13 1
16 -13 12 -11 -3 -25 -11 -31 -19 -35 -42 -39 18 -8 103 12 32 36 71 54 88 17
17 40 42 49 58 23 34 31 34 63 -3 36 -43 53 -39 53 13 0 24 3 47 7 50 16 16
33 4 39 -28z m193 -566 c9 14 56 -35 64 -66 4 -17 -2 -24 -23 -33 -17 -7 -31
-23 -36 -41 -12 -38 -214 -255 -224 -239 -4 7 -5 21 -2 33 3 14 1 18 -6 13 -7
-4 -12 -13 -12 -20 0 -7 -12 -23 -26 -37 l-27 -24 6 35 c4 19 12 70 18 113 7
42 16 77 21 77 4 0 8 11 8 24 0 19 7 25 35 30 24 5 45 19 66 46 l32 40 19 -22
19 -22 6 22 c5 21 7 22 29 7 30 -19 30 -17 -1 25 -34 47 -34 68 1 45 18 -12
29 -14 33 -6z m116 -118 c3 -5 1 -12 -5 -16 -5 -3 -10 1 -10 9 0 18 6 21 15 7z
m-495 -119 c0 -4 -4 -12 -8 -17 -11 -12 -28 -57 -43 -115 -11 -41 -13 -43 -20
-20 -13 46 -9 81 14 113 30 43 57 61 57 39z m14 -78 c-19 -70 -34 -90 -34 -48
0 32 20 84 33 84 4 0 7 8 7 17 0 9 3 14 6 11 3 -3 -2 -32 -12 -64z m492 -22
c-10 -10 -39 25 -31 38 5 8 12 5 22 -10 8 -12 12 -24 9 -28z m44 -122 c0 -37
-96 -230 -122 -247 -6 -3 -17 2 -24 11 -11 16 -14 15 -27 -11 -17 -31 -24 -23
-29 32 l-3 30 -20 -31 c-17 -27 -22 -29 -34 -17 -20 22 -6 57 41 102 29 27 45
53 53 83 12 51 29 56 33 10 4 -35 22 -35 22 1 1 12 7 33 14 46 l13 24 11 -29
c6 -16 11 -21 11 -12 2 28 31 51 47 37 8 -6 14 -19 14 -29z m-275 -57 c-4 -16
-11 -47 -17 -71 -6 -24 -8 -82 -6 -133 l6 -90 -24 22 c-21 20 -24 21 -24 5 0
-31 -29 1 -36 40 -14 73 -54 43 -54 -40 l-1 -51 -20 25 c-18 21 -20 33 -14 75
10 80 24 123 50 152 23 27 24 27 25 6 0 -12 -4 -25 -10 -28 -5 -3 -10 -23 -10
-43 0 -51 17 -29 30 38 6 30 17 60 25 66 8 6 15 15 15 20 0 10 37 31 58 33 8
1 11 -8 7 -26z m252 -259 c3 -8 0 -21 -7 -29 -9 -11 -5 -20 22 -44 37 -33 47
-26 25 19 -24 47 2 39 68 -21 101 -93 135 -186 84 -230 l-24 -21 -12 31 c-12
29 -22 35 -50 32 -7 -1 -13 5 -13 14 0 8 9 15 20 15 32 0 25 40 -17 99 -1 2
-8 -1 -15 -6 -28 -23 -75 18 -106 90 -7 16 -19 27 -31 27 -21 0 -36 27 -18 33
28 9 69 5 74 -9z m-17 -198 c0 -8 -60 -12 -72 -4 -8 4 4 8 30 8 23 0 42 -2 42
-4z m62 -64 c9 -9 8 -16 -5 -29 -14 -15 -21 -15 -37 -5 -24 15 -69 15 -129 1
-27 -6 -48 -6 -53 -1 -6 6 5 12 28 17 21 3 47 13 58 22 24 17 120 13 138 -5z
m78 -29 c-1 -14 -30 -47 -36 -41 -8 8 14 48 26 48 6 0 10 -3 10 -7z m-77 -75
c26 -15 197 -179 197 -190 0 -4 15 -28 34 -53 42 -55 39 -85 -8 -85 -24 0 -35
7 -48 30 -12 21 -25 30 -42 30 -29 0 -76 19 -76 32 0 14 66 9 96 -7 16 -8 38
-15 49 -15 17 1 16 4 -10 25 -19 16 -37 22 -51 19 -12 -3 -33 0 -46 7 -28 16
-105 38 -135 39 -13 0 -32 10 -43 23 -12 12 -28 30 -37 40 -15 16 -15 17 1 17
9 0 19 -7 22 -15 4 -8 14 -15 23 -15 9 0 47 -11 85 -25 38 -14 71 -23 73 -21
10 10 -12 35 -44 50 -19 9 -33 19 -30 23 8 7 -21 63 -33 64 -6 1 -16 2 -22 3
-7 0 -14 9 -16 19 -4 21 27 23 61 5z m277 -399 c24 -44 -1 -91 -37 -68 -25 15
-68 89 -52 89 7 0 21 -7 31 -17 17 -15 18 -15 18 5 0 25 25 20 40 -9z m-40
-116 c0 -11 -4 -11 -20 -3 -23 12 -45 45 -54 80 -6 21 -1 18 34 -19 22 -24 40
-50 40 -58z m-60 12 c11 -13 10 -14 -4 -9 -9 3 -16 10 -16 15 0 13 6 11 20 -6z
m114 -10 c3 -8 1 -15 -4 -15 -6 0 -10 7 -10 15 0 8 2 15 4 15 2 0 6 -7 10 -15z
m82 -113 c-4 -3 -11 -1 -18 6 -8 8 -8 15 3 28 13 16 14 16 17 -5 2 -13 1 -25
-2 -29z m-60 -23 c4 -7 -1 -16 -10 -21 -9 -5 -16 -21 -16 -38 0 -23 -3 -27
-20 -23 -26 7 -25 33 1 67 22 28 34 32 45 15z m50 -58 c-19 -33 -21 -34 -24
-13 -4 30 27 80 38 62 5 -7 -1 -28 -14 -49z m-50 -78 c-13 -24 -15 -25 -16 -7
0 11 5 25 12 32 19 19 21 6 4 -25z m271 -320 c-8 -7 -35 9 -41 23 -4 11 0 11
20 -2 13 -9 23 -18 21 -21z m133 -618 c0 -30 -4 -55 -10 -55 -5 0 -10 25 -10
55 0 30 5 55 10 55 6 0 10 -25 10 -55z m3 -111 c11 -59 -7 -284 -23 -284 -4 0
-10 -9 -13 -20 -3 -11 -9 -20 -15 -20 -10 0 -5 91 8 132 5 15 12 70 16 123 7
94 17 120 27 69z m377 -114 c0 -5 -2 -10 -4 -10 -3 0 -8 5 -11 10 -3 6 -1 10
4 10 6 0 11 -4 11 -10z m-80 -58 c0 -15 -2 -15 -10 -2 -13 20 -13 33 0 25 6
-3 10 -14 10 -23z"/>
<path d="M5470 10470 c0 -11 48 -45 55 -38 3 2 -2 14 -11 26 -15 22 -44 30
-44 12z"/>
<path d="M5650 10266 c0 -19 61 -66 85 -66 14 0 11 8 -16 39 -34 40 -69 53
-69 27z"/>
<path d="M5615 10190 c10 -11 23 -20 28 -20 6 0 2 9 -8 20 -10 11 -23 20 -28
20 -6 0 -2 -9 8 -20z"/>
<path d="M5743 10134 c-9 -4 -8 -14 4 -40 9 -19 19 -34 23 -34 3 0 23 -16 43
-35 22 -21 47 -35 62 -35 14 0 25 3 25 6 0 8 -78 104 -103 127 -19 17 -32 20
-54 11z"/>
<path d="M5702 10063 c2 -10 14 -19 26 -21 19 -3 23 1 20 15 -2 10 -14 19 -26
21 -19 3 -23 -1 -20 -15z"/>
<path d="M5597 9796 c-3 -8 1 -20 9 -26 11 -10 14 -9 14 8 0 25 -16 37 -23 18z"/>
<path d="M1257 9704 c-25 -25 -183 -43 -401 -44 -160 -1 -195 -4 -232 -20 -24
-11 -60 -22 -81 -26 -21 -3 -43 -11 -48 -18 -14 -15 -45 -34 -77 -49 -16 -6
-28 -19 -28 -28 0 -10 -13 -20 -32 -25 l-33 -10 -3 -1164 c-1 -640 1 -1161 4
-1158 3 4 18 129 34 280 53 511 117 951 167 1158 23 96 120 407 142 455 38 84
61 140 87 204 34 87 107 166 219 239 129 83 240 157 245 163 3 3 18 10 34 16
31 10 48 33 24 33 -8 0 -17 -3 -21 -6z"/>
<path d="M2311 9329 c-7 -22 -9 -54 -6 -71 9 -40 43 -116 55 -123 14 -9 12
-24 -3 -21 -6 1 -23 9 -36 18 -32 22 -52 13 -45 -21 7 -32 53 -189 63 -216 27
-67 44 -98 49 -87 2 8 0 24 -6 35 -24 53 -32 80 -32 107 0 31 41 111 48 92 2
-7 8 -10 13 -7 22 14 174 -55 183 -82 5 -17 29 -34 68 -49 9 -3 22 -19 28 -35
12 -29 40 -40 40 -16 0 6 6 3 12 -7 24 -41 53 -66 77 -66 14 0 37 -6 51 -14
20 -10 30 -10 50 -1 14 7 46 16 73 19 46 7 47 8 47 42 0 29 3 34 24 34 13 0
27 -6 29 -12 3 -8 6 -6 6 5 1 13 -7 17 -30 17 -19 0 -37 7 -45 18 -11 14 -15
15 -23 3 -12 -18 -43 -6 -39 15 2 9 -5 21 -15 28 -14 9 -20 8 -28 -6 -7 -13
-15 -15 -41 -8 -39 12 -98 51 -98 67 0 6 -14 22 -31 35 -59 44 -140 123 -155
151 -8 15 -21 27 -28 27 -8 0 -16 3 -18 8 -1 4 -28 23 -58 42 -30 19 -76 54
-103 78 -26 23 -51 42 -56 42 -4 0 -13 -18 -20 -41z"/>
<path d="M6004 9195 c-17 -41 -18 -65 -3 -102 l12 -28 8 29 c4 15 11 52 15 82
8 64 -9 74 -32 19z"/>
<path d="M5860 8903 c0 -5 9 -19 20 -33 24 -32 38 -19 13 14 -18 25 -33 33
-33 19z"/>
<path d="M864 8788 c4 -81 2 -88 -15 -88 -16 0 -18 -5 -13 -25 7 -28 -7 -33
-30 -10 -18 19 -30 19 -45 2 -15 -19 -2 -30 18 -15 13 10 14 10 4 -2 -22 -24
-14 -50 21 -71 37 -21 54 -49 31 -49 -7 0 -26 10 -42 23 -52 44 -74 42 -77 -7
-1 -14 -9 -22 -23 -24 -16 -2 -23 -10 -23 -25 0 -27 -10 -42 -34 -50 -11 -5
-16 -13 -12 -23 3 -9 -2 -27 -13 -40 -10 -13 -22 -44 -25 -69 -4 -25 -11 -45
-15 -45 -5 0 -11 -24 -15 -52 -7 -50 -12 -73 -39 -158 -6 -19 -14 -55 -18 -80
-4 -25 -13 -74 -19 -110 -42 -229 -57 -439 -32 -448 16 -5 15 -40 -2 -57 -8
-8 -17 -49 -21 -102 -4 -48 -12 -99 -17 -113 -14 -34 -11 -81 8 -101 9 -10 14
-27 12 -39 -3 -21 24 -47 104 -98 23 -14 28 -24 28 -59 0 -24 -2 -43 -4 -43
-2 0 -29 11 -61 26 -32 14 -70 24 -84 22 -23 -3 -27 -9 -33 -53 -4 -27 -9
-103 -11 -168 -4 -111 -3 -119 17 -133 53 -37 97 -64 104 -63 23 4 72 -16 77
-32 7 -21 20 -25 30 -9 11 17 43 11 65 -12 11 -12 20 -19 20 -15 0 4 9 3 21
-3 12 -7 18 -18 15 -26 -3 -8 -1 -14 3 -14 5 0 12 6 14 13 3 6 6 3 6 -9 1 -11
-8 -29 -19 -39 -18 -16 -20 -16 -20 -2 0 19 -44 24 -55 7 -10 -16 -150 -1
-225 24 -78 26 -100 24 -100 -10 0 -34 17 -63 43 -75 12 -5 37 -21 56 -34 l34
-25 -46 6 c-31 4 -47 3 -47 -4 0 -20 52 -73 94 -95 37 -20 58 -22 231 -25 132
-2 185 0 175 7 -12 9 -10 11 12 11 15 0 30 -4 33 -10 4 -7 305 -10 869 -10
l864 0 -5 48 c-4 37 -3 44 7 36 6 -7 12 -28 13 -48 1 -20 6 -36 12 -36 12 0
14 75 2 86 -10 11 -9 34 3 34 5 0 16 -12 25 -27 15 -27 15 -27 9 -3 -22 80
-26 97 -26 118 0 12 -4 22 -9 22 -5 0 -9 -15 -9 -32 -1 -31 -1 -32 -15 -14 -8
11 -15 34 -15 52 0 38 -15 52 -28 28 -8 -14 -11 -11 -22 17 -9 25 -14 29 -17
17 -6 -24 -23 -23 -23 2 0 11 -4 20 -10 20 -5 0 -10 -7 -10 -15 0 -8 -4 -15
-10 -15 -5 0 -10 11 -10 25 0 16 -6 25 -15 25 -8 0 -15 -5 -15 -11 0 -13 -58
-2 -79 15 -17 14 -69 17 -77 4 -4 -5 -10 -5 -17 0 -7 6 -33 11 -59 13 -36 3
-49 0 -54 -11 -4 -12 -8 -11 -17 6 -10 18 -16 20 -37 12 -18 -7 -21 -11 -11
-17 10 -7 10 -9 -2 -14 -9 -3 -21 1 -27 9 -17 19 -94 19 -110 -1 -11 -13 -16
-13 -44 3 -17 9 -34 20 -37 25 -3 4 -16 10 -30 12 -71 14 -81 18 -90 42 -5 14
-18 27 -29 30 -11 3 -20 12 -20 19 0 8 -7 17 -15 20 -17 7 -21 44 -5 44 6 0
10 7 10 15 0 9 10 15 23 16 12 0 16 3 9 6 -15 6 -6 23 14 23 8 0 14 -7 14 -16
0 -14 7 -16 44 -11 27 4 46 2 48 -4 4 -12 60 14 78 36 7 8 23 15 35 15 27 0
35 17 35 71 0 36 -8 48 -91 137 -49 53 -99 106 -110 117 -86 87 -183 195 -196
220 -9 17 -20 33 -25 36 -10 7 -88 138 -88 148 0 4 -11 18 -24 30 -13 12 -26
39 -30 59 -3 22 -14 42 -26 50 -11 7 -20 23 -20 36 0 12 -9 31 -20 41 -11 10
-20 26 -20 36 0 27 -11 50 -21 43 -5 -3 -9 4 -9 14 0 48 -41 110 -82 125 -10
4 -18 13 -18 21 0 7 -7 16 -15 20 -11 4 -15 21 -15 58 0 29 -9 86 -20 127 -11
41 -20 90 -20 110 0 20 -8 44 -18 55 -10 12 -25 48 -32 81 -14 61 -84 215 -98
215 -4 0 -13 -5 -20 -12 -9 -9 -16 0 -32 38 -12 27 -28 72 -35 99 -25 91 -47
160 -55 170 -4 6 -10 19 -14 30 -3 11 -4 -19 -2 -67z m-16 -291 c4 -19 -32
-57 -53 -57 -8 0 -15 9 -15 19 0 11 -9 23 -20 26 -11 3 -20 13 -20 21 0 21
104 13 108 -9z m-43 -94 c4 -10 9 -30 11 -45 2 -14 15 -43 29 -64 18 -26 26
-52 27 -88 1 -28 2 -60 2 -71 1 -11 7 -30 14 -42 6 -12 12 -38 12 -57 0 -29
-4 -36 -20 -36 -18 0 -20 7 -20 58 0 46 -4 60 -20 70 -21 13 -28 52 -9 52 6 0
1 13 -10 29 -12 16 -21 39 -21 50 0 12 -6 21 -14 21 -8 0 -15 14 -18 35 -3 29
-1 35 14 35 19 0 24 15 8 25 -5 3 -15 15 -20 26 -9 16 -7 19 9 19 10 0 22 -8
26 -17z m1565 -2017 c0 -3 -4 -8 -10 -11 -5 -3 -10 -1 -10 4 0 6 5 11 10 11 6
0 10 -2 10 -4z m-1740 -256 c0 -5 -7 -7 -15 -4 -8 4 -15 8 -15 10 0 2 7 4 15
4 8 0 15 -4 15 -10z m110 -35 c0 -8 -7 -15 -15 -15 -8 0 -15 7 -15 15 0 8 7
15 15 15 8 0 15 -7 15 -15z m55 -5 c3 -5 1 -10 -4 -10 -6 0 -11 5 -11 10 0 6
2 10 4 10 3 0 8 -4 11 -10z"/>
<path d="M2396 8755 c3 -22 9 -44 13 -50 4 -5 20 -41 36 -80 51 -126 92 -210
108 -223 14 -12 15 -10 4 20 -7 18 -31 73 -54 121 -24 48 -43 92 -43 98 0 6
-11 32 -24 58 -13 25 -29 57 -35 71 -10 22 -11 20 -5 -15z"/>
<path d="M3946 8438 c-9 -33 39 -72 68 -55 20 11 19 11 -9 17 -24 4 -31 11
-33 33 -4 33 -17 35 -26 5z"/>
<path d="M5990 8365 c0 -8 2 -15 4 -15 2 0 6 7 10 15 3 8 1 15 -4 15 -6 0 -10
-7 -10 -15z"/>
<path d="M2560 8361 c0 -5 4 -11 8 -13 4 -1 15 -19 25 -38 15 -33 17 -33 17
-9 0 14 -9 35 -20 47 -23 24 -30 27 -30 13z"/>
<path d="M2630 8240 c6 -11 13 -20 16 -20 2 0 0 9 -6 20 -6 11 -13 20 -16 20
-2 0 0 -9 6 -20z"/>
<path d="M6135 7960 c-3 -5 -1 -10 4 -10 6 0 11 5 11 10 0 6 -2 10 -4 10 -3 0
-8 -4 -11 -10z"/>
<path d="M3927 7873 c-4 -3 -7 -21 -7 -39 0 -25 7 -39 30 -56 38 -28 38 -54 0
-127 -16 -31 -36 -92 -45 -136 -22 -108 -63 -323 -81 -415 -7 -41 -14 -87 -14
-102 0 -16 -10 -34 -25 -46 -13 -11 -29 -31 -35 -46 -5 -14 -15 -26 -21 -26
-8 0 -7 -5 2 -17 14 -16 132 -112 157 -127 7 -4 32 9 65 37 28 24 81 63 117
87 56 37 180 131 216 165 7 5 40 35 75 65 91 78 259 243 254 249 -3 2 -29 -18
-58 -45 -109 -101 -159 -139 -194 -151 -19 -7 -39 -11 -43 -8 -5 3 -21 1 -35
-5 -15 -6 -43 -8 -61 -4 -29 5 -35 12 -45 47 -6 23 -9 62 -6 87 3 27 0 58 -9
79 -20 47 -18 135 3 156 10 11 13 19 6 23 -6 4 -12 52 -14 107 -4 100 -9 115
-41 128 -10 3 -18 15 -18 26 0 11 -9 26 -21 34 -15 11 -17 16 -7 20 7 2 9 8 5
13 -4 4 -17 3 -28 -4 -24 -15 -39 -8 -39 19 0 15 -7 19 -38 19 -21 0 -42 -3
-45 -7z"/>
<path d="M4280 7800 c0 -5 7 -10 16 -10 8 0 12 5 9 10 -3 6 -10 10 -16 10 -5
0 -9 -4 -9 -10z"/>
<path d="M4699 7440 c-17 -16 -29 -34 -27 -41 2 -7 19 7 37 30 38 48 34 53
-10 11z"/>
<path d="M4630 7365 c-7 -8 -9 -15 -6 -15 4 0 14 7 22 15 9 8 11 15 6 15 -5 0
-15 -7 -22 -15z"/>
<path d="M6860 7096 c0 -14 5 -28 10 -31 6 -4 10 7 10 24 0 17 -4 31 -10 31
-5 0 -10 -11 -10 -24z"/>
<path d="M6560 6818 c0 -8 7 -21 15 -28 19 -16 19 -1 0 24 -12 16 -15 17 -15
4z"/>
<path d="M3418 6743 c113 -127 151 -201 173 -339 12 -80 14 -102 17 -256 1
-49 6 -88 11 -88 12 0 4 348 -10 410 -20 89 -76 180 -166 268 -47 45 -87 82
-90 82 -3 0 27 -35 65 -77z"/>
<path d="M6575 6680 c3 -5 8 -10 11 -10 2 0 4 5 4 10 0 6 -5 10 -11 10 -5 0
-7 -4 -4 -10z"/>
<path d="M3824 6666 c-17 -8 -39 -24 -48 -37 -32 -46 -13 -141 36 -185 58 -54
107 -58 149 -13 41 44 40 102 -2 175 -24 42 -36 54 -55 54 -13 0 -24 5 -24 10
0 13 -19 12 -56 -4z"/>
<path d="M4187 6640 c-27 -21 -53 -80 -36 -80 5 0 12 8 16 18 3 9 17 32 30 50
28 37 26 40 -10 12z"/>
<path d="M4037 6469 c-4 -51 -7 -163 -7 -251 l0 -158 41 0 42 0 -7 118 c-12
199 -15 229 -31 274 -8 24 -15 52 -15 63 0 11 -4 26 -9 33 -5 8 -11 -24 -14
-79z"/>
<path d="M6421 6514 c0 -11 3 -14 6 -6 3 7 2 16 -1 19 -3 4 -6 -2 -5 -13z"/>
<path d="M4680 6485 c0 -8 5 -15 10 -15 6 0 10 7 10 15 0 8 -4 15 -10 15 -5 0
-10 -7 -10 -15z"/>
<path d="M4770 6472 c0 -37 -10 -46 -26 -24 -13 16 -13 16 -14 -2 0 -15 -3
-16 -15 -6 -12 10 -15 3 -22 -42 -4 -29 -9 -45 -11 -35 -2 11 -9 16 -18 13 -7
-3 -18 3 -23 12 -11 19 -12 18 -17 -18 -12 -89 -34 -125 -34 -55 0 19 -4 35
-10 35 -10 0 -7 -48 11 -172 14 -93 29 -95 21 -3 -3 45 -1 65 7 65 7 0 11 -19
11 -48 0 -36 5 -51 20 -62 11 -8 20 -22 20 -32 0 -21 45 -26 53 -5 4 10 6 10
6 0 2 -23 21 -14 21 9 0 16 3 19 11 11 24 -24 2 -42 -58 -46 -32 -2 171 -4
450 -5 389 -2 508 1 505 10 -2 6 -10 14 -18 16 -7 3 -10 0 -6 -7 4 -6 2 -11
-5 -11 -7 0 -9 10 -7 25 3 13 2 22 -3 20 -10 -7 -59 39 -59 56 -1 15 -34 59
-45 59 -4 0 -4 -12 -1 -27 l6 -28 -15 26 c-8 15 -21 29 -30 33 -8 3 -15 11
-15 19 0 7 -11 24 -25 37 l-25 23 0 -22 c0 -12 -4 -19 -10 -16 -5 3 -10 14
-10 25 0 15 -14 27 -42 35 -5 2 -11 4 -15 5 -5 1 -12 2 -17 1 -4 -1 -19 5 -31
13 -22 14 -24 14 -28 -2 -3 -12 -5 -11 -6 6 0 12 -7 22 -14 22 -7 0 -23 9 -34
19 -21 20 -21 20 -27 -2 l-6 -22 -20 24 c-19 22 -20 22 -20 3 0 -12 -4 -24
-10 -27 -6 -3 -10 5 -10 19 0 14 -4 28 -10 31 -5 3 -10 -1 -10 -9 0 -24 -17
-19 -25 7 -6 19 -8 19 -12 5 -5 -19 -23 -25 -23 -7 0 6 -9 8 -22 4 -18 -6 -20
-4 -14 11 6 15 5 17 -5 7 -20 -20 -39 -15 -39 10 0 12 -5 29 -10 37 -7 11 -10
1 -10 -35 l-1 -50 -19 24 c-11 13 -20 18 -20 11 0 -10 -4 -9 -16 1 -13 10 -17
10 -24 0 -6 -11 -8 -11 -12 0 -4 11 -8 12 -20 1 -13 -10 -17 -9 -23 5 -5 10
-7 23 -6 30 1 6 -3 14 -9 18 -6 4 -10 -6 -10 -23z m20 -96 c0 -3 -4 -8 -10
-11 -5 -3 -10 -1 -10 4 0 6 5 11 10 11 6 0 10 -2 10 -4z m-141 -83 c1 -13 -3
-23 -8 -23 -13 0 -22 45 -14 66 6 16 7 16 14 -2 4 -10 8 -29 8 -41z m31 -18
c0 -8 -4 -15 -10 -15 -5 0 -10 7 -10 15 0 8 5 15 10 15 6 0 10 -7 10 -15z m27
-47 c-2 -13 -4 -5 -4 17 -1 22 1 32 4 23 2 -10 2 -28 0 -40z m3 -58 c0 -5 -4
-10 -10 -10 -5 0 -10 5 -10 10 0 6 5 10 10 10 6 0 10 -4 10 -10z"/>
<path d="M4142 6430 c0 -19 2 -27 5 -17 2 9 2 25 0 35 -3 9 -5 1 -5 -18z"/>
<path d="M4643 6453 c-7 -3 -13 -13 -13 -22 0 -12 7 -17 23 -15 12 1 25 3 30
3 4 1 7 7 7 15 0 15 -27 25 -47 19z"/>
<path d="M4211 6418 c0 -15 -5 -30 -11 -33 -13 -8 -13 -25 1 -25 5 0 8 4 5 9
-4 5 -1 11 5 13 6 2 9 17 6 33 -4 29 -4 29 -6 3z"/>
<path d="M4542 6410 c0 -19 2 -27 5 -17 2 9 2 25 0 35 -3 9 -5 1 -5 -18z"/>
<path d="M4591 6414 c0 -11 3 -14 6 -6 3 7 2 16 -1 19 -3 4 -6 -2 -5 -13z"/>
<path d="M4251 6404 c0 -11 3 -14 6 -6 3 7 2 16 -1 19 -3 4 -6 -2 -5 -13z"/>
<path d="M4442 6397 c-6 -7 -7 -19 -3 -26 6 -9 10 -6 14 10 8 28 3 34 -11 16z"/>
<path d="M4287 6317 c-3 -46 -3 -119 -1 -163 4 -57 3 -75 -5 -64 -6 8 -8 32
-4 52 5 33 3 39 -18 47 -13 5 -29 5 -35 0 -16 -13 -44 27 -44 65 0 19 5 36 11
38 6 2 9 14 7 28 -3 22 -4 23 -19 7 -16 -15 -17 -14 -23 19 -15 77 -26 16 -23
-131 l2 -155 188 0 c186 0 188 0 177 20 -8 14 -17 19 -30 15 -13 -4 -21 1 -28
22 l-10 28 -1 -32 c-1 -21 -6 -33 -15 -33 -15 0 -30 27 -27 48 1 6 -5 12 -14
12 -9 0 -15 9 -15 26 0 21 4 24 20 19 11 -3 20 -2 20 3 0 9 -32 22 -55 22 -7
0 -9 -14 -7 -34 4 -30 -11 -56 -24 -43 -3 3 -6 62 -6 131 -1 70 -4 129 -8 131
-4 2 -10 -33 -13 -78z m-117 -46 c0 -11 -4 -23 -10 -26 -6 -4 -10 5 -10 19 0
14 5 26 10 26 6 0 10 -9 10 -19z m20 -101 c0 -5 -4 -10 -10 -10 -5 0 -10 5
-10 10 0 6 5 10 10 10 6 0 10 -4 10 -10z m30 -80 c0 -5 -4 -10 -10 -10 -5 0
-10 5 -10 10 0 6 5 10 10 10 6 0 10 -4 10 -10z"/>
<path d="M4497 6374 c-6 -33 -1 -42 13 -28 7 7 7 20 2 34 -9 24 -9 24 -15 -6z"/>
<path d="M4240 6360 c0 -5 5 -10 10 -10 6 0 10 5 10 10 0 6 -4 10 -10 10 -5 0
-10 -4 -10 -10z"/>
<path d="M4337 6343 c6 -14 63 -18 63 -4 0 5 -15 11 -34 13 -24 3 -32 0 -29
-9z"/>
<path d="M4526 6331 c-4 -5 -2 -12 3 -15 5 -4 12 -2 15 3 4 5 2 12 -3 15 -5 4
-12 2 -15 -3z"/>
<path d="M4240 6312 c0 -10 -5 -23 -11 -29 -8 -8 -7 -17 5 -34 16 -23 16 -23
16 13 0 20 3 43 6 52 3 9 1 16 -5 16 -6 0 -11 -8 -11 -18z"/>
<path d="M4387 6314 c-8 -8 3 -34 14 -34 11 0 12 27 0 34 -4 3 -11 3 -14 0z"/>
<path d="M4490 6276 c0 -31 6 -34 13 -6 3 11 1 23 -4 26 -5 3 -9 -6 -9 -20z"/>
<path d="M4530 6263 c0 -21 3 -24 9 -14 5 8 7 20 4 28 -8 21 -13 15 -13 -14z"/>
<path d="M4330 6260 c0 -13 5 -20 13 -17 6 2 12 10 12 17 0 7 -6 15 -12 18 -8
2 -13 -5 -13 -18z"/>
<path d="M4556 6215 c4 -8 8 -15 10 -15 2 0 4 7 4 15 0 8 -4 15 -10 15 -5 0
-7 -7 -4 -15z"/>
<path d="M2721 6204 c0 -11 3 -14 6 -6 3 7 2 16 -1 19 -3 4 -6 -2 -5 -13z"/>
<path d="M4470 6176 c0 -9 5 -16 10 -16 6 0 10 4 10 9 0 6 -4 13 -10 16 -5 3
-10 -1 -10 -9z"/>
<path d="M3904 6135 c-16 -10 -20 -21 -16 -42 l5 -27 -28 22 c-30 24 -53 17
-42 -12 5 -13 23 -16 88 -16 l82 0 -7 32 c-11 57 -41 73 -82 43z"/>
<path d="M4525 6070 c-4 -6 7 -10 26 -10 18 0 29 3 25 7 -11 11 -45 13 -51 3z"/>
<path d="M4590 6070 c0 -5 7 -10 15 -10 8 0 15 5 15 10 0 6 -7 10 -15 10 -8 0
-15 -4 -15 -10z"/>
<path d="M930 5245 c-18 -22 -8 -50 21 -53 34 -4 54 20 39 47 -12 24 -42 27
-60 6z"/>
<path d="M452 5242 c-10 -7 -112 -291 -112 -314 0 -4 15 -8 34 -8 30 0 35 4
41 30 7 30 7 30 75 30 68 0 68 0 75 -30 6 -26 11 -30 41 -30 21 0 34 5 33 13
0 6 -24 80 -53 162 l-53 150 -34 3 c-19 1 -40 -1 -47 -6z m62 -136 c9 -27 16
-53 16 -58 0 -4 -18 -8 -40 -8 -24 0 -40 5 -40 12 0 24 34 118 41 111 3 -5 14
-30 23 -57z"/>
<path d="M680 5085 l0 -165 35 0 35 0 0 165 0 165 -35 0 -35 0 0 -165z"/>
<path d="M800 5085 l0 -165 35 0 35 0 0 165 0 165 -35 0 -35 0 0 -165z"/>
<path d="M1083 5145 c-66 -28 -54 -106 19 -125 65 -17 68 -18 68 -34 0 -21
-24 -26 -55 -10 -63 33 -101 6 -49 -35 36 -29 116 -29 144 -1 21 21 26 65 11
88 -5 8 -32 22 -62 31 -29 10 -55 23 -57 29 -6 18 28 27 49 14 10 -7 32 -12
49 -12 28 0 30 2 20 20 -12 23 -60 50 -87 50 -10 -1 -32 -7 -50 -15z"/>
<path d="M1334 5146 c-43 -19 -64 -53 -64 -104 0 -81 42 -122 123 -122 74 0
124 58 114 132 -6 46 -29 75 -74 94 -40 17 -59 17 -99 0z m90 -62 c36 -35 9
-114 -39 -114 -27 0 -41 15 -50 53 -15 57 49 101 89 61z"/>
<path d="M1648 5146 c-16 -8 -28 -11 -28 -5 0 5 -16 9 -35 9 l-35 0 0 -115 0
-115 35 0 35 0 0 74 c0 90 5 106 36 106 33 0 44 -28 44 -109 l0 -71 30 0 30 0
0 95 c0 88 -2 98 -25 120 -28 29 -48 31 -87 11z"/>
<path d="M920 5035 l0 -115 35 0 35 0 0 115 0 115 -35 0 -35 0 0 -115z"/>
<path d="M410 4286 c0 -99 -6 -112 -50 -119 -39 -6 -36 -27 4 -27 63 0 76 24
76 140 0 82 -3 100 -15 100 -12 0 -15 -17 -15 -94z"/>
<path d="M702 4363 c4 -21 33 -25 33 -3 0 8 -8 16 -18 18 -14 3 -18 -1 -15
-15z"/>
<path d="M1290 4335 c0 -42 -11 -58 -25 -35 -10 17 -61 11 -86 -9 -31 -25 -34
-98 -5 -130 21 -24 74 -28 95 -8 11 10 14 10 18 0 3 -7 11 -13 18 -13 11 0 14
25 13 120 -1 94 -4 120 -14 120 -10 0 -14 -14 -14 -45z m-28 -62 c35 -31 15
-113 -28 -113 -22 0 -54 38 -54 65 0 26 31 65 52 65 6 0 20 -7 30 -17z"/>
<path d="M1440 4366 c0 -21 21 -31 30 -15 5 7 6 17 4 21 -9 14 -34 9 -34 -6z"/>
<path d="M1805 4355 c-27 -26 -33 -55 -12 -55 7 0 17 10 22 23 21 47 104 23
90 -27 -4 -11 -33 -47 -66 -79 -32 -33 -59 -63 -59 -68 0 -5 36 -9 80 -9 64 0
80 3 80 15 0 12 -13 15 -55 15 l-55 0 41 37 c42 38 69 80 69 108 0 27 -46 65
-80 65 -19 0 -40 -9 -55 -25z"/>
<path d="M2022 4358 c-71 -77 -39 -218 51 -218 49 0 79 36 85 103 7 83 -29
137 -91 137 -13 0 -33 -10 -45 -22z m92 -30 c9 -12 16 -43 16 -68 0 -54 -22
-90 -54 -90 -37 0 -60 34 -60 90 0 79 61 121 98 68z"/>
<path d="M2242 4368 c-23 -11 -40 -53 -27 -66 3 -4 16 5 27 21 32 44 88 32 88
-20 0 -15 -21 -42 -60 -80 -33 -31 -60 -63 -60 -70 0 -10 21 -13 80 -13 64 0
80 3 80 15 0 12 -13 15 -56 15 l-57 0 52 54 c60 65 67 102 25 135 -29 23 -57
26 -92 9z"/>
<path d="M2454 4365 c-51 -35 -59 -152 -14 -200 45 -48 118 -26 140 41 35 106
-49 213 -126 159z m79 -32 c25 -28 31 -85 13 -127 -14 -34 -19 -37 -48 -34
-23 2 -37 11 -46 28 -15 30 -11 112 8 135 17 20 53 19 73 -2z"/>
<path d="M515 4285 c-53 -53 -16 -145 58 -145 45 0 79 36 79 85 0 77 -84 114
-137 60z m76 -6 c11 -6 24 -20 28 -32 9 -23 -5 -77 -19 -77 -5 0 -15 -3 -23
-6 -21 -8 -57 31 -57 61 0 14 9 34 20 45 23 23 25 23 51 9z"/>
<path d="M700 4225 c0 -69 3 -85 15 -85 12 0 15 16 15 85 0 69 -3 85 -15 85
-12 0 -15 -16 -15 -85z"/>
<path d="M780 4225 c0 -69 3 -85 15 -85 12 0 15 13 15 59 0 41 5 65 16 75 36
36 64 4 64 -75 0 -46 3 -59 15 -59 21 0 21 117 -1 148 -17 24 -62 30 -82 10
-9 -9 -12 -9 -12 0 0 7 -7 12 -15 12 -12 0 -15 -16 -15 -85z"/>
<path d="M989 4291 c-19 -15 -24 -29 -24 -66 0 -55 28 -85 80 -85 28 0 65 24
65 43 0 13 -27 7 -40 -8 -17 -21 -36 -19 -60 5 -29 29 -17 40 46 40 51 0 54 1
54 25 0 57 -74 85 -121 46z m72 -11 c36 -20 23 -40 -26 -40 -42 0 -45 2 -35
19 8 16 21 26 38 30 2 1 12 -4 23 -9z"/>
<path d="M1440 4225 c0 -69 3 -85 15 -85 12 0 15 16 15 85 0 69 -3 85 -15 85
-12 0 -15 -16 -15 -85z"/>
<path d="M1520 4225 c0 -69 3 -85 15 -85 11 0 15 13 15 54 0 66 27 108 57 90
14 -9 19 -26 21 -78 2 -50 6 -66 17 -66 24 0 21 132 -3 153 -22 20 -63 22 -80
5 -9 -9 -12 -9 -12 0 0 7 -7 12 -15 12 -12 0 -15 -16 -15 -85z"/>
<path d="M7147 3272 l-128 -128 3 -60 3 -59 60 -3 60 -3 130 131 130 130 -60
60 c-33 33 -62 60 -65 60 -3 0 -63 -58 -133 -128z m178 48 l39 -40 -22 -22
-22 -23 -42 42 c-41 41 -42 43 -23 63 10 11 21 20 25 20 3 0 24 -18 45 -40z
m-87 -51 c-2 -4 -36 -42 -77 -84 -67 -69 -76 -75 -90 -61 -14 15 -8 24 64 96
62 62 82 77 92 68 8 -6 12 -15 11 -19z m50 -42 c9 -10 -7 -31 -68 -92 -70 -70
-82 -78 -94 -65 -13 13 -6 24 57 92 75 79 87 87 105 65z m-208 -152 l23 -25
-26 0 c-22 0 -27 5 -27 25 0 14 1 25 3 25 2 0 14 -11 27 -25z"/>
<path d="M1613 3340 c-17 -7 -23 -18 -23 -40 0 -20 -5 -30 -15 -30 -8 0 -15
-4 -15 -10 0 -5 4 -10 10 -10 5 0 10 -32 12 -72 2 -46 7 -73 16 -76 9 -3 12
15 12 67 l0 70 34 7 c19 3 39 3 45 -1 6 -3 11 -37 11 -76 0 -55 3 -69 15 -69
13 0 15 14 13 83 l-3 82 -56 3 c-54 3 -56 4 -51 27 3 17 11 25 24 25 11 0 18
5 16 12 -6 16 -19 18 -45 8z"/>
<path d="M350 3220 l0 -120 75 0 c60 0 75 3 75 15 0 12 -13 15 -60 15 l-60 0
0 40 0 40 50 0 c28 0 50 5 50 10 0 6 -22 10 -50 10 l-50 0 0 40 0 40 61 0 c44
0 60 3 57 13 -3 8 -30 13 -76 15 l-72 3 0 -121z"/>
<path d="M670 3296 l0 -44 -28 10 c-60 23 -104 -10 -104 -77 0 -67 44 -100
104 -77 16 6 28 6 28 1 0 -5 7 -9 15 -9 13 0 15 20 15 120 0 100 -2 120 -15
120 -11 0 -15 -12 -15 -44z m-25 -60 c40 -29 16 -116 -31 -116 -40 0 -60 83
-28 114 19 20 35 20 59 2z"/>
<path d="M750 3326 c0 -21 21 -31 30 -15 5 7 6 17 4 21 -9 14 -34 9 -34 -6z"/>
<path d="M1050 3221 c0 -101 2 -121 15 -121 11 0 15 11 15 39 l0 38 47 6 c54
6 83 33 83 77 0 50 -29 73 -99 78 l-61 4 0 -121z m114 73 c19 -18 20 -38 6
-65 -8 -14 -21 -19 -50 -19 l-40 0 0 50 0 50 34 0 c19 0 42 -7 50 -16z"/>
<path d="M1694 3329 c-10 -17 13 -36 27 -22 12 12 4 33 -11 33 -5 0 -12 -5
-16 -11z"/>
<path d="M1780 3220 c0 -100 3 -120 15 -120 13 0 15 20 15 120 0 100 -2 120
-15 120 -12 0 -15 -20 -15 -120z"/>
<path d="M850 3290 c0 -11 -7 -20 -15 -20 -8 0 -15 -4 -15 -9 0 -5 7 -11 15
-15 11 -4 15 -21 15 -64 0 -65 11 -82 52 -82 33 0 38 17 6 22 -21 3 -23 9 -26
66 -3 57 -1 62 18 62 11 0 20 5 20 10 0 6 -9 10 -20 10 -13 0 -20 7 -20 20 0
11 -7 20 -15 20 -8 0 -15 -9 -15 -20z"/>
<path d="M750 3185 c0 -69 3 -85 15 -85 12 0 15 16 15 85 0 69 -3 85 -15 85
-12 0 -15 -16 -15 -85z"/>
<path d="M1250 3184 c0 -68 3 -84 15 -84 11 0 15 13 15 54 0 70 7 86 36 86 14
0 24 6 24 15 0 10 -12 14 -45 13 l-45 -1 0 -83z"/>
<path d="M1381 3244 c-12 -15 -21 -41 -21 -59 0 -50 33 -85 80 -85 47 0 80 35
80 85 0 50 -33 85 -80 85 -30 0 -43 -6 -59 -26z m87 -10 c32 -22 30 -78 -3
-100 -23 -15 -27 -15 -50 0 -33 22 -35 78 -3 100 12 9 25 16 28 16 3 0 16 -7
28 -16z"/>
<path d="M1887 3257 c-38 -27 -38 -117 0 -144 25 -19 77 -16 96 5 21 23 21 32
2 32 -8 0 -15 -4 -15 -9 0 -16 -38 -23 -60 -11 -11 6 -20 20 -20 30 0 18 7 20
61 20 l61 0 -7 28 c-3 15 -14 35 -22 45 -19 20 -72 23 -96 4z m75 -24 c28 -25
22 -33 -27 -33 -48 0 -62 19 -27 39 24 14 33 13 54 -6z"/>
<path d="M7220 2217 c0 -7 23 -35 50 -62 28 -27 50 -53 50 -57 0 -5 -12 -7
-27 -7 -92 5 -273 -2 -273 -11 0 -6 57 -10 150 -10 83 0 150 -4 150 -8 0 -4
-22 -30 -50 -57 -45 -45 -62 -75 -42 -75 4 0 41 34 82 75 l74 75 -74 75 c-75
75 -90 86 -90 62z"/>
<path d="M405 2211 c-43 -19 -60 -50 -60 -113 0 -55 3 -62 33 -89 45 -41 102
-41 143 0 16 16 29 34 29 40 0 19 -21 12 -42 -14 -28 -36 -89 -35 -118 3 -29
35 -23 107 10 134 32 26 76 23 104 -7 42 -45 64 -27 23 20 -24 28 -86 42 -122
26z"/>
<path d="M590 2100 c0 -100 3 -120 15 -120 11 0 15 13 15 54 0 66 27 108 57
90 14 -9 19 -26 21 -78 2 -50 6 -66 17 -66 24 0 21 132 -3 153 -22 20 -63 22
-80 5 -9 -9 -12 -2 -12 35 0 35 -4 47 -15 47 -12 0 -15 -20 -15 -120z"/>
<path d="M1637 2213 c-4 -3 -7 -57 -7 -120 0 -94 3 -113 15 -113 11 0 15 11
15 40 0 39 1 40 35 40 48 0 82 18 96 51 15 37 -2 82 -37 98 -27 12 -107 15
-117 4z m115 -40 c40 -36 10 -83 -53 -83 l-39 0 0 50 0 50 37 0 c20 0 45 -7
55 -17z"/>
<path d="M3080 2175 c0 -42 -11 -58 -25 -35 -11 17 -64 11 -85 -10 -27 -27
-35 -65 -20 -101 20 -46 78 -66 109 -36 11 10 14 10 18 0 3 -7 11 -13 19 -13
13 0 15 20 13 120 -2 92 -5 120 -16 120 -9 0 -13 -14 -13 -45z m-28 -62 c35
-31 15 -113 -28 -113 -8 0 -23 9 -35 21 -24 24 -20 75 8 97 22 16 33 15 55 -5z"/>
<path d="M807 2138 c-26 -19 -36 -68 -23 -108 14 -43 52 -60 96 -43 17 6 30 7
30 2 0 -5 7 -9 15 -9 12 0 15 16 15 85 0 69 -3 85 -15 85 -8 0 -15 -5 -15 -10
0 -7 -6 -7 -19 0 -26 14 -64 13 -84 -2z m73 -18 c36 -20 33 -99 -6 -114 -43
-17 -81 34 -62 84 14 38 35 48 68 30z"/>
<path d="M980 2065 c0 -69 3 -85 15 -85 11 0 15 13 15 54 0 66 27 108 57 90
14 -9 19 -26 21 -78 2 -50 6 -66 17 -66 24 0 21 132 -3 153 -22 20 -63 22 -80
5 -9 -9 -12 -9 -12 0 0 7 -7 12 -15 12 -12 0 -15 -16 -15 -85z"/>
<path d="M1187 2132 c-61 -67 1 -179 80 -143 33 15 40 8 19 -24 -19 -28 -57
-33 -76 -10 -14 17 -40 20 -40 6 0 -15 51 -51 71 -51 34 0 68 23 79 53 5 16
10 65 10 108 0 62 -3 79 -14 79 -8 0 -16 -6 -19 -12 -4 -10 -7 -10 -18 0 -19
18 -73 15 -92 -6z m80 -10 c6 -4 16 -19 22 -33 14 -38 -6 -73 -45 -77 -24 -2
-33 2 -42 23 -17 36 -15 52 8 75 21 21 37 25 57 12z"/>
<path d="M1402 2143 c-23 -9 -44 -64 -37 -99 7 -40 38 -64 81 -64 27 0 64 25
64 43 0 13 -27 7 -40 -8 -17 -21 -36 -19 -60 5 -29 29 -17 40 46 40 51 0 54 1
54 25 0 47 -57 79 -108 58z m59 -23 c36 -20 23 -40 -26 -40 -42 0 -45 2 -35
19 8 16 21 26 38 30 2 1 12 -4 23 -9z"/>
<path d="M1851 2124 c-44 -56 -12 -144 53 -144 17 0 37 5 44 12 9 9 12 9 12 0
0 -7 7 -12 15 -12 12 0 15 16 15 85 0 69 -3 85 -15 85 -8 0 -15 -5 -15 -10 0
-7 -6 -7 -19 0 -34 18 -68 12 -90 -16z m89 -14 c11 -11 20 -31 20 -45 0 -26
-31 -65 -52 -65 -42 0 -63 76 -31 112 21 23 38 23 63 -2z"/>
<path d="M2046 2131 c-27 -29 -13 -57 37 -74 23 -7 43 -21 45 -29 5 -24 -36
-33 -57 -14 -19 17 -41 21 -41 8 0 -18 38 -42 67 -42 34 0 66 30 61 56 -3 16
-18 27 -77 54 -24 10 -24 28 -1 35 14 4 28 1 41 -11 22 -20 38 -11 23 14 -16
25 -76 27 -98 3z"/>
<path d="M2212 2138 c-16 -16 -16 -53 1 -65 6 -6 26 -15 42 -20 19 -6 30 -16
30 -29 0 -25 -32 -30 -55 -9 -27 24 -44 15 -25 -13 32 -44 120 -19 113 32 -2
14 -19 29 -51 44 -40 19 -46 26 -37 38 16 18 29 18 52 -3 22 -19 37 -9 22 15
-13 21 -74 28 -92 10z"/>
<path d="M2355 2118 c31 -140 68 -171 95 -81 8 28 18 54 21 57 3 4 13 -21 22
-54 13 -45 22 -60 35 -60 15 0 24 19 44 83 14 45 24 84 22 86 -12 13 -33 -15
-44 -58 -7 -28 -15 -53 -20 -56 -4 -2 -15 23 -25 56 -23 74 -41 74 -66 0 -11
-30 -21 -56 -24 -59 -2 -2 -12 23 -21 57 -11 38 -23 61 -31 61 -11 0 -13 -8
-8 -32z"/>
<path d="M2651 2126 c-51 -54 -15 -146 56 -146 47 0 83 37 83 85 0 75 -89 114
-139 61z m89 -16 c11 -11 20 -31 20 -45 0 -23 -31 -65 -48 -65 -25 0 -52 34
-52 65 0 24 7 39 22 49 29 20 34 20 58 -4z"/>
<path d="M2830 2065 c0 -69 3 -85 15 -85 11 0 15 12 15 51 0 60 13 89 40 89
11 0 20 7 20 15 0 18 -31 20 -48 3 -9 -9 -12 -9 -12 0 0 7 -7 12 -15 12 -12 0
-15 -16 -15 -85z"/>
<path d="M7220 1097 c0 -7 23 -35 50 -62 28 -27 50 -53 50 -57 0 -5 -12 -7
-27 -7 -92 5 -273 -2 -273 -11 0 -6 57 -10 150 -10 83 0 150 -4 150 -8 0 -4
-22 -30 -50 -57 -45 -45 -62 -75 -42 -75 4 0 41 34 82 75 l74 75 -74 75 c-75
75 -90 86 -90 62z"/>
<path d="M350 981 l0 -121 75 0 c60 0 75 3 75 15 0 12 -13 15 -60 15 l-59 0
-3 102 c-2 70 -7 103 -15 106 -10 3 -13 -25 -13 -117z"/>
<path d="M1064 1081 c-96 -59 -55 -221 57 -221 53 0 84 22 105 75 13 36 14 50
4 79 -25 76 -101 107 -166 67z m111 -36 c19 -18 25 -35 25 -66 0 -57 -29 -89
-81 -89 -67 0 -99 72 -64 140 24 47 81 55 120 15z"/>
<path d="M1480 1050 c0 -11 -7 -20 -15 -20 -8 0 -15 -7 -15 -15 0 -8 6 -14 13
-12 8 1 13 -17 15 -58 4 -67 14 -85 48 -85 29 0 32 16 4 23 -17 4 -20 14 -20
67 0 51 3 60 16 58 10 -2 19 3 21 10 3 7 -4 12 -16 12 -14 0 -21 6 -21 20 0
11 -7 20 -15 20 -8 0 -15 -9 -15 -20z"/>
<path d="M551 1004 c-12 -15 -21 -41 -21 -59 0 -50 33 -85 80 -85 47 0 80 35
80 85 0 50 -33 85 -80 85 -30 0 -43 -6 -59 -26z m87 -10 c32 -22 30 -78 -3
-100 -23 -15 -27 -15 -50 0 -33 22 -35 78 -3 100 12 9 25 16 28 16 3 0 16 -7
28 -16z"/>
<path d="M751 1004 c-57 -72 13 -175 90 -134 16 9 19 7 19 -8 0 -40 -54 -57
-84 -27 -25 25 -47 17 -28 -11 24 -37 88 -40 125 -7 24 22 26 213 2 213 -8 0
-15 -5 -15 -12 0 -9 -3 -9 -12 0 -22 22 -75 14 -97 -14z m87 -10 c15 -10 22
-25 22 -48 0 -39 -15 -56 -52 -56 -47 0 -65 63 -28 100 24 24 29 24 58 4z"/>
<path d="M1280 957 c0 -80 9 -97 50 -97 14 0 31 5 38 12 9 9 12 9 12 0 0 -7 7
-12 15 -12 12 0 15 16 15 85 0 69 -3 85 -15 85 -12 0 -15 -14 -15 -64 0 -69
-14 -92 -50 -81 -18 6 -20 15 -20 76 0 55 -3 69 -15 69 -12 0 -15 -15 -15 -73z"/>
</g>
</svg>
