<?xml version="1.0" standalone="no"?>
<!DOCTYPE svg PUBLIC "-//W3C//DTD SVG 20010904//EN"
 "http://www.w3.org/TR/2001/REC-SVG-20010904/DTD/svg10.dtd">
<svg version="1.0" xmlns="http://www.w3.org/2000/svg"
 width="780.000000pt" height="1688.000000pt" viewBox="0 0 780.000000 1688.000000"
 preserveAspectRatio="xMidYMid meet">

<g transform="translate(0.000000,1688.000000) scale(0.100000,-0.100000)"
fill="#000000" stroke="none">
<path d="M584 16330 c-12 -4 -25 -17 -29 -27 -11 -25 -8 -155 5 -187 15 -40
12 -77 -7 -91 -14 -11 -15 -16 -3 -44 14 -35 55 -61 96 -61 34 0 94 59 93 92
-1 22 -2 22 -12 -4 -6 -16 -14 -28 -19 -28 -4 0 -8 -6 -8 -14 0 -12 -20 -26
-36 -26 -15 0 1 29 28 52 30 24 32 29 20 48 -13 22 -8 74 8 95 5 6 7 45 6 88
-1 71 -4 80 -26 98 -26 19 -80 24 -116 9z m94 -85 c9 -20 9 -25 -2 -25 -8 0
-21 -3 -30 -6 -21 -8 -32 22 -16 41 18 22 35 18 48 -10z m5 -69 c36 -1 4 -56
-34 -56 -22 0 -22 0 -3 15 17 13 17 14 2 15 -12 0 -18 8 -18 21 0 16 4 19 18
14 9 -5 25 -8 35 -9z m-26 -72 c-3 -3 -12 -4 -19 -1 -8 3 -5 6 6 6 11 1 17 -2
13 -5z m-4 -154 c4 -16 0 -20 -17 -20 -29 0 -39 10 -25 27 16 19 36 16 42 -7z"/>
<path d="M3410 16205 c0 -23 4 -25 40 -25 l40 0 0 -110 0 -110 30 0 30 0 0
110 0 110 41 0 c36 0 40 2 37 23 -3 21 -8 22 -110 25 l-108 3 0 -26z"/>
<path d="M4040 16095 l0 -135 30 0 c28 0 30 3 30 38 l0 37 33 -38 c26 -31 38
-38 61 -35 l28 3 -36 47 c-20 26 -36 49 -36 52 0 3 16 24 36 46 l36 40 -28 0
c-18 0 -40 -11 -61 -32 l-33 -32 0 72 0 72 -30 0 -30 0 0 -135z"/>
<path d="M3646 16131 c-37 -41 -28 -138 15 -161 25 -14 73 -12 87 2 9 9 12 9
12 0 0 -7 13 -12 30 -12 l30 0 0 95 0 95 -30 0 c-17 0 -30 -5 -30 -12 0 -9 -3
-9 -12 0 -19 19 -82 15 -102 -7z m102 -33 c7 -7 12 -26 12 -44 0 -58 -51 -73
-79 -23 -13 24 -13 29 2 53 19 28 45 34 65 14z"/>
<path d="M3870 16130 c-37 -37 -18 -75 45 -91 26 -7 45 -17 45 -25 0 -16 -46
-19 -55 -4 -3 6 -17 10 -31 10 -29 0 -31 -13 -4 -40 27 -27 100 -28 123 -2 36
40 13 86 -48 98 -20 3 -38 11 -41 16 -10 15 18 28 37 17 22 -11 59 -12 59 -1
0 5 -8 16 -18 25 -26 24 -87 22 -112 -3z"/>
<path d="M4257 16132 c-20 -22 -22 -55 -3 -71 7 -6 29 -17 49 -24 42 -14 48
-31 12 -35 -14 -2 -25 1 -25 7 0 6 -11 11 -25 11 -31 0 -33 -23 -3 -44 23 -17
85 -21 104 -8 6 4 16 17 23 30 20 38 0 60 -81 86 -10 3 -18 10 -18 17 0 7 16
9 52 4 l52 -7 -16 23 c-21 32 -96 39 -121 11z"/>
<path d="M780 15981 c0 -19 9 -54 21 -78 12 -24 19 -53 16 -63 -3 -11 -1 -20
4 -20 14 0 79 70 79 86 0 46 -63 106 -92 88 -6 -4 -14 0 -19 7 -6 10 -9 3 -9
-20z m80 -18 c3 -2 -6 -13 -20 -23 -23 -18 -26 -18 -37 -3 -23 30 -16 43 20
36 17 -3 34 -8 37 -10z"/>
<path d="M458 15979 c-28 -14 -40 -28 -49 -58 -6 -22 -9 -46 -6 -54 6 -17 98
-79 105 -72 3 3 -5 19 -17 36 -22 30 -23 33 -8 64 19 41 32 105 21 104 -5 -1
-26 -10 -46 -20z m28 -46 c-10 -10 -19 5 -10 18 6 11 8 11 12 0 2 -7 1 -15 -2
-18z"/>
<path d="M770 14888 c-59 -40 -82 -84 -78 -146 10 -118 126 -187 228 -134 l35
18 52 -50 c66 -63 83 -52 20 12 -52 53 -53 57 -32 98 19 37 19 97 0 134 -41
80 -156 115 -225 68z m159 -25 c85 -63 75 -186 -20 -236 -92 -49 -208 33 -195
137 12 104 133 159 215 99z"/>
<path d="M1422 14848 c-25 -13 -37 -46 -27 -77 5 -16 23 -26 66 -38 50 -14 59
-20 59 -39 0 -55 -63 -71 -104 -27 -30 32 -44 25 -21 -11 21 -31 46 -40 91
-32 84 16 67 115 -22 132 -41 7 -58 26 -49 54 10 30 69 32 91 2 14 -19 27 -13
19 10 -6 16 -47 38 -68 37 -7 0 -22 -5 -35 -11z"/>
<path d="M2300 14740 c0 -73 4 -120 10 -120 6 0 10 26 10 58 0 67 16 95 50 90
28 -4 37 -29 39 -100 2 -74 21 -57 21 17 0 52 -4 69 -20 85 -24 24 -47 25 -72
3 -17 -15 -18 -14 -18 35 0 29 -4 52 -10 52 -6 0 -10 -47 -10 -120z"/>
<path d="M3050 14740 c0 -100 3 -120 15 -120 11 0 15 12 15 43 l1 42 38 -42
c52 -58 73 -55 26 3 l-38 46 39 39 c49 50 23 52 -28 2 l-38 -37 0 72 c0 57 -3
72 -15 72 -12 0 -15 -20 -15 -120z"/>
<path d="M2570 14810 c0 -11 -7 -20 -15 -20 -8 0 -15 -4 -15 -10 0 -5 6 -10
14 -10 10 0 15 -18 18 -66 4 -66 14 -84 51 -84 9 0 17 5 17 10 0 6 -9 10 -20
10 -18 0 -20 7 -20 65 0 58 2 65 20 65 27 0 25 18 -2 22 -16 2 -22 9 -20 21 2
10 -3 17 -13 17 -8 0 -15 -9 -15 -20z"/>
<path d="M1616 14769 c-21 -16 -26 -29 -26 -64 0 -35 5 -48 26 -64 40 -32 104
-22 104 16 0 15 -2 15 -18 0 -23 -21 -56 -22 -76 -1 -32 32 -20 44 44 44 52 0
60 3 60 19 0 28 -39 71 -64 71 -13 0 -35 -9 -50 -21z m78 -15 c26 -26 18 -34
-34 -34 -27 0 -50 4 -50 9 0 16 31 41 50 41 10 0 26 -7 34 -16z"/>
<path d="M1820 14783 c-26 -11 -39 -37 -40 -79 0 -70 55 -105 108 -68 20 14
22 14 22 0 0 -9 5 -16 10 -16 6 0 10 35 10 85 0 50 -4 85 -10 85 -5 0 -10 -7
-10 -16 0 -14 -2 -14 -22 0 -23 16 -42 19 -68 9z m70 -28 c12 -14 34 -92 23
-81 -4 3 -12 -3 -20 -14 -29 -42 -93 -12 -93 43 0 55 59 89 90 52z"/>
<path d="M1980 14705 c0 -69 3 -85 15 -85 12 0 15 14 15 66 0 64 1 66 30 77
17 6 30 15 30 19 0 12 -35 9 -48 -4 -9 -9 -12 -9 -12 0 0 7 -7 12 -15 12 -12
0 -15 -16 -15 -85z"/>
<path d="M2126 14769 c-21 -16 -26 -29 -26 -64 0 -35 5 -48 26 -64 15 -12 37
-21 49 -21 26 0 74 35 63 46 -5 4 -16 0 -26 -9 -40 -36 -92 -7 -92 50 0 54 54
81 92 46 10 -9 21 -13 26 -9 11 11 -37 46 -63 46 -12 0 -34 -9 -49 -21z"/>
<path d="M2710 14772 c-13 -10 -23 -33 -27 -59 -5 -35 -2 -45 20 -67 29 -29
68 -34 87 -11 11 13 8 14 -18 9 -42 -9 -77 26 -68 69 8 40 23 57 51 57 34 0
57 -33 55 -77 -4 -59 -1 -73 14 -73 11 0 15 19 15 85 1 71 -2 85 -15 85 -12 0
-15 -6 -11 -21 l6 -21 -23 21 c-27 26 -57 27 -86 3z"/>
<path d="M2908 14779 c-10 -5 -18 -21 -18 -35 0 -20 9 -29 46 -44 33 -14 45
-25 42 -37 -4 -24 -49 -29 -64 -8 -7 9 -18 15 -24 13 -17 -5 28 -48 51 -48 36
0 59 19 59 49 0 28 -7 34 -73 55 -28 9 -17 40 16 44 15 2 27 -1 27 -7 0 -6 7
-11 17 -11 14 0 14 2 -2 20 -20 22 -50 25 -77 9z"/>
<path d="M3236 14771 c-27 -29 -12 -59 34 -71 44 -12 53 -21 44 -44 -8 -21
-54 -20 -70 1 -7 10 -16 15 -20 11 -4 -5 1 -17 11 -28 35 -39 110 -15 103 33
-3 20 -10 26 -63 49 -16 7 -30 20 -30 28 0 19 41 25 61 9 8 -6 18 -9 22 -5 10
11 -28 36 -53 36 -12 0 -30 -9 -39 -19z"/>
<path d="M800 13296 c0 -10 -13 -16 -37 -18 l-38 -3 0 -175 0 -175 175 0 175
0 0 175 0 175 -33 3 c-18 2 -36 10 -39 18 -7 19 -23 18 -23 -1 0 -12 -16 -15
-80 -15 -64 0 -80 3 -80 15 0 8 -4 15 -10 15 -5 0 -10 -6 -10 -14z m0 -61 c0
-8 5 -15 10 -15 6 0 10 7 10 15 0 12 16 15 80 15 64 0 80 -3 80 -15 0 -8 5
-15 10 -15 6 0 10 7 10 15 0 9 9 15 25 15 21 0 25 -5 25 -30 l0 -30 -150 0
-150 0 0 30 c0 25 4 30 25 30 16 0 25 -6 25 -15z m250 -180 l0 -105 -150 0
-150 0 0 105 0 105 150 0 150 0 0 -105z"/>
<path d="M828 13119 c-22 -12 -23 -29 -3 -29 12 0 15 -13 15 -55 0 -43 3 -55
15 -55 13 0 15 12 13 72 -3 73 -10 85 -40 67z"/>
<path d="M923 13123 c-7 -2 -13 -11 -13 -19 0 -10 7 -13 25 -8 34 8 32 -9 -6
-57 -17 -21 -28 -43 -24 -49 8 -14 85 -13 85 1 0 6 -9 13 -20 16 l-20 5 20 33
c24 39 25 49 4 69 -16 16 -29 19 -51 9z"/>
<path d="M4500 13296 c0 -10 -13 -16 -37 -18 l-38 -3 0 -175 0 -175 175 0 175
0 0 175 0 175 -37 3 c-25 2 -38 8 -38 18 0 8 -4 14 -10 14 -5 0 -10 -7 -10
-15 0 -12 -15 -15 -75 -15 -58 0 -77 4 -81 15 -8 19 -24 20 -24 1z m0 -61 c0
-8 5 -15 10 -15 6 0 10 7 10 15 0 12 16 15 80 15 64 0 80 -3 80 -15 0 -8 5
-15 10 -15 6 0 10 7 10 15 0 9 9 15 25 15 21 0 25 -5 25 -30 l0 -30 -150 0
-150 0 0 30 c0 25 4 30 25 30 16 0 25 -6 25 -15z m250 -180 l0 -105 -150 0
-150 0 0 105 0 105 150 0 150 0 0 -105z"/>
<path d="M4528 13119 c-22 -12 -23 -29 -3 -29 12 0 15 -13 15 -55 0 -43 3 -55
15 -55 13 0 15 12 13 72 -3 73 -10 85 -40 67z"/>
<path d="M4609 13109 c-10 -20 -9 -21 20 -14 40 9 40 -6 1 -55 -16 -21 -30
-43 -30 -49 0 -6 19 -11 45 -11 46 0 62 17 25 27 l-20 5 20 33 c25 41 25 61 1
75 -30 15 -49 12 -62 -11z"/>
<path d="M708 12536 c-44 -24 -49 -46 -13 -46 25 0 25 -1 25 -85 0 -84 0 -85
25 -85 l25 0 0 120 c0 133 0 132 -62 96z"/>
<path d="M1410 12440 l0 -120 25 0 c22 0 25 4 25 38 1 40 0 40 45 -21 8 -12
22 -17 40 -15 l26 3 -30 40 c-17 22 -31 43 -31 47 0 4 14 23 31 43 l31 35 -28
0 c-19 0 -36 -10 -55 -32 l-28 -33 -1 68 c0 65 -1 67 -25 67 l-25 0 0 -120z"/>
<path d="M4416 12539 c-30 -24 -35 -59 -8 -59 9 0 23 9 30 20 14 24 45 26 62
5 17 -20 -3 -45 -36 -45 -17 0 -24 -6 -24 -20 0 -14 7 -20 24 -20 13 0 29 -7
36 -15 17 -20 -3 -45 -37 -45 -13 0 -26 7 -29 15 -6 16 -54 21 -54 6 0 -4 9
-20 21 -35 29 -36 99 -37 134 -1 30 29 31 45 6 76 -16 19 -16 25 -5 37 8 7 14
23 14 35 -1 60 -81 88 -134 46z"/>
<path d="M5190 12440 l0 -120 25 0 c22 0 25 4 25 38 1 40 0 40 45 -21 8 -12
22 -17 40 -15 l26 3 -30 40 c-17 22 -31 43 -31 47 0 4 14 23 31 43 l31 35 -28
0 c-19 0 -36 -10 -55 -32 l-28 -33 -1 68 c0 65 -1 67 -25 67 l-25 0 0 -120z"/>
<path d="M910 12510 c0 -11 -7 -20 -15 -20 -8 0 -15 -9 -15 -20 0 -11 7 -20
15 -20 11 0 15 -12 15 -49 0 -58 18 -81 61 -81 22 0 29 5 29 20 0 11 -3 19 -7
19 -27 -4 -33 4 -33 46 0 33 4 45 15 45 8 0 15 9 15 20 0 11 -7 20 -15 20 -8
0 -15 9 -15 20 0 15 -7 20 -25 20 -18 0 -25 -5 -25 -20z"/>
<path d="M4690 12510 c0 -11 -7 -20 -15 -20 -8 0 -15 -9 -15 -20 0 -11 7 -20
15 -20 11 0 15 -13 15 -53 0 -62 11 -77 57 -77 37 0 47 28 13 37 -16 4 -20 14
-20 49 0 32 4 44 15 44 8 0 15 9 15 20 0 11 -7 20 -15 20 -8 0 -15 9 -15 20 0
15 -7 20 -25 20 -18 0 -25 -5 -25 -20z"/>
<path d="M1064 12482 c-37 -25 -45 -106 -14 -140 23 -24 69 -29 88 -10 9 9 12
9 12 0 0 -7 11 -12 25 -12 25 0 25 1 25 85 0 84 0 85 -25 85 -14 0 -25 -5 -25
-12 0 -9 -3 -9 -12 0 -13 13 -57 16 -74 4z m81 -77 c0 -38 -2 -40 -30 -40 -26
0 -30 4 -33 28 -5 44 4 59 35 55 25 -3 28 -7 28 -43z"/>
<path d="M1255 12474 c-9 -9 -15 -28 -13 -43 2 -21 11 -29 46 -39 23 -8 42
-20 42 -28 0 -17 -5 -17 -47 -2 -40 15 -52 5 -28 -22 36 -40 125 -17 125 32 0
21 -30 45 -67 53 -18 3 -33 11 -33 16 0 15 30 23 43 10 13 -13 47 -15 47 -2 0
37 -84 55 -115 25z"/>
<path d="M4830 12468 c-27 -29 -27 -96 0 -125 16 -18 31 -21 85 -21 l65 0 0
84 c0 83 0 84 -25 84 -14 0 -25 -5 -25 -12 0 -9 -3 -9 -12 0 -19 19 -65 14
-88 -10z m95 -63 c0 -38 -2 -40 -30 -40 -26 0 -30 4 -33 28 -5 44 4 59 35 55
25 -3 28 -7 28 -43z"/>
<path d="M5035 12474 c-9 -9 -15 -28 -13 -43 2 -21 11 -29 46 -39 23 -8 42
-20 42 -28 0 -17 -5 -17 -47 -2 -40 15 -52 5 -28 -22 36 -40 125 -17 125 32 0
21 -30 45 -67 53 -18 3 -33 11 -33 16 0 15 30 23 43 10 13 -13 47 -15 47 -2 0
37 -84 55 -115 25z"/>
<path d="M5386 12474 c-35 -35 -10 -84 43 -84 23 0 37 -18 24 -31 -5 -5 -22
-4 -41 3 -39 15 -51 5 -27 -22 36 -40 125 -17 125 32 0 21 -30 45 -67 53 -18
3 -33 11 -33 16 0 15 30 23 43 10 13 -13 47 -15 47 -2 0 20 -33 41 -65 41 -18
0 -41 -7 -49 -16z"/>
<path d="M1130 12003 c0 -44 -1 -45 -18 -30 -41 38 -92 3 -92 -63 0 -32 5 -43
26 -57 21 -13 32 -15 55 -6 16 6 29 7 29 2 0 -5 5 -9 10 -9 6 0 10 42 10 105
0 63 -4 105 -10 105 -5 0 -10 -21 -10 -47z m-12 -45 c18 -18 15 -73 -5 -90
-34 -30 -91 18 -75 62 14 40 54 54 80 28z"/>
<path d="M4423 12040 c-12 -5 -27 -18 -33 -29 -16 -32 3 -56 54 -71 49 -13 67
-40 46 -65 -19 -23 -66 -19 -84 7 -19 27 -32 18 -17 -11 21 -39 100 -39 124 0
5 9 7 27 3 42 -5 20 -17 29 -55 42 -52 17 -69 38 -50 61 16 19 48 18 71 -3 21
-19 38 -9 17 11 -20 20 -51 26 -76 16z"/>
<path d="M4740 11945 c0 -109 15 -147 19 -48 3 68 5 73 36 73 28 0 35 -16 35
-81 0 -27 5 -49 10 -49 6 0 10 26 10 59 0 64 -19 97 -49 88 -46 -13 -46 -13
-45 26 1 20 -3 37 -7 37 -5 0 -9 -47 -9 -105z"/>
<path d="M5180 12004 c0 -45 0 -45 -22 -30 -31 22 -45 20 -73 -9 -32 -31 -33
-74 -2 -103 28 -26 45 -27 75 -6 20 14 22 14 22 0 0 -9 5 -16 10 -16 6 0 10
42 10 105 0 63 -4 105 -10 105 -5 0 -10 -21 -10 -46z m-14 -59 c12 -18 14 -31
7 -52 -8 -23 -15 -28 -44 -28 -27 0 -35 5 -43 27 -22 64 44 108 80 53z"/>
<path d="M5410 11946 c0 -58 4 -106 8 -106 11 0 12 199 1 206 -5 3 -9 -39 -9
-100z"/>
<path d="M5760 12012 c0 -48 -7 -55 -34 -37 -28 20 -42 19 -66 -7 -26 -28 -26
-82 0 -108 23 -23 42 -25 72 -9 16 9 23 8 29 -2 5 -8 9 30 9 94 0 59 -2 107
-5 107 -3 0 -5 -17 -5 -38z m-22 -54 c7 -7 12 -26 12 -43 0 -36 -15 -55 -45
-55 -30 0 -45 19 -45 55 0 36 15 55 45 55 12 0 26 -5 33 -12z"/>
<path d="M708 12033 l32 -4 0 -95 c0 -56 4 -94 10 -94 6 0 10 38 10 94 l0 95
33 4 c17 2 -2 4 -43 4 -41 0 -60 -2 -42 -4z"/>
<path d="M865 11965 c-32 -31 -33 -74 -2 -103 59 -56 141 13 103 87 -25 48
-64 54 -101 16z m82 -21 c15 -24 15 -29 2 -53 -29 -51 -89 -35 -89 23 0 59 55
78 87 30z"/>
<path d="M1226 11969 c-33 -26 -36 -79 -6 -109 23 -23 42 -25 72 -9 16 9 23 8
29 -2 5 -9 9 14 9 59 0 41 -4 72 -10 72 -5 0 -10 -5 -10 -11 0 -6 -7 -3 -16 5
-21 21 -36 20 -68 -5z m72 -11 c7 -7 12 -26 12 -43 0 -36 -15 -55 -45 -55 -30
0 -45 19 -45 55 0 36 15 55 45 55 12 0 26 -5 33 -12z"/>
<path d="M4586 11969 c-26 -20 -36 -69 -18 -95 25 -38 92 -40 112 -4 13 23 -2
27 -20 5 -15 -18 -51 -20 -68 -3 -16 16 -16 70 0 86 17 17 48 15 70 -5 26 -23
34 -9 9 16 -27 27 -51 27 -85 0z"/>
<path d="M4923 11975 c-65 -46 -10 -160 62 -127 14 6 25 17 25 24 0 9 -3 9
-12 0 -19 -19 -66 -15 -78 7 -15 30 -14 31 45 31 30 0 55 4 55 10 0 23 -24 59
-44 64 -29 8 -29 8 -53 -9z m65 -17 c25 -25 13 -38 -33 -38 -49 0 -50 1 -35
31 12 21 50 25 68 7z"/>
<path d="M5503 11975 c-65 -46 -10 -160 62 -127 14 6 25 17 25 24 0 9 -3 9
-12 0 -19 -19 -66 -15 -78 7 -15 30 -14 31 45 31 30 0 55 3 55 8 -1 27 -15 51
-36 61 -32 14 -35 14 -61 -4z m65 -17 c25 -25 13 -38 -33 -38 -49 0 -50 1 -35
31 12 21 50 25 68 7z"/>
<path d="M1392 11928 c35 -86 35 -106 2 -119 -23 -10 -25 -13 -11 -16 24 -6
47 14 64 55 42 100 53 134 42 130 -6 -2 -21 -28 -32 -58 l-20 -55 -15 35 c-8
19 -18 45 -23 58 -5 12 -13 22 -19 22 -5 0 0 -24 12 -52z"/>
<path d="M5254 11921 c1 -74 19 -96 58 -72 16 10 23 10 26 2 2 -6 8 -11 13
-11 5 0 9 32 9 70 0 40 -4 70 -10 70 -5 0 -10 -22 -10 -48 0 -53 -12 -72 -47
-72 -24 0 -30 13 -36 85 -2 22 -4 11 -3 -24z"/>
<path d="M1364 10566 c-12 -31 0 -51 31 -51 27 0 30 3 30 30 0 25 -4 30 -28
33 -17 2 -29 -2 -33 -12z"/>
<path d="M350 10406 l0 -166 35 0 35 0 0 108 0 107 32 -67 c29 -64 33 -68 64
-68 30 0 35 5 62 63 l30 62 1 -102 1 -103 35 0 35 0 0 166 0 165 -42 -3 -43
-3 -40 -84 -41 -83 -36 83 -36 84 -46 3 -46 3 0 -165z"/>
<path d="M1090 10403 l0 -163 110 0 110 0 0 30 0 30 -80 0 -80 0 0 135 0 135
-30 -2 -30 -2 0 -163z"/>
<path d="M1730 10500 c0 -23 -4 -30 -20 -30 -15 0 -20 -7 -20 -25 0 -18 5 -25
20 -25 18 0 20 -7 20 -61 0 -91 19 -119 83 -119 33 0 37 3 37 24 0 18 -6 25
-22 28 -21 3 -23 9 -26 66 -3 61 -2 62 23 62 20 0 25 5 25 25 0 20 -5 25 -25
25 -21 0 -25 5 -25 30 0 28 -3 30 -35 30 -32 0 -35 -2 -35 -30z"/>
<path d="M1523 10465 c-66 -28 -54 -106 19 -125 65 -17 68 -18 68 -34 0 -21
-24 -26 -55 -10 -63 33 -101 6 -49 -35 36 -29 116 -29 144 -1 21 21 26 65 11
88 -5 8 -32 22 -62 31 -29 10 -55 23 -57 29 -6 18 28 27 49 14 27 -17 69 -15
69 3 0 18 -57 55 -85 55 -11 -1 -34 -7 -52 -15z"/>
<path d="M1933 10466 c-65 -30 -54 -107 19 -127 24 -6 49 -13 56 -15 16 -5 15
-31 -2 -37 -7 -3 -26 1 -41 9 -32 16 -75 19 -75 4 0 -6 11 -22 25 -35 19 -20
34 -25 75 -25 58 0 90 24 90 68 0 40 -12 52 -71 71 -29 10 -55 23 -57 29 -6
18 27 26 52 13 13 -7 36 -11 51 -9 l29 3 -25 28 c-29 34 -81 43 -126 23z"/>
<path d="M723 10458 c72 -194 79 -219 67 -233 -7 -8 -25 -15 -41 -15 -24 0
-29 -4 -29 -24 0 -27 17 -37 52 -29 40 8 64 24 80 51 17 29 98 239 98 254 0 5
-14 8 -32 6 -30 -3 -33 -7 -57 -78 l-25 -75 -25 78 c-25 76 -25 77 -59 77 -23
0 -33 -4 -29 -12z"/>
<path d="M1360 10355 l0 -115 35 0 35 0 0 115 0 115 -35 0 -35 0 0 -115z"/>
<path d="M1460 9428 c0 -7 12 -62 27 -121 24 -92 31 -107 47 -105 14 2 24 20
38 73 27 102 29 105 40 65 34 -125 40 -140 57 -140 15 0 24 20 44 103 15 57
29 111 33 121 5 14 3 17 -12 14 -13 -2 -23 -23 -38 -85 -12 -45 -24 -84 -27
-87 -3 -3 -16 34 -30 82 -32 116 -46 115 -79 -7 l-26 -95 -25 94 c-13 51 -30
95 -36 98 -7 2 -13 -2 -13 -10z"/>
<path d="M2160 9320 c0 -100 3 -120 15 -120 11 0 15 11 15 38 l1 37 32 -38
c18 -20 40 -37 51 -37 15 0 12 8 -19 46 l-38 46 39 39 c31 32 34 39 19 39 -10
0 -34 -14 -52 -32 l-33 -32 0 67 c0 53 -3 67 -15 67 -12 0 -15 -20 -15 -120z"/>
<path d="M2330 9320 c0 -100 3 -120 15 -120 13 0 15 20 15 120 0 100 -2 120
-15 120 -12 0 -15 -20 -15 -120z"/>
<path d="M2660 9425 c0 -11 11 -15 40 -15 l40 0 0 -105 c0 -87 3 -105 15 -105
12 0 15 18 15 105 l0 105 35 0 c24 0 35 5 35 15 0 12 -17 15 -90 15 -73 0 -90
-3 -90 -15z"/>
<path d="M3137 9433 c-4 -3 -7 -58 -7 -121 l0 -114 66 4 c60 4 70 7 95 36 52
58 32 159 -36 188 -36 14 -107 19 -118 7z m128 -48 c32 -31 34 -91 4 -129 -17
-21 -29 -26 -65 -26 l-44 0 0 90 0 90 40 0 c30 0 47 -7 65 -25z"/>
<path d="M7326 9419 c-27 -21 -36 -59 -13 -59 7 0 17 10 22 23 11 25 49 34 71
17 30 -26 16 -62 -46 -120 -33 -31 -60 -61 -60 -68 0 -8 24 -12 80 -12 64 0
80 3 80 15 0 12 -13 15 -57 15 l-57 0 52 50 c42 40 52 56 52 82 0 39 -7 51
-37 67 -32 16 -57 14 -87 -10z"/>
<path d="M540 9421 c0 -17 33 -21 180 -21 82 0 155 3 164 6 45 17 -1 24 -164
24 -99 0 -180 -4 -180 -9z"/>
<path d="M1792 9347 c-28 -30 -29 -85 -1 -121 26 -34 79 -36 111 -4 26 26 9
37 -24 14 -28 -20 -42 -20 -62 0 -32 32 -20 44 44 44 52 0 60 3 60 19 0 10 -9
30 -21 45 -27 34 -77 36 -107 3z m82 -13 c26 -25 19 -34 -29 -34 -25 0 -45 4
-45 9 0 14 30 41 45 41 7 0 21 -7 29 -16z"/>
<path d="M1982 9347 c-31 -33 -30 -96 1 -125 31 -29 80 -29 109 0 26 26 9 37
-24 14 -28 -20 -42 -20 -62 0 -32 32 -20 44 44 44 52 0 60 3 60 19 0 10 -9 30
-21 45 -27 34 -77 36 -107 3z m82 -13 c26 -25 19 -34 -29 -34 -25 0 -45 4 -45
9 0 14 30 41 45 41 7 0 21 -7 29 -16z"/>
<path d="M2421 9318 c50 -126 50 -126 26 -143 -12 -8 -27 -15 -34 -15 -7 0
-13 -4 -13 -10 0 -14 43 -12 63 3 9 6 32 48 51 92 47 114 50 125 32 125 -9 0
-23 -23 -37 -60 -12 -33 -24 -60 -28 -60 -3 0 -15 26 -27 58 -12 35 -27 58
-37 60 -16 3 -15 -2 4 -50z"/>
<path d="M2871 9344 c-12 -15 -21 -41 -21 -59 0 -50 33 -85 80 -85 47 0 80 35
80 85 0 50 -33 85 -80 85 -30 0 -43 -6 -59 -26z m87 -10 c32 -22 30 -78 -3
-100 -23 -15 -27 -15 -50 0 -33 22 -35 78 -3 100 12 9 25 16 28 16 3 0 16 -7
28 -16z"/>
<path d="M3390 9352 c-13 -10 -23 -33 -27 -59 -5 -35 -2 -45 20 -67 54 -54
138 -19 140 58 2 71 -78 112 -133 68z m78 -19 c41 -35 24 -113 -24 -113 -22 0
-54 38 -54 65 0 24 31 65 49 65 5 0 18 -8 29 -17z"/>
<path d="M540 9300 c0 -13 -10 -12 170 -15 158 -3 190 -1 190 16 0 5 -75 9
-180 9 -113 0 -180 -4 -180 -10z"/>
<path d="M540 9181 c0 -17 33 -21 180 -21 82 0 155 3 164 6 45 17 -1 24 -164
24 -99 0 -180 -4 -180 -9z"/>
<path d="M1460 8308 c0 -7 12 -62 27 -121 24 -92 31 -107 47 -105 14 2 24 20
38 73 27 102 29 105 40 65 34 -125 40 -140 57 -140 15 0 24 20 44 103 15 57
29 111 33 121 5 14 3 17 -12 14 -13 -2 -23 -23 -38 -85 -12 -45 -24 -84 -27
-87 -3 -3 -16 34 -30 82 -32 116 -46 115 -79 -7 l-26 -95 -25 94 c-13 51 -30
95 -36 98 -7 2 -13 -2 -13 -10z"/>
<path d="M2100 8200 c0 -100 3 -120 15 -120 11 0 15 11 15 43 l0 42 36 -42
c20 -24 44 -43 55 -43 18 0 16 5 -15 44 -20 23 -36 46 -36 49 0 3 17 22 38 41
32 31 34 36 16 36 -11 0 -33 -13 -49 -30 -16 -16 -32 -30 -37 -30 -4 0 -8 29
-8 65 0 51 -3 65 -15 65 -12 0 -15 -20 -15 -120z"/>
<path d="M7326 8299 c-27 -21 -36 -59 -13 -59 7 0 17 10 22 23 11 25 49 34 71
17 30 -26 16 -62 -46 -120 -33 -31 -60 -61 -60 -68 0 -8 24 -12 80 -12 64 0
80 3 80 15 0 12 -13 15 -57 15 l-57 0 52 50 c42 40 52 56 52 82 0 39 -7 51
-37 67 -32 16 -57 14 -87 -10z"/>
<path d="M540 8301 c0 -17 33 -21 180 -21 82 0 155 3 164 6 45 17 -1 24 -164
24 -99 0 -180 -4 -180 -9z"/>
<path d="M2670 8270 c0 -11 -7 -20 -15 -20 -8 0 -15 -4 -15 -9 0 -5 7 -11 15
-15 11 -4 15 -21 15 -64 0 -65 11 -82 52 -82 33 0 38 17 6 22 -21 3 -23 8 -23
63 0 45 4 60 14 60 8 0 16 6 19 13 2 7 -5 12 -17 12 -14 0 -21 6 -21 20 0 11
-7 20 -15 20 -8 0 -15 -9 -15 -20z"/>
<path d="M1791 8224 c-46 -59 -11 -144 58 -144 49 0 81 32 81 82 0 53 -32 88
-80 88 -30 0 -43 -6 -59 -26z m87 -10 c32 -22 30 -78 -3 -100 -23 -15 -27 -15
-50 0 -33 22 -35 78 -3 100 12 9 25 16 28 16 3 0 16 -7 28 -16z"/>
<path d="M1978 8190 c-4 -77 1 -110 17 -110 11 0 14 15 14 61 -1 64 4 75 35
81 11 1 21 9 23 15 3 9 -9 12 -40 11 l-45 -2 -4 -56z"/>
<path d="M2290 8230 c-27 -27 -35 -65 -20 -101 15 -34 37 -49 75 -49 38 0 60
15 75 49 24 60 -14 121 -75 121 -22 0 -43 -8 -55 -20z m80 -10 c21 -11 34 -53
25 -81 -8 -25 -41 -42 -66 -34 -43 14 -47 98 -5 115 28 11 25 11 46 0z"/>
<path d="M2470 8181 c0 -92 31 -123 91 -91 13 7 19 7 19 0 0 -5 7 -10 15 -10
12 0 15 16 15 85 0 66 -3 85 -14 85 -10 0 -15 -18 -18 -60 -5 -70 -27 -102
-56 -84 -13 8 -18 28 -20 78 -2 50 -6 66 -17 66 -12 0 -15 -15 -15 -69z"/>
<path d="M540 8180 c0 -13 -10 -12 170 -15 158 -3 190 -1 190 16 0 5 -75 9
-180 9 -113 0 -180 -4 -180 -10z"/>
<path d="M540 8061 c0 -17 33 -21 180 -21 82 0 155 3 164 6 45 17 -1 24 -164
24 -99 0 -180 -4 -180 -9z"/>
<path d="M1514 7181 c-98 -60 -54 -221 60 -221 111 0 152 147 61 218 -34 27
-80 28 -121 3z m111 -36 c19 -18 25 -35 25 -66 0 -57 -29 -89 -81 -89 -67 0
-99 72 -64 140 24 47 81 55 120 15z"/>
<path d="M1910 7080 c0 -97 3 -120 14 -120 8 0 16 6 19 13 4 10 7 10 18 0 16
-16 53 -17 79 -3 45 24 44 126 0 150 -24 13 -67 13 -75 0 -14 -23 -25 -7 -25
35 0 33 -4 45 -15 45 -12 0 -15 -20 -15 -120z m110 20 c36 -20 33 -99 -6 -114
-44 -17 -87 40 -63 86 20 38 37 45 69 28z"/>
<path d="M2770 7155 c0 -42 -2 -45 -19 -35 -56 29 -111 -9 -111 -76 0 -29 6
-47 23 -62 25 -24 76 -29 95 -10 9 9 12 9 12 0 0 -7 7 -12 15 -12 13 0 15 20
15 120 0 100 -2 120 -15 120 -11 0 -15 -12 -15 -45z m-20 -65 c11 -11 20 -31
20 -45 0 -26 -31 -65 -52 -65 -46 0 -66 87 -26 114 29 20 34 20 58 -4z"/>
<path d="M2852 7183 c4 -21 33 -25 33 -3 0 8 -8 16 -18 18 -14 3 -18 -1 -15
-15z"/>
<path d="M7220 7192 c0 -5 -11 -14 -25 -20 -30 -14 -33 -32 -5 -32 19 0 20 -7
20 -90 0 -73 3 -90 15 -90 13 0 15 20 15 120 0 73 -4 120 -10 120 -5 0 -10 -4
-10 -8z"/>
<path d="M7325 7175 c-29 -28 -31 -42 -10 -72 13 -18 13 -22 0 -33 -8 -7 -15
-27 -15 -46 0 -41 29 -64 80 -64 68 0 104 66 61 109 -17 17 -18 21 -5 32 22
18 17 65 -8 83 -33 23 -75 20 -103 -9z m94 -24 c15 -27 -8 -54 -43 -49 -37 4
-55 30 -37 52 19 22 68 21 80 -3z m1 -96 c18 -22 4 -64 -24 -71 -50 -12 -88
40 -54 74 17 17 63 15 78 -3z"/>
<path d="M540 7181 c0 -17 33 -21 180 -21 82 0 155 3 164 6 45 17 -1 24 -164
24 -99 0 -180 -4 -180 -9z"/>
<path d="M1730 7045 c0 -69 3 -85 15 -85 12 0 15 14 15 65 0 53 3 66 19 75 42
22 61 -7 61 -92 0 -36 4 -48 15 -48 19 0 21 103 2 140 -14 28 -59 39 -83 19
-10 -8 -14 -8 -14 0 0 6 -7 11 -15 11 -12 0 -15 -16 -15 -85z"/>
<path d="M2142 7107 c-31 -33 -30 -96 1 -125 52 -49 137 -10 137 63 0 74 -89
114 -138 62z m88 -17 c11 -11 20 -31 20 -45 0 -23 -31 -65 -48 -65 -4 0 -18 7
-30 16 -30 21 -30 77 0 98 29 20 34 20 58 -4z"/>
<path d="M2342 7107 c-31 -33 -30 -96 1 -125 25 -24 76 -29 95 -10 9 9 12 9
12 0 0 -7 7 -12 15 -12 12 0 15 16 15 85 0 69 -3 85 -15 85 -8 0 -15 -5 -15
-10 0 -7 -6 -7 -19 0 -32 16 -66 12 -89 -13z m88 -17 c11 -11 20 -31 20 -45 0
-26 -31 -65 -52 -65 -42 0 -63 76 -31 112 21 23 38 23 63 -2z"/>
<path d="M2530 7043 c0 -67 3 -83 15 -83 11 0 15 13 15 54 0 70 7 86 36 86 14
0 24 6 24 14 0 10 -13 14 -45 14 l-45 -1 0 -84z"/>
<path d="M2850 7045 c0 -69 3 -85 15 -85 12 0 15 16 15 85 0 69 -3 85 -15 85
-12 0 -15 -16 -15 -85z"/>
<path d="M2930 7045 c0 -69 3 -85 15 -85 11 0 15 13 15 54 0 66 27 108 57 90
14 -9 19 -26 21 -78 2 -50 6 -66 17 -66 24 0 21 132 -3 153 -22 20 -63 22 -80
5 -9 -9 -12 -9 -12 0 0 7 -7 12 -15 12 -12 0 -15 -16 -15 -85z"/>
<path d="M3137 7112 c-61 -67 1 -179 80 -143 33 15 40 8 19 -24 -19 -28 -57
-33 -76 -10 -13 16 -40 20 -40 7 0 -5 8 -16 18 -24 49 -44 115 -28 132 31 16
57 13 181 -4 181 -8 0 -16 -6 -19 -12 -4 -10 -7 -10 -18 0 -19 18 -73 15 -92
-6z m80 -10 c6 -4 16 -19 22 -33 22 -60 -49 -108 -84 -56 -32 50 15 119 62 89z"/>
<path d="M540 7060 c0 -13 -10 -12 170 -15 158 -3 190 -1 190 16 0 5 -75 9
-180 9 -113 0 -180 -4 -180 -10z"/>
<path d="M540 6941 c0 -17 33 -21 180 -21 82 0 155 3 164 6 45 17 -1 24 -164
24 -99 0 -180 -4 -180 -9z"/>
<path d="M1523 6070 c-34 -14 -63 -69 -63 -118 0 -37 6 -50 34 -78 46 -46 104
-48 147 -5 16 16 29 34 29 40 0 20 -28 11 -44 -14 -13 -20 -25 -25 -56 -25
-55 0 -84 37 -77 100 9 77 82 108 131 55 42 -45 64 -27 23 20 -25 29 -86 42
-124 25z"/>
<path d="M1710 5960 c0 -100 3 -120 15 -120 11 0 15 13 15 54 0 66 27 108 57
90 14 -9 19 -26 21 -78 2 -50 6 -66 17 -66 24 0 21 132 -3 153 -22 20 -63 22
-80 5 -9 -9 -12 -2 -12 35 0 35 -4 47 -15 47 -12 0 -15 -20 -15 -120z"/>
<path d="M2230 5960 c0 -100 3 -120 15 -120 13 0 15 20 15 120 0 100 -2 120
-15 120 -12 0 -15 -20 -15 -120z"/>
<path d="M2314 6069 c-10 -17 13 -36 27 -22 12 12 4 33 -11 33 -5 0 -12 -5
-16 -11z"/>
<path d="M2587 6073 c-10 -10 -8 -63 2 -63 11 0 21 25 21 51 0 19 -11 25 -23
12z"/>
<path d="M2880 5960 c0 -97 3 -120 14 -120 8 0 16 6 19 13 4 10 7 10 18 0 16
-16 53 -17 79 -3 45 24 44 126 0 150 -24 13 -67 13 -75 0 -14 -23 -25 -7 -25
35 0 33 -4 45 -15 45 -12 0 -15 -20 -15 -120z m110 20 c36 -20 33 -99 -6 -114
-44 -17 -87 40 -63 86 20 38 37 45 69 28z"/>
<path d="M3092 6063 c2 -10 10 -18 18 -18 22 0 18 29 -3 33 -14 3 -18 -1 -15
-15z"/>
<path d="M3440 5960 c0 -100 3 -120 15 -120 12 0 15 14 15 65 0 53 3 66 19 75
25 13 27 13 45 -6 11 -10 16 -34 16 -75 0 -46 3 -59 15 -59 19 0 21 103 2 140
-14 28 -59 39 -83 19 -12 -10 -14 -4 -14 35 0 34 -4 46 -15 46 -12 0 -15 -20
-15 -120z"/>
<path d="M3750 6035 c0 -42 -2 -45 -19 -35 -56 29 -111 -9 -111 -76 0 -52 28
-84 73 -84 18 0 38 5 45 12 9 9 12 9 12 0 0 -7 7 -12 15 -12 13 0 15 20 15
120 0 100 -2 120 -15 120 -11 0 -15 -12 -15 -45z m-20 -65 c11 -11 20 -30 20
-43 0 -29 -27 -67 -47 -67 -50 0 -73 85 -31 114 29 20 34 20 58 -4z"/>
<path d="M7325 6055 c-29 -28 -31 -42 -10 -72 13 -18 13 -22 0 -33 -8 -7 -15
-27 -15 -46 0 -41 29 -64 80 -64 68 0 104 66 61 109 -17 17 -18 21 -5 32 22
18 17 65 -8 83 -33 23 -75 20 -103 -9z m94 -24 c15 -27 -8 -54 -43 -49 -37 4
-55 30 -37 52 19 22 68 21 80 -3z m1 -96 c18 -22 4 -64 -24 -71 -50 -12 -88
40 -54 74 17 17 63 15 78 -3z"/>
<path d="M540 6061 c0 -17 33 -21 180 -21 82 0 155 3 164 6 45 17 -1 24 -164
24 -99 0 -180 -4 -180 -9z"/>
<path d="M3320 6030 c0 -11 -7 -20 -15 -20 -8 0 -15 -5 -15 -10 0 -6 7 -13 15
-16 11 -5 15 -22 15 -63 0 -62 11 -81 47 -81 28 0 30 16 3 23 -17 4 -20 14
-20 60 0 46 3 55 20 60 11 3 20 10 20 16 0 6 -9 11 -20 11 -13 0 -20 7 -20 20
0 11 -7 20 -15 20 -8 0 -15 -9 -15 -20z"/>
<path d="M1927 5998 c-26 -19 -36 -68 -23 -108 14 -43 52 -60 96 -43 17 6 30
7 30 2 0 -5 7 -9 15 -9 12 0 15 16 15 85 0 69 -3 85 -15 85 -8 0 -15 -5 -15
-10 0 -7 -6 -7 -19 0 -26 14 -64 13 -84 -2z m73 -18 c36 -20 33 -99 -6 -114
-43 -17 -81 34 -62 84 14 38 35 48 68 30z"/>
<path d="M2100 5925 c0 -69 3 -85 15 -85 11 0 15 12 15 51 0 60 13 89 40 89
11 0 20 7 20 15 0 18 -31 20 -48 3 -9 -9 -12 -9 -12 0 0 7 -7 12 -15 12 -12 0
-15 -16 -15 -85z"/>
<path d="M2317 6003 c-4 -3 -7 -42 -7 -85 0 -63 3 -78 15 -78 12 0 15 16 15
85 0 78 -5 96 -23 78z"/>
<path d="M2423 5995 c-30 -21 -39 -74 -19 -113 17 -33 34 -42 75 -42 25 0 61
26 61 43 0 13 -27 7 -40 -8 -17 -21 -36 -19 -60 5 -29 29 -17 40 46 40 51 0
54 1 54 25 0 54 -69 84 -117 50z m68 -15 c36 -20 23 -40 -26 -40 -42 0 -45 2
-35 19 8 16 21 26 38 30 2 1 12 -4 23 -9z"/>
<path d="M2656 5994 c-25 -24 -19 -52 14 -69 16 -8 36 -15 44 -15 21 0 30 -19
16 -35 -16 -19 -35 -19 -54 0 -16 17 -36 20 -36 6 0 -20 33 -41 65 -41 26 0
39 6 50 24 23 34 6 62 -46 76 -29 8 -39 16 -37 28 4 23 32 27 51 7 17 -17 37
-20 37 -6 0 19 -32 41 -60 41 -16 0 -36 -7 -44 -16z"/>
<path d="M3090 5925 c0 -69 3 -85 15 -85 12 0 15 16 15 85 0 69 -3 85 -15 85
-12 0 -15 -16 -15 -85z"/>
<path d="M3170 5925 c0 -69 3 -85 15 -85 11 0 15 12 15 51 0 60 13 89 40 89
11 0 20 7 20 15 0 18 -31 20 -48 3 -9 -9 -12 -9 -12 0 0 7 -7 12 -15 12 -12 0
-15 -16 -15 -85z"/>
<path d="M3851 5984 c-29 -37 -28 -94 2 -122 25 -24 76 -29 95 -10 9 9 12 9
12 0 0 -7 7 -12 15 -12 12 0 15 16 15 85 0 69 -3 85 -15 85 -8 0 -15 -5 -15
-10 0 -7 -6 -7 -19 0 -34 18 -68 12 -90 -16z m89 -14 c11 -11 20 -31 20 -45 0
-26 -31 -65 -52 -65 -42 0 -63 76 -31 112 21 23 38 23 63 -2z"/>
<path d="M4041 5958 c50 -126 50 -126 26 -143 -12 -8 -27 -15 -34 -15 -7 0
-13 -4 -13 -10 0 -14 43 -12 63 3 9 6 32 48 51 92 47 114 50 125 32 125 -9 0
-23 -23 -37 -60 -12 -33 -25 -60 -28 -60 -4 0 -15 26 -26 57 -13 37 -26 59
-38 61 -16 3 -16 -1 4 -50z"/>
<path d="M540 5940 c0 -13 -10 -12 170 -15 158 -3 190 -1 190 16 0 5 -75 9
-180 9 -113 0 -180 -4 -180 -10z"/>
<path d="M540 5821 c0 -17 33 -21 180 -21 82 0 155 3 164 6 45 17 -1 24 -164
24 -99 0 -180 -4 -180 -9z"/>
<path d="M1470 4840 c0 -100 3 -120 15 -120 11 0 15 12 15 49 l0 50 52 3 c74
4 77 28 4 28 l-56 0 0 40 0 40 60 0 c47 0 60 3 60 15 0 12 -15 15 -75 15 l-75
0 0 -120z"/>
<path d="M1672 4944 c4 -21 22 -23 26 -1 2 10 -3 17 -13 17 -10 0 -15 -6 -13
-16z"/>
<path d="M2870 4840 c0 -100 3 -120 15 -120 13 0 15 20 15 120 0 100 -2 120
-15 120 -12 0 -15 -20 -15 -120z"/>
<path d="M7326 4882 c-31 -44 -56 -85 -56 -91 0 -5 26 -11 58 -13 54 -3 57 -4
60 -30 5 -39 32 -37 32 2 0 23 4 30 20 30 11 0 20 5 20 10 0 6 -9 10 -20 10
-17 0 -19 8 -22 77 -4 107 -19 108 -92 5z m64 -27 l0 -55 -40 0 c-22 0 -40 3
-40 8 1 9 68 102 75 102 3 0 5 -25 5 -55z"/>
<path d="M540 4941 c0 -17 33 -21 180 -21 82 0 155 3 164 6 45 17 -1 24 -164
24 -99 0 -180 -4 -180 -9z"/>
<path d="M1770 4910 c0 -11 -7 -20 -15 -20 -8 0 -15 -7 -15 -15 0 -8 6 -14 13
-12 8 1 13 -17 15 -58 4 -69 14 -85 53 -85 36 0 38 16 4 24 -23 6 -25 11 -25
66 0 53 2 60 20 60 11 0 20 5 20 10 0 6 -9 10 -20 10 -13 0 -20 7 -20 20 0 11
-7 20 -15 20 -8 0 -15 -9 -15 -20z"/>
<path d="M1670 4805 c0 -69 3 -85 15 -85 12 0 15 16 15 85 0 69 -3 85 -15 85
-12 0 -15 -16 -15 -85z"/>
<path d="M1890 4805 c0 -69 3 -85 15 -85 12 0 15 14 15 65 0 53 3 66 19 75 25
13 27 13 45 -6 11 -10 16 -34 16 -75 0 -46 3 -59 15 -59 19 0 21 103 2 140
-14 28 -59 39 -83 19 -10 -8 -14 -8 -14 0 0 6 -7 11 -15 11 -12 0 -15 -16 -15
-85z"/>
<path d="M2091 4864 c-29 -37 -28 -94 2 -122 31 -29 80 -29 109 0 26 26 9 37
-24 14 -28 -20 -42 -20 -62 0 -32 32 -20 44 44 44 52 0 60 3 60 19 0 34 -38
71 -75 71 -24 0 -39 -7 -54 -26z m83 -10 c26 -25 19 -34 -29 -34 -25 0 -45 4
-45 9 0 14 30 41 45 41 7 0 21 -7 29 -16z"/>
<path d="M2276 4874 c-25 -24 -19 -52 14 -69 16 -8 36 -15 44 -15 21 0 30 -19
16 -35 -16 -19 -35 -19 -54 0 -16 17 -36 20 -36 6 0 -20 33 -41 65 -41 26 0
39 6 50 24 23 34 6 62 -46 76 -29 8 -39 16 -37 28 4 23 32 27 51 7 17 -17 37
-20 37 -6 0 19 -32 41 -60 41 -16 0 -36 -7 -44 -16z"/>
<path d="M2436 4874 c-31 -30 -17 -58 39 -77 43 -15 51 -33 23 -50 -13 -9 -21
-7 -36 6 -20 18 -42 23 -42 9 0 -18 38 -42 67 -42 34 0 66 30 61 56 -3 16 -18
27 -77 54 -24 10 -24 28 -1 35 14 4 28 1 39 -9 22 -20 31 -20 31 -1 0 33 -76
47 -104 19z"/>
<path d="M2660 4775 c0 -96 3 -115 15 -115 11 0 15 11 15 40 0 38 12 52 25 30
8 -13 51 -13 75 0 44 24 45 126 0 150 -26 14 -63 13 -79 -2 -11 -10 -14 -10
-18 0 -3 6 -11 12 -19 12 -11 0 -14 -22 -14 -115z m106 87 c37 -25 39 -93 2
-113 -44 -24 -93 35 -67 83 13 25 28 38 44 38 6 0 15 -4 21 -8z"/>
<path d="M2971 4864 c-29 -37 -28 -94 2 -122 25 -24 76 -29 95 -10 9 9 12 9
12 0 0 -7 7 -12 15 -12 12 0 15 16 15 85 0 69 -3 85 -15 85 -8 0 -15 -5 -15
-10 0 -7 -6 -7 -19 0 -34 18 -68 12 -90 -16z m89 -14 c11 -11 20 -31 20 -45 0
-26 -31 -65 -52 -65 -42 0 -63 76 -31 112 21 23 38 23 63 -2z"/>
<path d="M3160 4803 c0 -86 14 -111 25 -45 3 21 5 43 4 48 -4 25 3 44 22 54
35 19 49 -3 49 -76 0 -50 3 -64 15 -64 12 0 15 14 15 69 0 87 -11 101 -80 98
l-50 -2 0 -82z"/>
<path d="M540 4820 c0 -13 -10 -12 170 -15 158 -3 190 -1 190 16 0 5 -75 9
-180 9 -113 0 -180 -4 -180 -10z"/>
<path d="M540 4701 c0 -17 33 -21 180 -21 82 0 155 3 164 6 45 17 -1 24 -164
24 -99 0 -180 -4 -180 -9z"/>
<path d="M528 1573 c7 -3 16 -2 19 1 4 3 -2 6 -13 5 -11 0 -14 -3 -6 -6z"/>
<path d="M6414 1256 c-9 -24 4 -48 23 -44 12 2 18 12 18 28 0 29 -32 41 -41
16z"/>
<path d="M5015 1238 c-62 -48 -68 -134 -13 -188 25 -25 38 -30 79 -30 40 0 55
5 74 25 49 48 21 75 -35 34 -39 -30 -77 -19 -95 26 -28 65 20 128 79 106 13
-5 26 -17 29 -25 4 -9 16 -16 27 -16 30 0 25 34 -11 64 -39 33 -95 35 -134 4z"/>
<path d="M6200 1140 l0 -120 80 0 c73 0 80 2 80 20 0 18 -7 20 -55 20 l-55 0
0 100 0 100 -25 0 -25 0 0 -120z"/>
<path d="M5790 1210 c0 -11 -7 -20 -15 -20 -8 0 -15 -9 -15 -20 0 -11 7 -20
15 -20 11 0 15 -12 15 -46 0 -64 13 -84 55 -84 28 0 35 4 35 20 0 13 -7 20
-20 20 -17 0 -20 7 -20 44 0 35 4 45 20 49 11 3 20 10 20 17 0 7 -9 14 -20 17
-11 3 -20 14 -20 24 0 14 -7 19 -25 19 -18 0 -25 -5 -25 -20z"/>
<path d="M6700 1210 c0 -11 -7 -20 -15 -20 -8 0 -15 -9 -15 -20 0 -11 7 -20
15 -20 11 0 15 -13 15 -53 0 -62 11 -77 57 -77 37 0 47 28 13 37 -16 4 -20 14
-20 49 0 32 4 44 15 44 8 0 15 9 15 20 0 11 -7 20 -15 20 -8 0 -15 9 -15 20 0
15 -7 20 -25 20 -18 0 -25 -5 -25 -20z"/>
<path d="M2194 1186 c1 -8 5 -18 8 -22 4 -3 5 1 4 10 -1 8 -5 18 -8 22 -4 3
-5 -1 -4 -10z"/>
<path d="M2258 1193 c7 -3 16 -2 19 1 4 3 -2 6 -13 5 -11 0 -14 -3 -6 -6z"/>
<path d="M2365 1190 c3 -5 8 -10 11 -10 2 0 4 5 4 10 0 6 -5 10 -11 10 -5 0
-7 -4 -4 -10z"/>
<path d="M5220 1105 c0 -84 0 -85 24 -85 23 0 25 4 28 52 3 46 6 54 31 66 31
15 38 52 9 52 -10 0 -23 -5 -30 -12 -9 -9 -12 -9 -12 0 0 7 -11 12 -25 12 -25
0 -25 -1 -25 -85z"/>
<path d="M5382 1167 c-31 -33 -30 -96 1 -125 32 -30 89 -30 120 1 l22 22 -22
3 c-12 2 -31 -2 -43 -8 -16 -9 -25 -8 -36 1 -26 21 -15 29 41 29 51 0 55 2 55
24 0 13 -9 35 -21 50 -27 35 -86 36 -117 3z m72 -13 c28 -11 18 -34 -14 -34
-32 0 -37 9 -18 28 14 14 12 14 32 6z"/>
<path d="M5580 1170 c-27 -27 -28 -102 -1 -129 15 -15 33 -19 85 -19 l66 0 0
84 c0 83 0 84 -25 84 -14 0 -25 -5 -25 -12 0 -9 -3 -9 -12 0 -19 19 -66 14
-88 -8z m95 -65 c0 -38 -2 -40 -30 -40 -26 0 -30 4 -33 28 -5 44 4 59 35 55
25 -3 28 -7 28 -43z"/>
<path d="M5943 1175 c-30 -21 -39 -74 -19 -113 17 -33 33 -42 80 -42 40 0 79
36 56 50 -10 6 -23 4 -37 -5 -24 -16 -48 -11 -57 11 -4 11 6 14 49 14 29 0 56
4 59 9 9 14 -15 71 -34 81 -27 15 -73 12 -97 -5z m87 -45 c0 -6 -16 -10 -35
-10 -38 0 -46 13 -18 29 19 10 53 -2 53 -19z"/>
<path d="M6410 1105 c0 -84 0 -85 25 -85 25 0 25 1 25 85 0 84 0 85 -25 85
-25 0 -25 -1 -25 -85z"/>
<path d="M6521 1176 c-7 -8 -11 -27 -9 -43 2 -23 10 -30 46 -41 23 -8 42 -18
42 -22 0 -16 -20 -21 -40 -10 -12 6 -31 10 -43 8 l-22 -3 23 -22 c32 -33 96
-32 117 1 22 34 6 62 -45 77 -22 7 -40 16 -40 20 0 16 18 18 48 7 39 -15 51
-5 27 22 -22 24 -86 27 -104 6z"/>
<path d="M1500 1160 c0 -5 5 -10 11 -10 5 0 7 5 4 10 -3 6 -8 10 -11 10 -2 0
-4 -4 -4 -10z"/>
<path d="M1430 1125 c0 -8 2 -15 4 -15 2 0 6 7 10 15 3 8 1 15 -4 15 -6 0 -10
-7 -10 -15z"/>
<path d="M2875 1129 c-11 -16 -1 -19 13 -3 7 8 8 14 3 14 -5 0 -13 -5 -16 -11z"/>
<path d="M1070 1070 c0 -29 2 -51 4 -49 8 8 10 88 3 95 -4 4 -7 -17 -7 -46z"/>
<path d="M1222 1070 c0 -19 2 -27 5 -17 2 9 2 25 0 35 -3 9 -5 1 -5 -18z"/>
<path d="M3102 1076 c7 -8 15 -12 17 -11 5 6 -10 25 -20 25 -5 0 -4 -6 3 -14z"/>
<path d="M1247 1049 c7 -7 15 -10 18 -7 3 3 -2 9 -12 12 -14 6 -15 5 -6 -5z"/>
<path d="M1955 1010 c-3 -6 1 -7 9 -4 18 7 21 14 7 14 -6 0 -13 -4 -16 -10z"/>
</g>
</svg>
