<?xml version="1.0" standalone="no"?>
<!DOCTYPE svg PUBLIC "-//W3C//DTD SVG 20010904//EN"
 "http://www.w3.org/TR/2001/REC-SVG-20010904/DTD/svg10.dtd">
<svg version="1.0" xmlns="http://www.w3.org/2000/svg"
 width="2560.000000pt" height="1874.000000pt" viewBox="0 0 2560.000000 1874.000000"
 preserveAspectRatio="xMidYMid meet">

<g transform="translate(0.000000,1874.000000) scale(0.100000,-0.100000)"
fill="#000000" stroke="none">
<path d="M22130 18480 c-9 -17 -8 -20 10 -20 11 0 20 -7 20 -15 0 -18 -12 -19
-28 -3 -12 12 -17 -3 -13 -44 2 -12 -5 -18 -18 -18 -14 0 -21 -6 -21 -20 0
-18 7 -20 60 -20 l60 0 0 -41 c0 -33 3 -40 18 -37 14 3 17 16 20 81 l3 77 29
0 c23 0 30 5 30 20 0 11 5 20 10 20 6 0 10 -9 10 -20 0 -11 5 -20 10 -20 6 0
10 -9 10 -20 0 -11 5 -20 10 -20 6 0 10 9 10 20 0 13 7 20 20 20 13 0 20 7 20
20 0 13 7 20 20 20 13 0 20 -7 20 -20 0 -19 7 -20 90 -20 83 0 90 1 90 20 0
11 5 20 10 20 6 0 10 -9 10 -20 0 -11 5 -20 10 -20 6 0 10 -9 10 -20 0 -11 5
-20 10 -20 6 0 10 9 10 20 0 13 7 20 20 20 13 0 20 7 20 20 0 13 7 20 20 20
13 0 20 -7 20 -20 0 -19 7 -20 90 -20 83 0 90 1 90 20 0 11 5 20 10 20 6 0 10
-9 10 -20 0 -11 5 -20 10 -20 6 0 10 -9 10 -20 0 -11 5 -20 10 -20 6 0 10 9
10 20 0 13 7 20 20 20 13 0 20 7 20 20 0 13 7 20 20 20 13 0 20 -7 20 -20 0
-19 7 -20 90 -20 83 0 90 1 90 20 0 11 5 20 10 20 6 0 10 -9 10 -20 0 -11 5
-20 10 -20 6 0 10 -9 10 -20 0 -11 5 -20 10 -20 6 0 10 9 10 20 0 13 7 20 20
20 13 0 20 7 20 20 0 13 7 20 20 20 13 0 20 -7 20 -20 0 -19 7 -20 95 -20 79
0 95 3 95 15 0 9 10 20 23 25 12 5 18 9 12 10 -5 0 -3 5 5 11 12 9 11 10 -7 6
-13 -3 -23 -1 -23 4 0 5 -300 9 -730 9 -719 0 -729 0 -740 -20z m35 -66 c-9
-9 -19 -13 -23 -9 -4 3 1 11 11 16 9 6 18 18 18 27 1 15 2 15 6 0 2 -10 -3
-25 -12 -34z"/>
<path d="M23665 18470 c-3 -5 -1 -10 4 -10 18 0 12 -38 -6 -43 -10 -2 -2 -4
18 -3 31 1 36 5 36 24 0 12 -6 22 -13 22 -8 0 -14 5 -14 10 0 6 -4 10 -9 10
-6 0 -13 -4 -16 -10z"/>
<path d="M23734 18429 c0 -13 3 -15 13 -7 7 6 13 12 13 13 0 2 -6 5 -13 8 -7
3 -13 -3 -13 -14z"/>
<path d="M21975 18427 c-27 -31 -54 -86 -59 -117 -5 -26 -3 -31 4 -19 5 9 11
26 13 37 2 12 11 30 22 42 10 11 14 20 10 20 -5 0 2 11 15 25 13 14 19 25 14
25 -5 -1 -14 -6 -19 -13z"/>
<path d="M22045 18424 c-20 -15 -20 -16 4 -12 14 2 26 9 29 16 5 16 -9 15 -33
-4z"/>
<path d="M23765 18410 c3 -5 11 -10 16 -10 6 0 7 5 4 10 -3 6 -11 10 -16 10
-6 0 -7 -4 -4 -10z"/>
<path d="M21980 18390 c0 -6 14 -10 30 -10 39 0 39 14 0 17 -17 1 -30 -2 -30
-7z"/>
<path d="M23753 18354 c-1 -31 3 -47 13 -51 17 -6 19 -24 2 -20 -7 1 -13 -5
-13 -13 0 -8 6 -14 13 -12 6 1 12 -3 12 -8 0 -6 11 -8 26 -4 l26 7 -4 -166
c-1 -91 1 -159 5 -151 9 16 4 318 -6 370 -11 57 -26 86 -42 80 -8 -3 -15 -1
-15 4 0 6 -3 10 -7 10 -5 0 -9 -21 -10 -46z m60 -24 c3 -13 0 -20 -9 -20 -8 0
-14 10 -14 26 0 28 15 25 23 -6z m-3 -55 c0 -8 -7 -15 -15 -15 -9 0 -12 6 -9
15 4 8 10 15 15 15 5 0 9 -7 9 -15z"/>
<path d="M22275 18270 l-30 -8 32 -1 c17 0 35 4 38 9 7 11 3 11 -40 0z"/>
<path d="M22405 18272 c-11 -2 -24 -8 -30 -14 -6 -6 -4 -7 8 -2 15 5 16 3 7
-20 -9 -25 -8 -27 12 -24 20 3 21 -1 21 -62 0 -59 1 -60 4 -12 2 29 8 50 13
47 13 -8 9 44 -5 70 -6 13 -17 19 -30 17z"/>
<path d="M23016 18264 c-9 -25 -7 -27 10 -13 14 12 16 9 12 -21 -3 -33 -2 -35
26 -32 54 7 156 -9 156 -23 0 -7 7 -15 15 -19 8 -3 15 -2 15 2 0 10 42 8 58
-2 8 -5 12 0 12 16 0 13 -4 19 -8 13 -9 -13 -55 -18 -47 -5 3 6 -1 7 -9 4 -9
-3 -16 -1 -16 5 0 6 -9 11 -20 11 -17 0 -20 7 -20 40 l0 40 -89 0 c-72 0 -90
-3 -95 -16z"/>
<path d="M23425 18270 c-15 -7 -16 -9 -4 -9 12 -1 15 -8 11 -26 -4 -25 -5 -25
-23 -9 -15 14 -22 15 -31 6 -9 -9 -7 -12 10 -12 12 0 22 -6 22 -14 0 -9 7 -12
18 -9 11 2 25 -4 33 -14 13 -17 13 -17 -6 -3 -19 14 -19 14 -6 -2 13 -18 57
-26 47 -9 -3 5 1 14 9 21 8 7 15 25 15 41 0 26 -4 29 -30 29 -16 0 -30 5 -30
10 0 12 -8 12 -35 0z m22 -52 c-3 -8 -6 -5 -6 6 -1 11 2 17 5 13 3 -3 4 -12 1
-19z"/>
<path d="M21904 18100 c0 -91 2 -128 3 -82 2 45 2 119 0 165 -1 45 -3 8 -3
-83z"/>
<path d="M23340 18250 c0 -5 3 -10 8 -10 4 0 7 -24 7 -53 0 -38 -4 -51 -13
-49 -8 1 -11 -2 -7 -8 3 -6 11 -8 16 -5 5 4 9 2 9 -3 0 -5 -10 -12 -21 -15
l-21 -6 20 -29 21 -29 -20 -20 c-18 -17 -18 -21 -5 -26 10 -4 13 -1 9 9 -4 10
0 12 11 8 19 -7 23 25 4 44 -8 8 -8 15 2 27 9 11 11 35 7 80 -2 36 -1 68 4 71
5 3 7 10 4 15 -8 12 -35 12 -35 -1z"/>
<path d="M24303 18240 c-86 -52 -82 -189 6 -235 37 -19 98 -19 131 0 24 13 27
11 67 -28 55 -53 69 -39 16 16 -39 40 -41 43 -28 67 20 36 18 100 -5 137 -37
62 -124 82 -187 43z m152 -40 c24 -25 30 -39 30 -75 0 -37 -6 -50 -33 -77 -27
-27 -40 -33 -77 -33 -37 0 -50 6 -77 33 -76 76 -15 201 92 187 20 -3 46 -16
65 -35z"/>
<path d="M22257 18233 c-13 -13 -7 -24 11 -21 11 2 18 -1 18 -5 -1 -11 34 -30
41 -23 4 3 1 6 -6 6 -7 0 -10 4 -7 9 5 8 -15 21 -30 20 -4 0 -10 4 -14 10 -3
6 -9 8 -13 4z"/>
<path d="M22342 18214 c-1 -15 -7 -32 -12 -39 -7 -9 -6 -16 4 -24 19 -16 38
10 32 46 -2 15 -5 31 -5 36 -2 19 -17 4 -19 -19z"/>
<path d="M22481 18224 c0 -11 3 -14 6 -6 3 7 2 16 -1 19 -3 4 -6 -2 -5 -13z"/>
<path d="M1447 18223 c-18 -17 -5 -33 28 -33 l35 0 0 -115 0 -115 25 0 c24 0
24 0 27 113 l3 112 33 3 c24 2 32 8 32 23 0 17 -8 19 -88 19 -49 0 -92 -3 -95
-7z"/>
<path d="M2010 18095 l0 -135 24 0 c21 0 25 5 28 37 4 50 22 52 53 4 19 -31
32 -41 51 -41 l26 0 -23 38 c-12 20 -28 46 -35 56 -11 17 -9 24 16 57 36 44
37 49 8 49 -12 0 -37 -18 -60 -42 l-38 -41 0 76 c0 75 -1 77 -25 77 l-25 0 0
-135z"/>
<path d="M2220 18095 l0 -135 25 0 c25 0 25 1 25 92 l0 91 41 -57 c23 -32 43
-55 45 -53 3 3 23 28 44 58 l40 53 0 -92 c0 -91 0 -92 25 -92 l25 0 0 135 c0
135 0 135 -23 135 -17 0 -35 -16 -67 -60 -24 -32 -46 -58 -49 -56 -3 3 -24 29
-46 60 -28 39 -47 56 -62 56 -23 0 -23 -2 -23 -135z"/>
<path d="M862 18160 l20 -60 -20 -60 -21 -60 119 0 119 0 -21 60 -20 60 20 60
21 60 -119 0 -119 0 21 -60z"/>
<path d="M22780 18206 c0 -7 -8 -20 -17 -27 -11 -10 -14 -10 -9 -1 9 15 1 15
-25 2 -10 -6 -19 -18 -18 -28 0 -10 3 -12 6 -4 6 14 43 16 43 2 0 -15 16 -12
34 5 8 8 22 12 30 9 11 -4 16 0 15 12 0 12 -3 14 -6 6 -6 -16 -33 3 -33 24 0
8 -4 14 -10 14 -5 0 -10 -6 -10 -14z"/>
<path d="M22930 18210 c-8 -5 -11 -10 -5 -10 5 0 4 -5 -2 -11 -8 -8 -17 -8
-33 1 -26 14 -45 -4 -30 -29 5 -9 4 -23 -1 -33 -7 -12 -6 -18 2 -18 7 0 9 -10
7 -25 -3 -14 -1 -28 4 -31 4 -3 5 -10 2 -16 -4 -6 0 -14 7 -19 9 -5 -1 -6 -23
-2 -29 4 -39 2 -44 -11 -4 -11 -14 -14 -33 -11 -26 5 -26 5 -2 -5 18 -8 22
-16 18 -36 -4 -24 -3 -25 42 -22 39 2 47 6 47 23 0 11 -5 24 -10 28 -7 6 -4 7
6 3 11 -3 23 3 32 16 8 11 19 17 25 13 7 -4 11 11 11 45 0 36 -4 52 -15 56 -8
4 -15 14 -16 23 0 11 -3 9 -9 -6 -14 -35 -38 -27 -31 11 1 4 -3 14 -9 21 -8
10 -2 12 25 11 19 0 35 -5 35 -11 0 -5 4 -4 9 4 5 8 7 21 3 29 -3 10 -1 13 6
8 7 -4 12 -2 12 3 0 13 -10 14 -30 1z m-3 -172 c-3 -8 -6 -5 -6 6 -1 11 2 17
5 13 3 -3 4 -12 1 -19z"/>
<path d="M22970 18203 c0 -15 2 -16 10 -3 8 12 10 9 10 -12 0 -16 3 -27 8 -27
27 4 43 -3 40 -18 -2 -10 -7 -21 -13 -25 -6 -5 -5 -8 3 -8 14 0 52 35 52 49 0
4 18 5 39 1 35 -6 39 -5 38 11 -1 20 -12 25 -22 9 -4 -6 -15 -5 -30 2 -17 7
-32 7 -54 0 -28 -10 -33 -9 -47 13 -19 29 -34 32 -34 8z"/>
<path d="M16830 18105 c0 -87 3 -105 15 -105 11 0 15 12 15 45 l0 45 55 0 55
0 0 -45 c0 -25 5 -45 10 -45 6 0 10 42 10 105 0 63 -4 105 -10 105 -5 0 -10
-20 -10 -44 l0 -44 -51 -4 c-28 -1 -53 -1 -55 1 -2 2 -4 24 -4 48 0 32 -4 43
-15 43 -12 0 -15 -18 -15 -105z"/>
<path d="M18370 18105 l0 -105 45 0 c78 0 125 40 125 106 0 65 -49 104 -131
104 l-39 0 0 -105z m124 53 c21 -30 20 -81 -1 -106 -10 -12 -35 -24 -55 -28
l-38 -6 0 81 0 81 39 0 c30 0 44 -6 55 -22z"/>
<path d="M18880 18105 c0 -110 17 -147 22 -49 3 60 20 83 52 71 12 -5 16 -20
16 -67 0 -47 3 -60 15 -60 12 0 15 13 15 59 0 72 -17 95 -67 89 -32 -4 -33 -3
-33 29 0 18 -4 33 -10 33 -6 0 -10 -42 -10 -105z"/>
<path d="M19040 18105 c0 -63 4 -105 10 -105 6 0 10 5 10 12 0 9 3 9 12 0 22
-22 75 -14 97 14 27 34 27 64 -1 99 -19 24 -26 27 -65 22 l-43 -5 0 34 c0 19
-4 34 -10 34 -6 0 -10 -42 -10 -105z m101 15 c13 -7 19 -21 19 -45 0 -33 -20
-55 -49 -55 -16 0 -51 38 -51 55 0 17 35 55 51 55 6 0 19 -5 30 -10z"/>
<path d="M19790 18176 l0 -34 -43 5 c-39 5 -46 2 -65 -22 -28 -35 -28 -65 -1
-99 22 -28 75 -36 97 -14 9 9 12 9 12 0 0 -7 5 -12 10 -12 6 0 10 42 10 105 0
63 -4 105 -10 105 -5 0 -10 -15 -10 -34z m-18 -63 c22 -20 23 -42 2 -71 -18
-26 -41 -28 -66 -5 -22 20 -23 56 -2 77 20 21 43 20 66 -1z"/>
<path d="M20560 18195 c0 -9 9 -15 25 -15 24 0 24 -2 27 -87 2 -58 7 -88 16
-91 9 -3 12 19 12 87 l0 90 27 3 c14 2 28 9 31 16 3 9 -15 12 -67 12 -56 0
-71 -3 -71 -15z"/>
<path d="M22230 18102 c-3 -71 -1 -112 5 -112 6 0 4 -4 -4 -9 -8 -5 -10 -14
-6 -22 16 -24 20 24 15 141 l-6 115 -4 -113z"/>
<path d="M2930 18180 c0 -11 -7 -20 -15 -20 -9 0 -15 -9 -15 -25 0 -16 6 -25
15 -25 11 0 15 -11 15 -39 0 -45 15 -92 33 -103 7 -4 24 -8 40 -8 35 0 39 37
5 42 -20 3 -23 10 -26 55 -3 47 -1 52 20 55 31 4 32 42 1 46 -15 2 -23 10 -23
23 0 14 -7 19 -25 19 -18 0 -25 -5 -25 -20z"/>
<path d="M22556 18182 c16 -2 25 -15 34 -48 12 -43 23 -54 34 -35 4 5 1 11 -6
13 -14 5 -19 68 -5 68 5 0 7 -6 4 -14 -5 -11 0 -13 24 -6 17 5 29 5 29 -1 0
-20 2 -24 16 -32 27 -15 25 -1 -3 31 -26 29 -33 31 -88 29 -33 0 -50 -3 -39
-5z m101 -8 c-3 -3 -12 -4 -19 -1 -8 3 -5 6 6 6 11 1 17 -2 13 -5z"/>
<path d="M22452 18168 c-17 -17 -15 -37 3 -34 22 3 38 22 31 35 -9 14 -19 14
-34 -1z m15 -13 c0 -8 -4 -12 -9 -9 -5 3 -6 10 -3 15 9 13 12 11 12 -6z"/>
<path d="M22508 18163 c6 -2 18 -2 25 0 6 3 1 5 -13 5 -14 0 -19 -2 -12 -5z"/>
<path d="M23410 18133 c0 -24 3 -33 9 -25 7 12 4 62 -5 62 -2 0 -4 -17 -4 -37z"/>
<path d="M1654 18136 c-27 -23 -28 -23 -7 -34 16 -9 24 -8 33 3 16 19 44 19
60 0 10 -12 10 -16 -1 -19 -8 -2 -34 -10 -59 -18 -55 -16 -75 -55 -45 -88 20
-23 83 -28 103 -8 9 9 12 9 12 0 0 -7 9 -12 20 -12 18 0 20 7 20 78 0 83 -4
93 -37 111 -34 17 -69 13 -99 -13z m96 -99 c0 -21 -36 -49 -57 -45 -10 2 -18
12 -18 23 0 18 15 26 68 34 4 0 7 -5 7 -12z"/>
<path d="M1856 18139 c-46 -36 -30 -71 48 -103 32 -14 37 -18 26 -31 -17 -20
-33 -19 -54 4 -19 21 -46 18 -46 -5 0 -40 103 -60 133 -26 34 38 14 79 -48 99
-38 12 -47 43 -13 43 13 0 29 -5 35 -11 15 -15 44 -4 37 14 -6 17 -47 37 -73
37 -10 0 -30 -9 -45 -21z"/>
<path d="M2572 18150 c-12 -5 -25 -17 -29 -26 -9 -23 18 -36 38 -18 19 17 41
18 57 2 20 -20 14 -25 -32 -32 -56 -9 -78 -26 -78 -59 0 -47 16 -56 98 -55
l74 1 0 74 c0 65 -3 77 -25 98 -25 26 -62 31 -103 15z m78 -114 c0 -8 -7 -22
-16 -30 -29 -30 -80 -12 -54 19 10 12 21 16 63 24 4 0 7 -5 7 -13z"/>
<path d="M2762 18148 c-28 -14 -39 -53 -21 -74 8 -9 33 -25 57 -35 37 -16 42
-22 32 -34 -17 -20 -33 -19 -54 4 -19 21 -46 18 -46 -5 0 -40 103 -60 133 -26
34 38 14 79 -48 99 -38 12 -47 43 -13 43 13 0 29 -5 35 -11 15 -15 44 -4 37
14 -6 17 -47 37 -72 36 -9 0 -27 -5 -40 -11z"/>
<path d="M3101 18146 c-87 -48 -54 -186 46 -186 37 0 83 22 83 39 0 14 -33 22
-44 11 -15 -15 -62 -12 -76 5 -19 23 -6 29 65 26 l65 -2 0 31 c0 67 -79 109
-139 76z m77 -38 c21 -21 13 -28 -33 -28 -25 0 -45 4 -45 8 0 15 24 32 45 32
12 0 26 -5 33 -12z"/>
<path d="M3276 18153 c-3 -4 -6 -48 -6 -100 0 -93 0 -93 25 -93 24 0 25 2 25
71 0 69 1 71 30 82 18 7 30 19 30 29 0 19 -17 23 -39 9 -8 -5 -24 -6 -37 -1
-12 5 -25 6 -28 3z"/>
<path d="M23198 18130 c-3 -19 0 -30 7 -30 14 0 17 47 5 55 -4 3 -10 -9 -12
-25z"/>
<path d="M17052 18127 c-45 -48 -11 -127 54 -127 45 0 74 29 74 75 0 69 -81
102 -128 52z m94 -22 c19 -30 11 -62 -21 -77 -36 -16 -65 5 -65 47 0 55 56 75
86 30z"/>
<path d="M17220 18073 c0 -42 4 -73 10 -73 6 0 10 22 10 48 0 59 18 87 48 78
19 -7 22 -15 22 -67 0 -46 3 -59 15 -59 11 0 15 13 15 54 0 60 19 88 48 69 12
-7 18 -27 20 -67 2 -41 7 -56 17 -56 19 0 20 84 2 120 -13 27 -61 40 -80 21
-6 -6 -16 -7 -27 -1 -9 5 -36 8 -58 7 l-42 -1 0 -73z"/>
<path d="M17490 18130 c-12 -12 -20 -33 -20 -55 0 -45 29 -75 74 -75 18 0 39
7 46 15 18 22 8 26 -27 13 -25 -9 -35 -9 -47 1 -32 27 -19 41 39 41 48 0 55 2
55 20 0 29 -36 60 -70 60 -17 0 -39 -9 -50 -20z m78 -12 c21 -21 13 -28 -28
-28 -22 0 -40 4 -40 8 0 14 23 32 40 32 9 0 21 -5 28 -12z"/>
<path d="M18593 18143 c-7 -2 -13 -11 -13 -19 0 -17 5 -17 29 -2 22 13 51 5
51 -15 0 -9 -15 -17 -40 -21 -45 -7 -65 -36 -48 -69 7 -14 20 -17 63 -15 l55
2 0 54 c0 71 -12 92 -53 91 -18 0 -38 -3 -44 -6z m67 -86 c0 -18 -21 -37 -41
-37 -24 0 -33 18 -19 35 15 19 60 20 60 2z"/>
<path d="M18742 18138 c-28 -28 -9 -61 41 -73 35 -9 38 -45 4 -45 -13 0 -28 5
-35 12 -17 17 -28 2 -12 -17 16 -19 74 -20 90 0 19 23 7 49 -32 68 -21 10 -38
25 -38 33 0 17 24 18 50 2 24 -15 37 -4 20 17 -15 18 -71 20 -88 3z"/>
<path d="M19242 18127 c-46 -49 -12 -127 56 -127 43 0 72 30 72 75 0 69 -81
102 -128 52z m92 -19 c9 -12 16 -28 16 -35 0 -17 -37 -53 -54 -53 -24 0 -46
29 -46 60 0 49 57 67 84 28z"/>
<path d="M19425 18137 c-24 -18 -3 -32 23 -16 23 15 52 6 52 -16 0 -10 -9 -15
-28 -15 -54 0 -93 -50 -59 -78 7 -6 36 -10 65 -10 l52 1 0 58 c0 39 -5 63 -16
73 -19 20 -64 21 -89 3z m75 -80 c0 -19 -21 -37 -42 -37 -24 0 -35 29 -17 41
21 13 59 11 59 -4z"/>
<path d="M19570 18073 c0 -58 3 -73 15 -73 12 0 15 13 15 59 0 51 3 61 20 66
32 10 23 23 -15 22 l-35 -1 0 -73z"/>
<path d="M20716 18131 c-26 -29 -24 -91 4 -113 27 -22 69 -23 96 -4 24 18 10
34 -16 18 -26 -16 -45 -15 -64 4 -27 27 -18 34 44 34 36 0 60 4 60 11 0 15
-21 53 -34 61 -22 15 -73 8 -90 -11z m82 -13 c21 -21 13 -28 -33 -28 -43 0
-45 1 -35 20 12 22 49 27 68 8z"/>
<path d="M20893 18143 c-7 -2 -13 -11 -13 -19 0 -17 5 -17 29 -2 21 13 51 5
51 -15 0 -7 -18 -17 -42 -23 -41 -8 -43 -11 -43 -44 l0 -35 58 -1 57 -1 0 62
c0 34 -5 66 -12 73 -12 12 -62 15 -85 5z m67 -86 c0 -31 -51 -50 -66 -25 -8
13 22 38 48 38 10 0 18 -6 18 -13z"/>
<path d="M21030 18074 c0 -59 3 -74 15 -74 11 0 15 13 15 54 0 60 19 88 48 69
12 -7 18 -27 20 -67 4 -67 22 -76 22 -10 0 55 14 84 40 84 26 0 40 -29 40 -84
0 -25 5 -46 10 -46 13 0 13 106 0 131 -12 21 -50 25 -80 9 -12 -7 -21 -7 -25
0 -3 5 -28 9 -55 9 l-50 -2 0 -73z"/>
<path d="M22790 18140 c-8 -6 -10 -10 -5 -10 6 0 3 -5 -5 -10 -13 -8 -12 -10
3 -10 10 0 20 7 24 15 7 21 1 26 -17 15z"/>
<path d="M22510 18108 c0 -4 7 -8 15 -8 8 0 15 4 15 8 0 5 -7 9 -15 9 -8 0
-15 -4 -15 -9z"/>
<path d="M23100 18110 c-8 -5 -11 -12 -7 -16 4 -4 15 0 24 9 18 18 8 23 -17 7z"/>
<path d="M23260 18115 c0 -2 9 -9 20 -15 16 -9 18 -8 14 5 -5 13 -34 22 -34
10z"/>
<path d="M22292 18063 c0 -26 5 -54 11 -62 9 -10 6 -18 -12 -32 -28 -23 -24
-30 21 -33 31 -3 34 -1 30 19 -3 19 1 22 28 23 36 1 56 12 22 12 -12 0 -22 6
-22 14 0 8 -12 17 -27 21 -26 7 -26 8 -8 15 18 8 18 9 2 9 -10 1 -15 6 -12 11
4 6 1 9 -5 8 -7 -2 -14 5 -15 15 -7 38 -13 27 -13 -20z m20 -28 c3 -13 1 -22
-3 -19 -9 5 -13 44 -5 44 2 0 6 -11 8 -25z"/>
<path d="M22990 18080 c0 -12 7 -20 18 -20 14 0 15 -2 2 -10 -8 -5 -10 -10 -4
-10 5 0 16 6 23 13 10 10 11 7 7 -15 -2 -15 -7 -32 -11 -37 -3 -5 2 -14 11
-19 13 -7 14 -13 5 -31 -11 -20 -9 -21 24 -21 19 0 35 4 35 9 0 6 12 6 31 -1
16 -6 33 -8 36 -4 4 3 -2 6 -12 6 -14 0 -16 6 -12 29 7 32 7 32 -55 16 -15 -4
-34 -2 -45 5 -16 9 -15 10 7 5 21 -5 23 -4 10 7 -16 13 -15 55 1 74 6 8 4 14
-7 18 -11 4 -15 2 -11 -8 4 -9 0 -13 -11 -12 -9 2 -18 8 -20 14 -6 19 -22 14
-22 -8z"/>
<path d="M23521 18087 c-1 -11 -6 -15 -12 -11 -17 10 -29 -17 -16 -38 7 -10
16 -18 21 -18 6 0 5 5 -2 12 -9 9 -8 14 4 23 9 6 14 20 11 31 -4 17 -5 17 -6
1z"/>
<path d="M22434 18065 c-3 -14 -4 -34 -1 -44 3 -11 -3 -28 -14 -40 -13 -13
-15 -22 -8 -27 8 -4 7 -9 -2 -14 -7 -5 12 -8 41 -7 52 2 53 3 56 32 1 17 0 22
-3 13 -2 -10 -13 -18 -24 -18 -10 0 -19 -4 -19 -10 0 -5 -4 -10 -10 -10 -16 0
-12 18 8 37 15 15 17 22 7 40 -7 13 -15 20 -19 16 -4 -4 -5 7 -1 25 6 38 -2
43 -11 7z"/>
<path d="M22627 18056 c3 -14 11 -27 18 -30 11 -4 11 1 3 25 -12 35 -27 39
-21 5z"/>
<path d="M23210 18071 c0 -6 4 -12 8 -15 5 -3 9 1 9 9 0 8 -4 15 -9 15 -4 0
-8 -4 -8 -9z"/>
<path d="M23240 18064 c0 -9 28 -34 39 -34 24 0 18 19 -9 29 -17 5 -30 8 -30
5z"/>
<path d="M22510 18056 c0 -2 8 -10 17 -17 11 -10 14 -10 9 -1 -5 8 1 12 23 12
33 0 49 -16 32 -33 -7 -7 -7 -14 0 -24 15 -17 35 -17 43 2 3 8 1 15 -4 15 -6
0 -10 -4 -10 -10 0 -5 -4 -10 -9 -10 -5 0 -7 9 -4 20 8 31 -15 50 -58 50 -22
0 -39 -2 -39 -4z"/>
<path d="M23110 18045 c0 -8 4 -15 8 -15 5 0 9 7 9 15 0 8 -4 15 -9 15 -4 0
-8 -7 -8 -15z"/>
<path d="M23410 18041 c0 -10 30 -24 37 -17 3 2 -5 9 -16 16 -12 6 -21 7 -21
1z"/>
<path d="M23191 18011 c-14 -25 -14 -74 -1 -66 6 3 10 2 10 -2 0 -5 24 -9 53
-10 28 0 42 2 30 4 -14 3 -23 12 -23 24 0 26 43 21 50 -6 4 -15 16 -21 45 -23
31 -3 37 -1 28 9 -12 13 -6 42 8 34 9 -6 33 34 25 43 -3 3 -6 0 -6 -6 0 -7 -7
-12 -15 -12 -9 0 -18 -7 -21 -15 -4 -8 -11 -12 -17 -8 -6 4 -28 8 -48 9 -21 1
-42 5 -47 8 -6 3 -12 0 -15 -6 -3 -10 -7 -10 -17 -1 -7 6 -20 9 -29 6 -13 -4
-13 -2 2 10 11 9 14 18 8 21 -5 4 -15 -2 -20 -13z"/>
<path d="M22960 18005 c0 -2 12 -16 26 -31 22 -21 24 -28 13 -35 -9 -6 -10 -9
-2 -9 32 0 22 52 -13 69 -13 6 -24 9 -24 6z"/>
<path d="M23440 18001 c10 -7 11 -11 3 -11 -7 0 -13 -7 -13 -15 0 -8 5 -15 10
-15 6 0 10 -7 10 -16 0 -12 9 -14 38 -12 35 3 37 5 39 38 1 19 0 29 -4 21 -3
-8 -8 -9 -12 -4 -3 6 -24 13 -46 17 -29 5 -36 4 -25 -3z"/>
<path d="M22260 17990 c0 -5 7 -7 15 -4 8 4 15 8 15 10 0 2 -7 4 -15 4 -8 0
-15 -4 -15 -10z"/>
<path d="M22654 17985 c-11 -8 -14 -15 -6 -15 6 0 12 -8 12 -19 0 -16 8 -18
60 -19 51 0 58 2 46 14 -8 8 -21 14 -29 14 -8 0 -17 10 -21 22 -4 18 -8 20
-18 10 -6 -6 -17 -12 -22 -12 -6 0 -4 5 4 10 8 5 10 10 4 10 -5 0 -19 -7 -30
-15z"/>
<path d="M22520 17960 c0 -12 9 -22 25 -26 33 -8 46 -2 35 15 -7 13 -11 13
-26 0 -16 -13 -16 -12 -6 6 9 18 7 21 -9 22 -13 1 -19 -5 -19 -17z"/>
<path d="M23760 17932 c0 -13 4 -20 10 -17 16 10 12 -6 -6 -26 -10 -11 -14
-25 -10 -35 9 -24 22 -8 46 53 l19 50 -30 -1 c-23 -1 -29 -5 -29 -24z"/>
<path d="M21911 17915 c-1 -36 11 -65 28 -65 10 0 12 3 4 8 -6 4 -16 23 -21
42 -6 20 -11 27 -11 15z"/>
<path d="M23814 17891 c4 -6 0 -14 -9 -17 -13 -5 -14 -9 -4 -15 10 -6 9 -12
-5 -28 -15 -16 -22 -18 -33 -10 -10 9 -13 8 -13 -5 0 -23 23 -20 47 7 25 27
35 65 21 74 -7 3 -8 1 -4 -6z"/>
<path d="M21998 17844 c2 -14 0 -24 -7 -24 -17 0 -13 -14 7 -26 15 -10 17 -7
17 27 1 21 -4 40 -10 43 -8 3 -10 -5 -7 -20z"/>
<path d="M21944 17828 c-4 -6 -2 -14 4 -16 7 -2 12 -8 12 -14 0 -12 30 -37 44
-38 4 0 -1 8 -13 18 -12 9 -23 27 -24 40 -1 24 -12 29 -23 10z"/>
<path d="M22137 17801 c-4 -16 -12 -19 -50 -15 -39 4 -48 1 -57 -17 -9 -15 -9
-24 -1 -32 6 -6 11 -7 11 -2 0 4 9 0 21 -11 20 -18 48 -19 783 -19 418 0 777
4 796 8 19 5 41 9 48 9 7 1 9 5 4 10 -5 5 -20 4 -35 -1 -32 -13 -57 -5 -57 18
0 14 -2 14 -10 1 -6 -9 -10 -10 -10 -3 0 20 18 24 29 6 6 -10 11 -13 11 -6 0
6 8 12 18 12 9 0 34 1 55 3 33 3 36 2 21 -9 -11 -8 -13 -13 -5 -13 11 0 70 39
60 40 -84 10 -112 10 -124 0 -12 -10 -16 -9 -21 4 -6 15 -73 16 -725 16 -469
0 -719 -3 -719 -10 0 -6 244 -11 698 -13 l697 -2 -700 0 -700 0 -10 23 c-12
27 -21 28 -28 3z m-21 -36 c9 -21 25 -19 17 3 -3 9 -3 14 1 10 4 -3 9 -14 10
-25 2 -11 10 -17 21 -15 14 3 15 1 4 -11 -10 -10 -19 -12 -31 -6 -9 5 -29 9
-45 10 -15 0 -23 3 -17 5 7 3 10 14 7 24 -6 24 24 28 33 5z m1474 -45 c0 -7
-243 -9 -712 -8 l-713 3 710 5 c391 3 711 6 713 8 1 1 2 -2 2 -8z"/>
<path d="M8010 16156 c0 -3 36 -64 80 -135 l80 -131 0 -105 0 -105 40 0 40 0
0 103 0 103 76 125 c42 68 79 130 82 137 3 10 -7 12 -44 10 l-48 -3 -48 -80
c-26 -44 -51 -81 -56 -83 -4 -1 -30 36 -57 83 l-50 85 -47 0 c-27 0 -48 -2
-48 -4z"/>
<path d="M10390 15920 l0 -240 40 0 40 0 0 53 c0 43 5 58 24 76 l24 22 48 -75
47 -76 49 0 48 0 -54 83 c-88 136 -86 118 -15 195 l63 67 -49 3 -50 3 -67 -70
-68 -71 0 135 0 135 -40 0 -40 0 0 -240z"/>
<path d="M9510 16086 c0 -27 -24 -56 -46 -56 -10 0 -14 -12 -14 -40 0 -38 2
-40 30 -40 l30 0 0 -95 c0 -52 5 -106 12 -120 15 -34 56 -55 108 -55 39 0 40
1 40 35 0 30 -3 35 -24 35 -45 0 -56 23 -56 116 l0 84 40 0 40 0 0 40 0 40
-40 0 -40 0 0 40 0 40 -40 0 c-36 0 -40 -3 -40 -24z"/>
<path d="M8459 16007 c-74 -50 -104 -138 -74 -215 35 -86 126 -134 213 -112
63 15 96 42 122 96 42 85 11 188 -71 233 -53 30 -144 29 -190 -2z m169 -82
c34 -40 31 -108 -7 -146 -79 -78 -195 15 -151 121 26 63 113 76 158 25z"/>
<path d="M8782 15891 c3 -123 5 -143 24 -168 42 -56 134 -67 182 -22 l22 20 0
-21 c0 -17 6 -20 40 -20 l40 0 0 176 0 175 -42 -3 -43 -3 -3 -120 c-2 -108 -4
-122 -23 -137 -32 -27 -74 -23 -98 8 -18 23 -21 41 -21 140 l0 114 -41 0 -41
0 4 -139z"/>
<path d="M9150 15855 l0 -175 43 0 42 0 0 116 c0 114 0 116 28 140 16 13 39
24 53 24 21 0 24 5 24 35 0 32 -3 35 -29 35 -15 0 -40 -9 -55 -21 l-26 -20 0
20 c0 18 -6 21 -40 21 l-40 0 0 -175z"/>
<path d="M9783 16014 c-28 -14 -70 -61 -61 -69 2 -1 16 -9 32 -17 26 -14 30
-13 52 9 40 39 124 24 124 -23 0 -8 -2 -14 -4 -14 -2 0 -39 -7 -82 -15 -98
-19 -134 -48 -134 -110 0 -22 7 -50 15 -62 31 -44 126 -53 183 -17 19 13 22
13 22 -1 0 -11 11 -15 40 -15 l40 0 0 130 c0 146 -10 179 -60 205 -38 19 -126
19 -167 -1z m147 -194 c0 -20 -29 -68 -45 -74 -52 -20 -103 4 -90 43 9 31 135
59 135 31z"/>
<path d="M10118 16013 c-45 -28 -59 -78 -36 -127 12 -27 70 -60 126 -71 38 -8
60 -39 41 -61 -21 -25 -77 -17 -110 16 -26 26 -33 28 -54 18 -14 -6 -25 -18
-25 -25 0 -25 55 -71 100 -83 57 -15 103 -6 143 30 26 23 32 35 32 70 0 52
-31 82 -106 105 -80 23 -102 52 -58 75 26 15 63 6 87 -20 16 -17 24 -19 46
-11 40 16 31 48 -24 85 -33 21 -126 21 -162 -1z"/>
<path d="M10788 16015 c-35 -20 -48 -44 -48 -90 0 -49 30 -77 113 -104 57 -19
67 -26 67 -46 0 -45 -68 -48 -111 -5 -29 29 -31 29 -60 15 -23 -12 -27 -19
-20 -33 43 -80 171 -104 241 -45 25 20 30 32 30 68 0 58 -22 82 -99 108 -74
26 -97 50 -67 73 28 20 50 17 84 -11 27 -22 34 -24 56 -14 34 16 33 29 -4 64
-26 25 -40 30 -93 32 -42 2 -71 -2 -89 -12z"/>
<path d="M9895 14460 l-60 -60 62 -62 c34 -34 66 -59 70 -55 4 4 -18 32 -47
62 l-54 55 52 53 c29 29 52 56 52 60 0 17 -19 3 -75 -53z"/>
<path d="M11570 14400 l0 -120 58 0 c93 0 142 42 142 121 0 75 -55 119 -150
119 l-50 0 0 -120z m135 55 c52 -51 15 -135 -60 -135 l-35 0 0 80 0 80 35 0
c25 0 44 -8 60 -25z"/>
<path d="M12680 14401 l0 -118 67 -1 c76 -1 107 17 118 69 14 61 -56 125 -110
101 -24 -11 -25 -10 -25 28 0 36 -3 40 -25 40 l-25 0 0 -119z m128 7 c14 -14
16 -57 3 -77 -5 -7 -21 -13 -36 -13 -31 0 -45 16 -45 53 0 30 17 49 45 49 12
0 26 -5 33 -12z"/>
<path d="M13292 14500 c-12 -12 -22 -25 -22 -31 0 -18 31 -22 44 -4 17 23 60
16 64 -10 2 -14 -17 -42 -53 -82 -77 -85 -74 -93 26 -93 71 0 80 2 77 18 -2
13 -15 18 -51 20 l-48 3 46 51 c53 59 61 106 23 132 -31 22 -80 20 -106 -4z"/>
<path d="M13501 14496 c-32 -34 -44 -87 -31 -136 15 -57 41 -80 89 -80 32 0
44 6 66 32 25 29 27 38 23 96 -4 55 -8 68 -32 88 -36 32 -85 32 -115 0z m93
-38 c19 -27 21 -77 4 -113 -8 -18 -19 -25 -39 -25 -35 0 -49 24 -49 80 0 23 5
50 10 61 14 26 55 24 74 -3z"/>
<path d="M13712 14504 c-12 -8 -22 -21 -22 -29 0 -23 20 -28 39 -11 23 21 57
21 65 0 7 -20 4 -25 -56 -95 -69 -79 -66 -89 27 -89 68 0 75 2 75 20 0 17 -7
20 -47 20 l-47 0 31 33 c67 72 79 111 43 147 -24 24 -77 26 -108 4z"/>
<path d="M13900 14500 c-11 -11 -20 -25 -20 -30 0 -19 31 -23 44 -5 17 23 60
16 64 -10 2 -14 -17 -42 -53 -82 -77 -85 -74 -93 26 -93 71 0 80 2 77 18 -2
13 -15 18 -51 20 l-48 3 46 51 c53 59 61 106 23 132 -31 22 -84 20 -108 -4z"/>
<path d="M15675 14460 l59 -60 -54 -55 c-29 -30 -51 -58 -47 -62 4 -4 36 21
70 55 l62 62 -60 60 c-33 33 -66 60 -74 60 -9 0 11 -26 44 -60z"/>
<path d="M11845 14449 c-34 -19 -45 -41 -45 -85 0 -34 5 -47 26 -63 32 -25 81
-27 113 -5 32 23 12 41 -28 25 -33 -14 -71 -1 -71 24 0 10 17 15 63 17 60 3
62 4 59 28 -7 50 -73 84 -117 59z m73 -46 c2 -9 -9 -13 -38 -13 -37 0 -41 2
-30 16 15 17 61 15 68 -3z"/>
<path d="M12039 14445 c-77 -43 -47 -165 41 -165 34 0 80 22 80 39 0 17 -32
21 -52 7 -21 -15 -47 -11 -60 8 -13 19 -9 63 7 76 16 13 65 6 65 -9 0 -5 9 -7
20 -4 25 7 25 15 2 36 -26 24 -73 29 -103 12z"/>
<path d="M12219 14431 c-60 -60 -24 -151 59 -151 26 0 45 7 56 19 23 26 4 37
-35 21 -25 -11 -32 -10 -49 5 -29 26 -16 35 51 35 53 0 59 2 59 21 0 30 -53
79 -85 79 -16 0 -38 -12 -56 -29z m89 -28 c2 -9 -9 -13 -38 -13 -37 0 -41 2
-30 16 15 17 61 15 68 -3z"/>
<path d="M12452 14451 c-7 -4 -24 -6 -38 -3 -24 4 -24 4 -24 -82 0 -79 2 -86
20 -86 18 0 20 7 20 59 0 66 18 93 48 74 12 -7 18 -27 20 -72 3 -52 6 -61 22
-61 16 0 19 9 22 61 2 45 8 65 20 72 30 19 48 -8 48 -74 0 -53 2 -59 20 -59
19 0 21 5 18 71 -3 66 -6 74 -31 93 -26 19 -30 20 -56 5 -24 -14 -30 -14 -46
-3 -21 16 -44 18 -63 5z"/>
<path d="M12939 14445 c-78 -42 -47 -165 41 -165 46 0 81 23 63 41 -10 10 -17
10 -37 0 -27 -15 -66 -1 -66 24 0 12 14 15 60 15 52 0 60 2 60 19 0 33 -11 51
-41 66 -34 18 -47 18 -80 0z m71 -40 c11 -13 7 -15 -29 -15 -38 0 -50 8 -34
23 12 12 50 7 63 -8z"/>
<path d="M13177 14453 c-4 -3 -23 -6 -42 -5 l-35 1 0 -84 c0 -78 2 -85 20 -85
16 0 19 8 22 63 3 53 6 63 26 72 12 5 22 18 22 27 0 19 -3 22 -13 11z"/>
<path d="M9874 13497 c-26 -23 -27 -27 -16 -52 8 -16 28 -33 52 -42 27 -11 40
-22 40 -35 0 -23 -37 -24 -62 -1 -15 13 -21 14 -31 4 -9 -10 -7 -16 12 -32 49
-40 127 -12 119 43 -2 16 -17 30 -50 46 -27 12 -48 29 -48 36 0 22 31 28 57
10 31 -20 52 -5 26 18 -33 30 -68 32 -99 5z"/>
<path d="M15634 13497 c-26 -23 -27 -27 -16 -52 8 -16 28 -33 52 -42 27 -11
40 -22 40 -35 0 -23 -37 -24 -62 -1 -15 13 -21 14 -31 4 -9 -10 -7 -16 12 -32
49 -40 127 -12 119 43 -2 16 -17 30 -50 46 -27 12 -48 29 -48 36 0 22 31 28
57 10 31 -20 52 -5 26 18 -33 30 -68 32 -99 5z"/>
<path d="M10780 13415 c0 -88 1 -95 20 -95 18 0 20 7 20 63 l1 62 29 -35 30
-35 30 35 29 35 1 -62 c0 -56 2 -63 20 -63 19 0 20 7 20 95 0 88 -1 95 -20 95
-12 0 -31 -16 -48 -40 -15 -21 -29 -39 -32 -39 -3 0 -18 17 -33 39 -16 23 -36
40 -48 40 -17 0 -19 -8 -19 -95z"/>
<path d="M11770 13495 c0 -9 9 -15 25 -15 25 0 25 -1 25 -80 0 -73 2 -80 20
-80 18 0 20 7 20 79 0 74 2 80 22 83 12 2 23 9 26 16 3 9 -15 12 -67 12 -56 0
-71 -3 -71 -15z"/>
<path d="M12670 13507 c0 -3 38 -141 46 -169 3 -10 14 -18 24 -18 14 0 23 14
35 58 9 31 17 62 19 67 3 11 36 -90 36 -112 0 -7 10 -13 23 -13 20 0 25 10 45
88 26 102 26 102 7 102 -13 0 -20 -17 -41 -104 -8 -35 -16 -23 -34 52 -10 45
-15 53 -33 50 -17 -2 -24 -16 -37 -68 -18 -72 -22 -71 -40 13 -10 44 -17 57
-32 57 -10 0 -18 -1 -18 -3z"/>
<path d="M13690 13495 c0 -9 9 -15 25 -15 25 0 25 -1 25 -80 0 -73 2 -80 20
-80 18 0 20 7 20 79 0 74 2 80 22 83 12 2 23 9 26 16 3 9 -15 12 -67 12 -56 0
-71 -3 -71 -15z"/>
<path d="M14660 13415 c0 -88 1 -95 20 -95 17 0 20 7 20 40 l0 40 40 0 c29 0
40 4 40 15 0 11 -11 15 -40 15 -36 0 -40 3 -40 25 0 23 4 25 45 25 33 0 45 4
45 15 0 12 -14 15 -65 15 l-65 0 0 -95z"/>
<path d="M12760 12501 c0 -5 9 -13 20 -16 18 -6 20 -15 20 -96 0 -53 4 -89 10
-89 6 0 10 42 10 105 l0 105 -30 0 c-16 0 -30 -4 -30 -9z"/>
<path d="M13710 12490 c-29 -29 -14 -47 15 -20 16 15 30 20 44 15 40 -12 31
-46 -30 -113 -27 -29 -49 -58 -49 -63 0 -5 32 -9 70 -9 40 0 70 4 70 10 0 6
-23 10 -51 10 l-50 0 45 56 c26 31 46 66 46 78 0 51 -72 74 -110 36z"/>
<path d="M14660 12500 c0 -5 18 -10 40 -10 46 0 48 -7 19 -44 -12 -15 -20 -28
-18 -30 2 -1 17 -7 32 -14 22 -10 28 -18 25 -39 -5 -40 -32 -52 -70 -30 -37
21 -48 15 -23 -13 24 -26 79 -26 105 0 28 28 25 64 -6 89 l-26 20 21 30 c32
45 27 51 -39 51 -33 0 -60 -4 -60 -10z"/>
<path d="M15657 12446 c-68 -93 -68 -94 -5 -98 46 -3 53 -6 56 -25 5 -31 22
-29 22 2 0 16 6 25 15 25 8 0 15 5 15 10 0 6 -7 10 -15 10 -12 0 -15 14 -15
70 0 51 -4 70 -13 70 -7 0 -34 -29 -60 -64z m47 -18 c-1 -18 -3 -39 -3 -45 -1
-8 -15 -13 -37 -13 l-35 0 32 45 c18 25 35 45 39 45 4 0 5 -15 4 -32z"/>
<path d="M9798 11893 c-17 -7 -39 -13 -50 -13 -15 0 -18 -5 -14 -16 5 -14 4
-15 -7 -5 -11 9 -17 8 -27 -4 -7 -8 -20 -15 -29 -15 -13 0 -14 -2 -2 -9 8 -5
14 -23 14 -40 0 -17 4 -31 9 -31 4 0 8 5 8 10 0 6 5 10 10 10 6 0 10 -9 10
-20 0 -13 7 -20 20 -20 13 0 20 -7 20 -20 0 -13 7 -20 20 -20 13 0 20 7 20 20
0 13 -7 20 -20 20 -16 0 -20 7 -20 30 0 23 4 30 20 30 16 0 20 7 20 30 0 24
-4 30 -22 31 -19 0 -15 4 15 18 31 15 44 16 63 7 22 -10 23 -12 6 -25 -16 -13
-16 -13 1 -7 10 3 27 6 38 6 26 0 24 16 -2 23 -12 3 -18 10 -15 16 9 14 -48
10 -86 -6z m-78 -52 c0 -12 -20 -25 -27 -18 -7 7 6 27 18 27 5 0 9 -4 9 -9z"/>
<path d="M9930 11900 c-12 -8 -12 -10 3 -16 9 -3 25 -3 34 0 15 6 15 8 3 16
-8 6 -17 10 -20 10 -3 0 -12 -4 -20 -10z"/>
<path d="M9994 11899 c-3 -5 2 -9 10 -9 21 0 31 -21 15 -31 -9 -6 -10 -9 -2
-9 6 0 15 5 18 10 4 6 11 8 16 5 5 -4 9 -1 9 6 0 7 3 9 8 5 7 -8 8 -13 11 -41
1 -13 12 -15 52 -14 48 3 76 -12 63 -32 -2 -4 4 -7 15 -6 16 1 18 5 10 20 -6
10 -18 21 -27 24 -9 4 -34 17 -54 30 -42 26 -52 29 -42 11 4 -7 -4 -3 -17 8
-26 23 -76 37 -85 23z"/>
<path d="M9596 11767 c4 -13 2 -17 -5 -12 -8 4 -11 -4 -9 -29 2 -38 13 -48 21
-18 3 9 5 4 4 -13 -2 -26 2 -30 26 -33 22 -3 27 1 27 17 0 12 -4 21 -10 21 -5
0 -10 9 -10 20 0 11 -7 20 -15 20 -8 0 -15 7 -15 15 0 8 7 15 15 15 8 0 15 4
15 10 0 5 -11 9 -25 8 -20 -2 -24 -6 -19 -21z"/>
<path d="M10240 11776 c0 -2 7 -7 16 -10 8 -3 12 -2 9 4 -6 10 -25 14 -25 6z"/>
<path d="M9552 11738 c-7 -9 -6 -17 4 -26 12 -11 14 -9 14 13 0 28 -3 30 -18
13z"/>
<path d="M10246 11741 c-4 -5 -1 -13 5 -16 5 -4 8 -13 5 -21 -3 -8 -2 -14 2
-14 9 0 44 39 37 41 -3 1 -8 2 -12 3 -5 1 -13 5 -20 9 -6 4 -14 3 -17 -2z"/>
<path d="M9507 11676 c-4 -10 -5 -21 -2 -24 9 -9 17 6 13 25 -3 17 -4 17 -11
-1z"/>
<path d="M10317 11683 c-4 -3 -6 -31 -6 -62 1 -31 3 -49 6 -40 3 14 8 15 29 5
17 -8 23 -17 20 -30 -4 -14 -2 -16 6 -8 8 8 6 22 -7 53 -17 37 -20 39 -32 23
-12 -16 -13 -15 -13 15 0 19 4 30 10 26 6 -3 7 1 4 9 -7 18 -8 19 -17 9z"/>
<path d="M9477 11605 c-21 -44 -21 -51 -2 -32 13 14 32 67 23 67 -2 0 -12 -16
-21 -35z"/>
<path d="M9888 11614 c-9 -9 -27 -16 -40 -16 -25 0 -31 -19 -15 -45 4 -7 5
-25 1 -40 -4 -22 -3 -25 5 -13 9 13 11 13 11 -2 0 -9 -4 -19 -9 -23 -10 -5 -7
-182 2 -192 3 -2 22 3 42 13 35 16 36 18 19 31 -10 7 -26 13 -37 13 -10 0 -15
5 -12 10 3 6 2 10 -3 10 -5 0 -9 7 -9 15 0 8 4 15 8 15 5 0 13 9 20 21 9 18 8
20 -9 15 -18 -6 -19 -4 -10 36 22 98 18 93 77 93 51 0 84 -16 61 -30 -15 -9
-12 -22 5 -22 8 0 15 9 15 19 0 10 7 18 15 18 8 0 15 9 15 20 0 11 -4 20 -10
20 -5 0 -10 9 -10 20 0 11 -5 20 -11 20 -5 0 -8 -4 -5 -9 13 -21 -6 -39 -36
-35 -39 4 -42 8 -28 33 9 19 8 21 -13 21 -12 0 -30 -7 -39 -16z m5 -40 c-18
-9 -33 -21 -33 -26 0 -5 -6 -3 -14 4 -18 17 -10 30 14 23 10 -3 21 -1 25 5 3
5 14 10 23 10 10 0 3 -7 -15 -16z m60 -11 c-7 -2 -19 -2 -25 0 -7 3 -2 5 12 5
14 0 19 -2 13 -5z"/>
<path d="M9507 11593 c-10 -18 -13 -33 -8 -33 15 0 33 28 29 47 -3 14 -8 11
-21 -14z"/>
<path d="M9848 11613 c7 -3 16 -2 19 1 4 3 -2 6 -13 5 -11 0 -14 -3 -6 -6z"/>
<path d="M9468 11539 c-10 -5 -18 -20 -18 -32 1 -20 2 -20 11 -4 8 13 14 15
30 7 22 -12 39 -6 39 16 0 17 -12 18 -28 2 -6 -6 -15 -8 -19 -4 -4 4 -1 11 7
16 20 13 -1 12 -22 -1z"/>
<path d="M10856 11499 c-47 -64 -56 -109 -27 -138 58 -58 152 13 104 78 -11
14 -30 27 -42 29 l-22 4 25 33 c29 38 31 45 13 45 -7 0 -30 -23 -51 -51z m48
-62 c38 -27 -2 -95 -41 -71 -25 16 -29 55 -7 71 10 7 21 13 24 13 3 0 14 -6
24 -13z"/>
<path d="M11775 11540 c-7 -11 -2 -12 58 -12 20 0 37 -5 37 -9 0 -5 -18 -45
-40 -89 -45 -89 -45 -90 -27 -90 13 0 97 172 97 198 0 15 -116 17 -125 2z"/>
<path d="M12757 11532 c-19 -21 -22 -53 -7 -68 8 -8 6 -15 -5 -24 -21 -17 -19
-56 5 -80 26 -26 81 -26 103 -2 21 23 22 66 2 82 -11 9 -13 16 -5 24 16 16 12
51 -8 69 -24 22 -65 21 -85 -1z m71 -33 c3 -28 -16 -43 -43 -33 -18 7 -20 50
-2 57 25 11 42 1 45 -24z m-4 -65 c10 -4 16 -18 16 -35 0 -22 -6 -30 -25 -35
-31 -8 -55 10 -55 41 0 30 28 43 64 29z"/>
<path d="M13711 11531 c-38 -38 -21 -95 32 -109 l27 -7 -31 -38 c-26 -31 -28
-37 -12 -37 21 1 78 72 94 119 10 28 9 37 -8 59 -26 35 -74 41 -102 13z m70
-11 c28 -16 25 -58 -6 -72 -19 -8 -28 -8 -40 2 -18 15 -20 51 -3 68 15 15 24
15 49 2z"/>
<path d="M14580 11541 c0 -5 9 -11 20 -14 18 -5 20 -14 20 -96 0 -54 4 -91 10
-91 6 0 10 42 10 105 l0 105 -30 0 c-16 0 -30 -4 -30 -9z"/>
<path d="M14719 11524 c-19 -20 -24 -36 -24 -79 0 -43 5 -59 24 -79 68 -72
165 16 131 119 -22 66 -87 86 -131 39z m90 -20 c23 -30 27 -74 10 -107 -22
-42 -48 -48 -79 -17 -41 41 -16 150 34 150 8 0 24 -12 35 -26z"/>
<path d="M15583 11538 c2 -7 11 -12 21 -10 14 2 16 -9 16 -93 0 -78 3 -95 15
-95 12 0 15 18 15 105 l0 105 -36 0 c-24 0 -34 -4 -31 -12z"/>
<path d="M15690 11541 c0 -5 9 -13 20 -16 18 -6 20 -15 20 -96 0 -72 3 -89 15
-89 12 0 15 18 15 105 l0 105 -35 0 c-19 0 -35 -4 -35 -9z"/>
<path d="M10313 11493 c1 -27 2 -38 4 -25 3 12 8 22 13 22 13 0 19 -39 6 -44
-6 -3 -1 -3 12 0 14 3 22 1 22 -7 0 -7 2 -10 5 -7 3 3 -2 28 -11 56 -12 36
-22 52 -34 52 -13 0 -17 -9 -17 -47z"/>
<path d="M10375 11520 c-3 -5 -1 -18 4 -27 9 -16 10 -14 11 10 0 28 -5 34 -15
17z"/>
<path d="M9900 11511 c0 -5 -3 -16 -6 -24 -4 -11 1 -13 18 -10 24 5 72 -16 75
-33 1 -5 4 -21 8 -36 6 -22 1 -32 -21 -53 -20 -19 -23 -24 -8 -19 34 13 44 37
42 97 -1 54 -9 70 -23 47 -3 -5 -12 -10 -18 -10 -9 0 -8 3 1 8 7 5 10 16 6 26
-5 14 -9 15 -15 4 -5 -7 -18 -14 -30 -14 -22 -1 -22 -1 -4 12 18 13 18 14 -3
14 -12 0 -22 -4 -22 -9z"/>
<path d="M9447 11458 c-7 -25 1 -67 15 -85 5 -7 7 -26 3 -43 -4 -16 -3 -30 2
-30 5 0 9 -10 10 -21 1 -12 6 -26 12 -32 15 -15 2 70 -21 137 -14 42 -17 61
-9 69 13 13 14 27 2 27 -5 0 -11 -10 -14 -22z"/>
<path d="M9910 11439 c0 -6 -4 -7 -10 -4 -6 3 -10 -4 -10 -16 0 -20 2 -21 13
-7 6 9 19 18 26 20 12 3 12 6 -2 11 -9 3 -17 2 -17 -4z"/>
<path d="M9945 11410 c3 -5 8 -10 11 -10 2 0 4 5 4 10 0 6 -5 10 -11 10 -5 0
-7 -4 -4 -10z"/>
<path d="M10376 11403 c-4 -9 -2 -21 4 -27 7 -7 10 -2 10 17 0 31 -5 34 -14
10z"/>
<path d="M9913 11385 c0 -8 7 -15 15 -15 7 0 12 5 10 12 -6 18 -25 21 -25 3z"/>
<path d="M10313 11385 c-3 -9 -3 -29 1 -46 9 -45 -3 -109 -19 -103 -21 8 -30
-18 -11 -31 13 -10 15 -17 6 -36 -11 -25 -61 -56 -57 -36 1 6 -5 12 -14 14
-11 3 -18 -5 -22 -27 -6 -27 -9 -30 -27 -20 -11 6 -18 15 -15 21 4 5 11 7 16
4 5 -4 9 0 9 8 0 12 -20 27 -35 27 -3 0 0 -88 4 -112 0 -5 9 -8 18 -8 15 0 14
2 -3 15 -22 16 -12 20 16 5 13 -7 21 -5 31 7 10 12 10 15 2 9 -18 -10 -16 9 1
23 11 9 15 9 19 -1 4 -11 6 -10 6 0 1 7 6 10 13 6 8 -5 9 -2 5 9 -4 11 -1 17
7 17 7 0 21 9 31 20 10 11 14 20 9 20 -5 0 -4 4 1 8 18 13 39 43 28 40 -11 -3
-13 1 -13 28 0 11 6 14 20 9 19 -6 21 -2 20 30 0 3 7 19 16 36 8 17 13 33 10
37 -3 3 -6 -1 -6 -9 0 -12 -2 -11 -11 1 -9 13 -10 12 -5 -2 7 -24 -3 -48 -21
-48 -10 0 -13 6 -8 18 4 9 9 32 12 50 4 25 2 32 -11 32 -9 0 -19 -7 -23 -15z"/>
<path d="M9938 11306 c-24 -18 -23 -46 2 -46 16 0 20 7 20 30 0 34 1 34 -22
16z"/>
<path d="M9512 11240 c-7 -18 -5 -32 7 -53 15 -27 16 -27 25 -8 6 14 4 31 -7
53 l-16 33 -9 -25z"/>
<path d="M10080 11240 c0 -13 7 -20 20 -20 13 0 20 7 20 20 0 13 -7 20 -20 20
-13 0 -20 -7 -20 -20z"/>
<path d="M10224 11219 c-3 -6 -2 -15 3 -20 5 -5 9 -1 9 11 0 23 -2 24 -12 9z"/>
<path d="M9670 11145 c-7 -8 -17 -12 -22 -9 -6 4 -8 -4 -7 -17 2 -13 0 -30 -4
-36 -6 -9 -2 -13 10 -14 12 0 13 -2 5 -6 -16 -6 54 -52 80 -53 9 0 18 -5 20
-10 4 -14 139 -30 158 -19 11 6 7 8 -14 9 -16 0 -34 7 -40 15 -6 8 -23 16 -37
17 -21 2 -25 6 -21 25 5 26 -22 43 -40 25 -6 -6 -17 -8 -24 -5 -8 3 -21 2 -30
-1 -14 -5 -14 -9 -3 -23 13 -15 12 -15 -7 -3 -19 12 -20 16 -8 27 8 8 14 24
14 35 0 17 -2 18 -15 8 -12 -10 -19 -10 -27 -2 -8 8 -4 14 15 21 15 6 27 15
27 21 0 15 -16 12 -30 -5z m137 -141 c-3 -3 -12 -4 -19 -1 -8 3 -5 6 6 6 11 1
17 -2 13 -5z"/>
<path d="M9601 11143 c4 -23 -3 -32 -18 -26 -15 5 -14 2 3 -17 18 -18 25 -20
40 -11 17 11 16 11 -6 6 -24 -6 -24 -5 -6 9 10 9 16 22 13 31 -6 15 -28 22
-26 8z"/>
<path d="M9810 11055 c0 -20 5 -25 25 -25 20 0 25 5 25 25 0 20 -5 25 -25 25
-20 0 -25 -5 -25 -25z m30 -5 c0 -5 -4 -10 -10 -10 -5 0 -10 5 -10 10 0 6 5
10 10 10 6 0 10 -4 10 -10z"/>
<path d="M9982 11053 c2 -22 8 -28 28 -28 20 0 25 5 25 25 0 20 -6 26 -28 28
-26 3 -28 1 -25 -25z"/>
<path d="M10099 11068 c-8 -38 -7 -49 7 -55 8 -3 20 -1 27 6 8 8 8 11 -1 11
-7 0 -12 7 -10 16 2 14 -20 35 -23 22z"/>
<path d="M10070 11020 c13 -8 13 -10 -1 -10 -9 0 -30 -7 -47 -16 -18 -8 -36
-13 -42 -9 -5 3 -18 1 -27 -4 -16 -9 -15 -10 7 -10 24 -1 100 14 129 24 11 4
11 8 1 20 -7 8 -18 15 -24 15 -6 0 -4 -5 4 -10z"/>
<path d="M9790 10580 c0 -5 9 -10 20 -10 19 0 20 -7 20 -95 0 -78 3 -95 15
-95 12 0 15 18 15 105 l0 105 -35 0 c-19 0 -35 -4 -35 -10z"/>
<path d="M9927 10572 c-19 -21 -22 -42 -7 -42 6 0 10 5 10 10 0 6 11 15 25 22
19 8 28 8 40 -2 25 -21 17 -43 -35 -102 -27 -31 -50 -61 -50 -67 0 -7 25 -11
65 -11 37 0 65 4 65 10 0 6 -20 10 -45 10 -25 0 -45 4 -45 8 0 5 14 21 31 38
31 29 59 74 59 94 0 20 -40 50 -68 50 -16 0 -36 -8 -45 -18z"/>
<path d="M10750 10579 c0 -6 9 -13 20 -16 18 -5 20 -14 20 -94 0 -72 3 -89 15
-89 12 0 15 18 15 105 l0 105 -35 0 c-19 0 -35 -5 -35 -11z"/>
<path d="M10870 10580 c0 -5 18 -10 40 -10 45 0 52 -16 20 -45 -26 -24 -25
-29 10 -42 54 -20 31 -93 -25 -79 -14 4 -25 11 -25 16 0 6 -7 10 -15 10 -20 0
-19 -13 3 -33 41 -37 122 -7 122 44 0 29 -18 59 -35 59 -20 0 -19 7 5 37 34
44 27 53 -40 53 -33 0 -60 -4 -60 -10z"/>
<path d="M11710 10581 c0 -5 9 -11 20 -14 18 -5 20 -14 20 -96 0 -54 4 -91 10
-91 6 0 10 42 10 105 l0 105 -30 0 c-16 0 -30 -4 -30 -9z"/>
<path d="M11870 10523 c-27 -38 -50 -74 -50 -80 0 -9 17 -13 50 -13 47 0 50
-2 50 -25 0 -14 5 -25 10 -25 6 0 10 9 10 20 0 10 8 24 18 30 16 10 16 10 0
20 -14 9 -18 25 -18 75 0 37 -4 65 -10 65 -6 0 -33 -30 -60 -67z m47 -70 c-3
-2 -19 -3 -36 -1 l-32 3 33 47 33 47 3 -45 c2 -26 1 -48 -1 -51z"/>
<path d="M12670 10579 c0 -6 9 -13 20 -16 18 -5 20 -14 20 -94 0 -72 3 -89 15
-89 12 0 15 18 15 105 l0 105 -35 0 c-19 0 -35 -5 -35 -11z"/>
<path d="M12806 10578 c-3 -7 -7 -34 -10 -60 -6 -49 6 -62 31 -37 16 16 60 3
66 -20 11 -44 -45 -80 -73 -46 -16 19 -30 19 -30 0 0 -35 85 -48 113 -17 22
25 21 75 -1 95 -10 10 -33 17 -51 17 -29 0 -32 3 -29 28 2 22 8 27 33 29 17 0
36 2 43 2 6 1 12 6 12 11 0 15 -100 13 -104 -2z"/>
<path d="M13640 10576 c0 -8 8 -13 18 -12 15 1 17 -11 20 -91 4 -129 22 -118
22 12 l0 105 -30 0 c-19 0 -30 -5 -30 -14z"/>
<path d="M13792 10545 c-46 -63 -55 -92 -41 -127 20 -48 93 -52 118 -6 22 38
6 80 -36 92 l-32 10 30 38 c26 32 28 38 12 38 -10 -1 -33 -21 -51 -45z m42
-68 c38 -27 -2 -95 -41 -71 -24 15 -28 48 -8 68 20 19 26 20 49 3z"/>
<path d="M14600 10580 c0 -5 9 -10 20 -10 19 0 20 -7 20 -95 0 -78 3 -95 15
-95 12 0 15 18 15 105 l0 105 -35 0 c-19 0 -35 -4 -35 -10z"/>
<path d="M14710 10580 c0 -5 23 -10 50 -10 28 0 50 -2 50 -5 0 -3 -20 -46 -45
-95 -34 -67 -41 -90 -30 -90 13 0 105 175 105 201 0 5 -29 9 -65 9 -37 0 -65
-4 -65 -10z"/>
<path d="M15550 10581 c0 -5 9 -11 20 -14 18 -5 20 -14 20 -96 0 -54 4 -91 10
-91 6 0 10 42 10 105 l0 105 -30 0 c-16 0 -30 -4 -30 -9z"/>
<path d="M15684 10565 c-13 -20 -14 -31 -7 -48 8 -17 7 -28 -3 -42 -19 -26
-17 -52 6 -75 26 -26 81 -26 103 -2 21 23 22 66 2 82 -11 9 -13 16 -5 24 17
17 12 64 -9 76 -34 18 -69 12 -87 -15z m74 -7 c16 -16 15 -23 -4 -42 -12 -12
-20 -13 -35 -6 -10 6 -19 16 -19 23 0 16 20 37 35 37 6 0 16 -5 23 -12z m12
-98 c8 -14 8 -26 0 -40 -19 -35 -80 -20 -80 20 0 40 61 55 80 20z"/>
<path d="M9790 9620 c0 -5 9 -10 20 -10 19 0 20 -7 20 -95 0 -78 3 -95 15 -95
12 0 15 18 15 105 l0 105 -35 0 c-19 0 -35 -4 -35 -10z"/>
<path d="M9927 9612 c-35 -38 -10 -112 36 -112 23 0 22 -5 -9 -46 -20 -26 -23
-34 -11 -34 15 0 63 55 86 97 28 53 -2 113 -57 113 -16 0 -36 -8 -45 -18z m77
-24 c13 -19 14 -25 2 -43 -18 -26 -40 -30 -60 -10 -20 21 -20 39 0 59 21 22
40 20 58 -6z"/>
<path d="M10730 9610 c-29 -29 -14 -47 15 -20 16 15 30 20 44 15 40 -12 31
-46 -30 -113 -27 -29 -49 -58 -49 -63 0 -5 32 -9 70 -9 40 0 70 4 70 10 0 6
-23 10 -51 10 l-50 0 45 56 c26 31 46 66 46 78 0 51 -72 74 -110 36z"/>
<path d="M10909 9604 c-19 -20 -24 -36 -24 -79 0 -43 5 -59 24 -79 66 -71 159
9 131 113 -19 71 -85 94 -131 45z m90 -20 c23 -30 27 -74 10 -107 -22 -42 -48
-48 -79 -17 -41 41 -16 150 34 150 8 0 24 -12 35 -26z"/>
<path d="M11737 9612 c-10 -10 -17 -24 -17 -30 0 -17 20 -15 26 3 7 18 36 28
58 19 31 -12 18 -53 -34 -108 -27 -29 -50 -58 -50 -64 0 -8 23 -12 65 -12 74
0 89 17 18 22 l-47 3 47 53 c50 57 56 75 31 110 -19 28 -74 30 -97 4z"/>
<path d="M11880 9620 c0 -5 9 -10 20 -10 19 0 20 -7 20 -95 0 -78 3 -95 15
-95 12 0 15 18 15 105 l0 105 -35 0 c-19 0 -35 -4 -35 -10z"/>
<path d="M12666 9611 c-10 -11 -15 -25 -11 -31 5 -8 13 -5 26 9 21 22 28 24
53 15 31 -12 18 -53 -34 -108 -27 -29 -50 -58 -50 -64 0 -8 23 -12 65 -12 74
0 89 17 18 22 l-47 3 47 53 c50 57 56 75 31 110 -20 28 -74 30 -98 3z"/>
<path d="M12837 9612 c-19 -21 -22 -42 -7 -42 6 0 10 5 10 10 0 6 11 15 25 22
19 8 28 8 40 -2 25 -21 17 -46 -35 -103 -27 -30 -50 -60 -50 -66 0 -7 24 -11
65 -11 37 0 65 4 65 10 0 6 -20 10 -45 10 -25 0 -45 4 -45 8 0 5 14 21 31 38
31 29 59 74 59 94 0 20 -40 50 -68 50 -16 0 -36 -8 -45 -18z"/>
<path d="M13627 9612 c-19 -21 -22 -42 -7 -42 6 0 10 5 10 10 0 6 11 15 25 22
19 8 28 8 40 -2 25 -21 17 -43 -35 -102 -27 -31 -50 -61 -50 -67 0 -7 25 -11
65 -11 37 0 65 4 65 10 0 6 -20 10 -45 10 -25 0 -45 4 -45 8 0 5 14 21 31 38
31 29 59 74 59 94 0 20 -40 50 -68 50 -16 0 -36 -8 -45 -18z"/>
<path d="M13780 9621 c0 -6 21 -11 47 -13 l46 -3 -28 -33 c-15 -18 -26 -34
-24 -35 2 -2 16 -8 32 -15 51 -22 26 -92 -28 -78 -14 4 -25 11 -25 16 0 6 -7
10 -15 10 -22 0 -18 -17 7 -34 66 -46 144 16 108 85 -6 10 -17 19 -25 19 -20
0 -19 7 5 37 34 44 27 53 -40 53 -33 0 -60 -4 -60 -9z"/>
<path d="M14579 9609 c-14 -14 -18 -24 -11 -31 7 -7 17 -3 31 11 24 24 42 26
59 9 20 -20 14 -34 -43 -102 -30 -35 -55 -67 -55 -70 0 -3 32 -6 70 -6 40 0
70 4 70 10 0 6 -20 10 -45 10 -25 0 -45 3 -45 6 0 3 18 26 40 51 43 50 52 90
24 117 -22 23 -70 20 -95 -5z"/>
<path d="M14773 9556 c-29 -40 -53 -76 -53 -80 0 -3 25 -6 55 -6 52 0 55 -1
55 -25 0 -14 5 -25 10 -25 6 0 10 11 10 25 0 16 6 25 15 25 8 0 15 5 15 10 0
6 -7 10 -15 10 -12 0 -15 14 -15 70 0 49 -4 70 -12 70 -7 0 -37 -33 -65 -74z
m57 -16 l0 -50 -35 0 c-19 0 -35 3 -35 6 0 7 62 94 67 94 2 0 3 -22 3 -50z"/>
<path d="M15547 9612 c-19 -21 -22 -42 -7 -42 6 0 10 5 10 10 0 6 11 15 25 22
19 8 28 8 40 -2 25 -21 17 -43 -35 -102 -27 -31 -50 -61 -50 -67 0 -7 25 -11
65 -11 37 0 65 4 65 10 0 6 -20 10 -45 10 -25 0 -45 4 -45 8 0 5 14 21 31 38
31 29 59 74 59 94 0 20 -40 50 -68 50 -16 0 -36 -8 -45 -18z"/>
<path d="M15716 9608 c-16 -76 -17 -98 -3 -98 7 0 18 5 24 11 16 16 60 3 66
-20 11 -44 -45 -80 -73 -46 -16 19 -30 19 -30 0 0 -35 85 -48 113 -17 22 25
21 75 -1 95 -10 10 -33 17 -50 17 -27 0 -32 4 -32 24 0 26 16 36 61 36 16 0
29 5 29 10 0 6 -22 10 -50 10 -43 0 -50 -3 -54 -22z"/>
<path d="M9786 8651 c-10 -11 -15 -25 -11 -31 5 -8 13 -5 26 9 21 22 28 24 53
15 31 -12 18 -53 -34 -108 -27 -29 -50 -58 -50 -64 0 -8 23 -12 65 -12 74 0
89 17 18 22 l-47 3 47 53 c50 57 56 75 31 110 -20 28 -74 30 -98 3z"/>
<path d="M9980 8617 c-45 -61 -53 -112 -22 -140 25 -22 75 -21 95 1 36 39 6
112 -45 112 -21 0 -21 0 -2 23 43 49 48 57 31 57 -9 0 -34 -24 -57 -53z m54
-68 c20 -30 3 -68 -31 -69 -16 0 -43 28 -43 45 0 18 28 45 45 45 8 0 21 -10
29 -21z"/>
<path d="M10757 8652 c-19 -21 -22 -42 -7 -42 6 0 10 5 10 10 0 6 11 15 25 22
19 8 28 8 40 -2 25 -21 17 -43 -35 -102 -27 -31 -50 -61 -50 -67 0 -7 25 -11
65 -11 37 0 65 4 65 10 0 6 -20 10 -45 10 -25 0 -45 4 -45 8 0 5 14 21 31 38
31 29 59 74 59 94 0 20 -40 50 -68 50 -16 0 -36 -8 -45 -18z"/>
<path d="M10900 8660 c0 -5 20 -10 43 -10 24 0 46 -3 50 -6 3 -4 -14 -46 -39
-95 -33 -66 -40 -89 -29 -89 13 0 105 176 105 201 0 5 -29 9 -65 9 -37 0 -65
-4 -65 -10z"/>
<path d="M11699 8649 c-14 -14 -18 -24 -11 -31 7 -7 17 -3 31 11 24 24 42 26
59 9 20 -20 14 -34 -43 -102 -30 -35 -55 -67 -55 -70 0 -3 32 -6 70 -6 40 0
70 4 70 10 0 6 -20 10 -45 10 -25 0 -45 3 -45 6 0 3 18 26 40 51 43 50 52 90
24 117 -22 23 -70 20 -95 -5z"/>
<path d="M11874 8645 c-13 -20 -14 -31 -7 -48 8 -17 7 -28 -3 -42 -19 -26 -17
-52 6 -75 26 -26 81 -26 103 -2 21 23 22 66 2 82 -11 9 -13 16 -5 24 17 17 12
64 -9 76 -34 18 -69 12 -87 -15z m74 -7 c16 -16 15 -23 -4 -42 -12 -12 -20
-13 -35 -6 -10 6 -19 16 -19 23 0 16 20 37 35 37 6 0 16 -5 23 -12z m12 -97
c14 -26 3 -50 -26 -57 -42 -11 -72 34 -42 64 18 18 56 14 68 -7z"/>
<path d="M12666 8651 c-10 -11 -15 -25 -11 -31 5 -8 13 -5 26 9 21 22 28 24
53 15 31 -12 18 -53 -34 -108 -27 -29 -50 -58 -50 -64 0 -8 23 -12 65 -12 74
0 89 17 18 22 l-47 3 47 53 c50 57 56 75 31 110 -20 28 -74 30 -98 3z"/>
<path d="M12837 8652 c-35 -38 -10 -112 36 -112 23 0 22 -5 -9 -46 -20 -26
-23 -34 -11 -34 15 0 63 55 86 97 28 53 -2 113 -57 113 -16 0 -36 -8 -45 -18z
m77 -24 c13 -19 14 -25 2 -43 -18 -26 -40 -30 -60 -10 -20 21 -20 39 0 59 21
22 40 20 58 -6z"/>
<path d="M13600 8660 c0 -5 18 -10 40 -10 22 0 40 -3 40 -6 0 -3 -11 -20 -25
-38 l-25 -33 30 -6 c21 -5 31 -14 36 -32 12 -47 -31 -71 -72 -40 -34 26 -49
11 -18 -19 25 -26 79 -20 103 10 27 35 26 50 -4 80 -30 30 -31 36 -5 59 36 33
25 45 -40 45 -33 0 -60 -4 -60 -10z"/>
<path d="M13803 8655 c-46 -32 -49 -129 -7 -176 25 -28 75 -24 105 7 19 20 24
36 24 79 0 43 -5 59 -24 79 -28 30 -66 34 -98 11z m77 -25 c40 -40 16 -150
-32 -150 -53 1 -76 94 -37 144 25 31 42 33 69 6z"/>
<path d="M8010 7225 c0 -22 4 -25 40 -25 l40 0 0 -140 0 -140 30 0 29 0 3 138
3 137 38 3 c32 3 37 7 37 28 0 24 0 24 -110 24 l-110 0 0 -25z"/>
<path d="M8690 7195 c0 -52 -1 -55 -19 -45 -29 15 -88 12 -117 -6 -70 -46 -71
-160 -2 -208 27 -19 109 -21 127 -3 11 10 14 10 18 0 3 -7 16 -13 29 -13 l24
0 0 165 0 165 -30 0 c-30 0 -30 -1 -30 -55z m-18 -102 c23 -20 24 -80 1 -105
-37 -42 -113 -7 -113 52 0 58 69 92 112 53z"/>
<path d="M9510 7085 l0 -165 73 0 c137 0 201 59 195 177 -4 56 -8 67 -38 98
-40 41 -82 55 -167 55 l-63 0 0 -165z m183 77 c22 -21 27 -34 27 -74 0 -78
-42 -118 -121 -118 l-29 0 0 116 0 116 48 -7 c30 -4 57 -16 75 -33z"/>
<path d="M11010 7085 l0 -165 25 0 c14 0 25 5 25 10 0 7 6 7 19 0 30 -16 99
-12 128 7 27 18 53 68 53 104 0 35 -31 89 -61 104 -32 17 -105 20 -114 5 -15
-24 -25 -6 -25 45 0 52 -1 55 -25 55 l-25 0 0 -165z m164 9 c32 -32 28 -92 -8
-116 -40 -27 -99 10 -99 62 0 58 69 93 107 54z"/>
<path d="M11780 7225 c0 -21 5 -25 30 -25 l30 0 0 -140 0 -140 30 0 30 0 0
165 0 165 -60 0 c-57 0 -60 -1 -60 -25z"/>
<path d="M11989 7243 c0 -5 -6 -45 -13 -91 -6 -45 -10 -85 -7 -87 8 -9 50 -5
56 5 11 18 73 12 85 -9 35 -66 -40 -122 -95 -71 -20 19 -65 19 -65 -1 0 -20
48 -61 80 -68 97 -21 175 63 140 150 -19 44 -51 62 -105 57 -42 -3 -46 -1 -41
17 3 11 6 28 6 38 0 14 10 17 70 17 68 0 70 1 70 25 0 25 -1 25 -90 25 -49 0
-90 -3 -91 -7z"/>
<path d="M8272 7140 c-40 -25 -55 -61 -49 -120 7 -62 50 -100 113 -100 107 0
162 83 118 176 -30 63 -117 84 -182 44z m118 -50 c42 -42 12 -120 -47 -120
-39 0 -63 27 -63 71 0 62 67 92 110 49z"/>
<path d="M8826 7139 c-31 -25 -33 -35 -5 -49 16 -9 23 -8 32 3 17 20 38 26 65
16 40 -15 25 -36 -35 -48 -31 -6 -65 -18 -75 -28 -23 -21 -23 -75 0 -96 22
-20 102 -23 120 -5 9 9 12 9 12 0 0 -7 13 -12 30 -12 l30 0 0 86 c0 121 -21
153 -101 154 -32 0 -54 -6 -73 -21z m98 -160 c-24 -27 -68 -22 -72 8 -3 22 3
26 63 35 26 5 31 -19 9 -43z"/>
<path d="M9036 7138 c3 -13 24 -67 45 -121 30 -75 37 -102 29 -117 -11 -21
-44 -35 -60 -25 -6 4 -10 -5 -10 -19 0 -44 62 -43 103 2 14 15 127 281 127
298 0 2 -13 4 -29 4 -27 0 -31 -5 -56 -72 -15 -40 -31 -76 -34 -80 -4 -4 -19
28 -35 72 -27 76 -30 80 -58 80 -26 0 -29 -3 -22 -22z"/>
<path d="M9869 7145 c-65 -35 -74 -139 -17 -195 25 -25 37 -30 79 -30 52 0 99
22 99 45 0 19 -38 29 -55 15 -22 -18 -76 -8 -93 18 l-14 22 86 0 c67 0 88 3
92 15 9 23 -15 83 -43 105 -30 24 -95 26 -134 5z m104 -47 l22 -23 -54 -3
c-63 -4 -70 1 -46 28 24 26 50 25 78 -2z"/>
<path d="M10121 7134 c-89 -75 -38 -214 78 -214 74 0 135 58 80 75 -13 4 -27
1 -38 -9 -41 -37 -104 -4 -104 54 0 16 8 39 18 50 21 24 67 26 85 5 17 -20 49
-19 57 2 4 10 -3 24 -21 40 -39 33 -113 32 -155 -3z"/>
<path d="M10374 7126 c-30 -30 -34 -40 -34 -86 0 -46 4 -56 34 -86 30 -30 40
-34 85 -34 43 0 57 5 78 26 24 24 25 27 9 36 -12 7 -26 7 -43 -1 -48 -22 -103
-9 -103 26 0 8 24 13 83 15 l82 3 -1 39 c-2 57 -47 96 -110 96 -39 0 -51 -5
-80 -34z m119 -28 l22 -23 -54 -3 c-64 -4 -74 3 -42 29 30 25 46 24 74 -3z"/>
<path d="M10610 7040 l0 -120 25 0 c24 0 25 2 25 73 0 78 16 117 50 117 38 0
50 -27 50 -111 0 -78 0 -79 25 -79 24 0 25 2 25 73 0 82 16 117 55 117 34 0
45 -27 45 -114 0 -74 1 -76 25 -76 25 0 25 0 25 98 0 90 -2 100 -23 120 -28
26 -82 29 -115 6 -21 -15 -25 -15 -41 0 -20 18 -73 21 -102 6 -13 -7 -19 -7
-19 0 0 5 -11 10 -25 10 l-25 0 0 -120z"/>
<path d="M11323 7125 c-34 -34 -35 -38 -31 -92 4 -48 10 -61 37 -85 40 -36
114 -40 155 -7 14 11 26 24 26 29 0 14 -41 23 -53 11 -26 -26 -107 -3 -107 30
0 5 38 9 85 9 l85 0 0 33 c0 64 -45 106 -113 107 -43 0 -53 -4 -84 -35z m115
-21 c35 -24 26 -34 -33 -34 -30 0 -55 4 -55 9 0 12 40 41 55 41 6 0 21 -7 33
-16z"/>
<path d="M11560 7040 l0 -120 30 0 30 0 0 83 c0 89 8 107 47 107 18 0 23 6 23
25 0 30 -33 35 -62 8 -17 -15 -18 -15 -18 0 0 11 -8 17 -25 17 l-25 0 0 -120z"/>
<path d="M9310 6951 c0 -16 6 -31 13 -34 9 -3 7 -10 -7 -25 -29 -33 -14 -51
17 -20 20 21 27 37 27 68 0 36 -2 40 -25 40 -21 0 -25 -5 -25 -29z"/>
<path d="M9290 6167 c0 -6 14 -59 30 -117 17 -58 30 -106 30 -107 0 -2 8 -3
18 -3 14 0 23 19 42 90 13 50 27 90 30 90 3 0 16 -40 29 -90 19 -72 27 -90 42
-90 13 0 21 12 29 43 6 23 20 72 31 108 23 79 23 89 5 89 -9 0 -22 -31 -37
-90 -13 -49 -26 -90 -29 -90 -3 0 -17 41 -30 90 -33 121 -49 122 -80 3 -13
-49 -26 -91 -30 -96 -3 -4 -16 36 -29 88 -15 64 -27 95 -37 95 -8 0 -14 -6
-14 -13z"/>
<path d="M9810 6060 c0 -73 4 -120 10 -120 6 0 10 5 10 10 0 7 6 7 19 0 87
-46 173 61 109 135 -24 27 -55 33 -100 20 -27 -7 -28 -6 -28 34 0 23 -4 41
-10 41 -6 0 -10 -47 -10 -120z m120 10 c39 -39 16 -100 -39 -100 -36 0 -51 17
-51 56 0 23 7 38 22 48 30 21 44 20 68 -4z"/>
<path d="M10180 6160 c0 -11 7 -20 15 -20 8 0 15 9 15 20 0 11 -7 20 -15 20
-8 0 -15 -9 -15 -20z"/>
<path d="M10275 6130 c-3 -11 -11 -20 -16 -20 -5 0 -9 -7 -9 -15 0 -8 7 -15
15 -15 12 0 15 -13 15 -58 0 -63 11 -82 47 -82 28 0 30 20 3 27 -17 4 -20 14
-20 58 0 44 3 54 20 58 11 3 20 10 20 16 0 6 -9 11 -20 11 -13 0 -20 7 -20 20
0 11 -6 20 -14 20 -8 0 -18 -9 -21 -20z"/>
<path d="M9654 6106 c-83 -36 -55 -166 36 -166 24 0 43 7 54 19 24 26 4 36
-29 15 -23 -15 -27 -15 -50 0 -46 30 -32 46 41 46 l66 0 -7 28 c-13 55 -60 80
-111 58z m64 -28 c25 -25 13 -38 -33 -38 -33 0 -45 4 -45 15 0 29 56 45 78 23z"/>
<path d="M10050 6107 c-28 -14 -39 -58 -18 -74 7 -6 27 -15 43 -20 20 -6 30
-16 30 -29 0 -24 -37 -31 -55 -9 -13 16 -40 21 -40 7 0 -20 39 -42 72 -42 73
0 79 63 10 95 -26 12 -41 25 -40 35 5 21 36 24 58 5 22 -20 40 -1 19 20 -22
21 -52 25 -79 12z"/>
<path d="M10424 6105 c-83 -35 -54 -165 36 -165 24 0 43 7 54 19 24 26 4 36
-29 15 -23 -15 -27 -15 -50 0 -46 30 -32 46 41 46 l66 0 -7 28 c-13 55 -60 80
-111 57z m64 -27 c25 -25 13 -38 -33 -38 -33 0 -45 4 -45 15 0 29 56 45 78 23z"/>
<path d="M10794 6110 c-56 -22 -72 -103 -29 -145 29 -29 79 -33 114 -9 34 24
11 39 -26 17 -29 -16 -32 -16 -57 0 -47 31 -34 47 39 47 63 0 65 1 65 25 0 24
-31 65 -49 65 -5 0 -15 2 -23 4 -7 3 -23 1 -34 -4z m60 -36 c26 -26 18 -34
-34 -34 -54 0 -59 4 -33 32 20 22 46 23 67 2z"/>
<path d="M11153 6112 c-26 -4 -47 -27 -38 -41 4 -7 14 -5 30 5 27 18 65 11 65
-11 0 -8 -12 -17 -27 -20 -69 -14 -102 -55 -73 -91 15 -17 71 -19 88 -2 9 9
12 9 12 0 0 -7 7 -12 15 -12 12 0 15 14 15 68 0 37 -4 72 -8 79 -10 16 -52 30
-79 25z m57 -104 c0 -19 -32 -48 -52 -48 -27 0 -35 30 -13 46 23 17 65 18 65
2z"/>
<path d="M11356 6113 c-3 -3 -19 -6 -36 -5 l-30 1 0 -85 c0 -68 3 -84 15 -84
12 0 15 14 15 63 0 81 26 110 64 71 11 -10 16 -34 16 -75 0 -46 3 -59 15 -59
12 0 15 14 15 63 0 81 26 110 64 71 11 -10 16 -34 16 -75 0 -46 3 -59 15 -59
12 0 15 14 15 63 0 93 -36 132 -96 101 -15 -8 -31 -11 -38 -6 -17 14 -43 21
-50 15z"/>
<path d="M11645 6110 c-11 -4 -30 -6 -42 -3 -23 5 -23 4 -23 -111 0 -96 3
-116 15 -116 11 0 15 11 15 42 0 33 3 39 12 30 7 -7 29 -12 49 -12 71 0 106
90 57 144 -27 29 -55 38 -83 26z m53 -36 c44 -30 20 -106 -33 -106 -33 0 -55
25 -55 63 0 27 30 59 55 59 6 0 21 -7 33 -16z"/>
<path d="M10180 6025 c0 -69 3 -85 15 -85 12 0 15 16 15 85 0 69 -3 85 -15 85
-12 0 -15 -16 -15 -85z"/>
<path d="M10630 6023 c0 -67 3 -83 15 -83 12 0 15 13 15 59 0 61 15 91 46 91
8 0 14 4 14 9 0 5 -20 9 -45 9 l-45 -1 0 -84z"/>
<path d="M10941 6058 c12 -29 26 -68 32 -85 18 -56 39 -42 73 50 17 45 30 84
28 86 -12 13 -35 -16 -50 -63 -10 -31 -20 -56 -23 -56 -4 0 -15 26 -27 58 -12
35 -27 58 -37 60 -16 3 -15 -2 4 -50z"/>
<path d="M8395 6013 c-70 -37 -105 -94 -105 -173 0 -111 79 -190 190 -190 111
0 190 79 190 190 0 113 -79 190 -192 190 -29 -1 -66 -8 -83 -17z m179 -39 c69
-47 89 -156 41 -227 -33 -48 -72 -67 -138 -67 -64 0 -110 27 -138 80 -23 42
-25 120 -4 160 41 79 162 106 239 54z"/>
<path d="M16220 5951 c0 -6 9 -11 20 -11 19 0 20 -7 20 -110 0 -92 2 -110 15
-110 13 0 15 17 13 118 l-3 117 -32 3 c-19 2 -33 -1 -33 -7z"/>
<path d="M16362 5940 c-22 -21 -29 -40 -14 -40 5 0 17 9 27 20 20 22 55 26 73
8 24 -24 12 -57 -48 -125 -33 -37 -60 -71 -60 -75 0 -4 34 -8 75 -8 87 0 102
18 19 22 l-56 3 50 57 c63 72 70 92 45 127 -26 35 -79 40 -111 11z"/>
<path d="M16677 5949 c-49 -29 -63 -133 -24 -190 19 -28 30 -35 64 -37 51 -4
77 18 93 78 27 102 -55 195 -133 149z m83 -27 c16 -13 24 -32 27 -68 6 -77
-28 -123 -81 -110 -57 14 -71 122 -23 174 25 27 47 28 77 4z"/>
<path d="M16895 5936 c-13 -13 -27 -40 -30 -60 -17 -86 24 -156 90 -156 65 0
107 70 91 154 -15 79 -99 114 -151 62z m104 -22 c45 -57 15 -174 -44 -174 -62
0 -91 125 -40 175 31 32 58 32 84 -1z"/>
<path d="M17160 5840 c0 -73 4 -120 10 -120 6 0 10 20 10 45 0 43 1 45 29 45
36 0 83 17 93 33 10 15 10 69 0 83 -14 21 -51 34 -96 34 l-46 0 0 -120z m118
78 c7 -7 12 -21 12 -33 0 -32 -20 -45 -67 -45 l-43 0 0 45 0 45 43 0 c24 0 48
-5 55 -12z"/>
<path d="M17360 5840 c0 -100 3 -120 15 -120 12 0 15 17 15 92 l0 93 36 -54
37 -55 21 26 c12 13 31 38 43 54 l22 29 0 -92 c1 -55 5 -93 11 -93 6 0 10 47
10 120 0 70 -4 120 -10 120 -5 0 -28 -28 -51 -62 -35 -51 -44 -59 -53 -46 -6
9 -26 36 -43 62 -18 25 -37 46 -43 46 -6 0 -10 -45 -10 -120z"/>
<path d="M16550 5875 c0 -8 5 -15 10 -15 6 0 10 7 10 15 0 8 -4 15 -10 15 -5
0 -10 -7 -10 -15z"/>
<path d="M16550 5735 c0 -8 5 -15 10 -15 6 0 10 7 10 15 0 8 -4 15 -10 15 -5
0 -10 -7 -10 -15z"/>
<path d="M10294 5625 c0 -60 1 -84 3 -52 2 32 2 81 0 110 -2 29 -3 3 -3 -58z"/>
<path d="M10790 5690 c0 -37 -2 -40 -19 -30 -51 27 -101 -6 -101 -65 0 -59 62
-98 99 -62 11 10 14 10 18 0 14 -38 23 -1 23 92 0 63 -4 105 -10 105 -5 0 -10
-18 -10 -40z m-22 -46 c31 -22 30 -78 -2 -99 -59 -39 -117 44 -66 95 24 24 38
25 68 4z"/>
<path d="M9310 5620 l0 -100 28 0 c55 0 101 20 117 50 23 44 19 93 -10 124
-20 22 -32 26 -80 26 l-55 0 0 -100z m110 80 c27 -14 40 -62 29 -104 -12 -42
-33 -56 -88 -56 l-41 0 0 85 0 85 41 0 c22 0 49 -4 59 -10z"/>
<path d="M9532 5650 c-43 -40 -14 -130 42 -130 23 0 56 18 56 31 0 6 -10 3
-22 -5 -30 -21 -44 -20 -68 4 -32 32 -24 40 40 40 51 0 60 3 60 18 0 26 -37
62 -64 62 -12 0 -32 -9 -44 -20z m78 -10 c28 -28 17 -40 -35 -40 -24 0 -46 4
-50 10 -7 12 30 50 50 50 8 0 24 -9 35 -20z"/>
<path d="M9696 5654 c-9 -8 -16 -19 -16 -23 0 -11 34 -41 46 -41 6 0 19 -6 29
-14 16 -12 17 -16 6 -30 -17 -21 -40 -20 -63 1 -11 10 -18 12 -18 4 0 -21 47
-36 75 -23 40 18 33 50 -15 70 -30 13 -40 22 -38 37 4 26 35 31 59 9 10 -9 19
-12 19 -6 0 13 -32 32 -54 32 -8 0 -22 -7 -30 -16z"/>
<path d="M9833 5595 c0 -44 2 -61 4 -37 2 23 2 59 0 80 -2 20 -4 1 -4 -43z"/>
<path d="M9910 5648 c-42 -45 -15 -118 45 -118 19 0 36 4 40 9 3 6 -9 8 -29 4
-29 -4 -37 -1 -51 21 -36 54 18 116 71 81 20 -13 23 -23 23 -73 -1 -84 -5 -92
-44 -92 -19 0 -37 5 -40 10 -3 6 -12 10 -18 10 -20 -1 34 -40 55 -40 10 0 30
11 43 25 22 22 25 32 25 105 0 47 -4 80 -10 80 -5 0 -10 -7 -10 -16 0 -14 -1
-14 -16 0 -22 23 -60 20 -84 -6z"/>
<path d="M10082 5595 l1 -80 7 65 c4 36 3 72 -1 80 -5 8 -8 -20 -7 -65z"/>
<path d="M10114 5658 c-4 -7 -3 -8 5 -4 6 4 23 1 36 -8 20 -13 25 -26 28 -73
l3 -58 2 62 c1 45 -2 66 -14 77 -18 19 -50 21 -60 4z"/>
<path d="M10378 5659 c-10 -5 -18 -15 -18 -21 0 -6 9 -3 19 6 21 20 56 15 65
-9 6 -17 2 -20 -39 -29 -40 -10 -55 -24 -55 -52 0 -29 37 -41 70 -24 18 10 24
9 31 -1 5 -9 9 10 9 48 0 82 -30 113 -82 82z m67 -81 c-15 -49 -77 -65 -83
-22 -2 16 4 25 25 32 49 18 65 15 58 -10z"/>
<path d="M10512 5595 l1 -80 7 65 c4 36 4 72 -1 80 -5 9 -8 -16 -7 -65z"/>
<path d="M10544 5659 c-4 -7 0 -9 12 -5 34 10 49 -10 55 -76 l6 -63 1 62 c2
44 -2 66 -14 77 -18 19 -50 21 -60 5z"/>
<path d="M10863 5595 c0 -44 2 -61 4 -37 2 23 2 59 0 80 -2 20 -4 1 -4 -43z"/>
<path d="M10922 5595 c1 -77 1 -78 7 -24 6 55 23 89 45 89 29 -1 41 -22 47
-82 l6 -63 1 68 c2 63 0 68 -24 79 -20 9 -30 9 -46 -1 -17 -11 -22 -10 -29 1
-5 8 -8 -20 -7 -67z"/>
<path d="M11102 5654 c-16 -11 -22 -25 -22 -53 0 -60 48 -89 101 -61 16 9 19
7 19 -13 0 -31 -16 -44 -60 -49 l-35 -4 28 -8 c19 -6 34 -4 52 8 24 16 25 21
25 109 0 61 -3 87 -10 77 -7 -12 -12 -12 -22 -2 -17 17 -49 15 -76 -4z m76
-10 c43 -30 20 -104 -33 -104 -53 0 -76 74 -33 104 12 9 27 16 33 16 6 0 21
-7 33 -16z"/>
<path d="M11321 5625 c1 -48 1 -49 10 -17 20 70 109 59 109 -13 0 -45 -34 -71
-74 -56 -14 6 -26 15 -26 21 0 5 -4 10 -10 10 -6 0 -9 -23 -8 -52 1 -44 2 -46
5 -15 5 41 6 42 32 26 30 -19 70 -3 88 37 16 32 16 38 2 62 -19 35 -63 51 -91
33 -17 -11 -22 -11 -29 1 -5 8 -8 -6 -8 -37z"/>
<path d="M11524 5655 c-10 -8 -14 -15 -7 -15 6 0 15 5 18 10 9 15 31 12 49 -6
22 -21 14 -30 -39 -43 -37 -9 -45 -15 -45 -35 0 -37 25 -52 63 -38 24 9 33 9
39 -1 4 -6 8 15 8 49 0 83 -36 117 -86 79z m73 -72 c7 -19 -36 -55 -60 -51
-33 5 -30 50 3 59 33 9 52 7 57 -8z"/>
<path d="M11682 5654 c-16 -11 -22 -25 -22 -53 0 -45 24 -71 66 -71 56 1 69
24 65 115 -1 23 -4 26 -11 15 -7 -12 -12 -12 -22 -2 -17 17 -49 15 -76 -4z
m86 -16 c17 -15 15 -58 -5 -80 -33 -37 -93 -10 -93 43 0 49 56 70 98 37z"/>
<path d="M11863 5644 c-20 -20 -24 -31 -19 -57 11 -57 68 -84 109 -53 27 21
20 27 -12 9 -27 -16 -30 -16 -55 0 -46 30 -34 47 34 47 33 0 60 2 60 4 0 20
-23 57 -42 67 l-23 12 24 -26 c30 -33 20 -47 -35 -47 -52 0 -58 17 -18 49 15
12 21 21 15 21 -7 0 -23 -12 -38 -26z"/>
<path d="M11781 5525 c-2 -30 -21 -45 -56 -45 -17 0 -36 5 -43 12 -7 7 -12 8
-12 2 0 -12 43 -34 64 -34 28 0 58 35 53 60 -3 20 -5 21 -6 5z"/>
<path d="M9290 4727 c0 -6 14 -59 30 -117 17 -58 30 -106 30 -107 0 -2 8 -3
18 -3 14 0 23 19 42 90 13 50 27 90 30 90 3 0 16 -40 29 -90 19 -72 27 -90 42
-90 13 0 21 12 29 43 6 23 20 72 31 108 23 79 23 89 5 89 -9 0 -22 -31 -37
-90 -13 -49 -26 -90 -29 -90 -3 0 -17 41 -30 90 -33 121 -49 122 -80 3 -13
-49 -26 -91 -30 -96 -3 -4 -16 36 -29 88 -15 64 -27 95 -37 95 -8 0 -14 -6
-14 -13z"/>
<path d="M10000 4620 c0 -100 3 -120 15 -120 8 0 15 9 15 21 0 24 17 59 29 59
5 0 20 -18 35 -40 14 -22 33 -40 42 -40 13 0 12 5 -6 33 -45 68 -46 75 -15
107 20 21 24 30 14 30 -8 0 -30 -16 -49 -35 -19 -19 -38 -35 -42 -35 -4 0 -8
32 -8 70 0 56 -3 70 -15 70 -12 0 -15 -20 -15 -120z"/>
<path d="M10180 4620 c0 -100 3 -120 15 -120 13 0 15 20 15 120 0 100 -2 120
-15 120 -12 0 -15 -20 -15 -120z"/>
<path d="M9654 4666 c-83 -36 -55 -166 36 -166 24 0 43 7 54 19 24 26 4 36
-29 15 -23 -15 -27 -15 -50 0 -46 30 -32 46 41 46 l66 0 -7 28 c-13 55 -60 80
-111 58z m64 -28 c25 -25 13 -38 -33 -38 -33 0 -45 4 -45 15 0 29 56 45 78 23z"/>
<path d="M9854 4670 c-56 -22 -72 -103 -29 -145 29 -29 79 -33 114 -9 34 24
11 39 -26 17 -29 -16 -32 -16 -57 0 -47 31 -34 47 39 47 63 0 65 1 65 25 0 24
-31 65 -49 65 -5 0 -15 2 -23 4 -7 3 -23 1 -34 -4z m60 -36 c26 -26 18 -34
-34 -34 -54 0 -59 4 -33 32 20 22 46 23 67 2z"/>
<path d="M10520 4667 c-28 -14 -39 -58 -18 -74 7 -6 27 -15 43 -20 19 -6 30
-16 30 -29 0 -25 -32 -30 -55 -9 -26 23 -47 9 -24 -16 21 -23 86 -26 104 -5
22 28 8 60 -38 81 -26 12 -41 25 -40 35 5 21 36 24 58 5 22 -20 40 -1 19 20
-22 21 -52 25 -79 12z"/>
<path d="M10882 4669 c-12 -5 -29 -6 -37 -3 -13 5 -15 -8 -15 -80 0 -100 14
-114 24 -25 8 85 33 110 70 73 11 -10 16 -34 16 -75 0 -46 3 -59 15 -59 12 0
15 14 15 63 0 88 -32 127 -88 106z"/>
<path d="M11070 4673 c-36 -13 -60 -47 -60 -83 0 -53 32 -90 76 -90 42 0 74
15 74 35 0 17 -26 20 -35 5 -9 -14 -58 -13 -73 2 -22 22 -15 76 13 94 22 15
29 15 53 3 15 -7 30 -15 35 -17 4 -2 7 4 7 13 0 12 -58 48 -72 44 -2 0 -10 -3
-18 -6z"/>
<path d="M10261 4618 c47 -115 50 -158 9 -158 -11 0 -20 -7 -20 -15 0 -18 30
-20 53 -2 15 10 97 197 97 219 0 4 -6 8 -13 8 -6 0 -24 -30 -38 -67 l-26 -66
-25 64 c-15 37 -33 65 -42 67 -14 3 -13 -3 5 -50z"/>
<path d="M10666 4585 c37 -91 35 -125 -6 -125 -11 0 -20 -7 -20 -15 0 -20 33
-19 58 3 11 9 31 46 45 82 14 36 33 82 42 103 14 33 14 37 0 37 -9 0 -24 -20
-36 -47 -10 -27 -23 -57 -27 -68 -7 -16 -13 -7 -33 48 -16 47 -29 67 -41 67
-14 0 -11 -12 18 -85z"/>
<path d="M8395 4573 c-70 -37 -105 -94 -105 -173 0 -111 79 -190 190 -190 111
0 190 79 190 190 0 113 -79 190 -192 190 -29 -1 -66 -8 -83 -17z m179 -39 c69
-47 89 -156 41 -227 -33 -48 -72 -67 -138 -67 -64 0 -110 27 -138 80 -23 42
-25 120 -4 160 41 79 162 106 239 54z"/>
<path d="M16362 4500 c-23 -21 -27 -32 -16 -43 4 -3 15 5 26 18 21 27 56 33
76 13 24 -24 12 -57 -48 -125 -33 -37 -60 -71 -60 -75 0 -4 34 -8 75 -8 87 0
102 18 19 22 l-56 3 50 57 c63 72 70 92 45 127 -26 35 -79 40 -111 11z"/>
<path d="M16677 4509 c-44 -26 -61 -122 -32 -179 18 -35 43 -50 84 -50 84 0
117 144 50 216 -24 26 -70 31 -102 13z m84 -28 c20 -16 24 -28 24 -79 0 -45
-5 -65 -19 -81 -37 -40 -90 -21 -106 39 -13 47 -5 87 23 118 25 27 47 28 78 3z"/>
<path d="M16895 4496 c-13 -13 -27 -40 -30 -60 -17 -86 24 -156 90 -156 65 0
107 70 91 154 -15 79 -99 114 -151 62z m104 -22 c45 -57 15 -174 -44 -174 -36
0 -65 44 -65 100 0 56 29 100 65 100 14 0 32 -11 44 -26z"/>
<path d="M17160 4400 c0 -73 4 -120 10 -120 6 0 10 20 10 45 0 43 1 45 29 45
36 0 83 17 93 33 10 15 10 69 0 83 -14 21 -51 34 -96 34 l-46 0 0 -120z m118
78 c7 -7 12 -21 12 -33 0 -32 -20 -45 -67 -45 l-43 0 0 45 0 45 43 0 c24 0 48
-5 55 -12z"/>
<path d="M17360 4400 c0 -100 3 -120 15 -120 12 0 15 17 15 92 l0 93 37 -55
36 -54 26 34 c65 84 60 85 61 -17 0 -55 4 -93 10 -93 6 0 10 47 10 120 0 70
-4 120 -10 120 -5 0 -28 -28 -51 -62 -35 -51 -44 -59 -53 -46 -6 9 -26 36 -43
62 -18 25 -37 46 -43 46 -6 0 -10 -45 -10 -120z"/>
<path d="M16550 4435 c0 -8 5 -15 10 -15 6 0 10 7 10 15 0 8 -4 15 -10 15 -5
0 -10 -7 -10 -15z"/>
<path d="M16550 4295 c0 -8 5 -15 10 -15 6 0 10 7 10 15 0 8 -4 15 -10 15 -5
0 -10 -7 -10 -15z"/>
<path d="M10940 4250 c0 -44 -1 -45 -33 -29 -18 10 -17 7 6 -14 45 -43 29
-109 -26 -109 -38 0 -57 19 -57 57 0 25 7 39 28 54 15 11 21 21 14 21 -22 0
-62 -48 -62 -75 0 -29 40 -75 65 -75 9 0 26 5 37 11 16 9 23 8 29 -2 5 -8 9
30 9 94 0 59 -2 107 -5 107 -3 0 -5 -18 -5 -40z"/>
<path d="M12054 4185 c0 -60 1 -84 3 -52 3 46 8 60 27 72 44 29 62 8 69 -85 3
-34 4 -29 5 21 2 60 0 67 -22 78 -17 10 -29 10 -44 2 -30 -16 -30 -15 -35 32
-2 23 -3 -7 -3 -68z"/>
<path d="M9310 4180 l0 -100 33 1 c51 0 100 22 114 49 21 41 16 94 -12 124
-20 22 -32 26 -80 26 l-55 0 0 -100z m110 80 c28 -15 43 -69 29 -108 -14 -39
-35 -52 -88 -52 l-41 0 0 85 0 85 41 0 c22 0 49 -4 59 -10z"/>
<path d="M9510 4270 c0 -5 5 -10 10 -10 6 0 10 5 10 10 0 6 -4 10 -10 10 -5 0
-10 -4 -10 -10z"/>
<path d="M11948 4238 c-22 -22 -22 -28 -3 -28 11 0 15 -13 15 -53 0 -54 12
-77 39 -77 11 0 9 5 -7 16 -18 12 -22 25 -22 65 0 37 4 49 15 49 8 0 15 5 15
10 0 6 -6 10 -14 10 -8 0 -16 6 -18 13 -2 9 -8 8 -20 -5z"/>
<path d="M12270 4246 c0 -8 -6 -17 -12 -20 -10 -5 -10 -7 0 -12 7 -3 12 -25
12 -54 0 -48 18 -80 43 -80 7 0 4 7 -5 14 -24 18 -26 116 -3 116 8 0 15 5 15
10 0 6 -7 10 -15 10 -8 0 -15 7 -15 15 0 8 -4 15 -10 15 -5 0 -10 -6 -10 -14z"/>
<path d="M9510 4156 c0 -44 4 -76 10 -76 6 0 10 30 10 69 0 39 -4 73 -10 76
-6 4 -10 -22 -10 -69z"/>
<path d="M9592 4218 c-24 -24 -13 -49 28 -65 26 -10 40 -22 40 -34 0 -26 -36
-34 -68 -14 l-27 16 24 -20 c28 -25 48 -26 72 -5 24 22 10 49 -36 69 -39 16
-46 40 -14 50 13 4 27 0 40 -11 10 -9 19 -12 19 -6 0 13 -32 32 -52 32 -8 0
-19 -5 -26 -12z"/>
<path d="M9742 4214 c-47 -32 -18 -134 39 -134 25 0 59 17 59 31 0 5 -11 2
-25 -7 -30 -19 -62 -11 -77 21 -26 58 27 114 77 81 14 -9 25 -12 25 -7 0 13
-33 31 -57 31 -10 0 -29 -7 -41 -16z"/>
<path d="M9890 4182 c-3 -29 -2 -62 2 -72 9 -24 53 -36 73 -20 10 9 15 9 15 1
0 -6 5 -11 10 -11 6 0 10 32 10 75 0 43 -4 75 -10 75 -6 0 -10 -27 -10 -60 0
-49 -3 -61 -20 -70 -14 -7 -26 -8 -40 0 -15 8 -20 23 -22 73 l-3 62 -5 -53z"/>
<path d="M10062 4218 c-24 -24 -13 -49 28 -65 27 -11 40 -22 40 -35 0 -28 -29
-34 -64 -14 l-31 18 19 -21 c33 -37 90 -23 84 20 -2 16 -15 30 -41 42 -26 12
-37 23 -35 35 5 24 36 27 59 6 10 -9 19 -12 19 -6 0 13 -32 32 -52 32 -8 0
-19 -5 -26 -12z"/>
<path d="M10202 4218 c-24 -24 -13 -49 28 -65 48 -19 54 -49 14 -59 -19 -5
-29 -2 -36 10 -5 9 -14 16 -20 16 -6 0 -3 -9 7 -20 10 -11 28 -20 41 -20 22 0
54 23 54 39 0 11 -34 41 -46 41 -6 0 -19 6 -29 14 -19 14 -19 15 -1 35 20 22
9 30 -12 9z"/>
<path d="M10240 4228 c0 -2 9 -11 20 -21 11 -9 20 -13 20 -7 0 5 -9 14 -20 20
-11 6 -20 9 -20 8z"/>
<path d="M10381 4150 l2 -75 6 58 c5 45 12 62 30 76 l24 18 -32 -1 -31 -1 1
-75z"/>
<path d="M10495 4205 c-14 -13 -25 -36 -25 -50 0 -32 41 -75 73 -75 33 0 67
40 67 78 0 17 -5 34 -11 38 -8 4 -9 -1 -4 -15 23 -75 -68 -120 -105 -51 -15
28 -13 38 14 65 20 20 32 24 58 19 25 -4 29 -3 18 5 -25 18 -60 12 -85 -14z"/>
<path d="M10683 4223 c-7 -2 -13 -9 -13 -14 0 -5 11 -4 25 3 19 8 28 8 40 -2
26 -21 17 -38 -25 -45 -42 -7 -64 -32 -54 -59 8 -22 47 -30 73 -16 14 7 21 7
21 0 0 -5 5 -10 10 -10 6 0 10 26 10 58 0 77 -32 108 -87 85z m67 -88 c0 -28
-37 -52 -65 -41 -25 9 -15 49 15 57 43 12 50 10 50 -16z"/>
<path d="M11013 4155 c1 -73 1 -75 4 -18 4 70 24 94 63 73 17 -9 20 -21 20
-70 0 -33 4 -60 10 -60 6 0 10 26 10 59 0 64 15 87 49 76 23 -7 29 -25 34 -95
3 -37 4 -34 5 17 3 82 -25 111 -78 83 -13 -7 -27 -6 -45 2 -20 9 -31 9 -45 0
-14 -9 -20 -8 -23 1 -3 7 -5 -24 -4 -68z"/>
<path d="M11284 4214 c-18 -14 -18 -15 5 -4 17 9 30 9 48 1 32 -15 25 -33 -18
-46 -49 -14 -59 -23 -59 -50 0 -30 37 -43 70 -25 18 10 24 9 31 -1 5 -9 9 10
9 48 0 85 -36 117 -86 77z m73 -71 c7 -19 -36 -55 -60 -51 -33 5 -30 50 3 59
33 9 52 7 57 -8z"/>
<path d="M11422 4130 c1 -58 3 -88 5 -67 4 32 7 37 21 31 42 -18 70 -16 91 7
28 31 28 79 -2 107 -26 24 -48 27 -79 11 -16 -9 -23 -8 -29 2 -5 8 -8 -29 -7
-91z m92 79 c32 -15 42 -54 21 -86 -9 -13 -23 -27 -31 -30 -21 -8 -63 23 -70
54 -6 21 -2 31 20 50 32 27 28 26 60 12z"/>
<path d="M11645 4210 c23 -74 41 -120 49 -122 5 -2 15 20 23 47 8 28 18 54 22
58 5 4 16 -19 25 -52 9 -34 20 -61 25 -61 9 0 55 140 48 146 -3 3 -13 -19 -22
-48 -10 -29 -21 -57 -25 -61 -3 -4 -14 20 -24 54 -9 34 -21 58 -25 53 -5 -5
-16 -33 -26 -61 -9 -29 -18 -53 -20 -53 -2 0 -11 24 -20 53 -18 52 -45 96 -30
47z"/>
<path d="M11883 4155 c0 -44 2 -61 4 -37 2 23 2 59 0 80 -2 20 -4 1 -4 -43z"/>
<path d="M12382 4214 c-47 -32 -18 -134 39 -134 25 0 59 17 59 30 0 5 -13 2
-29 -7 -27 -16 -30 -16 -55 0 -46 31 -34 47 35 47 58 0 60 1 53 23 -16 54 -59
72 -102 41z m73 -10 c24 -24 13 -39 -30 -42 -51 -4 -68 13 -36 39 28 23 45 24
66 3z"/>
<path d="M12552 4218 c-20 -20 -13 -32 7 -14 22 20 56 14 65 -10 5 -14 -28
-34 -58 -34 -33 0 -47 -48 -20 -71 12 -10 22 -10 47 -1 24 9 33 9 39 -1 4 -6
8 16 8 50 0 43 -5 66 -16 77 -18 19 -55 21 -72 4z m73 -68 c9 -14 -12 -48 -34
-55 -28 -9 -52 5 -49 28 4 27 70 49 83 27z"/>
<path d="M12692 4155 c1 -80 1 -80 7 -22 6 54 25 87 52 87 17 0 35 -38 40 -89
l6 -56 2 57 c0 36 7 62 17 72 18 19 20 19 45 6 15 -9 19 -22 19 -70 0 -33 4
-60 10 -60 6 0 10 25 10 55 0 42 -5 60 -20 75 -24 24 -38 25 -67 5 -18 -13
-22 -13 -33 0 -15 18 -42 19 -58 3 -10 -10 -15 -10 -22 2 -7 10 -9 -11 -8 -65z"/>
<path d="M9358 3285 c-73 -41 -76 -160 -6 -209 35 -25 102 -21 135 9 23 20 25
26 14 34 -10 7 -18 5 -25 -4 -37 -48 -123 -28 -140 32 -25 92 66 162 131 101
18 -17 26 -19 35 -10 10 10 8 17 -9 33 -27 28 -98 35 -135 14z"/>
<path d="M9900 3259 c0 -36 -2 -40 -20 -35 -11 3 -28 8 -38 11 -30 8 -80 -30
-87 -68 -15 -79 57 -133 126 -97 13 7 19 7 19 0 0 -5 7 -10 15 -10 13 0 15 20
15 120 0 100 -2 120 -15 120 -11 0 -15 -11 -15 -41z m-17 -80 c17 -24 18 -30
6 -55 -19 -39 -70 -46 -93 -12 -22 30 -20 54 5 79 26 26 57 21 82 -12z"/>
<path d="M10700 3280 c0 -11 7 -20 15 -20 8 0 15 9 15 20 0 11 -7 20 -15 20
-8 0 -15 -9 -15 -20z"/>
<path d="M9594 3226 c-35 -16 -59 -64 -50 -101 17 -69 104 -89 150 -34 14 17
26 39 26 50 0 36 -29 77 -61 88 -18 6 -32 11 -33 11 -1 -1 -15 -7 -32 -14z
m80 -49 c19 -26 19 -30 5 -55 -20 -37 -71 -42 -93 -10 -21 30 -20 40 5 72 26
33 55 31 83 -7z"/>
<path d="M10030 3233 c-59 -21 -79 -96 -39 -147 16 -20 29 -26 58 -26 41 0 78
21 67 38 -4 7 -15 6 -35 -6 -27 -15 -30 -15 -55 1 -47 31 -34 47 39 47 58 0
65 2 65 19 0 41 -63 87 -100 74z m52 -40 c29 -26 22 -33 -32 -33 -52 0 -60 8
-34 34 20 21 43 20 66 -1z"/>
<path d="M10393 3232 c-32 -5 -63 -49 -63 -89 0 -68 81 -107 139 -67 34 24 11
39 -26 17 -29 -16 -32 -16 -57 0 -47 31 -34 47 39 47 59 0 65 2 65 21 0 47
-44 80 -97 71z m48 -32 c38 -21 23 -40 -31 -40 -54 0 -59 4 -33 32 18 20 36
23 64 8z"/>
<path d="M10833 3232 c-32 -5 -63 -49 -63 -89 0 -68 81 -107 139 -67 34 24 11
39 -26 17 -29 -16 -32 -16 -57 0 -47 31 -34 47 39 47 59 0 65 2 65 21 0 47
-44 80 -97 71z m48 -32 c38 -21 23 -40 -31 -40 -54 0 -59 4 -33 32 18 20 36
23 64 8z"/>
<path d="M10230 3143 c0 -49 4 -83 10 -83 6 0 10 15 10 34 0 62 12 97 36 108
36 17 29 27 -16 25 l-40 -1 0 -83z"/>
<path d="M10545 3148 c18 -46 39 -84 47 -86 13 -2 31 35 74 151 4 11 1 17 -9
17 -10 0 -24 -22 -38 -60 -12 -34 -25 -57 -29 -53 -4 4 -15 32 -26 61 -12 35
-23 52 -35 52 -15 0 -13 -11 16 -82z"/>
<path d="M10700 3145 c0 -69 3 -85 15 -85 12 0 15 16 15 85 0 69 -3 85 -15 85
-12 0 -15 -16 -15 -85z"/>
<path d="M10960 3223 c0 -5 12 -43 26 -86 31 -93 49 -98 71 -22 8 28 18 54 22
58 4 4 16 -20 26 -53 25 -82 41 -76 76 28 24 71 26 83 12 80 -10 -2 -24 -27
-36 -63 l-21 -60 -20 63 c-24 75 -42 78 -65 10 -9 -26 -19 -50 -23 -53 -3 -4
-14 18 -24 49 -10 31 -24 56 -31 56 -7 0 -13 -3 -13 -7z"/>
<path d="M8395 3133 c-70 -37 -105 -94 -105 -173 0 -111 79 -190 190 -190 111
0 190 79 190 190 0 113 -79 190 -192 190 -29 -1 -66 -8 -83 -17z m179 -39 c69
-47 89 -156 41 -227 -33 -48 -72 -67 -138 -67 -64 0 -110 27 -138 80 -23 42
-25 120 -4 160 41 79 162 106 239 54z"/>
<path d="M16381 2992 l-63 -87 63 -5 c61 -5 64 -6 67 -32 4 -38 22 -36 22 2 0
22 5 30 18 30 16 1 16 1 0 14 -14 11 -18 29 -18 90 0 54 -4 76 -12 76 -7 0
-42 -40 -77 -88z m69 -12 l0 -60 -45 0 c-25 0 -45 2 -45 5 0 7 81 115 86 115
2 0 4 -27 4 -60z"/>
<path d="M16659 3051 c-26 -26 -29 -36 -29 -89 0 -50 4 -66 26 -91 37 -44 91
-44 129 1 25 29 27 38 23 96 -4 55 -8 68 -32 88 -38 33 -80 31 -117 -5z m100
-10 c41 -41 34 -148 -11 -172 -30 -16 -66 -3 -83 31 -47 90 30 205 94 141z"/>
<path d="M16895 3056 c-13 -13 -27 -40 -30 -60 -17 -86 24 -156 90 -156 65 0
107 70 91 154 -15 79 -99 114 -151 62z m104 -22 c45 -57 15 -174 -44 -174 -62
0 -91 125 -40 175 31 32 58 32 84 -1z"/>
<path d="M17160 2960 c0 -73 4 -120 10 -120 6 0 10 20 10 45 0 43 1 45 29 45
36 0 83 17 93 33 10 15 10 69 0 83 -14 21 -51 34 -96 34 l-46 0 0 -120z m118
78 c7 -7 12 -21 12 -33 0 -32 -20 -45 -67 -45 l-43 0 0 45 0 45 43 0 c24 0 48
-5 55 -12z"/>
<path d="M17360 2960 c0 -100 3 -120 15 -120 12 0 15 17 15 92 l0 93 37 -55
36 -54 26 34 c65 84 60 85 61 -17 0 -55 4 -93 10 -93 6 0 10 47 10 120 0 70
-4 120 -10 120 -5 0 -28 -28 -51 -62 -35 -51 -44 -59 -53 -46 -6 9 -26 36 -43
62 -18 25 -37 46 -43 46 -6 0 -10 -45 -10 -120z"/>
<path d="M16550 2995 c0 -8 5 -15 10 -15 6 0 10 7 10 15 0 8 -4 15 -10 15 -5
0 -10 -7 -10 -15z"/>
<path d="M16550 2855 c0 -8 5 -15 10 -15 6 0 10 7 10 15 0 8 -4 15 -10 15 -5
0 -10 -7 -10 -15z"/>
<path d="M10654 2745 c0 -60 1 -84 3 -52 2 32 2 81 0 110 -2 29 -3 3 -3 -58z"/>
<path d="M10714 2745 c0 -60 1 -84 3 -52 2 32 2 81 0 110 -2 29 -3 3 -3 -58z"/>
<path d="M9312 2738 c1 -72 3 -89 7 -58 5 36 10 46 28 48 23 3 34 -6 64 -57
11 -18 22 -31 25 -28 3 2 -5 21 -17 41 l-22 37 22 20 c11 11 21 31 21 44 0 38
-25 55 -81 55 l-49 0 2 -102z m97 83 c7 -5 14 -21 14 -36 0 -33 -17 -45 -65
-45 l-38 0 0 45 0 45 38 0 c20 0 43 -4 51 -9z"/>
<path d="M11758 2798 c-22 -22 -22 -28 -3 -28 12 0 15 -13 15 -59 0 -45 4 -60
16 -65 9 -4 19 -4 22 -1 3 2 -3 7 -12 11 -22 9 -24 114 -1 114 8 0 15 5 15 10
0 6 -6 10 -14 10 -8 0 -16 6 -18 13 -2 9 -8 8 -20 -5z"/>
<path d="M9492 2767 c-12 -13 -22 -35 -22 -49 0 -34 36 -78 64 -78 23 0 71 29
49 30 -6 0 -15 -4 -18 -10 -10 -16 -40 -12 -58 8 -30 32 -21 42 38 42 48 0 55
2 55 20 0 27 -35 60 -63 60 -13 0 -33 -10 -45 -23z m78 -5 c32 -26 18 -42 -36
-42 -37 0 -44 3 -44 20 0 19 24 39 46 40 7 0 22 -8 34 -18z"/>
<path d="M9631 2784 c2 -5 15 -40 29 -77 14 -37 28 -67 32 -67 9 0 62 139 55
146 -3 3 -15 -22 -28 -55 -12 -34 -25 -61 -29 -61 -3 0 -14 25 -24 55 -9 30
-22 57 -28 61 -6 4 -9 3 -7 -2z"/>
<path d="M9793 2715 c0 -44 2 -61 4 -37 2 23 2 59 0 80 -2 20 -4 1 -4 -43z"/>
<path d="M9872 2767 c-12 -13 -22 -36 -22 -51 0 -31 40 -76 68 -76 21 0 75 39
56 40 -6 0 -17 -7 -24 -15 -17 -21 -46 -19 -70 5 -29 29 -17 40 46 40 47 0 54
2 54 20 0 21 -33 60 -50 60 -5 0 2 -11 16 -25 32 -32 24 -45 -32 -45 -36 0
-44 3 -44 19 0 10 10 26 23 34 12 9 17 16 11 16 -6 1 -20 -9 -32 -22z"/>
<path d="M10015 2773 c4 -10 16 -44 27 -75 19 -55 38 -76 38 -43 0 8 -4 15 -8
15 -5 0 -17 27 -27 60 -10 33 -22 60 -28 60 -5 0 -6 -8 -2 -17z"/>
<path d="M10102 2769 c-5 -13 -12 -40 -15 -59 l-6 -35 12 37 c18 56 24 55 43
-11 9 -34 20 -61 23 -61 4 0 19 34 34 75 14 41 23 75 18 75 -4 0 -16 -27 -26
-60 -10 -32 -21 -57 -25 -55 -4 2 -13 26 -20 52 -16 61 -27 73 -38 42z"/>
<path d="M10302 2690 c1 -58 3 -88 5 -67 4 32 7 37 21 32 43 -18 61 -17 86 8
31 31 33 65 5 101 -22 28 -48 33 -81 15 -16 -9 -23 -8 -29 2 -5 8 -8 -29 -7
-91z m96 73 c52 -45 11 -127 -50 -104 -45 17 -48 88 -5 109 30 15 32 14 55 -5z"/>
<path d="M10480 2737 c0 -72 27 -106 70 -90 21 8 30 8 33 0 8 -24 12 31 6 88
l-6 60 -1 -62 c-2 -51 -6 -64 -22 -73 -14 -8 -26 -8 -40 0 -17 9 -20 21 -20
70 0 33 -4 60 -10 60 -5 0 -10 -24 -10 -53z"/>
<path d="M10822 2710 c0 -41 3 -59 5 -40 7 75 14 100 28 100 8 0 16 4 19 9 3
4 -8 8 -24 7 l-30 -1 2 -75z"/>
<path d="M10932 2767 c-12 -13 -22 -36 -22 -51 0 -31 40 -76 68 -76 20 0 65
29 45 30 -6 0 -15 -4 -18 -10 -10 -17 -43 -11 -64 12 -28 30 -18 38 45 38 47
0 54 2 54 20 0 27 -35 60 -63 60 -13 0 -33 -10 -45 -23z m78 -7 c28 -28 17
-40 -35 -40 -24 0 -46 4 -50 10 -7 12 30 50 50 50 8 0 24 -9 35 -20z"/>
<path d="M11105 2765 c-14 -13 -25 -36 -25 -50 0 -30 41 -75 67 -75 10 0 28 7
40 15 21 15 22 14 26 -27 2 -24 4 4 5 62 1 62 -2 99 -7 91 -7 -11 -13 -11 -32
-1 -22 12 -22 11 4 -13 40 -38 35 -91 -11 -108 -64 -25 -102 67 -44 110 15 11
21 21 14 21 -7 0 -24 -11 -37 -25z"/>
<path d="M11270 2735 c0 -74 36 -113 80 -85 9 6 17 5 22 -3 12 -19 13 -5 7 73
l-5 75 -2 -63 c-2 -58 -4 -63 -28 -72 -40 -16 -54 2 -54 71 0 33 -4 59 -10 59
-5 0 -10 -25 -10 -55z"/>
<path d="M11452 2767 c-12 -13 -22 -36 -22 -51 0 -31 40 -76 68 -76 20 0 65
29 45 30 -6 0 -15 -4 -18 -10 -10 -17 -43 -11 -64 12 -28 30 -18 38 45 38 47
0 54 2 54 20 0 27 -35 60 -63 60 -13 0 -33 -10 -45 -23z m78 -5 c32 -26 18
-42 -36 -42 -37 0 -44 3 -44 20 0 19 24 39 46 40 7 0 22 -8 34 -18z"/>
<path d="M11622 2778 c-24 -24 -13 -49 28 -65 26 -10 40 -22 40 -34 0 -26 -36
-34 -68 -13 l-27 17 19 -21 c22 -25 58 -29 76 -7 19 23 7 49 -33 68 -26 12
-37 23 -35 35 5 24 36 27 59 6 10 -9 19 -12 19 -6 0 13 -32 32 -52 32 -8 0
-19 -5 -26 -12z"/>
<path d="M11872 2778 c-24 -24 -13 -49 28 -65 26 -10 40 -22 40 -34 0 -26 -36
-34 -68 -13 l-27 17 19 -21 c22 -25 58 -29 76 -7 19 23 7 49 -33 68 -41 19
-48 42 -16 52 13 4 27 0 40 -11 10 -9 19 -12 19 -6 0 13 -32 32 -52 32 -8 0
-19 -5 -26 -12z"/>
<path d="M9310 1740 c0 -100 3 -120 15 -120 11 0 15 12 15 49 l0 50 52 3 c74
4 77 28 4 28 l-56 0 0 40 0 40 60 0 c47 0 60 3 60 15 0 12 -15 15 -75 15 l-75
0 0 -120z"/>
<path d="M10000 1814 c0 -39 -2 -45 -14 -35 -21 18 -71 16 -100 -2 -33 -22
-43 -74 -22 -115 22 -42 72 -56 117 -32 13 7 19 7 19 0 0 -5 7 -10 15 -10 13
0 15 20 15 120 0 100 -2 120 -15 120 -11 0 -15 -12 -15 -46z m-16 -77 c19 -26
19 -30 5 -55 -21 -38 -72 -43 -94 -9 -28 44 1 100 49 94 10 -1 28 -15 40 -30z"/>
<path d="M10370 1840 c0 -11 7 -20 15 -20 8 0 15 9 15 20 0 11 -7 20 -15 20
-8 0 -15 -9 -15 -20z"/>
<path d="M10610 1840 c0 -11 7 -20 15 -20 8 0 15 9 15 20 0 11 -7 20 -15 20
-8 0 -15 -9 -15 -20z"/>
<path d="M10233 1792 c-24 -4 -49 -29 -39 -39 3 -3 17 -1 30 6 27 15 66 6 66
-14 0 -8 -12 -17 -27 -20 -69 -14 -102 -55 -73 -91 15 -17 71 -19 88 -2 9 9
12 9 12 0 0 -7 7 -12 15 -12 12 0 15 14 15 68 0 37 -4 72 -8 79 -10 16 -52 30
-79 25z m57 -104 c0 -19 -32 -48 -52 -48 -27 0 -35 30 -13 46 23 17 65 18 65
2z"/>
<path d="M10473 1790 c-24 -10 -37 -39 -27 -63 3 -9 26 -24 50 -33 48 -18 52
-25 29 -44 -13 -11 -21 -10 -43 1 -15 7 -30 15 -34 17 -5 2 -8 -3 -8 -12 0
-37 85 -49 115 -16 25 27 8 66 -34 75 -33 7 -56 29 -46 45 9 15 41 12 55 -5 9
-11 16 -13 24 -5 23 23 -42 55 -81 40z"/>
<path d="M10923 1792 c-13 -2 -32 -15 -43 -29 -54 -69 12 -157 98 -129 17 6
22 4 22 -11 0 -40 -49 -56 -90 -31 -29 18 -39 -1 -11 -23 30 -25 72 -24 105 2
25 20 26 24 26 121 0 97 -1 100 -21 95 -12 -3 -31 -2 -43 2 -11 4 -31 5 -43 3z
m55 -38 c42 -29 17 -104 -35 -104 -20 0 -53 38 -53 60 0 22 33 60 53 60 7 0
23 -7 35 -16z"/>
<path d="M9480 1733 c0 -32 6 -69 13 -83 11 -22 19 -25 70 -26 l57 -1 0 84 c0
96 -16 112 -22 22 -5 -73 -27 -99 -62 -75 -17 11 -22 26 -24 75 -2 45 -7 61
-17 61 -12 0 -15 -14 -15 -57z"/>
<path d="M9670 1704 c0 -68 3 -84 15 -84 12 0 15 13 15 59 0 41 5 65 16 75 39
39 74 2 74 -77 0 -44 3 -57 15 -57 19 0 21 103 2 140 -11 22 -19 25 -75 26
l-62 1 0 -83z"/>
<path d="M10070 1704 c0 -68 3 -84 15 -84 12 0 15 14 15 66 0 64 1 66 30 77
43 16 37 26 -15 25 l-45 -1 0 -83z"/>
<path d="M10370 1705 c0 -69 3 -85 15 -85 12 0 15 16 15 85 0 69 -3 85 -15 85
-12 0 -15 -16 -15 -85z"/>
<path d="M10610 1705 c0 -69 3 -85 15 -85 12 0 15 16 15 85 0 69 -3 85 -15 85
-12 0 -15 -16 -15 -85z"/>
<path d="M10680 1704 c0 -68 3 -84 15 -84 12 0 15 13 15 58 0 44 5 63 18 75
41 37 72 4 72 -76 0 -44 3 -57 15 -57 19 0 21 103 2 140 -11 22 -19 25 -75 26
l-62 1 0 -83z"/>
<path d="M8395 1693 c-70 -37 -105 -94 -105 -173 0 -111 79 -190 190 -190 111
0 190 79 190 190 0 113 -79 190 -192 190 -29 -1 -66 -8 -83 -17z m179 -39 c69
-47 89 -156 41 -227 -33 -48 -72 -67 -138 -67 -64 0 -110 27 -138 80 -23 42
-25 120 -4 160 41 79 162 106 239 54z"/>
<path d="M16392 1580 c-53 -73 -62 -115 -32 -153 26 -33 87 -38 113 -9 27 30
22 87 -10 112 -15 12 -35 19 -45 17 -24 -7 -23 -1 12 43 33 42 36 50 18 50 -7
0 -32 -27 -56 -60z m68 -81 c26 -47 -25 -100 -69 -72 -20 13 -26 60 -10 79 18
22 66 18 79 -7z"/>
<path d="M16677 1629 c-49 -29 -63 -133 -24 -190 19 -28 30 -35 64 -37 51 -4
77 18 93 78 27 102 -55 195 -133 149z m83 -27 c16 -13 24 -32 27 -68 6 -77
-28 -123 -81 -110 -57 14 -71 122 -23 174 25 27 47 28 77 4z"/>
<path d="M16895 1616 c-28 -28 -40 -81 -30 -132 21 -112 159 -112 180 0 16 84
-25 156 -90 156 -25 0 -43 -8 -60 -24z m104 -22 c45 -57 15 -174 -44 -174 -36
0 -65 44 -65 100 0 56 29 100 65 100 14 0 32 -11 44 -26z"/>
<path d="M17160 1520 c0 -73 4 -120 10 -120 6 0 10 20 10 45 0 43 1 45 29 45
36 0 83 17 93 33 10 15 10 69 0 83 -14 21 -51 34 -96 34 l-46 0 0 -120z m118
78 c7 -7 12 -21 12 -33 0 -32 -20 -45 -67 -45 l-43 0 0 45 0 45 43 0 c24 0 48
-5 55 -12z"/>
<path d="M17360 1520 c0 -100 3 -120 15 -120 12 0 15 17 15 92 l0 93 37 -55
36 -54 26 34 c65 84 60 85 61 -17 0 -55 4 -93 10 -93 6 0 10 47 10 120 0 70
-4 120 -10 120 -5 0 -28 -28 -51 -62 -35 -51 -44 -59 -53 -46 -6 9 -26 36 -43
62 -18 25 -37 46 -43 46 -6 0 -10 -45 -10 -120z"/>
<path d="M16550 1555 c0 -8 5 -15 10 -15 6 0 10 7 10 15 0 8 -4 15 -10 15 -5
0 -10 -7 -10 -15z"/>
<path d="M16550 1415 c0 -8 5 -15 10 -15 6 0 10 7 10 15 0 8 -4 15 -10 15 -5
0 -10 -7 -10 -15z"/>
<path d="M10448 1399 c-10 -5 -18 -19 -18 -29 0 -11 -7 -20 -15 -20 -8 0 -15
-4 -15 -10 0 -5 7 -10 15 -10 10 0 15 -17 18 -67 l3 -68 2 68 c2 60 4 67 22
67 11 0 20 5 20 10 0 6 -9 10 -20 10 -27 0 -25 24 3 43 24 18 12 22 -15 6z"/>
<path d="M9312 1298 c1 -72 3 -89 7 -58 6 47 5 46 68 49 29 1 53 27 53 56 0
38 -26 55 -81 55 l-49 0 2 -102z m97 83 c7 -5 14 -21 14 -36 0 -33 -17 -45
-65 -45 l-38 0 0 45 0 45 38 0 c20 0 43 -4 51 -9z"/>
<path d="M11540 1370 c-1 -8 -2 -18 -1 -22 0 -4 -6 -5 -14 -2 -8 4 -15 1 -15
-5 0 -6 7 -11 15 -11 11 0 15 -13 15 -54 0 -36 5 -58 15 -66 9 -7 18 -10 22
-7 3 4 -2 9 -11 13 -22 9 -24 114 -1 114 8 0 15 5 15 10 0 6 -6 10 -14 10 -8
0 -17 8 -19 18 -4 13 -5 13 -7 2z"/>
<path d="M12560 1366 c0 -8 -6 -17 -12 -20 -10 -5 -10 -7 0 -12 6 -3 12 -23
12 -44 0 -52 16 -90 37 -90 17 1 17 1 1 14 -24 18 -26 116 -3 116 8 0 15 5 15
10 0 6 -7 10 -15 10 -8 0 -15 7 -15 15 0 8 -4 15 -10 15 -5 0 -10 -6 -10 -14z"/>
<path d="M9492 1275 l1 -80 6 63 c5 55 10 66 31 78 18 9 20 13 8 14 -9 0 -20
-5 -24 -11 -4 -8 -9 -7 -15 2 -5 9 -8 -18 -7 -66z"/>
<path d="M9610 1339 c-11 -8 -8 -9 15 -4 37 7 71 -14 62 -39 -10 -25 -93 -19
-91 7 1 9 -2 17 -7 17 -5 0 -9 -18 -9 -40 0 -64 48 -98 101 -70 10 6 19 15 19
20 0 5 -13 2 -29 -7 -27 -16 -30 -16 -55 0 -46 30 -34 47 34 47 67 0 74 9 39
54 -21 27 -53 33 -79 15z"/>
<path d="M9750 1250 c0 -60 4 -100 10 -100 6 0 10 19 10 42 0 39 1 40 18 25
42 -38 102 -4 102 58 0 62 -60 96 -102 58 -17 -15 -18 -15 -18 0 0 10 -4 17
-10 17 -6 0 -10 -40 -10 -100z m108 74 c37 -25 27 -89 -16 -105 -60 -23 -103
68 -50 105 12 9 27 16 33 16 6 0 21 -7 33 -16z"/>
<path d="M9963 1343 c-7 -2 -13 -9 -13 -14 0 -6 8 -5 20 1 27 15 60 3 60 -20
0 -14 -10 -20 -41 -25 -30 -5 -43 -14 -52 -32 -9 -21 -8 -27 8 -39 22 -17 40
-18 66 -4 13 7 19 7 19 0 0 -5 5 -10 10 -10 6 0 10 26 10 58 0 77 -32 108 -87
85z m65 -93 c-17 -49 -86 -53 -76 -4 3 17 32 31 70 33 15 1 15 -3 6 -29z"/>
<path d="M10102 1270 c0 -41 3 -59 5 -40 7 75 14 100 28 100 8 0 16 4 19 9 3
4 -8 8 -24 7 l-30 -1 2 -75z"/>
<path d="M10212 1330 c-43 -41 -15 -130 41 -130 25 0 57 18 57 32 0 6 -8 4
-18 -5 -25 -22 -48 -21 -72 3 -32 32 -24 40 40 40 51 0 60 3 60 18 0 24 -41
62 -66 62 -11 0 -30 -9 -42 -20z m78 -10 c28 -28 17 -40 -35 -40 -24 0 -46 4
-50 10 -7 12 30 50 50 50 8 0 24 -9 35 -20z"/>
<path d="M10535 1325 c-14 -13 -25 -36 -25 -50 0 -14 11 -37 25 -50 24 -25 65
-34 65 -14 0 5 -5 7 -10 4 -15 -9 -57 20 -65 44 -14 45 36 89 80 69 33 -15 43
-54 22 -90 -18 -32 -16 -35 7 -12 23 22 20 80 -4 104 -27 27 -66 25 -95 -5z"/>
<path d="M10703 1275 c0 -44 2 -60 4 -35 5 70 11 88 34 95 11 4 18 9 16 12 -3
2 -14 0 -25 -6 -15 -8 -22 -8 -25 2 -3 6 -5 -24 -4 -68z"/>
<path d="M10843 1275 c0 -44 2 -61 4 -37 2 23 2 59 0 80 -2 20 -4 1 -4 -43z"/>
<path d="M10913 1275 c1 -73 1 -75 4 -18 3 50 8 65 23 73 44 23 77 -23 68 -95
-2 -19 0 -35 4 -35 4 0 8 24 8 54 0 38 -6 61 -19 77 -17 22 -22 23 -50 13 -22
-9 -31 -9 -35 0 -2 6 -4 -25 -3 -69z"/>
<path d="M11050 1346 c0 -16 54 -146 61 -146 3 0 17 28 29 63 34 94 34 93 23
82 -6 -5 -18 -34 -29 -62 -10 -29 -21 -53 -24 -53 -3 0 -14 24 -24 53 -18 49
-36 81 -36 63z"/>
<path d="M11221 1324 c-12 -15 -21 -38 -21 -51 0 -26 44 -73 67 -73 21 0 53
19 53 31 0 6 -7 3 -16 -5 -21 -21 -47 -20 -67 2 -30 32 -21 42 38 42 48 0 55
2 55 20 0 27 -35 60 -64 60 -15 0 -33 -11 -45 -26z m83 -3 c25 -28 12 -41 -39
-41 -52 0 -63 12 -35 40 25 25 52 26 74 1z"/>
<path d="M11390 1335 c-20 -24 -7 -49 30 -61 23 -8 36 -19 38 -32 5 -29 -32
-38 -66 -16 l-27 17 19 -21 c22 -25 58 -29 76 -7 19 23 7 49 -33 68 -41 19
-48 42 -16 52 13 4 27 0 40 -11 10 -9 19 -12 19 -6 0 13 -32 32 -53 32 -8 0
-20 -7 -27 -15z"/>
<path d="M11646 1329 c-19 -15 -26 -30 -26 -54 0 -36 36 -75 70 -75 10 0 29 9
44 21 34 27 36 77 3 107 -29 28 -57 28 -91 1z m64 1 c32 -17 43 -48 30 -80
-15 -36 -48 -45 -80 -21 -36 26 -38 64 -4 90 31 24 30 24 54 11z"/>
<path d="M11812 1275 l1 -80 6 63 c5 55 10 66 31 78 18 9 20 13 8 14 -9 0 -20
-5 -24 -11 -4 -8 -9 -7 -15 2 -5 9 -8 -18 -7 -66z"/>
<path d="M11953 1275 c0 -44 2 -60 4 -35 7 89 22 112 64 90 15 -9 19 -22 19
-70 0 -33 4 -60 10 -60 6 0 10 27 10 60 0 49 3 61 20 70 38 21 59 -3 63 -73
l4 -62 -1 70 c-1 66 -2 70 -28 79 -21 7 -32 6 -46 -7 -17 -15 -19 -15 -35 0
-14 14 -22 15 -47 6 -21 -8 -30 -8 -34 1 -2 6 -4 -25 -3 -69z"/>
<path d="M12219 1329 c-48 -48 5 -146 68 -123 14 5 29 16 31 24 4 12 1 11 -15
-2 -26 -23 -48 -23 -73 2 -32 32 -24 40 40 40 51 0 60 3 60 18 0 25 -41 62
-68 62 -12 0 -31 -9 -43 -21z m81 -9 c28 -28 17 -40 -35 -40 -24 0 -46 4 -50
10 -7 12 30 50 50 50 8 0 24 -9 35 -20z"/>
<path d="M12392 1327 c-29 -31 -28 -72 3 -102 30 -30 55 -32 86 -4 l24 21 -25
-16 c-33 -21 -56 -20 -80 4 -29 29 -17 40 46 40 47 0 54 2 54 20 0 21 -33 60
-50 60 -5 0 2 -11 16 -25 32 -32 24 -45 -32 -45 -36 0 -44 3 -44 19 0 10 10
26 23 34 12 9 17 16 11 16 -6 1 -20 -9 -32 -22z"/>
<path d="M12663 1275 c0 -44 2 -61 4 -37 2 23 2 59 0 80 -2 20 -4 1 -4 -43z"/>
<path d="M12720 1276 c0 -90 7 -100 11 -16 3 52 17 79 44 80 28 0 40 -23 46
-82 l6 -63 1 68 c2 63 0 68 -24 79 -20 9 -30 9 -46 -1 -17 -11 -22 -10 -29 1
-5 8 -9 -19 -9 -66z"/>
<path d="M12902 1334 c-28 -20 -31 -83 -4 -107 22 -20 73 -22 90 -5 9 9 12 6
12 -13 0 -45 -43 -63 -93 -38 -21 10 -21 9 2 -10 28 -25 49 -26 79 -5 20 14
22 23 22 107 0 62 -3 87 -10 77 -7 -12 -12 -12 -22 -2 -17 17 -49 15 -76 -4z
m76 -10 c42 -29 18 -104 -34 -104 -52 0 -75 74 -32 104 12 9 27 16 33 16 6 0
21 -7 33 -16z"/>
</g>
</svg>
