<?xml version="1.0" standalone="no"?>
<!DOCTYPE svg PUBLIC "-//W3C//DTD SVG 20010904//EN"
 "http://www.w3.org/TR/2001/REC-SVG-20010904/DTD/svg10.dtd">
<svg version="1.0" xmlns="http://www.w3.org/2000/svg"
 width="2560.000000pt" height="2286.000000pt" viewBox="0 0 2560.000000 2286.000000"
 preserveAspectRatio="xMidYMid meet">

<g transform="translate(0.000000,2286.000000) scale(0.100000,-0.100000)"
fill="#000000" stroke="none">
<path d="M20473 22607 c-18 -6 -33 -15 -33 -19 0 -4 -6 -8 -14 -8 -7 0 -20 -8
-27 -17 -10 -11 -10 -14 -1 -9 6 4 12 2 12 -3 0 -6 -5 -11 -12 -11 -6 0 -9 -2
-6 -5 9 -9 59 6 53 15 -3 5 4 6 15 3 14 -4 20 0 20 11 0 10 -4 15 -9 11 -5 -3
-12 -1 -15 3 -3 5 23 16 57 25 49 12 54 15 27 15 -19 -1 -50 -6 -67 -11z"/>
<path d="M20614 22613 c9 -9 1057 -10 1063 0 2 4 -238 7 -533 7 -296 0 -534
-3 -530 -7z"/>
<path d="M21685 22600 c-11 -5 -42 -10 -70 -11 -27 -1 -40 -4 -27 -6 35 -7 15
-23 -28 -23 -39 0 -61 14 -38 23 7 3 -16 5 -52 5 -36 0 -55 -3 -42 -5 35 -7
15 -23 -28 -23 -39 0 -61 14 -38 23 7 3 -16 5 -52 5 -36 0 -55 -3 -42 -5 35
-7 15 -23 -28 -23 -39 0 -61 14 -38 23 7 3 -16 5 -52 5 -36 0 -55 -3 -42 -5
35 -7 15 -23 -28 -23 -39 0 -61 14 -38 23 7 3 -16 5 -52 5 -36 0 -55 -3 -42
-5 35 -7 15 -23 -28 -23 -39 0 -61 14 -38 23 7 3 -16 5 -52 5 -36 0 -55 -3
-42 -5 35 -7 15 -23 -28 -23 -39 0 -61 14 -38 23 7 3 -7 6 -32 6 -41 1 -46 -2
-48 -22 l-1 -23 477 1 c262 1 493 -2 512 -6 25 -6 39 -4 51 7 8 8 19 11 24 7
4 -5 6 4 3 19 -3 15 0 29 6 32 6 2 7 4 1 5 -5 0 -19 -4 -30 -9z m-982 -47 c-7
-2 -19 -2 -25 0 -7 3 -2 5 12 5 14 0 19 -2 13 -5z m160 0 c-7 -2 -19 -2 -25 0
-7 3 -2 5 12 5 14 0 19 -2 13 -5z m160 0 c-7 -2 -19 -2 -25 0 -7 3 -2 5 12 5
14 0 19 -2 13 -5z m160 0 c-7 -2 -19 -2 -25 0 -7 3 -2 5 12 5 14 0 19 -2 13
-5z m160 0 c-7 -2 -19 -2 -25 0 -7 3 -2 5 12 5 14 0 19 -2 13 -5z m160 0 c-7
-2 -19 -2 -25 0 -7 3 -2 5 12 5 14 0 19 -2 13 -5z m154 1 c-3 -3 -12 -4 -19
-1 -8 3 -5 6 6 6 11 1 17 -2 13 -5z"/>
<path d="M21736 22585 c-17 -13 -15 -35 4 -35 13 0 32 38 22 44 -4 2 -15 -2
-26 -9z"/>
<path d="M20315 22542 c-12 -9 -24 -26 -28 -36 -6 -16 -5 -17 8 -6 12 10 16 8
24 -11 6 -14 10 -18 10 -8 1 8 -4 20 -11 27 -9 9 -7 16 7 32 22 24 17 25 -10
2z"/>
<path d="M21750 22543 c-14 -7 -18 -13 -10 -13 17 0 47 17 40 23 -3 2 -16 -2
-30 -10z"/>
<path d="M20355 22540 c3 -5 8 -10 11 -10 2 0 4 5 4 10 0 6 -5 10 -11 10 -5 0
-7 -4 -4 -10z"/>
<path d="M20447 22533 c-4 -3 -7 -17 -7 -30 0 -16 6 -23 20 -23 16 0 20 7 20
30 0 28 -17 40 -33 23z"/>
<path d="M21844 22502 c3 -2 1 -13 -5 -23 -7 -13 -6 -19 1 -19 6 0 8 -4 5 -10
-3 -5 0 -10 7 -10 10 0 10 -2 -1 -9 -11 -7 -9 -10 10 -13 27 -3 40 -38 15 -38
-9 0 -16 -5 -16 -10 0 -6 11 -8 25 -4 l25 6 0 -151 c0 -83 -3 -150 -7 -150
-25 4 -39 -4 -40 -22 -1 -12 -9 -29 -17 -38 -21 -24 -20 -44 4 -66 20 -18 21
-18 35 1 19 25 19 44 0 44 -8 0 -15 4 -15 9 0 5 9 7 19 4 17 -4 20 3 26 59 6
56 1 300 -7 354 -2 14 -9 19 -20 16 -12 -3 -18 1 -18 12 0 10 6 13 15 10 17
-7 21 11 5 21 -6 4 -8 10 -5 15 2 4 -7 10 -20 13 -14 2 -23 2 -21 -1z m51
-462 c-4 -12 -9 -19 -12 -17 -3 3 -2 15 2 27 4 12 9 19 12 17 3 -3 2 -15 -2
-27z m-25 -70 c0 -5 -8 -10 -17 -10 -15 0 -16 2 -3 10 19 12 20 12 20 0z"/>
<path d="M20280 22445 c0 -7 -8 -18 -17 -24 -16 -9 -18 -28 -17 -188 1 -184 7
-260 24 -277 6 -6 7 -1 4 15 -10 40 -6 60 13 76 10 8 12 12 6 8 -7 -3 -13 -1
-13 4 0 10 14 15 33 12 11 -2 9 27 -3 34 -5 3 -10 -1 -10 -9 0 -9 -5 -16 -10
-16 -6 0 -15 -10 -20 -22 -14 -35 -12 1 3 40 10 28 10 36 0 39 -15 5 -18 83
-3 83 6 0 10 18 10 40 0 22 -4 40 -9 40 -4 0 -8 24 -8 53 0 39 4 54 14 54 8 0
11 -7 7 -19 -3 -10 -1 -18 5 -18 6 0 11 15 11 33 0 18 5 38 12 45 9 9 7 12
-10 12 -13 0 -22 -6 -22 -15z"/>
<path d="M20723 22387 c-28 -13 -29 -24 -3 -32 11 -4 18 -10 15 -15 -3 -4 6
-10 20 -12 14 -3 25 -1 25 4 0 5 5 6 10 3 6 -3 10 -1 10 6 0 7 -8 9 -21 6 -14
-4 -19 -2 -15 8 2 7 -1 20 -7 28 -9 12 -17 13 -34 4z"/>
<path d="M20770 22390 c0 -6 9 -10 20 -10 11 0 20 -5 20 -12 0 -6 8 -4 19 6
12 11 25 15 33 11 10 -6 10 -5 1 5 -9 10 -15 10 -26 1 -10 -8 -22 -9 -41 -1
-17 6 -26 6 -26 0z"/>
<path d="M20897 22383 c-12 -11 -7 -23 7 -17 8 3 17 1 20 -4 9 -14 -36 -23
-51 -10 -9 7 -13 7 -13 -1 0 -7 -4 -10 -8 -7 -9 6 -15 -42 -6 -56 3 -5 14 -2
25 8 10 9 16 21 12 27 -3 5 -1 7 5 3 6 -3 13 -2 16 2 3 5 15 8 28 7 22 -2 22
-5 20 -80 -2 -56 0 -80 10 -87 9 -6 10 -10 2 -15 -7 -5 -13 -17 -15 -28 -6
-28 -39 -32 -46 -6 -5 20 -6 20 -18 4 -8 -10 -17 -15 -21 -10 -4 4 -2 7 4 7 7
0 12 5 12 10 0 6 -11 10 -24 10 -18 0 -26 7 -29 23 -3 16 -5 13 -6 -10 0 -19
-6 -33 -13 -33 -9 0 -8 -4 2 -10 10 -6 11 -10 3 -10 -7 0 -13 -7 -13 -15 0
-25 18 -17 28 13 6 15 11 21 11 15 1 -7 9 -13 19 -13 16 -1 16 -1 0 -14 -20
-14 -24 -36 -8 -36 6 0 10 5 10 12 0 9 3 9 12 0 16 -16 28 -15 28 3 0 8 5 15
10 15 6 0 10 -6 10 -12 0 -9 20 -14 63 -15 34 -1 55 1 47 4 -8 3 -21 11 -29
17 -11 8 -13 8 -7 -1 10 -17 -2 -16 -20 1 -20 20 -18 32 9 52 15 11 16 15 5
11 -10 -4 -18 -2 -18 3 0 6 5 10 11 10 7 0 5 10 -5 25 -18 28 -21 65 -5 65 5
0 7 -5 3 -12 -4 -7 -3 -8 5 -4 6 4 8 13 4 19 -4 7 -9 23 -11 36 -3 21 -1 23
13 11 12 -10 13 -16 4 -26 -15 -18 1 -17 25 1 10 7 15 18 11 24 -3 6 -2 11 4
11 5 0 13 -5 16 -11 4 -6 13 -8 20 -5 7 2 18 -1 25 -7 10 -10 12 -8 7 6 -4 10
-3 15 2 12 5 -3 12 -1 16 5 9 14 -28 13 -43 -2 -8 -8 -15 -8 -26 1 -17 14 -40
5 -30 -11 4 -6 1 -9 -7 -6 -8 3 -13 15 -11 30 2 19 -3 27 -20 33 -13 4 -26 7
-30 6 -5 -1 -8 4 -8 10 0 6 9 8 20 4 12 -4 20 -2 20 5 0 8 -10 10 -25 8 -14
-3 -28 -1 -31 3 -6 11 -18 12 -27 2z"/>
<path d="M22383 22360 c-86 -52 -82 -189 6 -235 37 -19 98 -19 131 0 24 13 27
11 67 -28 55 -53 69 -39 16 16 -39 40 -41 43 -28 67 20 36 18 100 -5 137 -37
62 -124 82 -187 43z m152 -40 c24 -25 30 -39 30 -75 0 -37 -6 -50 -33 -77 -27
-27 -40 -33 -77 -33 -37 0 -50 6 -77 33 -76 76 -15 201 92 187 20 -3 46 -16
65 -35z"/>
<path d="M23375 22366 c-36 -16 -82 -67 -91 -102 -3 -13 -3 -43 0 -66 6 -44 6
-51 3 -103 -2 -26 1 -30 23 -28 49 4 66 3 120 -3 47 -5 60 -2 90 18 59 40 82
84 78 146 -10 115 -120 183 -223 138z m121 -22 c51 -24 78 -68 78 -126 0 -84
-69 -146 -149 -132 -22 4 -56 7 -76 6 -36 0 -37 1 -37 37 0 20 -2 59 -3 86 -3
63 20 101 76 126 50 23 68 23 111 3z"/>
<path d="M23360 22230 c-12 -7 -12 -12 -2 -22 9 -9 15 -9 24 0 16 16 -2 34
-22 22z"/>
<path d="M23424 22229 c-8 -14 11 -33 25 -25 6 4 11 11 11 16 0 13 -29 20 -36
9z"/>
<path d="M23494 22229 c-10 -17 13 -36 27 -22 12 12 4 33 -11 33 -5 0 -12 -5
-16 -11z"/>
<path d="M24335 22362 c-39 -24 -51 -51 -65 -137 -19 -115 -20 -110 24 -113
27 -2 45 -11 58 -28 13 -15 30 -24 48 -24 18 0 35 9 48 24 13 17 31 26 58 28
44 3 42 -6 23 118 -6 41 -18 85 -27 98 -33 51 -112 67 -167 34z m133 -36 c16
-16 26 -41 32 -82 4 -32 11 -71 15 -86 l7 -28 -122 0 -122 0 7 28 c4 15 11 53
15 86 12 83 52 121 115 110 17 -3 40 -16 53 -28z m-38 -225 c0 -13 -27 -21
-45 -15 -25 10 -17 24 15 24 17 0 30 -4 30 -9z"/>
<path d="M20324 22344 c3 -9 6 -18 6 -20 0 -2 7 -4 15 -4 8 0 15 -4 15 -10 0
-5 5 -10 10 -10 6 0 10 9 10 20 0 13 -7 20 -20 20 -11 0 -20 5 -20 10 0 6 -5
10 -11 10 -6 0 -8 -7 -5 -16z"/>
<path d="M1447 22343 c-18 -17 -5 -33 28 -33 l35 0 0 -115 0 -115 25 0 c24 0
24 0 27 113 l3 112 33 3 c24 2 32 8 32 23 0 17 -8 19 -88 19 -49 0 -92 -3 -95
-7z"/>
<path d="M2010 22215 l0 -135 24 0 c21 0 25 5 28 37 4 50 22 52 53 4 19 -31
32 -41 51 -41 l26 0 -23 38 c-12 20 -28 46 -35 56 -11 17 -9 24 16 57 36 44
37 49 8 49 -12 0 -37 -18 -60 -42 l-38 -41 0 76 c0 75 -1 77 -25 77 l-25 0 0
-135z"/>
<path d="M2220 22215 l0 -135 25 0 c25 0 25 1 25 92 l0 91 41 -57 c23 -32 43
-55 45 -53 3 3 23 28 44 58 l40 53 0 -92 c0 -91 0 -92 25 -92 l25 0 0 135 c0
135 0 135 -23 135 -17 0 -35 -16 -67 -60 -24 -32 -46 -58 -49 -56 -3 3 -24 29
-46 60 -28 39 -47 56 -62 56 -23 0 -23 -2 -23 -135z"/>
<path d="M862 22280 l20 -60 -20 -60 -21 -60 119 0 119 0 -21 60 -20 60 20 60
21 60 -119 0 -119 0 21 -60z"/>
<path d="M11640 22225 c0 -63 4 -105 10 -105 6 0 10 20 10 45 l0 45 55 0 55 0
0 -45 c0 -25 5 -45 10 -45 6 0 10 42 10 105 0 63 -4 105 -10 105 -5 0 -10 -20
-10 -45 l0 -45 -55 0 -55 0 0 45 c0 25 -4 45 -10 45 -6 0 -10 -42 -10 -105z"/>
<path d="M13170 22225 c0 -85 3 -105 15 -105 11 0 15 18 17 77 l3 77 31 -47
30 -47 35 47 34 48 3 -77 c4 -117 22 -95 22 27 0 58 -4 105 -9 105 -5 0 -26
-22 -46 -50 -20 -27 -38 -50 -39 -50 -2 0 -18 22 -37 50 -51 75 -59 68 -59
-55z"/>
<path d="M13592 22318 c3 -7 17 -14 31 -16 l27 -3 0 -90 c0 -72 3 -89 15 -89
12 0 15 17 15 90 0 89 0 90 25 90 16 0 25 6 25 15 0 12 -15 15 -71 15 -52 0
-70 -3 -67 -12z"/>
<path d="M14050 22225 c0 -63 4 -105 10 -105 6 0 10 11 10 24 0 13 6 29 14 36
12 9 19 5 38 -24 13 -20 29 -36 36 -36 17 0 16 5 -15 51 l-26 40 28 29 c42 44
9 38 -37 -7 l-38 -37 0 67 c0 38 -4 67 -10 67 -6 0 -10 -42 -10 -105z"/>
<path d="M15070 22225 l0 -105 53 0 c64 0 97 20 97 59 0 15 -5 32 -11 38 -8 8
-8 17 0 31 13 25 0 66 -24 76 -9 3 -39 6 -66 6 l-49 0 0 -105z m116 60 c10
-24 -15 -45 -52 -45 -31 0 -34 3 -34 30 0 28 2 30 40 30 27 0 43 -5 46 -15z
m4 -80 c26 -32 -7 -64 -67 -65 -20 0 -23 5 -23 40 0 40 0 40 39 40 21 0 44 -6
51 -15z"/>
<path d="M15820 22296 l0 -34 -43 5 c-34 4 -46 1 -61 -15 -26 -30 -24 -91 4
-114 25 -21 70 -24 88 -6 9 9 12 9 12 0 0 -7 7 -12 15 -12 12 0 15 18 15 105
0 87 -3 105 -15 105 -10 0 -15 -10 -15 -34z m-16 -62 c21 -20 20 -53 -1 -76
-20 -22 -41 -23 -65 -1 -22 20 -23 51 -1 75 20 22 46 23 67 2z"/>
<path d="M16639 22301 c-24 -24 -29 -38 -29 -76 0 -62 39 -105 97 -105 43 0
93 34 75 52 -7 7 -17 3 -31 -11 -57 -57 -144 19 -111 98 21 52 93 62 122 17 5
-8 10 -8 18 0 17 17 -35 54 -77 54 -25 0 -43 -8 -64 -29z"/>
<path d="M16990 22225 c0 -63 4 -105 10 -105 6 0 10 42 10 105 0 63 -4 105
-10 105 -6 0 -10 -42 -10 -105z"/>
<path d="M17510 22296 c0 -34 0 -34 -40 -29 -76 10 -116 -61 -69 -121 22 -28
75 -36 97 -14 9 9 12 9 12 0 0 -7 5 -12 10 -12 6 0 10 42 10 105 0 63 -4 105
-10 105 -5 0 -10 -15 -10 -34z m-16 -68 c9 -12 16 -28 16 -35 0 -17 -37 -53
-54 -53 -24 0 -46 29 -46 60 0 49 57 67 84 28z"/>
<path d="M18550 22225 c0 -87 3 -105 15 -105 11 0 15 11 15 40 0 36 3 40 25
40 19 0 29 -10 45 -40 11 -22 27 -40 35 -40 13 0 12 7 -5 40 l-21 41 21 26
c26 33 25 49 -5 78 -19 20 -34 25 -75 25 l-50 0 0 -105z m110 60 c17 -20 3
-54 -26 -61 -39 -10 -54 2 -54 41 0 33 2 35 34 35 18 0 39 -7 46 -15z"/>
<path d="M20711 22314 c0 -11 3 -14 6 -6 3 7 2 16 -1 19 -3 4 -6 -2 -5 -13z"/>
<path d="M2930 22300 c0 -11 -7 -20 -15 -20 -9 0 -15 -9 -15 -25 0 -16 6 -25
15 -25 11 0 15 -11 15 -39 0 -45 15 -92 33 -103 7 -4 24 -8 40 -8 35 0 39 37
5 42 -20 3 -23 10 -26 55 -3 47 -1 52 20 55 31 4 32 42 1 46 -15 2 -23 10 -23
23 0 14 -7 19 -25 19 -18 0 -25 -5 -25 -20z"/>
<path d="M21220 22311 c0 -5 -8 -7 -19 -4 -10 3 -22 0 -25 -6 -5 -8 -13 -8
-28 0 -13 7 -18 7 -14 1 4 -6 -1 -15 -10 -20 -14 -8 -14 -12 -3 -30 17 -27 25
-28 25 -3 0 11 -5 17 -10 14 -5 -3 -6 -1 -3 4 7 11 66 23 65 14 0 -3 0 -15 1
-26 1 -16 3 -17 11 -5 13 21 23 5 11 -19 -8 -13 -8 -22 -1 -26 6 -4 9 -3 8 2
-2 5 6 28 16 51 17 37 18 45 5 53 -18 11 -29 11 -29 0z"/>
<path d="M21394 22305 c-5 -12 -9 -13 -14 -4 -5 7 -15 9 -26 4 -11 -5 -26 -7
-33 -6 -13 2 -13 1 0 -15 12 -16 12 -17 -3 -11 -41 16 -52 18 -30 5 12 -8 20
-17 16 -21 -4 -3 -1 -14 7 -23 8 -10 13 -19 11 -21 -2 -3 -1 -7 2 -10 3 -4 6
3 6 15 0 12 -4 22 -10 22 -5 0 -10 5 -10 11 0 6 7 8 16 5 8 -3 12 -2 9 4 -3 6
-1 10 5 10 6 0 9 4 5 9 -9 16 15 24 31 10 10 -8 18 -9 22 -3 13 20 41 23 46 6
3 -12 4 -12 3 3 -3 26 -44 33 -53 10z"/>
<path d="M19372 22283 c-26 -29 -27 -33 -7 -33 11 0 15 -13 15 -53 0 -55 12
-77 42 -77 22 0 24 16 3 24 -11 4 -15 20 -15 56 0 38 4 50 15 50 8 0 15 5 15
10 0 6 -7 10 -15 10 -8 0 -15 6 -15 14 0 26 -15 25 -38 -1z"/>
<path d="M20878 22291 c-17 -23 -17 -26 0 -41 16 -16 17 -16 20 2 2 10 2 28 0
41 l-3 22 -17 -24z"/>
<path d="M1654 22256 c-27 -23 -28 -23 -7 -34 16 -9 24 -8 33 3 16 19 44 19
60 0 10 -12 10 -16 -1 -19 -8 -2 -34 -10 -59 -18 -55 -16 -75 -55 -45 -88 20
-23 83 -28 103 -8 9 9 12 9 12 0 0 -7 9 -12 20 -12 18 0 20 7 20 78 0 83 -4
93 -37 111 -34 17 -69 13 -99 -13z m96 -99 c0 -21 -36 -49 -57 -45 -10 2 -18
12 -18 23 0 18 15 26 68 34 4 0 7 -5 7 -12z"/>
<path d="M1856 22259 c-46 -36 -30 -71 48 -103 32 -14 37 -18 26 -31 -17 -20
-33 -19 -54 4 -19 21 -46 18 -46 -5 0 -40 103 -60 133 -26 34 38 14 79 -48 99
-38 12 -47 43 -13 43 13 0 29 -5 35 -11 15 -15 44 -4 37 14 -6 17 -47 37 -73
37 -10 0 -30 -9 -45 -21z"/>
<path d="M2572 22270 c-12 -5 -25 -17 -29 -26 -9 -23 18 -36 38 -18 19 17 41
18 57 2 19 -19 14 -25 -28 -32 -59 -9 -80 -25 -80 -62 0 -45 16 -53 98 -52
l72 0 0 75 c0 65 -3 77 -25 98 -25 26 -62 31 -103 15z m78 -114 c0 -8 -7 -22
-16 -30 -29 -30 -80 -12 -54 19 10 12 21 16 63 24 4 0 7 -5 7 -13z"/>
<path d="M2762 22268 c-28 -14 -39 -53 -21 -74 8 -9 33 -25 57 -35 37 -16 42
-22 32 -34 -17 -20 -33 -19 -54 4 -19 21 -46 18 -46 -5 0 -40 103 -60 133 -26
34 38 14 79 -48 99 -38 12 -47 43 -13 43 13 0 29 -5 35 -11 15 -15 44 -4 37
14 -6 17 -47 37 -72 36 -9 0 -27 -5 -40 -11z"/>
<path d="M3101 22266 c-87 -48 -54 -186 46 -186 37 0 83 22 83 39 0 14 -33 22
-44 11 -15 -15 -62 -12 -76 5 -20 24 -4 30 66 27 l64 -3 0 31 c0 67 -79 109
-139 76z m77 -38 c21 -21 13 -28 -33 -28 -25 0 -45 4 -45 8 0 15 24 32 45 32
12 0 26 -5 33 -12z"/>
<path d="M3277 22273 c-4 -3 -7 -48 -7 -100 0 -93 0 -93 25 -93 24 0 25 2 25
71 0 69 1 71 30 82 18 7 30 19 30 29 0 20 -13 23 -40 8 -13 -7 -21 -7 -25 0
-7 11 -28 13 -38 3z"/>
<path d="M11851 22244 c-28 -35 -26 -69 4 -99 49 -50 129 -20 129 48 0 49 -27
77 -75 77 -29 0 -42 -6 -58 -26z m91 -11 c22 -20 23 -51 1 -75 -20 -22 -41
-23 -65 -1 -22 20 -23 51 -1 75 20 22 41 23 65 1z"/>
<path d="M12020 22194 c0 -59 3 -74 15 -74 12 0 15 13 15 59 0 52 3 60 22 67
30 9 48 -19 48 -78 0 -26 5 -48 10 -48 6 0 10 24 10 54 0 59 16 82 50 71 17
-5 20 -15 20 -66 0 -46 3 -59 15 -59 24 0 21 112 -3 133 -21 19 -67 23 -77 7
-5 -8 -11 -8 -19 -1 -7 6 -33 10 -59 9 l-47 -1 0 -73z"/>
<path d="M12291 22244 c-12 -15 -21 -37 -21 -49 0 -12 9 -34 21 -49 23 -30 72
-35 105 -12 26 20 10 32 -21 16 -29 -16 -75 -1 -75 25 0 12 12 15 55 15 51 0
55 2 55 23 0 57 -82 78 -119 31z m89 -14 c10 -19 8 -20 -35 -20 -46 0 -54 7
-33 28 19 19 56 14 68 -8z"/>
<path d="M13421 22195 c30 -79 30 -100 -2 -110 -24 -8 -25 -25 -1 -25 28 0 47
27 86 123 27 69 32 88 19 85 -8 -2 -25 -28 -36 -58 l-21 -55 -24 58 c-38 88
-56 73 -21 -18z"/>
<path d="M13763 22263 c-7 -2 -13 -11 -13 -19 0 -17 5 -17 29 -2 22 13 51 5
51 -15 0 -9 -15 -17 -40 -21 -46 -7 -67 -34 -50 -66 9 -17 20 -20 65 -18 l55
2 0 54 c0 71 -12 92 -53 91 -18 0 -38 -3 -44 -6z m67 -86 c0 -18 -21 -37 -41
-37 -24 0 -33 18 -19 35 15 19 60 20 60 2z"/>
<path d="M13912 22258 c-28 -28 -9 -61 41 -73 35 -9 38 -45 4 -45 -13 0 -28 5
-35 12 -17 17 -28 2 -12 -17 16 -19 74 -20 90 0 19 23 7 49 -32 68 -21 10 -38
25 -38 33 0 17 24 18 50 2 24 -15 37 -4 20 17 -15 18 -71 20 -88 3z"/>
<path d="M14210 22255 c-19 -23 -7 -49 33 -68 20 -9 37 -22 37 -27 0 -17 -31
-24 -51 -12 -30 19 -44 14 -24 -8 21 -24 77 -27 95 -5 19 23 7 49 -32 68 -21
10 -38 25 -38 33 0 16 36 19 45 4 9 -15 25 -12 25 4 0 27 -69 36 -90 11z"/>
<path d="M15271 22244 c-12 -15 -21 -37 -21 -49 0 -38 37 -75 75 -75 47 0 79
29 79 73 0 49 -27 77 -75 77 -29 0 -42 -6 -58 -26z m91 -11 c22 -20 23 -51 1
-75 -20 -22 -41 -23 -65 -1 -22 20 -23 56 -2 77 20 21 43 20 66 -1z"/>
<path d="M15463 22263 c-7 -2 -13 -11 -13 -19 0 -17 5 -17 29 -2 22 14 51 4
51 -17 0 -10 -10 -15 -28 -15 -42 0 -64 -21 -60 -55 3 -29 4 -30 61 -31 l57
-1 0 62 c0 34 -5 66 -12 73 -12 12 -62 15 -85 5z m67 -86 c0 -18 -21 -37 -41
-37 -24 0 -33 18 -19 35 15 19 60 20 60 2z"/>
<path d="M15600 22194 c0 -58 3 -74 15 -74 10 0 15 15 17 58 3 48 7 59 26 67
33 15 27 24 -18 23 l-40 0 0 -74z"/>
<path d="M16840 22255 c-18 -21 -6 -29 19 -13 16 10 26 10 39 2 24 -16 18 -28
-17 -35 -38 -8 -61 -26 -61 -49 0 -28 23 -40 73 -38 l47 2 0 61 c0 34 -5 66
-12 73 -17 17 -73 15 -88 -3z m80 -71 c0 -20 -24 -44 -45 -44 -32 0 -43 20
-20 37 19 13 65 18 65 7z"/>
<path d="M17066 22251 c-26 -29 -24 -91 4 -113 27 -22 69 -23 96 -4 24 18 10
34 -16 18 -11 -7 -26 -12 -33 -12 -14 0 -47 31 -47 43 0 4 27 7 60 7 36 0 60
4 60 11 0 15 -21 53 -34 61 -22 15 -73 8 -90 -11z m82 -13 c21 -21 13 -28 -33
-28 -43 0 -45 1 -35 20 12 22 49 27 68 8z"/>
<path d="M17220 22194 c0 -59 3 -74 15 -74 11 0 15 13 15 54 0 60 19 88 48 69
12 -7 18 -27 20 -67 2 -41 7 -56 17 -56 21 0 20 98 0 128 -13 18 -25 21 -65
21 l-50 -2 0 -73z"/>
<path d="M17590 22255 c-18 -21 -6 -29 19 -13 16 10 26 10 39 2 24 -16 18 -28
-17 -35 -38 -8 -61 -26 -61 -49 0 -28 23 -40 73 -38 l47 2 0 61 c0 34 -5 66
-12 73 -17 17 -73 15 -88 -3z m80 -74 c0 -16 -31 -41 -50 -41 -28 0 -36 21
-15 37 21 15 65 18 65 4z"/>
<path d="M17730 22194 c0 -58 3 -74 15 -74 10 0 15 15 17 58 3 48 7 59 26 67
33 15 27 24 -18 23 l-40 0 0 -74z"/>
<path d="M18740 22248 c-43 -46 -8 -128 55 -128 18 0 38 7 45 15 16 19 5 34
-12 17 -25 -25 -78 -8 -78 25 0 9 17 13 55 13 46 0 55 3 55 18 0 58 -78 84
-120 40z m86 -15 c17 -17 16 -18 -25 -21 -50 -4 -59 1 -41 23 17 20 44 19 66
-2z"/>
<path d="M18900 22165 c0 -63 4 -105 10 -105 6 0 10 19 10 42 0 33 3 39 12 30
7 -7 27 -12 44 -12 37 0 74 38 74 75 0 37 -37 75 -74 75 -17 0 -37 -5 -44 -12
-9 -9 -12 -9 -12 0 0 7 -4 12 -10 12 -6 0 -10 -42 -10 -105z m104 69 c21 -20
20 -53 -1 -76 -20 -22 -41 -23 -65 -1 -22 20 -23 51 -1 75 20 22 46 23 67 2z"/>
<path d="M19100 22250 c-12 -12 -20 -33 -20 -55 0 -45 29 -75 73 -75 66 0 101
80 57 128 -27 29 -83 29 -110 2z m81 -10 c13 -7 19 -21 19 -45 0 -33 -20 -55
-49 -55 -16 0 -51 38 -51 55 0 17 35 55 51 55 6 0 19 -5 30 -10z"/>
<path d="M19270 22193 c0 -42 4 -73 10 -73 6 0 10 22 10 49 0 47 17 81 41 81
5 0 9 4 9 9 0 5 -16 9 -35 8 l-35 -1 0 -73z"/>
<path d="M19492 22261 c-25 -15 -9 -55 28 -73 19 -10 35 -24 35 -30 0 -20 -35
-22 -55 -3 -23 21 -36 3 -14 -19 20 -20 68 -21 88 0 9 8 16 18 16 22 -1 18
-22 38 -51 47 -18 6 -35 17 -37 23 -6 18 28 27 50 13 25 -15 35 -7 18 14 -14
16 -57 20 -78 6z"/>
<path d="M20440 22240 c0 -13 7 -20 20 -20 13 0 20 7 20 20 0 13 -7 20 -20 20
-13 0 -20 -7 -20 -20z"/>
<path d="M21392 22246 c-17 -22 -21 -56 -6 -56 9 0 14 12 15 33 0 30 1 31 11
10 6 -13 15 -23 19 -23 18 0 -4 -29 -26 -34 -12 -3 -25 -16 -29 -28 -5 -19 -8
-21 -16 -8 -6 9 -10 10 -10 3 0 -6 -3 -20 -7 -30 -7 -17 -6 -17 11 0 11 11 26
15 37 12 11 -4 19 -2 19 4 0 6 6 11 14 11 14 0 26 41 26 90 0 23 -4 28 -25 28
-13 0 -29 -6 -33 -12z"/>
<path d="M21036 22232 c-3 -5 8 -9 24 -9 16 0 27 4 24 9 -3 4 -14 8 -24 8 -10
0 -21 -4 -24 -8z"/>
<path d="M20740 22186 c0 -25 5 -46 10 -46 6 0 10 18 10 39 0 22 -4 43 -10 46
-6 4 -10 -12 -10 -39z"/>
<path d="M20820 22206 c0 -7 10 -16 23 -19 20 -5 20 -5 5 7 -10 7 -15 16 -11
19 3 4 1 7 -5 7 -7 0 -12 -6 -12 -14z"/>
<path d="M21144 22208 c4 -20 26 -21 26 -1 0 14 -2 15 -9 4 -6 -9 -10 -10 -14
-2 -4 8 -5 8 -3 -1z"/>
<path d="M21254 22160 c-17 -42 -47 -53 -72 -28 -14 14 -16 32 -2 23 6 -3 7 1
4 10 -4 9 -9 13 -12 11 -3 -3 -12 0 -20 7 -10 8 -16 8 -19 2 -2 -6 -20 -10
-41 -8 l-37 2 40 -8 c22 -5 43 -7 47 -5 4 2 10 -1 14 -7 4 -8 3 -9 -4 -5 -7 4
-12 1 -12 -6 0 -7 10 -18 23 -23 12 -6 21 -16 20 -23 -2 -7 2 -12 7 -12 6 0
10 -7 10 -15 0 -8 5 -16 10 -16 6 -1 15 -3 20 -4 6 -1 19 -3 30 -4 11 0 20 -8
20 -16 0 -8 5 -15 10 -15 6 0 10 9 10 20 0 11 -4 20 -9 20 -5 0 -11 10 -13 23
-2 12 -9 21 -16 20 -18 -4 -15 17 3 24 9 3 22 -2 30 -13 11 -16 16 -17 27 -6
11 11 10 12 -3 7 -11 -4 -18 1 -22 15 -3 12 -10 19 -16 16 -6 -4 -9 5 -6 24 5
41 -2 38 -21 -10z m-21 -57 c-7 -2 -19 -2 -25 0 -7 3 -2 5 12 5 14 0 19 -2 13
-5z"/>
<path d="M20771 22164 c0 -11 3 -14 6 -6 3 7 2 16 -1 19 -3 4 -6 -2 -5 -13z"/>
<path d="M20714 22135 c-11 -27 4 -47 27 -40 19 6 21 4 17 -17 -3 -17 0 -24
11 -24 11 0 16 10 16 32 0 18 -4 36 -8 40 -4 4 -7 2 -7 -5 0 -8 -7 -10 -21 -6
-16 5 -19 4 -14 -5 6 -9 4 -11 -4 -5 -7 4 -11 16 -8 26 6 23 -1 25 -9 4z"/>
<path d="M21003 22113 c-17 -6 -16 -20 0 -26 8 -3 14 3 14 14 1 10 1 19 0 18
-1 0 -8 -3 -14 -6z"/>
<path d="M21842 22055 c0 -16 2 -22 5 -12 2 9 2 23 0 30 -3 6 -5 -1 -5 -18z"/>
<path d="M21083 22053 c9 -2 25 -2 35 0 9 3 1 5 -18 5 -19 0 -27 -2 -17 -5z"/>
<path d="M20319 21992 c-3 -20 -2 -29 4 -23 5 5 7 19 5 32 -3 20 -5 19 -9 -9z"/>
<path d="M21836 21924 c-4 -9 -4 -19 -1 -22 3 -3 5 1 5 9 0 11 2 11 10 -1 8
-13 10 -13 10 2 0 23 -17 31 -24 12z"/>
<path d="M20457 21913 c-4 -3 -33 -6 -65 -6 -31 0 -51 -2 -44 -4 6 -3 12 -9
12 -15 0 -6 -11 -3 -25 6 -33 21 -43 20 -19 -2 24 -23 81 -52 88 -45 9 9 86
12 91 3 3 -5 -3 -7 -15 -5 -11 2 -22 0 -25 -5 -3 -5 9 -12 27 -15 49 -9 1219
-1 1248 9 14 4 31 8 38 8 17 2 15 6 -9 19 -12 6 -19 7 -15 1 8 -13 -33 -23
-52 -13 -8 4 -26 5 -40 2 l-27 -5 30 -6 c18 -4 3 -6 -40 -6 l-70 0 60 14 c33
8 63 21 68 28 5 9 15 10 29 5 24 -9 68 -3 68 9 0 21 -86 26 -94 5 -3 -10 -18
-15 -43 -14 l-38 1 39 12 c26 8 35 15 27 20 -6 4 -18 3 -25 -3 -20 -16 -1156
-20 -1156 -3 0 13 -13 16 -23 5z m406 -30 c-13 -2 -33 -2 -45 0 -13 2 -3 4 22
4 25 0 35 -2 23 -4z m480 0 c-13 -2 -33 -2 -45 0 -13 2 -3 4 22 4 25 0 35 -2
23 -4z m-566 -11 c7 -4 -47 -6 -120 -4 -184 4 -198 9 -32 10 77 1 145 -2 152
-6z m480 0 c6 -4 -74 -7 -177 -7 -103 0 -183 3 -177 7 7 4 86 8 177 8 91 0
170 -4 177 -8z m320 0 c6 -4 -38 -7 -97 -7 -59 0 -103 3 -97 7 7 4 50 8 97 8
47 0 90 -4 97 -8z m-669 -30 c13 -4 -18 -7 -68 -7 -50 0 -81 3 -68 7 13 3 43
6 68 6 25 0 55 -3 68 -6z m480 0 c13 -4 -18 -7 -68 -7 -50 0 -81 3 -68 7 13 3
43 6 68 6 25 0 55 -3 68 -6z"/>
<path d="M21780 21893 c0 -16 19 -37 27 -30 4 5 1 13 -7 18 -12 8 -10 10 8 6
12 -3 20 -1 16 4 -6 11 -44 12 -44 2z"/>
<path d="M8130 20229 c-33 -13 -68 -47 -87 -83 -20 -39 -20 -133 0 -172 21
-40 71 -82 105 -90 15 -3 35 -7 44 -9 33 -6 96 17 127 47 37 37 38 45 6 60
-22 10 -28 8 -48 -14 -49 -53 -139 -41 -172 23 -27 51 -16 125 24 161 43 38
107 39 141 3 27 -29 39 -31 66 -11 19 14 18 15 -6 41 -14 15 -37 33 -52 41
-31 16 -111 18 -148 3z"/>
<path d="M10320 20060 l0 -180 35 0 c35 0 35 0 35 44 0 44 24 81 38 60 4 -6
21 -32 37 -57 26 -40 35 -47 63 -47 17 0 32 2 32 5 0 3 -20 37 -45 76 -51 78
-52 71 14 142 l35 37 -39 0 c-33 0 -47 -7 -87 -47 l-48 -47 0 97 0 97 -35 0
-35 0 0 -180z"/>
<path d="M9123 20170 c-6 -16 -18 -30 -27 -30 -27 0 -21 -48 7 -52 20 -3 22
-9 25 -85 3 -75 5 -84 29 -103 14 -11 41 -20 59 -20 30 0 34 3 34 25 0 17 -5
25 -18 25 -32 0 -42 22 -42 92 l0 68 30 0 c25 0 30 4 30 25 0 21 -5 25 -30 25
-27 0 -30 3 -30 30 0 26 -4 30 -28 30 -22 0 -30 -7 -39 -30z"/>
<path d="M9660 20176 c0 -16 -7 -27 -20 -31 -13 -4 -20 -15 -20 -31 0 -17 5
-24 20 -24 18 0 20 -7 20 -64 0 -107 24 -145 93 -146 32 0 37 3 37 24 0 18 -7
25 -30 30 l-30 6 0 75 0 75 30 0 c25 0 30 4 30 25 0 21 -5 25 -30 25 -27 0
-30 3 -30 30 0 28 -3 30 -35 30 -30 0 -35 -3 -35 -24z"/>
<path d="M8630 20137 c-97 -34 -109 -196 -18 -243 56 -29 155 -11 171 30 10
25 -29 40 -55 21 -32 -22 -71 -19 -96 8 -12 13 -22 26 -22 30 0 4 43 7 95 7
l95 0 0 33 c-1 86 -85 143 -170 114z m94 -69 c15 -25 5 -29 -58 -26 l-57 3 17
23 c12 18 24 22 51 20 20 -2 41 -10 47 -20z"/>
<path d="M8913 20143 c-23 -5 -73 -46 -73 -61 0 -18 42 -21 66 -6 32 21 78 15
82 -12 3 -18 -5 -22 -60 -32 -72 -13 -98 -36 -98 -88 0 -23 7 -38 22 -48 27
-19 109 -21 127 -3 11 10 14 10 18 0 3 -7 18 -13 34 -13 l29 0 0 89 c0 101 -9
133 -42 154 -27 17 -74 26 -105 20z m56 -206 c-26 -21 -58 -19 -73 5 -14 24 3
39 51 47 33 6 38 4 41 -13 3 -12 -5 -28 -19 -39z"/>
<path d="M9354 20136 c-88 -39 -109 -160 -40 -225 47 -44 135 -44 182 0 l25
23 -27 14 c-22 12 -28 11 -43 -2 -22 -20 -60 -20 -89 0 -46 32 -28 43 71 46
l92 3 -2 34 c-3 65 -39 104 -104 115 -20 3 -47 0 -65 -8z m94 -64 c21 -27 14
-32 -48 -32 -33 0 -60 3 -60 8 0 15 16 31 40 40 29 11 50 6 68 -16z"/>
<path d="M9894 20139 c-16 -5 -41 -20 -53 -33 l-24 -25 27 -12 c22 -10 29 -9
44 4 23 21 65 22 82 2 18 -22 5 -32 -52 -40 -38 -5 -60 -15 -80 -35 -34 -34
-35 -60 -5 -95 17 -20 32 -26 63 -27 23 0 51 5 62 11 15 8 22 8 22 1 0 -5 14
-10 30 -10 l30 0 0 103 c0 118 -10 140 -68 157 -20 5 -39 10 -42 9 -3 0 -19
-5 -36 -10z m84 -160 c-7 -51 -98 -77 -98 -29 0 22 11 30 54 41 47 11 48 11
44 -12z"/>
<path d="M10134 20136 c-34 -15 -44 -33 -44 -76 0 -34 35 -65 84 -74 19 -4 40
-14 47 -22 11 -14 10 -18 -6 -30 -26 -20 -39 -18 -73 11 -24 20 -32 22 -46 12
-37 -27 19 -78 88 -79 77 -2 120 45 95 104 -9 21 -25 33 -70 49 -43 16 -59 27
-59 40 0 27 52 29 81 3 19 -17 51 -8 47 14 -4 21 -47 51 -83 57 -16 3 -44 -1
-61 -9z"/>
<path d="M8390 20010 l0 -130 30 0 30 0 0 85 c0 72 3 88 20 105 11 11 29 20
40 20 15 0 20 7 20 25 0 28 -25 34 -61 15 -13 -7 -19 -7 -19 0 0 5 -13 10 -30
10 l-30 0 0 -130z"/>
<path d="M8007 19233 c-15 -15 -5 -23 28 -23 l35 0 0 -105 c0 -87 3 -105 15
-105 12 0 15 18 15 105 l0 105 30 0 c20 0 30 5 30 15 0 12 -15 15 -73 15 -41
0 -77 -3 -80 -7z"/>
<path d="M8520 19120 c0 -100 3 -120 15 -120 10 0 15 10 15 29 0 16 6 34 14
40 12 10 20 5 42 -28 16 -25 34 -41 46 -41 18 0 15 6 -17 51 l-37 51 33 34
c28 29 30 34 14 34 -11 0 -36 -17 -57 -37 l-38 -37 0 72 c0 57 -3 72 -15 72
-12 0 -15 -20 -15 -120z"/>
<path d="M8214 19170 c-28 -11 -39 -29 -27 -41 6 -6 15 -4 23 6 16 19 44 19
61 -1 16 -19 -2 -34 -43 -34 -26 0 -68 -30 -68 -48 0 -4 7 -18 16 -30 17 -25
71 -31 92 -10 9 9 12 9 12 0 0 -7 7 -12 15 -12 23 0 21 131 -2 152 -25 22 -54
28 -79 18z m66 -102 c0 -18 -31 -48 -50 -48 -29 0 -43 25 -25 44 19 18 75 22
75 4z"/>
<path d="M8384 19170 c-49 -20 -32 -79 28 -96 18 -5 34 -17 36 -26 5 -25 -34
-33 -64 -13 -32 21 -43 12 -19 -15 22 -25 77 -27 100 -4 28 28 14 57 -37 82
-33 15 -46 27 -42 37 8 19 38 19 57 1 7 -8 19 -11 26 -7 10 6 9 12 -4 25 -9 9
-20 16 -25 16 -5 0 -14 2 -22 4 -7 3 -22 1 -34 -4z"/>
<path d="M8815 19170 c-11 -5 -30 -6 -42 -3 -22 5 -23 3 -23 -81 0 -70 3 -86
15 -86 12 0 15 13 15 59 0 41 5 65 16 75 39 39 74 2 74 -77 0 -44 3 -57 15
-57 12 0 15 13 15 58 0 87 -34 131 -85 112z"/>
<path d="M8984 19170 c-11 -4 -25 -14 -32 -23 -10 -12 -10 -16 2 -20 8 -3 20
1 26 9 15 17 42 18 58 2 20 -20 14 -27 -30 -34 -43 -7 -78 -33 -78 -58 0 -38
58 -58 101 -36 13 7 19 7 19 0 0 -5 7 -10 15 -10 19 0 21 103 2 139 -14 28
-52 42 -83 31z m66 -100 c0 -15 -38 -50 -54 -50 -7 0 -20 7 -27 16 -11 14 -10
18 6 30 22 16 75 19 75 4z"/>
<path d="M9180 19170 c-8 -5 -25 -7 -37 -3 -23 5 -23 3 -23 -81 0 -70 3 -86
15 -86 12 0 15 13 15 59 0 41 5 65 16 75 38 39 64 10 64 -71 0 -49 3 -63 15
-63 12 0 15 13 15 59 0 41 5 65 16 75 38 39 64 10 64 -71 0 -49 3 -63 15 -63
12 0 15 14 15 68 0 37 -4 72 -8 79 -15 23 -58 32 -85 18 -14 -7 -29 -9 -34 -5
-15 14 -48 20 -63 10z"/>
<path d="M9470 19173 c-59 -21 -79 -96 -39 -147 16 -20 29 -26 58 -26 41 0 78
21 67 38 -4 7 -15 6 -35 -6 -27 -15 -30 -15 -55 1 -47 31 -34 47 39 47 58 0
65 2 65 19 0 41 -63 87 -100 74z m54 -39 c26 -26 18 -34 -34 -34 -27 0 -50 4
-50 9 0 16 31 41 50 41 10 0 26 -7 34 -16z"/>
<path d="M9393 18160 c0 -69 1 -117 4 -107 4 15 6 16 26 2 35 -25 72 -19 102
17 22 26 26 39 21 67 -10 62 -62 85 -128 57 -14 -7 -17 0 -21 41 -2 26 -4 -8
-4 -77z m121 8 c35 -50 8 -108 -49 -108 -36 0 -50 12 -60 53 -5 18 -2 35 9 52
22 33 78 35 100 3z"/>
<path d="M10240 18234 c0 -40 -2 -45 -17 -39 -44 19 -74 17 -98 -5 -28 -26
-40 -67 -26 -84 6 -7 8 -15 5 -18 -9 -10 48 -48 72 -48 12 0 29 7 38 15 8 8
17 15 20 15 3 0 6 -7 6 -15 0 -8 5 -15 10 -15 6 0 10 47 10 120 0 73 -4 120
-10 120 -5 0 -10 -21 -10 -46z m-18 -61 c22 -20 23 -61 2 -91 -33 -47 -114
-17 -114 43 0 11 7 31 16 43 18 27 69 30 96 5z"/>
<path d="M8350 18155 l0 -115 75 0 c43 0 75 4 75 10 0 6 -28 10 -65 10 l-65 0
0 45 0 45 60 0 c33 0 60 4 60 10 0 6 -27 10 -60 10 l-60 0 0 45 0 44 68 4 67
3 -77 2 -78 2 0 -115z"/>
<path d="M8655 18185 c-49 -50 -17 -135 50 -135 19 0 37 5 40 10 14 22 32 10
27 -17 -8 -51 -66 -71 -104 -36 -10 9 -18 11 -18 6 0 -20 32 -37 68 -36 59 2
72 27 72 140 0 77 -3 93 -13 85 -8 -7 -18 -7 -27 -2 -27 18 -68 11 -95 -15z
m103 -13 c6 -9 12 -31 12 -49 0 -68 -88 -84 -115 -21 -16 40 -3 74 34 86 30
10 51 5 69 -16z"/>
<path d="M9015 18185 c-52 -51 -16 -145 55 -145 44 0 80 39 80 85 0 46 -36 85
-80 85 -19 0 -40 -9 -55 -25z m99 -11 c9 -8 16 -31 16 -49 0 -41 -22 -65 -58
-65 -35 0 -49 10 -61 43 -17 44 9 87 54 87 18 0 41 -7 49 -16z"/>
<path d="M9200 18125 c0 -50 4 -85 10 -85 6 0 10 28 10 63 0 70 10 87 51 87
36 0 43 -12 50 -90 l6 -65 1 71 c2 57 -2 74 -16 87 -21 19 -45 21 -73 7 -13
-7 -19 -7 -19 0 0 5 -4 10 -10 10 -6 0 -10 -35 -10 -85z"/>
<path d="M9624 18186 c-22 -18 -28 -32 -27 -61 1 -46 27 -74 74 -81 28 -5 39
-1 62 21 78 79 -26 193 -109 121z m108 -19 c13 -21 9 -70 -9 -89 -20 -22 -66
-24 -87 -2 -37 36 -27 97 17 113 24 9 67 -3 79 -22z"/>
<path d="M9832 18198 c-20 -20 -13 -27 14 -14 29 16 60 11 68 -11 9 -21 -2
-33 -29 -33 -35 0 -71 -16 -79 -36 -17 -45 31 -78 81 -55 21 10 28 9 34 -1 5
-7 9 20 9 64 0 66 -3 79 -19 88 -26 14 -64 13 -79 -2z m88 -87 c0 -18 -43 -61
-59 -61 -4 0 -16 6 -27 14 -33 25 5 61 69 65 10 1 17 -6 17 -18z"/>
<path d="M9990 18125 c0 -104 17 -113 22 -12 4 77 1 97 -13 97 -5 0 -9 -38 -9
-85z"/>
<path d="M10025 18200 c-4 -6 5 -10 19 -10 14 0 26 5 26 10 0 6 -9 10 -19 10
-11 0 -23 -4 -26 -10z"/>
<path d="M10372 18125 l1 -90 7 65 c3 36 9 71 13 77 11 18 45 21 66 6 18 -12
21 -25 21 -79 0 -36 4 -64 10 -64 6 0 10 28 10 65 0 89 -35 125 -92 94 -16 -9
-23 -8 -29 2 -5 8 -8 -23 -7 -76z"/>
<path d="M10572 18190 c-12 -12 -22 -26 -22 -33 1 -7 9 -2 19 10 28 33 65 39
90 14 34 -34 26 -41 -49 -41 l-70 0 6 -27 c8 -36 48 -73 78 -73 24 0 82 39 59
40 -6 0 -15 -4 -18 -10 -12 -20 -73 -11 -89 12 -9 12 -16 26 -16 30 0 5 32 8
70 8 54 0 70 3 70 14 0 8 -5 18 -10 21 -6 4 -8 10 -5 15 8 13 -36 40 -65 40
-15 0 -36 -9 -48 -20z"/>
<path d="M10730 18200 c0 -5 5 -10 11 -10 5 0 8 -4 5 -8 -7 -12 15 -82 27 -82
5 0 7 6 4 14 -3 8 -11 33 -17 55 -10 36 -30 57 -30 31z"/>
<path d="M10820 18146 c-16 -50 -25 -64 -37 -59 -12 5 -14 1 -8 -18 15 -48 26
-37 49 44 9 32 20 55 25 53 5 -3 16 -33 25 -66 9 -33 21 -60 26 -60 4 0 18 30
31 68 12 37 24 73 27 80 2 6 0 12 -4 12 -5 0 -18 -27 -28 -60 -11 -33 -22 -60
-26 -60 -3 0 -14 29 -25 65 -10 36 -22 65 -26 65 -4 0 -17 -29 -29 -64z"/>
<path d="M11062 18144 c-2 -57 2 -74 16 -87 22 -20 53 -22 70 -5 10 10 15 10
22 -2 7 -10 9 15 8 75 -2 78 -2 81 -5 25 -5 -74 -14 -90 -54 -90 -36 0 -43 12
-50 90 l-6 65 -1 -71z"/>
<path d="M11258 18199 c-10 -5 -18 -20 -18 -33 0 -23 17 -35 73 -56 31 -11 34
-22 11 -45 -18 -18 -52 -12 -72 14 -13 15 -13 14 -10 -4 8 -49 108 -41 108 9
0 27 -9 36 -55 51 -23 8 -30 16 -30 35 0 31 29 39 56 14 10 -9 22 -14 27 -10
10 11 -27 36 -52 36 -12 0 -29 -5 -38 -11z"/>
<path d="M11428 18189 c-58 -43 -22 -149 51 -149 16 0 37 7 46 16 22 23 13 27
-20 10 -39 -20 -85 -1 -85 35 0 17 8 19 65 19 57 0 65 2 65 19 0 10 -9 30 -21
45 -25 32 -63 34 -101 5z m80 -5 c40 -28 28 -44 -33 -44 -41 0 -55 4 -55 14 0
16 37 46 55 46 6 0 21 -7 33 -16z"/>
<path d="M11600 18125 c0 -104 17 -113 22 -12 4 77 1 97 -13 97 -5 0 -9 -38
-9 -85z"/>
<path d="M11635 18200 c-3 -5 3 -10 14 -10 12 0 21 5 21 10 0 6 -6 10 -14 10
-8 0 -18 -4 -21 -10z"/>
<path d="M11728 18199 c-10 -5 -18 -21 -18 -35 0 -20 9 -29 45 -44 76 -33 51
-85 -26 -54 l-34 14 24 -20 c28 -24 64 -26 85 -4 30 29 18 50 -46 83 -40 20
-45 36 -18 51 17 9 26 8 45 -4 33 -22 42 -20 20 4 -20 22 -50 25 -77 9z"/>
<path d="M8550 18055 c0 -8 5 -15 10 -15 6 0 10 7 10 15 0 8 -4 15 -10 15 -5
0 -10 -7 -10 -15z"/>
<path d="M8861 18054 c0 -11 3 -14 6 -6 3 7 2 16 -1 19 -3 4 -6 -2 -5 -13z"/>
<path d="M8030 16879 l0 -121 66 4 c60 4 70 7 95 36 23 26 29 42 29 80 0 80
-48 122 -140 122 l-50 0 0 -121z m135 66 c19 -18 25 -35 25 -65 0 -56 -34 -90
-90 -90 l-40 0 0 90 0 90 40 0 c30 0 47 -7 65 -25z"/>
<path d="M8930 16980 c0 -19 11 -26 23 -14 8 8 -3 34 -14 34 -5 0 -9 -9 -9
-20z"/>
<path d="M9340 16980 c0 -11 7 -20 15 -20 8 0 15 9 15 20 0 11 -7 20 -15 20
-8 0 -15 -9 -15 -20z"/>
<path d="M9230 16955 c0 -9 -7 -18 -15 -21 -8 -4 -15 -12 -15 -20 0 -8 7 -14
15 -14 11 0 15 -13 15 -54 0 -59 16 -86 51 -86 25 0 24 16 -1 30 -16 8 -20 21
-20 60 0 43 3 50 20 50 11 0 20 7 20 15 0 8 -9 15 -20 15 -13 0 -20 7 -20 20
0 11 -7 20 -15 20 -8 0 -15 -7 -15 -15z"/>
<path d="M8298 16924 c-29 -15 -52 -70 -42 -100 22 -61 100 -87 138 -45 22 25
2 40 -23 17 -23 -21 -44 -20 -64 2 -31 34 -21 42 49 42 l66 0 -7 28 c-13 55
-69 82 -117 56z m70 -26 c25 -25 13 -38 -33 -38 -30 0 -45 4 -45 13 0 19 21
37 45 37 12 0 26 -5 33 -12z"/>
<path d="M8489 16928 c-53 -18 -40 -72 22 -93 19 -7 35 -19 37 -28 5 -24 -35
-31 -64 -12 -32 21 -43 12 -19 -15 22 -25 77 -27 100 -4 28 28 14 57 -37 82
-33 15 -46 27 -42 37 8 19 38 19 57 1 7 -8 19 -11 26 -7 8 5 7 12 -6 23 -26
22 -45 26 -74 16z"/>
<path d="M8664 16926 c-35 -15 -60 -69 -48 -102 22 -62 100 -87 139 -44 22 24
12 39 -15 22 -27 -16 -65 -15 -80 3 -18 22 -15 62 5 85 22 24 43 25 66 4 20
-18 41 -11 33 11 -4 10 -59 38 -68 35 -1 -1 -15 -7 -32 -14z"/>
<path d="M9058 16925 c-16 -7 -28 -10 -28 -4 0 5 -7 9 -15 9 -12 0 -15 -19
-15 -115 0 -96 3 -115 15 -115 11 0 15 11 15 42 0 33 3 39 12 30 21 -21 82
-14 107 12 63 67 -12 183 -91 141z m60 -31 c15 -10 22 -25 22 -48 0 -39 -15
-56 -51 -56 -55 0 -78 61 -39 100 24 24 38 25 68 4z"/>
<path d="M9473 16933 c-32 -6 -63 -50 -63 -90 0 -75 98 -113 149 -59 59 63 0
165 -86 149z m59 -40 c20 -18 24 -73 6 -91 -17 -17 -64 -15 -82 4 -22 21 -20
60 4 84 24 24 47 25 72 3z"/>
<path d="M9680 16930 c-8 -5 -25 -7 -37 -3 -23 5 -23 3 -23 -81 0 -70 3 -86
15 -86 12 0 15 13 15 59 0 41 5 65 16 75 39 39 74 2 74 -77 0 -46 3 -57 16
-57 14 0 16 11 12 70 -4 72 -14 92 -53 104 -11 3 -27 1 -35 -4z"/>
<path d="M8810 16843 c0 -67 3 -83 15 -83 12 0 15 13 15 59 0 61 15 91 46 91
8 0 14 4 14 9 0 5 -20 9 -45 9 l-45 -1 0 -84z"/>
<path d="M8930 16844 c0 -57 4 -84 11 -82 6 2 10 7 10 11 -1 4 -1 41 -1 82 0
43 -4 75 -10 75 -6 0 -10 -35 -10 -86z"/>
<path d="M9340 16845 c0 -69 3 -85 15 -85 12 0 15 16 15 85 0 69 -3 85 -15 85
-12 0 -15 -16 -15 -85z"/>
<path d="M8690 15994 c0 -40 -2 -45 -17 -39 -62 26 -106 11 -124 -42 -22 -69
51 -136 112 -101 24 14 29 15 29 3 0 -8 5 -15 10 -15 6 0 10 47 10 120 0 73
-4 120 -10 120 -5 0 -10 -21 -10 -46z m-18 -61 c22 -20 23 -70 1 -95 -19 -21
-75 -24 -91 -5 -21 25 -25 66 -8 92 20 30 69 34 98 8z"/>
<path d="M8899 15988 c-1 -29 -1 -70 1 -91 2 -47 -21 -77 -61 -77 -37 0 -59
24 -59 64 0 58 40 84 95 61 18 -8 19 -7 6 8 -21 26 -70 21 -97 -9 -66 -70 16
-183 94 -128 20 14 22 14 22 0 0 -9 5 -16 10 -16 6 0 10 47 10 120 0 73 -4
120 -10 120 -5 0 -11 -24 -11 -52z"/>
<path d="M9170 15994 c0 -40 -2 -45 -17 -39 -44 19 -70 17 -98 -8 -39 -33 -39
-91 0 -124 31 -27 57 -29 90 -7 23 15 25 15 25 0 0 -9 5 -16 10 -16 6 0 10 47
10 120 0 73 -4 120 -10 120 -5 0 -10 -21 -10 -46z m-34 -49 c12 -8 23 -12 26
-10 2 3 5 -15 7 -38 2 -54 -22 -80 -70 -75 -66 6 -79 95 -19 125 31 16 31 16
56 -2z"/>
<path d="M9820 15920 c0 -68 2 -121 5 -118 8 7 9 228 1 235 -3 4 -6 -49 -6
-117z"/>
<path d="M10623 15920 c0 -91 2 -107 6 -60 7 78 14 90 50 90 41 0 51 -17 51
-87 0 -35 4 -63 10 -63 13 0 13 101 0 135 -5 14 -14 23 -20 20 -5 -3 -10 -1
-10 4 0 14 -47 14 -55 1 -14 -22 -24 -8 -28 38 -2 26 -3 -9 -4 -78z"/>
<path d="M11523 15920 c-1 -119 -1 -123 13 -85 7 22 14 41 14 43 0 1 6 2 14 2
8 0 29 -18 46 -40 45 -57 49 -43 5 18 -33 47 -34 51 -18 61 10 6 14 11 9 11
-5 0 -17 -6 -25 -14 -37 -34 -46 -25 -52 54 -5 64 -6 57 -6 -50z"/>
<path d="M8405 16013 c-4 -10 -20 -54 -35 -98 -15 -44 -31 -88 -35 -97 -4 -10
-3 -18 3 -18 6 0 15 14 21 30 9 29 13 30 66 30 53 0 57 -1 66 -30 6 -16 15
-30 21 -30 6 0 7 8 3 18 -11 27 -75 207 -75 210 0 11 -29 -2 -35 -15z m41 -55
c9 -29 19 -59 22 -65 3 -9 -9 -13 -42 -13 -25 0 -46 4 -46 10 0 12 40 120 45
120 2 0 11 -24 21 -52z"/>
<path d="M9460 15995 c0 -9 -7 -18 -15 -21 -8 -4 -15 -10 -15 -15 0 -5 7 -9
15 -9 12 0 15 -13 15 -59 0 -61 15 -91 46 -91 21 0 17 17 -6 23 -17 4 -20 14
-20 65 0 55 2 61 23 65 l22 4 -22 8 c-13 4 -23 16 -23 26 0 11 -4 19 -10 19
-5 0 -10 -7 -10 -15z"/>
<path d="M10131 15997 c0 -10 -8 -20 -16 -23 -8 -4 -15 -10 -15 -15 0 -5 7 -9
15 -9 12 0 15 -14 15 -63 0 -36 5 -68 12 -75 15 -15 48 -16 48 -2 0 6 -8 10
-19 10 -22 0 -31 26 -31 88 0 35 3 42 20 42 11 0 20 5 20 10 0 6 -9 10 -19 10
-12 0 -21 8 -24 23 -3 15 -5 17 -6 4z"/>
<path d="M10498 15976 c-22 -16 -23 -26 -3 -26 12 0 15 -14 15 -63 0 -36 5
-68 12 -75 15 -15 48 -16 48 -2 0 6 -8 10 -19 10 -21 0 -31 26 -31 83 0 31 4
40 20 44 26 7 26 23 -1 23 -11 0 -17 5 -14 10 9 14 -7 12 -27 -4z"/>
<path d="M11058 15976 c-22 -16 -23 -26 -3 -26 12 0 15 -14 15 -65 0 -53 3
-66 19 -75 25 -13 41 -13 41 0 0 6 -8 10 -19 10 -21 0 -31 26 -31 83 0 31 4
40 20 44 26 7 26 23 -1 23 -11 0 -17 5 -14 10 9 14 -7 12 -27 -4z"/>
<path d="M9261 15944 c-58 -73 20 -176 100 -134 10 6 19 16 19 22 0 7 -4 7
-12 1 -27 -21 -58 -21 -83 -1 -45 35 -29 52 43 49 55 -2 62 0 62 17 0 10 -10
31 -23 45 -31 37 -78 37 -106 1z m87 0 c40 -28 28 -44 -33 -44 -41 0 -55 4
-55 14 0 16 37 46 55 46 6 0 21 -7 33 -16z"/>
<path d="M9593 15960 c-13 -5 -23 -14 -23 -20 0 -15 11 -12 32 7 15 13 23 14
43 5 14 -6 25 -20 25 -30 0 -15 -9 -21 -40 -25 -50 -6 -70 -22 -70 -53 0 -37
43 -53 81 -32 24 14 29 15 29 3 0 -8 5 -15 10 -15 6 0 10 29 10 68 0 93 -29
119 -97 92z m77 -94 c0 -24 -32 -56 -57 -56 -6 0 -19 7 -27 16 -20 20 -6 51
26 57 51 10 58 8 58 -17z"/>
<path d="M9754 15885 c0 -49 1 -71 3 -48 2 23 2 64 0 90 -2 26 -3 8 -3 -42z"/>
<path d="M9905 15954 c-25 -26 -14 -47 38 -72 49 -23 59 -44 30 -61 -10 -5
-15 -12 -11 -16 3 -4 16 3 28 15 19 19 20 24 7 43 -7 11 -29 26 -48 32 -22 8
-35 19 -37 32 -4 29 32 39 63 19 14 -9 25 -12 25 -7 0 13 -34 31 -59 31 -11 0
-27 -7 -36 -16z"/>
<path d="M10246 15939 c-14 -17 -26 -41 -26 -54 0 -37 46 -85 82 -85 37 0 88
48 88 83 0 41 -46 87 -85 87 -25 0 -40 -8 -59 -31z m106 -6 c41 -37 10 -113
-46 -113 -37 0 -53 14 -65 57 -16 57 65 98 111 56z"/>
<path d="M10820 15950 c-75 -75 20 -198 101 -130 28 23 22 25 -16 6 -29 -15
-49 -12 -77 12 -35 30 -22 42 47 42 63 0 65 1 65 25 0 57 -79 86 -120 45z m97
-19 c21 -27 15 -31 -47 -31 -62 0 -69 5 -47 32 24 31 70 31 94 -1z"/>
<path d="M11198 15959 c-10 -5 -18 -14 -18 -20 0 -5 11 -2 25 7 21 14 31 15
50 6 24 -11 33 -36 17 -46 -5 -3 -24 -8 -43 -11 -19 -3 -42 -15 -52 -27 -15
-18 -16 -24 -4 -42 15 -22 67 -35 67 -16 0 6 -4 8 -10 5 -13 -8 -50 13 -50 29
0 20 20 33 63 41 32 6 37 5 37 -12 0 -10 -7 -28 -15 -41 -14 -20 -14 -21 0
-16 8 3 15 1 15 -5 0 -6 5 -11 11 -11 8 0 10 23 7 71 -3 55 -8 74 -23 85 -22
16 -53 18 -77 3z"/>
<path d="M11365 15954 c-25 -26 -14 -47 38 -72 50 -24 59 -45 28 -62 -23 -12
-66 1 -74 22 -4 9 -6 7 -6 -4 -2 -39 78 -52 103 -16 21 29 3 57 -45 73 -38 13
-48 35 -23 56 14 11 20 11 45 -3 16 -10 29 -13 29 -8 0 13 -34 30 -59 30 -11
0 -27 -7 -36 -16z"/>
<path d="M11615 15959 c-11 -17 1 -21 15 -4 8 9 8 15 2 15 -6 0 -14 -5 -17
-11z"/>
<path d="M9890 15836 c0 -17 35 -39 51 -34 6 2 -4 14 -20 26 -24 18 -31 19
-31 8z"/>
<path d="M8030 12879 l0 -121 66 4 c60 4 70 7 95 36 23 26 29 42 29 80 0 80
-48 122 -140 122 l-50 0 0 -121z m135 66 c19 -18 25 -35 25 -65 0 -56 -34 -90
-90 -90 l-40 0 0 90 0 90 40 0 c30 0 47 -7 65 -25z"/>
<path d="M8840 12959 c0 -37 -2 -40 -22 -33 -64 20 -113 -4 -124 -61 -7 -37
15 -89 41 -99 25 -9 64 -7 86 4 13 7 19 7 19 0 0 -5 7 -10 15 -10 13 0 15 20
15 120 0 100 -2 120 -15 120 -11 0 -15 -11 -15 -41z m-17 -80 c17 -24 18 -30
6 -55 -19 -39 -70 -46 -93 -12 -22 30 -20 54 5 79 26 26 57 21 82 -12z"/>
<path d="M9110 12955 c0 -9 -7 -18 -15 -21 -8 -4 -15 -12 -15 -20 0 -8 7 -14
15 -14 11 0 15 -13 15 -54 0 -59 16 -86 51 -86 25 0 25 26 -1 33 -17 4 -20 14
-20 56 0 44 3 51 20 51 11 0 20 7 20 15 0 8 -9 15 -20 15 -13 0 -20 7 -20 20
0 11 -7 20 -15 20 -8 0 -15 -7 -15 -15z"/>
<path d="M8494 12930 c-56 -22 -72 -103 -29 -145 29 -29 79 -33 114 -9 34 24
11 39 -26 17 -29 -16 -32 -16 -57 0 -47 31 -34 47 39 47 63 0 65 1 65 25 0 24
-31 65 -49 65 -5 0 -15 2 -23 4 -7 3 -23 1 -34 -4z m57 -30 c38 -21 23 -40
-31 -40 -54 0 -59 4 -33 32 18 20 36 23 64 8z"/>
<path d="M8954 12930 c-28 -11 -39 -29 -27 -41 6 -6 15 -4 23 6 16 19 44 19
61 -1 16 -19 -2 -34 -43 -34 -26 0 -68 -30 -68 -48 0 -4 7 -18 16 -30 17 -25
71 -31 92 -10 9 9 12 9 12 0 0 -7 7 -12 15 -12 23 0 21 131 -2 152 -25 22 -54
28 -79 18z m66 -103 c0 -21 -36 -49 -57 -45 -22 4 -30 37 -11 49 21 14 68 11
68 -4z"/>
<path d="M9264 12930 c-56 -22 -72 -103 -29 -145 29 -29 79 -33 114 -9 34 24
11 39 -26 17 -29 -16 -32 -16 -57 0 -47 31 -34 47 39 47 63 0 65 1 65 25 0 24
-31 65 -49 65 -5 0 -15 2 -23 4 -7 3 -23 1 -34 -4z m60 -36 c26 -26 18 -34
-34 -34 -54 0 -59 4 -33 32 20 22 46 23 67 2z"/>
<path d="M8260 12862 c0 -87 13 -101 88 -100 l52 1 0 84 c0 67 -3 83 -15 83
-12 0 -15 -13 -15 -57 0 -61 -6 -77 -30 -85 -36 -12 -50 10 -50 77 0 51 -3 65
-15 65 -12 0 -15 -14 -15 -68z"/>
<path d="M16985 12060 c-27 -27 -46 -53 -42 -57 4 -4 28 13 52 37 l45 44 45
-44 c24 -24 48 -41 52 -37 6 7 -84 107 -97 107 -3 0 -28 -22 -55 -50z"/>
<path d="M8376 12019 c-48 -38 -25 -84 57 -114 45 -16 48 -19 45 -49 -3 -28
-6 -31 -42 -34 -29 -3 -44 2 -62 19 -26 25 -39 23 -21 -2 45 -60 147 -45 147
21 0 33 -21 50 -83 70 -64 20 -61 90 4 90 16 0 38 -9 49 -20 15 -15 20 -16 20
-5 0 15 -48 45 -73 45 -8 0 -26 -9 -41 -21z"/>
<path d="M8750 11920 c0 -73 4 -120 10 -120 6 0 10 47 10 120 0 73 -4 120 -10
120 -6 0 -10 -47 -10 -120z"/>
<path d="M9770 11994 c0 -40 -2 -45 -17 -39 -71 31 -123 3 -123 -66 0 -29 7
-47 25 -64 28 -29 56 -32 90 -9 23 15 25 15 25 0 0 -9 5 -16 10 -16 6 0 10 47
10 120 0 73 -4 120 -10 120 -5 0 -10 -21 -10 -46z m-18 -61 c22 -20 23 -70 1
-95 -19 -21 -75 -24 -91 -5 -21 25 -25 66 -8 92 20 30 69 34 98 8z"/>
<path d="M9230 11995 c0 -9 -7 -18 -15 -21 -8 -4 -15 -10 -15 -15 0 -5 7 -9
15 -9 12 0 15 -13 15 -59 0 -61 15 -91 46 -91 22 0 16 17 -8 23 -21 6 -23 11
-20 67 3 43 8 60 18 60 8 0 14 5 14 10 0 6 -7 10 -15 10 -8 0 -15 9 -15 20 0
11 -4 20 -10 20 -5 0 -10 -7 -10 -15z"/>
<path d="M10040 11995 c0 -9 -7 -18 -15 -21 -8 -4 -15 -10 -15 -15 0 -5 7 -9
15 -9 12 0 15 -13 15 -59 0 -61 15 -91 46 -91 21 0 17 17 -6 23 -17 4 -20 14
-20 66 0 54 2 61 20 61 11 0 20 5 20 10 0 6 -9 10 -20 10 -13 0 -20 7 -20 20
0 11 -4 20 -10 20 -5 0 -10 -7 -10 -15z"/>
<path d="M8575 11945 c-73 -72 28 -190 106 -125 13 10 19 19 12 20 -6 0 -15
-4 -18 -10 -3 -5 -24 -10 -45 -10 -29 0 -42 5 -50 19 -19 36 -12 41 55 41 61
0 65 1 65 23 0 31 -40 67 -74 67 -15 0 -37 -10 -51 -25z m83 -1 c40 -28 28
-44 -33 -44 -41 0 -55 4 -55 14 0 16 37 46 55 46 6 0 21 -7 33 -16z"/>
<path d="M8845 11945 c-34 -33 -34 -84 1 -119 32 -31 69 -33 104 -6 30 24 20
26 -21 5 -30 -16 -63 -8 -81 19 -19 28 -7 36 57 36 61 0 65 1 65 23 0 31 -40
67 -74 67 -15 0 -37 -10 -51 -25z m83 -1 c40 -28 28 -44 -33 -44 -41 0 -55 4
-55 14 0 16 37 46 55 46 6 0 21 -7 33 -16z"/>
<path d="M9040 11945 c-13 -14 -20 -25 -16 -25 5 0 3 -6 -3 -14 -27 -33 24
-106 74 -106 23 0 80 39 58 40 -6 0 -15 -4 -18 -10 -9 -14 -71 -12 -83 3 -21
24 -25 66 -9 91 20 30 49 37 83 20 36 -19 40 -18 19 6 -26 29 -76 26 -105 -5z"/>
<path d="M9416 11955 c-28 -21 -13 -30 17 -10 30 19 67 6 67 -24 0 -14 -10
-20 -40 -24 -50 -6 -70 -22 -70 -53 0 -37 43 -53 81 -32 24 14 29 15 29 3 0
-8 5 -15 10 -15 6 0 10 29 10 68 0 54 -4 72 -18 85 -23 21 -60 21 -86 2z m84
-89 c0 -41 -56 -68 -84 -41 -20 21 -6 52 26 58 51 10 58 7 58 -17z"/>
<path d="M9873 11960 c-13 -5 -23 -14 -23 -20 0 -15 11 -12 32 7 15 13 23 14
43 5 14 -6 25 -20 25 -30 0 -15 -9 -21 -40 -25 -50 -6 -70 -22 -70 -53 0 -37
43 -53 81 -32 24 14 29 15 29 3 0 -8 5 -15 10 -15 6 0 10 29 10 68 0 93 -29
119 -97 92z m77 -94 c0 -24 -32 -56 -57 -56 -6 0 -19 7 -27 16 -20 20 -6 51
26 57 51 10 58 8 58 -17z"/>
<path d="M10168 11956 c-25 -19 -40 -64 -28 -85 5 -10 7 -21 4 -24 -9 -9 48
-47 71 -47 13 0 33 9 46 20 28 23 22 25 -15 6 -15 -8 -36 -11 -47 -9 -19 5
-49 39 -49 55 0 5 32 8 71 8 l71 0 -6 28 c-13 53 -77 80 -118 48z m82 -16 c32
-32 24 -40 -40 -40 -33 0 -60 4 -60 9 0 13 50 51 66 51 8 0 23 -9 34 -20z"/>
<path d="M16940 11832 c0 -4 23 -30 50 -57 l50 -50 52 52 c29 29 49 56 45 60
-4 3 -28 -13 -52 -37 l-45 -44 -43 42 c-42 41 -57 50 -57 34z"/>
<path d="M8472 10419 c-66 -33 -112 -108 -112 -183 0 -54 44 -132 91 -163 36
-24 53 -28 109 -28 88 0 136 30 175 110 24 47 27 64 22 108 -17 137 -162 217
-285 156z m155 -35 c108 -52 123 -197 27 -270 -31 -24 -47 -29 -94 -29 -47 0
-63 5 -94 29 -150 114 -9 350 161 270z"/>
<path d="M8525 10331 c-37 -16 -60 -51 -60 -93 0 -33 6 -45 33 -69 20 -18 43
-29 62 -29 19 0 42 11 62 29 27 24 33 36 33 70 0 67 -71 117 -130 92z"/>
<path d="M9140 10245 c0 -87 3 -105 15 -105 11 0 15 12 15 45 l0 45 55 0 55 0
0 -45 c0 -25 5 -45 10 -45 6 0 10 42 10 105 0 63 -4 105 -10 105 -5 0 -10 -20
-10 -45 l0 -45 -55 0 -55 0 0 45 c0 33 -4 45 -15 45 -12 0 -15 -18 -15 -105z"/>
<path d="M9347 10344 c-8 -8 1 -24 14 -24 5 0 9 7 9 15 0 15 -12 20 -23 9z"/>
<path d="M9600 10245 c0 -63 4 -105 10 -105 6 0 10 21 10 46 0 55 14 84 40 84
26 0 40 -29 40 -84 0 -25 5 -46 10 -46 6 0 10 28 10 64 0 75 -13 91 -65 83
-34 -6 -35 -5 -35 29 0 19 -4 34 -10 34 -6 0 -10 -42 -10 -105z"/>
<path d="M9350 10215 c0 -43 4 -75 10 -75 6 0 10 32 10 75 0 43 -4 75 -10 75
-6 0 -10 -32 -10 -75z"/>
<path d="M9430 10270 c-54 -54 5 -147 75 -120 21 8 25 7 25 -10 0 -31 -43 -47
-73 -27 -30 20 -43 10 -20 -15 25 -28 77 -24 102 8 17 22 21 41 21 104 l0 76
-55 2 c-43 1 -60 -3 -75 -18z m84 -16 c19 -18 21 -55 4 -72 -20 -20 -56 -14
-74 13 -15 23 -15 27 0 50 19 29 47 32 70 9z"/>
<path d="M9140 8885 c0 -85 3 -105 15 -105 11 0 15 18 17 77 l3 76 29 -41 c16
-23 32 -42 36 -42 4 0 20 19 36 42 l29 41 3 -76 c2 -59 6 -77 17 -77 12 0 15
20 15 105 0 124 -11 134 -62 55 -18 -27 -35 -50 -38 -50 -3 0 -20 23 -39 50
-52 77 -61 69 -61 -55z"/>
<path d="M9670 8957 c0 -32 -1 -32 -39 -29 -50 5 -81 -23 -81 -73 0 -54 27
-75 95 -73 l55 2 0 103 c0 85 -3 103 -15 103 -10 0 -15 -10 -15 -33z m-19 -57
c29 -16 26 -77 -5 -91 -49 -23 -92 30 -62 76 18 27 36 31 67 15z"/>
<path d="M9740 8975 c0 -8 5 -15 10 -15 6 0 10 7 10 15 0 8 -4 15 -10 15 -5 0
-10 -7 -10 -15z"/>
<path d="M9396 8911 c-26 -29 -24 -91 4 -113 27 -22 69 -23 96 -4 24 18 10 34
-16 18 -26 -16 -45 -15 -64 4 -27 27 -18 34 44 34 67 0 74 9 39 54 -25 32 -77
36 -103 7z m82 -13 c21 -21 13 -28 -33 -28 -43 0 -45 1 -35 20 12 22 49 27 68
8z"/>
<path d="M9740 8855 c0 -43 4 -75 10 -75 6 0 10 32 10 75 0 43 -4 75 -10 75
-6 0 -10 -32 -10 -75z"/>
<path d="M9800 8877 c0 -76 18 -97 80 -96 l50 2 0 73 c0 59 -3 74 -15 74 -11
0 -15 -13 -15 -54 0 -60 -19 -88 -48 -69 -12 7 -18 27 -20 67 -2 41 -7 56 -17
56 -11 0 -15 -13 -15 -53z"/>
<path d="M9970 8853 c0 -42 4 -73 10 -73 6 0 10 22 10 48 0 59 18 87 48 78 19
-7 22 -15 22 -67 0 -46 3 -59 15 -59 11 0 15 13 15 54 0 60 19 88 48 69 12 -7
18 -27 20 -67 2 -41 7 -56 17 -56 19 0 20 84 2 120 -13 27 -61 40 -80 21 -6
-6 -16 -7 -27 -1 -9 5 -36 8 -58 7 l-42 -1 0 -73z"/>
<path d="M9140 7525 l0 -105 60 0 c68 0 82 17 18 22 l-43 3 -3 93 c-2 73 -6
92 -17 92 -12 0 -15 -20 -15 -105z"/>
<path d="M9310 7552 c-16 -13 -22 -29 -22 -57 0 -48 28 -75 77 -75 38 0 75 37
75 75 0 12 -9 34 -21 49 -25 31 -75 35 -109 8z m84 -18 c21 -20 20 -53 -1 -76
-22 -24 -49 -23 -67 4 -20 29 -20 47 1 70 20 22 46 23 67 2z"/>
<path d="M9460 7564 c0 -26 46 -144 56 -144 7 0 21 25 31 56 l19 56 17 -56
c10 -31 23 -56 30 -56 7 0 24 34 39 76 24 66 25 75 11 72 -11 -2 -22 -21 -31
-52 -15 -53 -23 -51 -41 12 -13 47 -35 55 -45 17 -3 -13 -11 -37 -17 -52 l-11
-28 -17 49 c-10 28 -23 52 -29 54 -7 2 -12 0 -12 -4z"/>
<path d="M9140 6165 c0 -85 3 -105 15 -105 11 0 15 17 17 76 l3 76 53 -76 c29
-42 57 -76 63 -76 5 0 9 46 9 105 0 122 -18 144 -22 28 l-3 -78 -55 78 c-30
42 -60 77 -67 77 -10 0 -13 -26 -13 -105z"/>
<path d="M9361 6184 c-12 -15 -21 -37 -21 -49 0 -38 37 -75 75 -75 47 0 79 29
79 73 0 49 -27 77 -75 77 -29 0 -42 -6 -58 -26z m91 -11 c22 -20 23 -51 1 -75
-20 -22 -41 -23 -65 -1 -22 20 -23 56 -2 77 20 21 43 20 66 -1z"/>
<path d="M9530 6134 c0 -59 3 -74 15 -74 12 0 15 13 15 59 0 51 3 61 20 66 34
11 50 -12 50 -71 0 -43 3 -54 16 -54 14 0 16 9 11 60 -6 78 -17 90 -78 88
l-49 -1 0 -73z"/>
<path d="M9706 6188 c-22 -31 -20 -84 4 -108 24 -24 82 -27 100 -5 18 22 8 26
-27 13 -25 -9 -35 -9 -47 1 -32 27 -19 41 39 41 48 0 55 2 55 20 0 54 -93 83
-124 38z m82 -10 c21 -21 13 -28 -28 -28 -22 0 -40 4 -40 8 0 14 23 32 40 32
9 0 21 -5 28 -12z"/>
<path d="M8085 4908 c-2 -7 -20 -57 -40 -112 -40 -111 -40 -116 -21 -116 8 0
19 14 25 30 9 28 13 30 60 30 46 0 50 -2 60 -30 5 -17 17 -30 27 -30 10 0 14
5 11 14 -3 8 -23 62 -43 120 -30 82 -42 106 -56 106 -10 0 -21 -6 -23 -12z
m43 -85 c11 -29 17 -54 14 -57 -8 -8 -72 -7 -72 1 0 10 33 113 36 110 1 -1 11
-25 22 -54z"/>
<path d="M8570 4900 c0 -19 11 -26 23 -14 8 8 -3 34 -14 34 -5 0 -9 -9 -9 -20z"/>
<path d="M13045 4908 c-2 -7 -20 -57 -40 -112 -40 -111 -40 -116 -21 -116 8 0
19 14 25 30 9 28 13 30 60 30 46 0 50 -2 60 -30 5 -17 17 -30 27 -30 10 0 14
5 11 14 -3 8 -23 62 -43 120 -30 82 -42 106 -56 106 -10 0 -21 -6 -23 -12z
m43 -85 c11 -29 17 -54 14 -57 -8 -8 -72 -7 -72 1 0 10 33 113 36 110 1 -1 11
-25 22 -54z"/>
<path d="M13330 4874 c0 -36 -3 -44 -12 -36 -38 31 -104 13 -124 -34 -33 -79
43 -153 117 -114 13 7 19 7 19 0 0 -5 7 -10 15 -10 13 0 15 20 15 120 0 100
-2 120 -15 120 -11 0 -15 -12 -15 -46z m-20 -64 c24 -24 26 -57 3 -82 -18 -20
-63 -24 -81 -6 -21 21 -15 75 10 92 30 21 44 20 68 -4z"/>
<path d="M13540 4879 c0 -37 -2 -40 -22 -33 -90 31 -160 -75 -93 -141 26 -27
82 -34 103 -13 9 9 12 9 12 0 0 -7 7 -12 15 -12 13 0 15 20 15 120 0 100 -2
120 -15 120 -11 0 -15 -11 -15 -41z m-22 -65 c15 -10 22 -25 22 -48 0 -39 -19
-58 -57 -58 -50 0 -71 64 -33 102 24 24 38 25 68 4z"/>
<path d="M14380 4800 c0 -100 3 -120 15 -120 12 0 15 14 15 65 0 54 3 66 20
75 14 8 26 8 40 0 17 -9 20 -21 20 -75 0 -52 3 -65 15 -65 13 0 15 12 13 71
-3 64 -6 74 -29 91 -20 15 -30 17 -52 9 -27 -10 -27 -10 -27 29 0 29 -4 40
-15 40 -12 0 -15 -20 -15 -120z"/>
<path d="M15440 4900 c0 -11 7 -20 15 -20 8 0 15 9 15 20 0 11 -7 20 -15 20
-8 0 -15 -9 -15 -20z"/>
<path d="M14270 4876 c0 -8 -7 -16 -15 -20 -8 -3 -15 -12 -15 -21 0 -8 7 -15
15 -15 12 0 15 -13 15 -58 0 -63 11 -82 47 -82 28 0 30 20 3 27 -17 4 -20 14
-20 58 0 44 3 54 20 58 11 3 20 10 20 16 0 6 -9 11 -20 11 -13 0 -20 7 -20 20
0 11 -7 20 -15 20 -8 0 -15 -6 -15 -14z"/>
<path d="M8268 4846 c-26 -13 -36 -57 -16 -73 7 -6 27 -15 43 -20 20 -6 30
-16 30 -29 0 -24 -37 -31 -55 -9 -13 16 -40 21 -40 7 0 -20 39 -42 72 -42 72
0 79 63 11 95 -24 11 -43 25 -43 33 0 20 29 26 56 12 28 -15 42 -7 25 14 -16
19 -56 25 -83 12z"/>
<path d="M8430 4847 c-28 -14 -39 -58 -18 -74 7 -6 27 -15 43 -20 20 -6 30
-16 30 -29 0 -24 -37 -31 -55 -9 -13 16 -40 21 -40 7 0 -20 39 -42 72 -42 73
0 79 63 10 95 -26 12 -41 25 -40 35 5 21 36 24 58 5 22 -20 40 -1 19 20 -22
21 -52 25 -79 12z"/>
<path d="M8683 4845 c-85 -36 -53 -160 40 -157 16 0 35 6 43 13 20 16 19 -9
-2 -39 -17 -24 -53 -29 -84 -10 -29 18 -39 -1 -11 -23 31 -26 74 -24 107 4 25
22 27 28 28 120 1 72 -2 97 -11 97 -7 0 -13 -5 -13 -11 0 -8 -4 -8 -12 -2 -23
18 -55 21 -85 8z m80 -47 l21 -28 -21 -27 c-25 -35 -49 -40 -74 -17 -24 21
-25 61 -2 86 22 25 51 19 76 -14z"/>
<path d="M8915 4850 c-11 -5 -30 -6 -42 -3 -22 5 -23 3 -23 -81 0 -70 3 -86
15 -86 12 0 15 13 15 59 0 41 5 65 16 75 38 38 74 -1 74 -81 0 -40 4 -53 15
-53 12 0 15 13 15 58 0 87 -34 131 -85 112z"/>
<path d="M9095 4852 c-52 -10 -79 -77 -51 -130 8 -16 23 -32 31 -36 33 -12 82
-6 99 13 23 25 4 37 -26 17 -30 -21 -44 -20 -68 4 -30 30 -17 40 51 40 55 0
59 2 59 23 0 48 -43 79 -95 69z m53 -34 c25 -25 13 -38 -33 -38 -30 0 -45 4
-45 13 0 19 21 37 45 37 12 0 26 -5 33 -12z"/>
<path d="M9295 4852 c-61 -12 -86 -93 -44 -146 16 -20 29 -26 58 -26 41 0 78
21 67 38 -4 7 -15 6 -35 -6 -27 -15 -30 -15 -55 1 -47 31 -34 47 39 47 57 0
65 2 65 19 0 24 -34 67 -57 73 -10 2 -27 2 -38 0z m49 -38 c26 -26 18 -34 -34
-34 -27 0 -50 4 -50 9 0 16 31 41 50 41 10 0 26 -7 34 -16z"/>
<path d="M13711 4844 c-17 -7 -31 -18 -31 -24 0 -13 16 -13 41 1 24 12 59 3
59 -16 0 -8 -12 -17 -27 -20 -48 -10 -78 -30 -81 -53 -6 -39 14 -52 79 -50
l59 2 0 72 c0 45 -5 75 -12 81 -23 18 -55 21 -87 7z m69 -104 c0 -35 -65 -55
-77 -24 -8 21 21 44 54 44 16 0 23 -6 23 -20z"/>
<path d="M13926 4853 c-3 -3 -19 -6 -36 -5 l-30 1 0 -85 c0 -68 3 -84 15 -84
12 0 15 14 15 64 0 75 15 96 55 78 23 -11 25 -17 25 -77 0 -51 3 -65 15 -65
23 0 21 132 -2 152 -22 19 -49 29 -57 21z"/>
<path d="M14094 4850 c-56 -23 -72 -103 -29 -145 32 -33 84 -33 120 -2 70 60
-6 182 -91 147z m64 -36 c15 -10 22 -25 22 -48 0 -39 -15 -56 -51 -56 -55 0
-78 61 -39 100 24 24 38 25 68 4z"/>
<path d="M14620 4853 c-59 -21 -79 -96 -39 -147 16 -20 29 -26 58 -26 41 0 78
21 67 38 -4 7 -15 6 -35 -6 -27 -15 -30 -15 -55 1 -47 31 -34 47 39 47 58 0
65 2 65 19 0 41 -63 87 -100 74z m54 -39 c26 -26 18 -34 -34 -34 -27 0 -50 4
-50 9 0 16 31 41 50 41 10 0 26 -7 34 -16z"/>
<path d="M14974 4850 c-11 -4 -25 -14 -32 -23 -10 -12 -10 -16 3 -21 8 -3 15
-1 15 4 0 16 49 23 65 10 24 -20 18 -29 -27 -36 -43 -7 -78 -33 -78 -58 0 -38
58 -58 101 -36 13 7 19 7 19 0 0 -5 7 -10 15 -10 19 0 21 103 2 139 -14 28
-52 42 -83 31z m66 -100 c0 -15 -38 -50 -54 -50 -7 0 -20 7 -27 16 -11 14 -10
18 6 30 22 16 75 19 75 4z"/>
<path d="M15138 4846 c-14 -7 -24 -22 -26 -39 -3 -24 2 -30 42 -48 47 -20 59
-45 30 -56 -9 -3 -24 -1 -33 5 -43 31 -67 26 -36 -8 22 -24 86 -27 105 -6 22
28 8 60 -38 81 -26 12 -41 25 -40 35 5 21 36 24 58 5 12 -11 20 -13 25 -5 18
29 -47 56 -87 36z"/>
<path d="M15309 4848 c-32 -11 -44 -47 -23 -68 8 -8 29 -20 47 -26 18 -6 33
-18 35 -27 5 -23 -35 -31 -63 -13 -28 18 -35 20 -35 7 0 -20 33 -41 65 -41 37
0 65 21 65 50 0 21 -35 50 -61 50 -23 0 -40 23 -30 39 10 15 61 7 61 -9 0 -5
6 -7 14 -4 43 17 -30 57 -75 42z"/>
<path d="M15561 4849 c-34 -14 -50 -39 -51 -80 0 -38 29 -78 58 -80 31 -2 57
3 70 13 19 16 16 -27 -4 -46 -18 -19 -44 -20 -79 -4 -34 15 -45 1 -16 -23 30
-24 79 -24 111 1 23 17 25 26 28 119 3 87 2 101 -12 101 -9 0 -16 -4 -16 -9 0
-6 -12 -3 -27 5 -32 16 -30 16 -62 3z m69 -39 c11 -11 20 -29 20 -40 0 -22
-33 -60 -53 -60 -27 0 -57 31 -57 60 0 18 8 34 22 44 30 21 44 20 68 -4z"/>
<path d="M15782 4849 c-12 -5 -29 -6 -37 -3 -13 5 -15 -8 -15 -81 0 -58 4 -85
11 -83 6 2 11 29 12 59 3 79 34 111 71 73 11 -10 16 -34 16 -75 0 -46 3 -59
15 -59 12 0 15 14 15 63 0 88 -32 127 -88 106z"/>
<path d="M15954 4845 c-83 -35 -54 -165 36 -165 24 0 43 7 54 19 24 26 4 36
-29 15 -23 -15 -27 -15 -50 0 -46 30 -32 46 41 46 l66 0 -7 28 c-13 55 -60 80
-111 57z m64 -27 c25 -25 13 -38 -33 -38 -33 0 -45 4 -45 15 0 29 56 45 78 23z"/>
<path d="M16165 4852 c-53 -11 -79 -77 -51 -130 8 -16 23 -32 31 -36 33 -12
82 -6 99 13 23 25 4 37 -27 16 -27 -17 -70 -8 -80 18 -9 23 1 27 64 27 32 0
60 3 63 8 2 4 -2 21 -9 38 -14 33 -54 54 -90 46z m53 -34 c25 -25 13 -38 -33
-38 -30 0 -45 4 -45 13 0 19 21 37 45 37 12 0 26 -5 33 -12z"/>
<path d="M8570 4765 c0 -50 4 -85 10 -85 6 0 10 35 10 85 0 50 -4 85 -10 85
-6 0 -10 -35 -10 -85z"/>
<path d="M14760 4764 c0 -68 3 -84 15 -84 12 0 15 14 15 66 0 64 1 66 30 77
43 16 37 26 -15 25 l-45 -1 0 -83z"/>
<path d="M15440 4765 c0 -69 3 -85 15 -85 12 0 15 16 15 85 0 69 -3 85 -15 85
-12 0 -15 -16 -15 -85z"/>
<path d="M8376 3939 c-48 -38 -25 -84 57 -114 45 -16 48 -19 45 -49 -3 -28 -6
-31 -42 -34 -29 -3 -44 2 -62 19 -30 28 -41 20 -14 -9 43 -45 117 -39 134 11
13 37 -1 58 -51 77 -22 8 -48 21 -57 29 -20 17 -18 50 5 64 23 14 87 0 92 -21
4 -16 5 -16 6 0 1 17 -45 48 -72 48 -8 0 -26 -9 -41 -21z"/>
<path d="M9230 3840 c0 -73 4 -120 10 -120 6 0 10 28 10 64 0 71 12 89 56 84
22 -2 30 -10 37 -38 5 -19 7 -52 4 -72 -3 -21 -1 -38 4 -38 5 0 9 31 9 70 0
64 -2 71 -26 87 -21 13 -32 15 -55 6 l-29 -11 0 44 c0 24 -4 44 -10 44 -6 0
-10 -47 -10 -120z"/>
<path d="M10253 3840 c0 -69 1 -117 4 -107 6 21 17 22 33 2 20 -24 68 -18 95
11 53 57 13 152 -58 142 -18 -3 -40 -8 -49 -12 -14 -7 -17 0 -21 41 -2 26 -4
-8 -4 -77z m129 7 c13 -21 9 -70 -9 -89 -16 -18 -58 -24 -80 -10 -6 4 -17 20
-22 35 -13 33 8 83 36 89 22 5 65 -9 75 -25z"/>
<path d="M13336 3939 c-48 -38 -25 -84 57 -114 45 -16 48 -19 45 -49 -3 -28
-6 -31 -42 -34 -29 -3 -44 2 -62 19 -30 28 -41 20 -14 -9 43 -45 117 -39 134
11 13 37 -1 58 -51 77 -22 8 -48 21 -57 29 -20 17 -18 50 5 64 23 14 87 0 92
-21 4 -16 5 -16 6 0 1 17 -45 48 -72 48 -8 0 -26 -9 -41 -21z"/>
<path d="M14190 3840 c0 -73 4 -120 10 -120 6 0 10 28 10 64 0 71 12 89 56 84
22 -2 30 -10 37 -38 5 -19 7 -52 4 -72 -3 -21 -1 -38 4 -38 5 0 9 31 9 70 0
64 -2 71 -26 87 -21 13 -32 15 -55 6 l-29 -11 0 44 c0 24 -4 44 -10 44 -6 0
-10 -47 -10 -120z"/>
<path d="M15213 3840 c0 -69 1 -117 4 -107 6 21 17 22 33 2 20 -24 68 -18 95
11 53 57 13 152 -58 142 -18 -3 -40 -8 -49 -12 -14 -7 -17 0 -21 41 -2 26 -4
-8 -4 -77z m129 7 c13 -21 9 -70 -9 -89 -16 -18 -58 -24 -80 -10 -6 4 -17 20
-22 35 -13 33 8 83 36 89 22 5 65 -9 75 -25z"/>
<path d="M8580 3872 c-14 -11 -24 -33 -27 -58 -9 -76 71 -122 128 -74 13 10
19 19 12 20 -6 0 -15 -4 -18 -10 -3 -5 -23 -10 -44 -10 -30 0 -42 6 -54 24 -9
13 -13 26 -10 30 4 3 35 6 70 6 60 0 63 1 63 24 0 29 -42 66 -75 66 -13 0 -33
-8 -45 -18z m78 -8 c40 -28 28 -44 -33 -44 -59 0 -67 8 -35 40 24 24 38 25 68
4z"/>
<path d="M8772 3878 c-21 -21 -13 -29 12 -13 18 12 30 13 50 5 44 -16 30 -43
-27 -54 -51 -9 -73 -32 -62 -66 8 -26 49 -36 82 -21 21 10 28 9 34 -1 5 -7 9
20 9 65 0 74 -1 78 -26 87 -34 13 -57 13 -72 -2z m88 -83 c0 -20 -44 -65 -63
-65 -24 0 -42 29 -30 48 18 29 93 42 93 17z"/>
<path d="M8930 3805 c0 -104 18 -114 22 -12 3 66 5 72 26 75 12 2 22 8 22 13
0 13 -24 11 -38 -3 -9 -9 -12 -9 -12 0 0 7 -4 12 -10 12 -6 0 -10 -35 -10 -85z"/>
<path d="M9064 3867 c-22 -19 -27 -32 -26 -63 2 -70 72 -107 122 -64 13 11 18
20 12 20 -6 0 -14 -4 -17 -10 -8 -13 -51 -13 -75 0 -26 14 -35 65 -17 94 20
30 49 37 83 20 37 -19 43 -17 15 6 -31 26 -64 25 -97 -3z"/>
<path d="M9470 3805 c0 -50 4 -85 10 -85 6 0 10 28 10 63 0 67 10 87 45 87 35
0 45 -20 45 -87 0 -35 4 -63 10 -63 6 0 10 28 10 63 0 34 4 67 8 73 13 19 39
23 61 8 18 -13 21 -25 21 -80 0 -36 4 -64 10 -64 6 0 10 28 10 65 0 52 -4 69
-20 85 -24 24 -63 26 -80 5 -12 -14 -15 -14 -30 0 -20 18 -61 20 -78 3 -9 -9
-12 -9 -12 0 0 7 -4 12 -10 12 -6 0 -10 -35 -10 -85z"/>
<path d="M9782 3870 c-51 -47 -15 -150 52 -150 13 0 34 9 47 20 28 23 22 25
-15 6 -15 -8 -36 -11 -47 -9 -19 5 -49 39 -49 55 0 5 32 8 70 8 64 0 70 2 70
20 0 31 -44 70 -78 70 -15 0 -38 -9 -50 -20z m88 -10 c32 -32 24 -40 -41 -40
-63 0 -65 3 -31 43 20 23 47 22 72 -3z"/>
<path d="M9962 3805 c1 -89 1 -89 7 -25 7 79 14 90 51 90 38 0 50 -23 52 -97
l1 -58 6 65 c7 79 14 90 51 90 37 0 44 -11 51 -90 l6 -65 1 71 c2 57 -2 74
-16 87 -23 21 -51 22 -79 2 -18 -13 -22 -13 -33 0 -14 17 -48 19 -70 5 -9 -6
-17 -5 -22 3 -4 7 -7 -28 -6 -78z"/>
<path d="M10493 3878 c-43 -21 -50 -99 -13 -133 21 -19 80 -31 80 -17 0 5 -12
10 -27 10 -25 0 -63 32 -63 53 0 5 32 9 71 9 l71 0 -6 28 c-13 52 -62 75 -113
50z m77 -18 c32 -32 24 -40 -40 -40 -57 0 -60 1 -50 20 22 41 60 50 90 20z"/>
<path d="M10661 3804 l2 -89 7 65 c7 76 14 90 41 90 10 0 19 5 19 10 0 13 -27
13 -35 0 -5 -8 -11 -7 -21 1 -12 10 -14 -2 -13 -77z"/>
<path d="M10776 3868 c-19 -27 -6 -55 32 -64 53 -13 69 -44 31 -64 -16 -9 -26
-8 -44 4 -33 22 -42 20 -20 -4 10 -11 30 -20 45 -20 26 0 60 26 60 47 0 16
-32 41 -63 49 -33 8 -44 28 -27 49 16 19 44 19 60 0 7 -8 17 -15 23 -15 5 0 2
9 -8 20 -24 27 -70 26 -89 -2z"/>
<path d="M13540 3872 c-14 -11 -24 -33 -27 -58 -9 -76 71 -122 128 -74 13 10
19 19 12 20 -6 0 -15 -4 -18 -10 -3 -5 -23 -10 -44 -10 -30 0 -42 6 -54 24 -9
13 -13 26 -10 30 4 3 35 6 70 6 60 0 63 1 63 24 0 29 -42 66 -75 66 -13 0 -33
-8 -45 -18z m78 -8 c40 -28 28 -44 -33 -44 -59 0 -67 8 -35 40 24 24 38 25 68
4z"/>
<path d="M13732 3878 c-21 -21 -13 -29 12 -13 18 12 30 13 50 5 44 -16 30 -43
-27 -54 -51 -9 -73 -32 -62 -66 8 -26 49 -36 82 -21 21 10 28 9 34 -1 5 -7 9
20 9 65 0 74 -1 78 -26 87 -34 13 -57 13 -72 -2z m88 -83 c0 -20 -44 -65 -63
-65 -24 0 -42 29 -30 48 18 29 93 42 93 17z"/>
<path d="M13890 3805 c0 -104 18 -114 22 -12 3 66 5 72 26 75 12 2 22 8 22 13
0 13 -24 11 -38 -3 -9 -9 -12 -9 -12 0 0 7 -4 12 -10 12 -6 0 -10 -35 -10 -85z"/>
<path d="M14024 3867 c-22 -19 -27 -32 -26 -63 2 -70 72 -107 122 -64 13 11
18 20 12 20 -6 0 -14 -4 -17 -10 -8 -13 -51 -13 -75 0 -26 14 -35 65 -17 94
20 30 49 37 83 20 37 -19 43 -17 15 6 -31 26 -64 25 -97 -3z"/>
<path d="M14430 3805 c0 -50 4 -85 10 -85 6 0 10 28 10 63 0 67 10 87 45 87
35 0 45 -20 45 -87 0 -35 4 -63 10 -63 6 0 10 28 10 63 0 34 4 67 8 73 13 19
39 23 61 8 18 -13 21 -25 21 -80 0 -36 4 -64 10 -64 6 0 10 28 10 65 0 52 -4
69 -20 85 -24 24 -63 26 -80 5 -12 -14 -15 -14 -30 0 -20 18 -61 20 -78 3 -9
-9 -12 -9 -12 0 0 7 -4 12 -10 12 -6 0 -10 -35 -10 -85z"/>
<path d="M14742 3870 c-51 -47 -15 -150 52 -150 13 0 34 9 47 20 28 23 22 25
-15 6 -15 -8 -36 -11 -47 -9 -19 5 -49 39 -49 55 0 5 32 8 70 8 64 0 70 2 70
20 0 31 -44 70 -78 70 -15 0 -38 -9 -50 -20z m88 -10 c32 -32 24 -40 -41 -40
-63 0 -65 3 -31 43 20 23 47 22 72 -3z"/>
<path d="M14922 3805 c1 -89 1 -89 7 -25 7 79 14 90 51 90 38 0 50 -23 52 -97
l1 -58 6 65 c7 79 14 90 51 90 37 0 44 -11 51 -90 l6 -65 1 71 c2 57 -2 74
-16 87 -23 21 -51 22 -79 2 -18 -13 -22 -13 -33 0 -14 17 -48 19 -70 5 -9 -6
-17 -5 -22 3 -4 7 -7 -28 -6 -78z"/>
<path d="M15453 3878 c-43 -21 -50 -99 -13 -133 21 -19 80 -31 80 -17 0 5 -12
10 -27 10 -25 0 -63 32 -63 53 0 5 32 9 71 9 l71 0 -6 28 c-13 52 -62 75 -113
50z m77 -18 c32 -32 24 -40 -40 -40 -57 0 -60 1 -50 20 22 41 60 50 90 20z"/>
<path d="M15621 3804 l2 -89 7 65 c7 76 14 90 41 90 10 0 19 5 19 10 0 13 -27
13 -35 0 -5 -8 -11 -7 -21 1 -12 10 -14 -2 -13 -77z"/>
<path d="M15736 3868 c-19 -27 -6 -55 32 -64 53 -13 69 -44 31 -64 -16 -9 -26
-8 -44 4 -33 22 -42 20 -20 -4 10 -11 30 -20 45 -20 26 0 60 26 60 47 0 16
-32 41 -63 49 -33 8 -44 28 -27 49 16 19 44 19 60 0 7 -8 17 -15 23 -15 5 0 2
9 -8 20 -24 27 -70 26 -89 -2z"/>
<path d="M10575 3749 c-11 -17 1 -21 15 -4 8 9 8 15 2 15 -6 0 -14 -5 -17 -11z"/>
<path d="M15535 3749 c-11 -17 1 -21 15 -4 8 9 8 15 2 15 -6 0 -14 -5 -17 -11z"/>
<path d="M8078 2665 c-73 -41 -76 -160 -6 -209 35 -25 102 -21 135 9 23 20 25
26 13 34 -10 7 -18 4 -28 -10 -16 -24 -78 -26 -109 -4 -43 30 -38 131 8 155
30 16 71 11 96 -12 18 -17 26 -19 35 -10 10 10 8 17 -9 33 -27 28 -98 35 -135
14z"/>
<path d="M8470 2636 c0 -8 -7 -16 -15 -20 -8 -3 -15 -12 -15 -21 0 -8 7 -15
15 -15 12 0 15 -13 15 -58 0 -63 11 -82 47 -82 28 0 30 20 3 27 -17 4 -20 14
-20 58 0 44 3 54 20 58 11 3 20 10 20 16 0 6 -9 11 -20 11 -13 0 -20 7 -20 20
0 11 -7 20 -15 20 -8 0 -15 -6 -15 -14z"/>
<path d="M8314 2610 c-11 -4 -25 -14 -32 -23 -10 -12 -10 -16 3 -21 8 -3 15
-1 15 4 0 16 49 23 65 10 24 -20 18 -29 -22 -36 -70 -12 -96 -42 -73 -84 12
-23 77 -29 98 -8 9 9 12 9 12 0 0 -7 7 -12 15 -12 19 0 21 103 2 139 -14 28
-52 42 -83 31z m66 -100 c0 -15 -38 -50 -54 -50 -7 0 -20 7 -27 16 -11 14 -10
18 6 30 22 16 75 19 75 4z"/>
<path d="M8630 2613 c-59 -21 -79 -96 -39 -147 16 -20 29 -26 58 -26 41 0 78
21 67 38 -4 7 -15 6 -35 -6 -27 -15 -30 -15 -55 1 -47 31 -34 47 39 47 58 0
65 2 65 19 0 41 -63 87 -100 74z m54 -39 c26 -26 18 -34 -34 -34 -27 0 -50 4
-50 9 0 16 31 41 50 41 10 0 26 -7 34 -16z"/>
<path d="M8823 2612 c-13 -2 -32 -15 -43 -29 -54 -69 12 -157 98 -129 17 6 22
4 22 -11 0 -40 -49 -56 -90 -31 -29 18 -39 -1 -11 -23 30 -25 72 -24 105 2 25
20 26 24 26 121 0 97 -1 100 -21 95 -12 -3 -31 -2 -43 2 -11 4 -31 5 -43 3z
m59 -39 c36 -33 10 -103 -39 -103 -20 0 -53 38 -53 60 0 24 34 60 57 60 9 0
25 -7 35 -17z"/>
<path d="M9024 2606 c-35 -16 -59 -64 -50 -101 17 -69 104 -89 150 -34 14 17
26 39 26 50 0 36 -29 77 -61 88 -18 6 -32 11 -33 11 -1 -1 -15 -7 -32 -14z
m80 -49 c19 -26 19 -30 5 -55 -20 -37 -71 -42 -93 -10 -22 30 -20 54 5 79 26
26 57 21 83 -14z"/>
<path d="M9190 2524 c0 -68 3 -84 15 -84 12 0 15 14 15 65 0 60 2 66 25 77 37
16 31 27 -15 26 l-40 0 0 -84z"/>
<path d="M9316 2525 c37 -91 35 -125 -6 -125 -11 0 -20 -7 -20 -15 0 -20 33
-19 58 3 12 9 30 40 41 67 10 28 28 74 40 103 18 44 18 52 5 52 -8 0 -23 -20
-35 -47 -10 -27 -23 -57 -27 -67 -7 -16 -13 -7 -32 47 -17 48 -29 67 -41 67
-15 0 -13 -11 17 -85z"/>
<path d="M16985 1740 c-27 -27 -46 -53 -42 -57 4 -4 28 13 52 37 l45 44 45
-44 c24 -24 48 -41 52 -37 6 7 -84 107 -97 107 -3 0 -28 -22 -55 -50z"/>
<path d="M8376 1699 c-48 -38 -25 -84 57 -114 45 -16 48 -19 45 -49 -3 -28 -6
-31 -42 -34 -29 -3 -44 2 -62 19 -30 28 -41 20 -14 -9 43 -45 117 -39 134 11
13 37 -1 58 -51 77 -22 8 -48 21 -57 29 -20 17 -18 50 5 64 23 14 87 0 92 -21
4 -16 5 -16 6 0 1 17 -45 48 -72 48 -8 0 -26 -9 -41 -21z"/>
<path d="M8750 1600 c0 -73 4 -120 10 -120 6 0 10 47 10 120 0 73 -4 120 -10
120 -6 0 -10 -47 -10 -120z"/>
<path d="M9230 1675 c0 -9 -7 -18 -15 -21 -8 -4 -15 -10 -15 -15 0 -5 7 -9 15
-9 12 0 15 -13 15 -59 0 -61 15 -91 46 -91 21 0 17 17 -6 23 -17 4 -20 14 -20
66 0 48 3 61 15 61 8 0 15 5 15 10 0 6 -7 10 -15 10 -8 0 -15 9 -15 20 0 11
-4 20 -10 20 -5 0 -10 -7 -10 -15z"/>
<path d="M10016 1673 c-4 -13 -14 -23 -22 -23 -8 0 -14 -4 -14 -10 0 -5 9 -10
20 -10 18 0 20 -7 20 -63 0 -62 11 -87 37 -87 7 0 13 5 13 10 0 6 -6 10 -14
10 -19 0 -26 22 -26 81 0 42 3 49 20 49 11 0 20 5 20 10 0 6 -9 10 -19 10 -13
0 -21 8 -23 23 l-4 22 -8 -22z"/>
<path d="M8580 1632 c-14 -11 -24 -33 -27 -58 -9 -76 71 -122 128 -74 20 16
21 19 7 20 -10 0 -18 -4 -18 -10 0 -5 -17 -10 -39 -10 -30 0 -42 5 -54 24 -9
13 -13 26 -10 30 4 3 35 6 70 6 60 0 63 1 63 24 0 29 -42 66 -75 66 -13 0 -33
-8 -45 -18z m78 -8 c40 -28 28 -44 -33 -44 -59 0 -67 8 -35 40 24 24 38 25 68
4z"/>
<path d="M8845 1625 c-73 -72 24 -188 105 -125 30 23 23 26 -16 5 -16 -8 -39
-12 -54 -8 -31 7 -27 3 -35 36 l-7 27 66 0 c63 0 66 1 66 25 0 13 -10 33 -22
45 -30 27 -73 26 -103 -5z m83 -1 c40 -28 28 -44 -33 -44 -41 0 -55 4 -55 14
0 16 37 46 55 46 6 0 21 -7 33 -16z"/>
<path d="M9047 1636 c-23 -18 -40 -75 -27 -91 5 -7 7 -14 4 -17 -9 -10 48 -48
71 -48 23 0 80 39 58 40 -6 0 -15 -4 -18 -10 -3 -5 -21 -10 -40 -10 -55 0 -83
59 -50 107 19 28 48 34 81 17 37 -19 43 -17 15 6 -27 23 -68 25 -94 6z"/>
<path d="M9414 1636 c-28 -21 -10 -31 19 -11 30 19 67 6 67 -24 0 -14 -10 -20
-40 -24 -50 -6 -70 -22 -70 -53 0 -37 43 -53 81 -32 24 14 29 15 29 3 0 -8 5
-15 10 -15 6 0 10 29 10 68 0 54 -4 72 -18 85 -23 21 -62 22 -88 3z m86 -90
c0 -41 -56 -68 -84 -41 -20 21 -6 52 26 58 51 10 58 7 58 -17z"/>
<path d="M9652 1630 c-50 -47 -15 -150 51 -150 29 0 69 28 61 42 -4 7 -10 5
-16 -6 -6 -10 -22 -16 -43 -16 -55 0 -83 59 -50 107 19 28 48 34 81 17 37 -19
43 -17 15 6 -30 26 -71 25 -99 0z"/>
<path d="M9848 1639 c-10 -5 -18 -14 -18 -20 0 -5 11 -2 25 7 27 17 60 12 69
-12 9 -22 -1 -34 -29 -34 -32 0 -73 -19 -80 -38 -16 -43 33 -75 82 -53 21 10
28 9 34 -1 5 -7 9 20 9 64 0 66 -3 79 -19 88 -25 13 -51 12 -73 -1z m82 -84
c0 -19 -44 -65 -63 -65 -18 0 -37 21 -37 42 0 11 12 21 33 27 48 14 67 13 67
-4z"/>
<path d="M10135 1625 c-73 -72 28 -191 106 -125 13 10 19 19 12 20 -6 0 -15
-4 -18 -10 -10 -16 -72 -12 -89 6 -33 32 -20 44 49 44 62 0 65 1 65 24 0 30
-43 66 -77 66 -13 0 -35 -11 -48 -25z m83 -1 c40 -28 28 -44 -33 -44 -59 0
-67 8 -35 40 24 24 38 25 68 4z"/>
<path d="M10336 1629 c-20 -16 -26 -29 -26 -59 0 -30 6 -43 26 -59 32 -25 71
-27 96 -4 17 15 18 15 18 -15 0 -21 -8 -37 -26 -51 -26 -21 -46 -19 -76 7 -16
13 -18 13 -18 0 0 -9 13 -21 29 -26 32 -11 71 -6 71 10 0 5 4 7 9 3 19 -11 31
36 31 124 0 81 -10 114 -23 79 -4 -10 -7 -10 -18 0 -20 18 -63 15 -93 -9z m96
-16 c24 -21 23 -68 -2 -93 -24 -24 -48 -25 -77 -5 -27 19 -33 52 -16 88 11 21
21 27 45 27 17 0 40 -7 50 -17z"/>
<path d="M10546 1625 c-36 -33 -36 -83 0 -119 32 -32 72 -34 108 -5 21 16 26
29 26 64 0 35 -5 48 -26 64 -35 28 -75 26 -108 -4z m111 -21 c16 -25 12 -67
-9 -91 -15 -18 -73 -16 -92 3 -21 21 -20 77 2 96 37 32 74 29 99 -8z"/>
<path d="M10730 1565 c0 -50 4 -85 10 -85 6 0 10 28 10 63 0 65 11 87 42 87
10 0 18 5 18 10 0 14 -33 13 -48 -2 -9 -9 -12 -9 -12 0 0 7 -4 12 -10 12 -6 0
-10 -35 -10 -85z"/>
<path d="M10830 1643 c0 -4 14 -43 32 -87 33 -84 32 -102 -10 -121 -12 -5 -22
-13 -22 -17 0 -12 24 -9 43 5 20 15 112 230 95 225 -6 -2 -23 -34 -37 -71 -14
-37 -28 -67 -32 -67 -3 0 -16 29 -28 65 -21 58 -41 91 -41 68z"/>
<path d="M16940 1512 c0 -4 23 -30 50 -57 l50 -50 52 52 c29 29 49 56 45 60
-4 3 -28 -13 -52 -37 l-45 -44 -43 42 c-42 41 -57 50 -57 34z"/>
</g>
</svg>
