<?xml version="1.0" standalone="no"?>
<!DOCTYPE svg PUBLIC "-//W3C//DTD SVG 20010904//EN"
 "http://www.w3.org/TR/2001/REC-SVG-20010904/DTD/svg10.dtd">
<svg version="1.0" xmlns="http://www.w3.org/2000/svg"
 width="2560.000000pt" height="1600.000000pt" viewBox="0 0 2560.000000 1600.000000"
 preserveAspectRatio="xMidYMid meet">

<g transform="translate(0.000000,1600.000000) scale(0.100000,-0.100000)"
fill="#000000" stroke="none">
<path d="M1443 15655 c-8 -22 1 -28 37 -27 l30 1 0 -115 0 -114 25 0 25 0 0
109 c0 115 2 121 51 121 12 0 19 7 19 20 0 19 -7 20 -90 20 -72 0 -92 -3 -97
-15z"/>
<path d="M2010 15535 l0 -135 24 0 c21 0 25 5 28 37 4 50 22 52 53 4 19 -31
32 -41 51 -41 25 0 25 1 12 23 -8 12 -24 38 -36 58 l-21 35 29 35 c35 41 37
49 8 49 -12 0 -37 -18 -60 -42 l-38 -41 0 76 c0 75 -1 77 -25 77 l-25 0 0
-135z"/>
<path d="M2220 15535 l0 -135 25 0 c25 0 25 1 25 88 l1 87 27 -34 c63 -81 52
-79 100 -15 l42 58 0 -92 c0 -91 0 -92 25 -92 l25 0 0 135 0 135 -24 0 c-17 0
-34 -16 -65 -60 -23 -33 -46 -58 -49 -56 -4 2 -25 29 -47 60 -28 39 -47 56
-62 56 -23 0 -23 -2 -23 -135z"/>
<path d="M862 15600 l20 -60 -20 -60 -21 -60 119 0 119 0 -21 60 -20 60 20 60
21 60 -119 0 -119 0 21 -60z"/>
<path d="M2930 15620 c0 -11 -7 -20 -15 -20 -9 0 -15 -9 -15 -25 0 -16 6 -25
15 -25 11 0 15 -11 15 -39 0 -45 15 -92 33 -103 7 -4 24 -8 40 -8 35 0 39 37
5 42 -20 3 -23 10 -26 55 -3 47 -1 52 20 55 31 4 32 42 1 46 -15 2 -23 10 -23
23 0 14 -7 19 -25 19 -18 0 -25 -5 -25 -20z"/>
<path d="M1654 15576 c-27 -23 -28 -23 -7 -34 16 -9 24 -8 33 3 16 19 44 19
60 0 10 -12 10 -15 -1 -18 -82 -22 -104 -34 -113 -59 -8 -22 -6 -32 9 -48 20
-23 83 -28 103 -8 9 9 12 9 12 0 0 -7 9 -12 20 -12 18 0 20 7 20 78 0 83 -4
93 -37 111 -34 17 -69 13 -99 -13z m96 -99 c0 -21 -36 -49 -57 -45 -10 2 -18
12 -18 23 0 18 15 26 68 34 4 0 7 -5 7 -12z"/>
<path d="M1862 15588 c-28 -14 -39 -53 -21 -74 8 -9 33 -25 57 -35 37 -16 42
-22 32 -34 -17 -20 -33 -19 -54 4 -19 21 -46 18 -46 -5 0 -40 103 -60 133 -26
34 38 14 79 -48 99 -38 12 -47 43 -13 43 13 0 29 -5 35 -11 15 -15 44 -4 37
14 -6 17 -47 37 -72 36 -9 0 -27 -5 -40 -11z"/>
<path d="M2572 15590 c-28 -12 -40 -39 -21 -51 8 -5 20 -2 31 8 11 10 26 13
43 9 41 -10 30 -33 -19 -40 -56 -9 -78 -26 -78 -59 0 -47 16 -56 98 -55 l74 1
0 74 c0 65 -3 77 -25 98 -25 26 -62 31 -103 15z m78 -114 c0 -18 -27 -46 -44
-46 -8 0 -19 6 -25 14 -13 15 0 30 34 39 33 8 35 8 35 -7z"/>
<path d="M2762 15588 c-28 -14 -39 -53 -21 -74 8 -9 33 -25 57 -35 37 -16 42
-22 32 -34 -17 -20 -33 -19 -54 4 -19 21 -46 18 -46 -5 0 -40 103 -60 133 -26
34 38 14 79 -48 99 -38 12 -47 43 -13 43 13 0 29 -5 35 -11 15 -15 44 -4 37
14 -6 17 -47 37 -72 36 -9 0 -27 -5 -40 -11z"/>
<path d="M3101 15586 c-87 -48 -54 -186 46 -186 37 0 83 22 83 39 0 14 -33 22
-44 11 -22 -22 -86 -6 -86 22 0 4 32 8 70 8 l70 0 0 31 c0 66 -79 108 -139 75z
m77 -38 c21 -21 13 -28 -33 -28 -25 0 -45 4 -45 8 0 15 24 32 45 32 12 0 26
-5 33 -12z"/>
<path d="M3276 15592 c-3 -3 -6 -47 -6 -99 0 -93 0 -93 25 -93 24 0 25 2 25
71 0 69 1 71 30 82 18 7 30 19 30 29 0 20 -17 23 -40 9 -8 -6 -19 -7 -25 -3
-14 9 -33 11 -39 4z"/>
<path d="M8109 13577 c-46 -30 -73 -87 -64 -135 10 -54 58 -93 149 -122 88
-27 113 -51 97 -92 -23 -60 -130 -48 -179 18 -18 26 -21 27 -51 15 -39 -17
-39 -31 0 -76 45 -51 84 -68 154 -69 109 -1 170 55 162 148 -6 64 -39 95 -133
126 -94 30 -114 44 -114 79 0 38 24 56 77 56 38 0 49 -5 74 -33 28 -32 32 -33
64 -22 19 6 35 16 35 20 0 16 -62 80 -91 96 -45 23 -140 18 -180 -9z"/>
<path d="M8440 13555 l0 -45 40 0 40 0 0 45 0 45 -40 0 -40 0 0 -45z"/>
<path d="M10413 13580 c-25 -15 -36 -32 -45 -65 -11 -40 -15 -45 -40 -45 -26
0 -28 -3 -28 -40 0 -38 2 -40 30 -40 l30 0 0 -135 0 -135 45 0 45 0 0 135 0
135 35 0 c34 0 35 1 35 39 0 39 -1 40 -40 43 -39 3 -39 4 -27 28 9 18 22 26
45 28 29 3 32 6 32 38 0 33 -1 34 -42 34 -25 0 -57 -8 -75 -20z"/>
<path d="M14980 13523 c0 -33 -16 -53 -42 -53 -14 0 -18 -8 -18 -40 0 -38 2
-40 30 -40 l30 0 0 -85 c0 -137 32 -185 122 -185 l48 0 0 35 c0 32 -3 35 -29
35 -16 0 -34 7 -41 15 -16 19 -25 102 -16 149 6 32 10 35 44 38 35 3 37 5 37
38 0 33 -2 35 -37 38 -35 3 -37 5 -40 40 -3 36 -4 37 -45 40 -41 3 -43 2 -43
-25z"/>
<path d="M10705 13473 c-53 -9 -67 -16 -101 -45 -66 -58 -81 -136 -43 -215 25
-53 61 -79 127 -95 187 -43 298 210 142 323 -28 20 -94 37 -125 32z m64 -88
c58 -29 67 -128 16 -172 -63 -55 -155 -7 -155 79 0 86 67 131 139 93z"/>
<path d="M12830 13470 c-40 -7 -87 -35 -100 -61 -14 -25 -14 -25 20 -39 28
-11 33 -10 54 9 33 31 90 29 112 -4 9 -14 14 -28 12 -31 -3 -2 -34 -9 -69 -15
-118 -19 -168 -63 -155 -135 14 -69 96 -100 177 -66 39 16 49 17 49 6 0 -10
12 -14 40 -14 l40 0 0 131 c0 139 -8 171 -54 199 -29 18 -84 27 -126 20z m95
-222 c-14 -46 -46 -69 -90 -66 -37 3 -40 5 -40 33 0 25 5 32 35 42 19 7 50 12
68 12 30 1 33 -1 27 -21z"/>
<path d="M13202 13469 c-86 -16 -142 -85 -142 -176 1 -156 188 -239 298 -132
40 39 40 53 2 69 -27 11 -32 10 -61 -14 -40 -34 -88 -35 -122 -1 -46 47 -44
119 5 160 40 34 82 33 118 -4 29 -28 29 -28 66 -12 l37 16 -28 33 c-46 55
-100 74 -173 61z"/>
<path d="M13947 13469 c-138 -23 -190 -199 -88 -300 89 -89 236 -67 290 44 35
73 25 145 -27 200 -47 50 -104 68 -175 56z m104 -98 c24 -24 29 -38 29 -76 0
-125 -167 -145 -187 -23 -16 103 88 168 158 99z"/>
<path d="M8440 13295 l0 -175 40 0 40 0 0 175 0 175 -40 0 -40 0 0 -175z"/>
<path d="M8650 13451 c-107 -56 -104 -244 4 -295 43 -20 118 -21 158 0 l31 16
-6 -38 c-8 -51 -38 -74 -92 -74 -35 0 -48 5 -64 25 -19 25 -21 25 -55 11 -20
-8 -36 -19 -36 -25 0 -18 60 -70 96 -81 48 -16 129 -8 162 17 64 48 67 57 70
269 l3 194 -40 0 c-35 0 -41 -3 -41 -21 l0 -20 -26 20 c-35 27 -115 28 -164 2z
m163 -82 c28 -34 31 -65 10 -106 -50 -102 -199 -36 -163 73 7 19 24 41 38 49
35 20 92 12 115 -16z"/>
<path d="M8987 13463 c-4 -3 -7 -82 -7 -175 l0 -168 45 0 45 0 0 120 c0 107 2
122 20 140 27 27 66 25 95 -5 24 -23 25 -30 25 -140 l0 -115 40 0 40 0 0 130
c0 146 -10 179 -60 205 -43 22 -112 19 -144 -6 l-26 -20 0 20 c0 17 -6 21 -33
21 -19 0 -37 -3 -40 -7z"/>
<path d="M9440 13338 c0 -116 3 -137 20 -166 38 -63 125 -77 184 -31 l26 20 0
-20 c0 -18 6 -21 40 -21 l40 0 -2 173 -3 172 -42 3 -43 3 0 -120 c0 -108 -2
-123 -20 -141 -27 -27 -71 -26 -98 3 -20 21 -22 34 -22 140 l0 117 -40 0 -40
0 0 -132z"/>
<path d="M9810 13230 l0 -240 40 0 40 0 0 79 0 79 50 -21 c45 -19 55 -20 98
-8 90 24 136 90 130 187 -4 71 -23 104 -78 142 -40 27 -134 31 -166 7 -25 -19
-34 -19 -34 0 0 11 -11 15 -40 15 l-40 0 0 -240z m239 144 c76 -63 34 -184
-64 -184 -59 0 -104 66 -90 130 8 38 58 80 95 80 16 0 42 -11 59 -26z"/>
<path d="M10960 13295 l0 -175 40 0 40 0 0 113 c0 132 9 153 71 163 36 6 39 9
39 40 0 30 -3 34 -27 34 -16 0 -40 -6 -55 -14 -23 -12 -27 -12 -32 0 -3 8 -20
14 -41 14 l-35 0 0 -175z"/>
<path d="M11250 13463 c0 -4 30 -83 66 -175 43 -110 63 -175 59 -188 -10 -30
-50 -53 -81 -46 -24 6 -25 5 -22 -31 3 -37 4 -38 43 -41 51 -3 98 25 123 75
21 41 162 395 162 406 0 4 -18 7 -40 7 -46 0 -48 -3 -100 -149 -19 -52 -35
-90 -37 -85 -2 5 -23 59 -46 119 l-42 110 -43 3 c-23 2 -42 0 -42 -5z"/>
<path d="M11715 13454 c-68 -35 -95 -82 -95 -164 0 -59 17 -97 60 -134 64 -53
159 -56 229 -6 101 74 93 236 -14 297 -48 27 -135 31 -180 7z m134 -70 c31
-22 53 -77 45 -112 -31 -131 -215 -91 -190 42 13 68 92 106 145 70z"/>
<path d="M12027 13463 c-10 -10 -8 -202 3 -248 19 -82 105 -124 180 -87 31 15
40 16 40 6 0 -10 13 -14 40 -14 l40 0 0 175 0 175 -40 0 -40 0 0 -114 c0 -99
-3 -117 -21 -140 -25 -32 -70 -35 -99 -6 -18 18 -20 33 -20 140 l0 120 -38 0
c-21 0 -42 -3 -45 -7z"/>
<path d="M12397 13463 c-4 -3 -7 -82 -7 -175 l0 -168 45 0 45 0 0 113 c0 132
9 153 71 163 37 6 39 9 39 42 l0 35 -41 -6 c-22 -3 -49 -13 -60 -23 -18 -16
-19 -16 -19 4 0 18 -6 22 -33 22 -19 0 -37 -3 -40 -7z"/>
<path d="M13516 13447 c-25 -14 -48 -39 -63 -66 -75 -142 53 -303 208 -261 40
11 109 68 109 90 0 5 -16 14 -35 20 -33 11 -38 10 -62 -14 -60 -60 -153 -12
-153 79 0 38 5 52 29 76 39 38 80 39 123 0 31 -28 33 -28 65 -13 31 15 32 16
17 43 -34 66 -161 91 -238 46z"/>
<path d="M14210 13351 c0 -174 24 -222 117 -236 27 -4 49 -1 76 13 29 16 37
17 37 6 0 -10 12 -14 40 -14 l40 0 0 175 0 175 -40 0 -40 0 0 -114 c0 -99 -3
-117 -21 -140 -24 -31 -66 -35 -98 -8 -19 15 -21 29 -23 137 l-3 120 -42 3
-43 3 0 -120z"/>
<path d="M14580 13295 l0 -175 39 0 39 0 4 121 c4 112 6 123 27 140 30 24 63
24 92 0 22 -18 24 -27 27 -140 l4 -121 39 0 39 0 0 126 c0 141 -12 184 -61
209 -42 22 -111 19 -143 -6 l-26 -20 0 20 c0 18 -6 21 -40 21 l-40 0 0 -175z"/>
<path d="M16964 12096 c-41 -18 -102 -92 -110 -133 -22 -117 54 -218 172 -230
60 -6 144 21 125 40 -7 7 -15 6 -24 -1 -22 -18 -101 -26 -138 -13 -81 28 -130
112 -115 196 10 52 77 121 129 130 60 12 104 -2 151 -48 48 -46 66 -99 50
-146 -10 -29 -51 -41 -65 -19 -5 7 -9 39 -9 72 0 54 -1 58 -21 53 -12 -3 -32
-1 -46 4 -18 7 -34 5 -59 -7 -19 -9 -34 -17 -34 -18 0 0 -4 -15 -9 -32 -12
-43 11 -89 52 -103 25 -9 37 -8 67 8 32 17 38 17 46 4 15 -23 65 -19 86 7 20
25 24 84 7 127 -14 38 -67 92 -106 109 -40 17 -109 17 -149 0z m120 -132 c36
-35 7 -104 -42 -104 -54 0 -81 62 -45 102 20 22 66 24 87 2z"/>
<path d="M8350 11918 l0 -118 75 0 c43 0 75 4 75 10 0 6 -28 10 -65 10 l-65 0
0 45 0 45 60 0 c33 0 60 4 60 10 0 6 -27 10 -60 10 l-60 0 0 45 0 44 68 3 67
3 -78 5 -77 5 0 -117z"/>
<path d="M9090 11920 c0 -73 4 -120 10 -120 6 0 10 47 10 120 0 73 -4 120 -10
120 -6 0 -10 -47 -10 -120z"/>
<path d="M8540 11885 c0 -50 4 -85 10 -85 6 0 10 28 10 64 0 55 3 67 21 80 22
15 48 11 61 -8 4 -6 8 -39 8 -73 0 -35 4 -63 10 -63 6 0 10 28 10 64 0 71 12
89 57 84 28 -3 28 -4 31 -75 4 -93 22 -96 22 -5 0 54 -4 72 -18 85 -23 21 -51
22 -79 2 -18 -13 -22 -13 -33 0 -15 17 -43 19 -71 5 -13 -7 -19 -7 -19 0 0 5
-4 10 -10 10 -6 0 -10 -35 -10 -85z"/>
<path d="M8862 11958 c-20 -20 -13 -29 11 -14 25 17 63 11 71 -11 9 -23 0 -30
-48 -37 -52 -8 -71 -26 -62 -61 8 -30 47 -42 83 -26 21 10 28 9 34 -1 5 -8 9
17 9 59 0 52 -4 76 -16 87 -18 19 -65 21 -82 4z m83 -78 c9 -15 -20 -57 -45
-65 -27 -8 -52 12 -48 39 4 28 79 49 93 26z"/>
<path d="M9020 11885 c0 -49 3 -85 6 -82 7 7 6 159 -2 166 -2 2 -4 -35 -4 -84z"/>
<path d="M16999 10525 c-26 -14 -49 -59 -49 -96 0 -15 -8 -19 -33 -19 -18 0
-38 -5 -45 -12 -17 -17 -17 -229 0 -246 8 -8 60 -12 168 -12 108 0 160 4 168
12 15 15 16 211 2 239 -8 13 -21 19 -45 19 -21 0 -35 5 -35 13 0 41 -23 88
-50 102 -35 18 -47 18 -81 0z m79 -21 c16 -11 22 -25 22 -55 l0 -39 -60 0 -60
0 0 39 c0 41 25 71 60 71 9 0 26 -7 38 -16z m112 -229 l0 -105 -150 0 -150 0
0 105 0 105 150 0 150 0 0 -105z"/>
<path d="M8350 10318 c0 -72 4 -118 10 -118 6 0 10 23 10 50 l0 50 48 0 c57 0
82 20 82 67 0 43 -26 61 -93 65 l-57 3 0 -117z m112 90 c49 -39 18 -98 -52
-98 l-40 0 0 55 0 55 38 0 c21 0 45 -6 54 -12z"/>
<path d="M9760 10394 c0 -40 -2 -45 -17 -39 -48 21 -82 17 -108 -10 -33 -36
-33 -83 0 -119 27 -29 75 -35 95 -11 16 20 27 19 33 -2 3 -10 5 37 6 105 0 67
-1 122 -4 122 -3 0 -5 -21 -5 -46z m-12 -76 c13 -28 2 -75 -21 -90 -20 -13
-60 -9 -79 9 -23 20 -24 76 -2 98 26 26 86 16 102 -17z"/>
<path d="M8568 10359 c-10 -5 -18 -14 -18 -20 0 -5 11 -2 25 7 21 14 31 15 51
5 38 -17 27 -42 -25 -55 -56 -14 -77 -43 -55 -74 17 -24 44 -28 77 -11 16 9
22 9 25 0 2 -6 8 -11 13 -11 16 0 10 123 -7 148 -16 24 -56 29 -86 11z m82
-87 c0 -43 -52 -72 -86 -48 -33 25 5 61 69 65 10 1 17 -6 17 -17z"/>
<path d="M8736 10354 c-29 -28 -15 -52 48 -78 40 -17 47 -40 16 -56 -16 -8
-28 -8 -50 4 -35 17 -41 5 -6 -13 31 -17 66 -11 82 15 12 18 12 23 -3 41 -10
11 -31 24 -48 30 -19 6 -31 18 -33 30 -4 29 32 40 63 19 14 -9 25 -12 25 -7 0
13 -34 31 -59 31 -11 0 -27 -7 -35 -16z"/>
<path d="M8900 10356 c-20 -26 -8 -60 26 -71 41 -13 64 -33 57 -50 -8 -23 -42
-28 -68 -11 -34 22 -45 19 -16 -4 43 -36 106 -17 99 30 -2 19 -14 29 -48 41
-50 19 -62 42 -30 59 17 9 26 8 45 -4 33 -22 42 -20 20 4 -21 23 -67 26 -85 6z"/>
<path d="M9030 10364 c0 -17 55 -164 62 -164 4 0 15 27 25 61 10 33 22 60 27
60 5 0 18 -27 28 -60 10 -34 22 -61 26 -61 7 0 62 145 62 163 0 24 -20 -10
-36 -58 -9 -31 -20 -58 -25 -60 -7 -5 -39 89 -39 115 0 31 -26 -3 -45 -59 -24
-73 -35 -69 -55 17 -6 28 -16 52 -21 52 -5 0 -9 -3 -9 -6z"/>
<path d="M9316 10339 c-14 -17 -26 -41 -26 -54 0 -35 46 -85 80 -85 59 0 106
71 79 122 -31 58 -92 66 -133 17z m109 -12 c33 -47 5 -107 -49 -107 -54 0 -83
46 -59 93 24 48 79 55 108 14z"/>
<path d="M9512 10285 c1 -90 1 -90 7 -25 7 75 14 90 44 90 16 0 18 3 9 12 -8
8 -15 8 -25 0 -10 -9 -16 -9 -25 0 -9 9 -12 -9 -10 -77z"/>
<path d="M8065 9207 c-3 -7 -4 -87 -3 -177 l3 -165 175 0 175 0 0 175 0 175
-173 3 c-135 2 -174 0 -177 -11z m261 -118 c8 -14 -95 -119 -116 -119 -9 0
-27 11 -40 25 -18 19 -21 28 -12 37 9 9 16 7 32 -7 21 -19 21 -18 68 28 49 50
57 54 68 36z"/>
<path d="M8750 9040 c0 -73 4 -120 10 -120 6 0 10 47 10 120 0 73 -4 120 -10
120 -6 0 -10 -47 -10 -120z"/>
<path d="M10340 9040 c0 -73 4 -120 10 -120 6 0 10 25 10 56 0 66 13 94 43 94
37 0 47 -19 47 -87 0 -35 4 -63 10 -63 15 0 12 133 -3 155 -11 14 -22 17 -55
12 l-42 -5 0 39 c0 21 -4 39 -10 39 -6 0 -10 -47 -10 -120z"/>
<path d="M10752 9148 c3 -7 19 -14 36 -16 l32 -3 0 -105 c0 -63 4 -104 10
-104 6 0 10 42 10 105 0 93 2 105 18 106 40 3 45 5 49 17 4 9 -16 12 -77 12
-61 0 -81 -3 -78 -12z"/>
<path d="M11968 9149 c-10 -5 -18 -21 -18 -34 0 -18 -5 -25 -20 -25 -11 0 -20
-4 -20 -10 0 -5 9 -10 20 -10 18 0 20 -7 20 -75 0 -43 4 -75 10 -75 6 0 10 32
10 75 0 68 2 75 20 75 11 0 20 5 20 10 0 6 -9 10 -21 10 -27 0 -22 32 9 45 12
5 22 13 22 17 0 11 -32 9 -52 -3z"/>
<path d="M12131 9134 c-12 -15 -21 -33 -21 -41 0 -19 45 -63 64 -63 36 0 66
-23 66 -51 0 -45 -66 -55 -98 -14 -11 13 -22 21 -26 18 -11 -11 -7 -22 16 -43
47 -43 138 -14 138 44 0 28 -19 46 -73 66 -48 18 -67 42 -51 68 16 25 59 27
83 3 25 -25 31 -26 31 -7 0 22 -40 46 -76 46 -23 0 -39 -8 -53 -26z"/>
<path d="M12790 9140 c0 -11 5 -20 10 -20 6 0 10 9 10 20 0 11 -4 20 -10 20
-5 0 -10 -9 -10 -20z"/>
<path d="M13810 9113 c0 -37 -3 -44 -12 -35 -13 13 -66 16 -93 6 -25 -10 -47
-62 -40 -95 13 -58 74 -86 126 -59 13 7 19 7 19 0 0 -5 5 -10 10 -10 6 0 10
47 10 120 0 73 -4 120 -10 120 -5 0 -10 -21 -10 -47z m-16 -65 c22 -31 20 -64
-4 -88 -40 -40 -100 -13 -100 43 0 62 71 92 104 45z"/>
<path d="M13940 9040 c0 -100 3 -120 15 -120 11 0 15 12 15 44 l0 43 47 6 c79
9 109 72 58 122 -20 21 -34 25 -80 25 l-55 0 0 -120z m131 64 c13 -35 -15 -64
-62 -64 l-39 0 0 48 0 48 46 -6 c36 -4 49 -10 55 -26z"/>
<path d="M14250 9140 c0 -13 5 -20 13 -17 6 2 12 10 12 17 0 7 -6 15 -12 18
-8 2 -13 -5 -13 -18z"/>
<path d="M15090 9041 c0 -74 4 -121 10 -121 6 0 10 20 10 44 l0 43 51 5 c57 6
76 20 85 64 10 50 -20 77 -95 82 l-61 4 0 -121z m118 77 c7 -7 12 -21 12 -33
0 -32 -20 -45 -67 -45 l-43 0 0 45 0 45 43 0 c24 0 48 -5 55 -12z"/>
<path d="M15496 9118 c-3 -24 -4 -68 -2 -98 2 -30 5 -65 5 -77 1 -13 6 -23 11
-23 6 0 10 47 10 120 0 119 -13 162 -24 78z"/>
<path d="M15570 9140 c0 -11 5 -20 10 -20 6 0 10 9 10 20 0 11 -4 20 -10 20
-5 0 -10 -9 -10 -20z"/>
<path d="M9850 9115 c0 -9 -7 -18 -15 -21 -8 -4 -15 -10 -15 -15 0 -5 7 -9 15
-9 12 0 15 -14 15 -63 0 -36 5 -68 12 -75 15 -15 48 -16 48 -2 0 6 -6 10 -14
10 -19 0 -26 22 -26 81 0 42 3 49 20 49 11 0 20 5 20 10 0 6 -9 10 -20 10 -13
0 -20 7 -20 20 0 11 -4 20 -10 20 -5 0 -10 -7 -10 -15z"/>
<path d="M10230 9115 c0 -9 -7 -18 -15 -21 -8 -4 -15 -10 -15 -15 0 -5 7 -9
15 -9 12 0 15 -13 15 -56 0 -68 13 -94 45 -94 30 0 33 16 5 23 -17 4 -20 14
-20 66 0 48 3 61 15 61 8 0 15 5 15 10 0 6 -7 10 -15 10 -8 0 -15 9 -15 20 0
11 -7 20 -15 20 -8 0 -15 -7 -15 -15z"/>
<path d="M8900 9075 c-16 -20 -5 -32 14 -16 21 17 70 10 74 -11 2 -12 -5 -19
-25 -23 -70 -14 -102 -55 -73 -91 15 -17 71 -19 88 -2 9 9 12 9 12 0 0 -7 7
-12 15 -12 12 0 15 13 15 58 0 81 -15 106 -66 110 -28 2 -45 -2 -54 -13z m90
-84 c0 -42 -73 -72 -86 -36 -9 22 13 43 49 48 18 2 33 5 35 5 1 1 2 -7 2 -17z"/>
<path d="M9081 9064 c-31 -40 -28 -87 10 -118 35 -30 56 -32 87 -10 21 14 22
14 22 -10 0 -16 -9 -32 -25 -42 -22 -15 -29 -15 -53 -3 -15 7 -30 15 -34 17
-16 7 -7 -21 10 -34 36 -27 102 -10 121 33 6 13 11 62 11 108 0 69 -3 85 -15
85 -8 0 -15 -5 -15 -12 0 -9 -3 -9 -12 0 -7 7 -29 12 -49 12 -29 0 -43 -6 -58
-26z m101 -11 c22 -20 24 -66 2 -87 -23 -24 -70 -20 -88 6 -21 30 -20 54 4 78
24 24 57 26 82 3z"/>
<path d="M9279 9061 c-7 -128 -6 -141 7 -141 9 0 14 19 16 68 3 58 6 68 26 77
32 14 27 25 -13 23 -30 -1 -35 -5 -36 -27z"/>
<path d="M9401 9064 c-46 -59 -10 -144 62 -144 41 0 77 23 61 40 -8 8 -14 7
-24 -5 -17 -21 -56 -19 -80 5 -33 33 -24 40 50 40 62 0 70 2 70 19 0 10 -9 30
-21 45 -16 20 -29 26 -59 26 -30 0 -43 -6 -59 -26z m97 -6 c26 -26 13 -38 -38
-38 -34 0 -50 4 -50 13 0 21 22 37 50 37 14 0 31 -5 38 -12z"/>
<path d="M9612 9083 c-22 -9 -44 -63 -37 -92 10 -41 44 -71 81 -71 34 0 84 32
67 43 -6 4 -16 0 -23 -8 -17 -21 -63 -19 -83 3 -31 34 -21 42 48 42 63 0 65 1
65 25 0 49 -63 80 -118 58z m82 -29 c27 -26 18 -34 -39 -34 -30 0 -55 4 -55 9
0 18 31 41 55 41 13 0 31 -7 39 -16z"/>
<path d="M9977 9078 c-22 -18 -39 -66 -31 -92 26 -87 137 -88 168 -2 9 26 -11
84 -34 96 -26 14 -83 12 -103 -2z m95 -25 c37 -34 8 -113 -42 -113 -28 0 -60
35 -60 67 0 55 61 83 102 46z"/>
<path d="M10542 9067 c-31 -33 -30 -96 1 -125 30 -28 87 -29 111 -3 10 11 13
22 8 25 -5 3 -15 -1 -22 -9 -19 -23 -66 -19 -84 7 -9 12 -16 26 -16 30 0 5 32
8 71 8 l71 0 -7 28 c-10 42 -34 62 -75 62 -25 0 -43 -7 -58 -23z m98 -16 c15
-30 14 -31 -45 -31 -59 0 -64 4 -38 32 22 24 69 24 83 -1z"/>
<path d="M10931 9064 c-46 -59 -10 -144 62 -144 41 0 77 23 61 40 -8 8 -14 7
-24 -5 -17 -21 -56 -19 -80 5 -33 33 -24 40 50 40 62 0 70 2 70 19 0 10 -9 30
-21 45 -16 20 -29 26 -59 26 -30 0 -43 -6 -59 -26z m103 -16 c15 -24 5 -30
-53 -26 l-52 3 17 23 c19 27 71 27 88 0z"/>
<path d="M11110 9003 c0 -49 4 -83 10 -83 6 0 10 25 10 56 0 64 13 94 40 94
11 0 20 4 20 9 0 6 -18 9 -40 8 l-40 -1 0 -83z"/>
<path d="M11220 9003 c0 -49 4 -83 10 -83 6 0 10 25 10 56 0 66 13 94 43 94
37 0 47 -19 47 -87 0 -35 4 -63 10 -63 6 0 10 21 10 48 0 68 9 91 36 98 40 10
54 -11 54 -82 0 -36 4 -64 10 -64 17 0 12 136 -6 154 -18 18 -65 21 -81 5 -8
-8 -17 -8 -31 0 -11 6 -41 10 -66 9 l-46 -2 0 -83z"/>
<path d="M11522 9078 c-7 -7 -12 -23 -12 -36 0 -17 9 -27 38 -39 54 -22 65
-33 51 -49 -16 -19 -49 -18 -71 3 -25 22 -36 8 -13 -17 22 -24 77 -27 99 -4
30 30 18 53 -39 80 -42 20 -53 46 -21 52 10 2 29 -2 42 -9 30 -15 40 -7 19 15
-19 19 -76 21 -93 4z"/>
<path d="M11753 9075 c-44 -31 -35 -131 12 -149 66 -25 125 14 125 84 0 68
-79 105 -137 65z m97 -25 c56 -56 -23 -146 -82 -93 -10 9 -18 30 -18 46 0 60
59 88 100 47z"/>
<path d="M12331 9064 c-25 -31 -27 -64 -6 -103 16 -31 33 -41 74 -41 31 0 74
27 66 41 -4 5 -15 3 -28 -6 -28 -19 -61 -19 -81 1 -33 32 -20 44 49 44 61 0
65 1 65 23 0 62 -99 91 -139 41z m107 -21 c14 -23 14 -23 -42 -23 -39 0 -56 4
-56 13 0 41 72 48 98 10z"/>
<path d="M12519 9076 c-5 -66 0 -151 9 -154 7 -2 12 20 14 65 3 59 6 69 26 78
12 5 22 13 22 17 0 12 -70 6 -71 -6z"/>
<path d="M12634 9008 c19 -49 38 -83 46 -83 8 0 28 34 46 83 23 57 29 82 19
82 -7 0 -23 -27 -35 -60 -12 -33 -26 -62 -29 -64 -4 -3 -17 24 -30 60 -12 35
-29 64 -36 64 -9 0 -4 -24 19 -82z"/>
<path d="M12790 9005 c0 -50 4 -85 10 -85 6 0 10 35 10 85 0 50 -4 85 -10 85
-6 0 -10 -35 -10 -85z"/>
<path d="M12889 9080 c-23 -14 -42 -65 -35 -95 9 -36 45 -65 81 -65 38 0 81
28 66 43 -6 6 -15 4 -26 -7 -36 -35 -95 -5 -95 48 0 56 51 83 96 51 27 -18 39
-7 17 17 -17 20 -76 24 -104 8z"/>
<path d="M13072 9067 c-31 -33 -30 -96 1 -125 30 -28 87 -29 111 -3 10 11 13
22 8 25 -5 3 -15 -1 -22 -9 -19 -23 -66 -19 -84 7 -9 12 -16 26 -16 30 0 5 32
8 71 8 l71 0 -7 28 c-10 42 -34 62 -75 62 -25 0 -43 -7 -58 -23z m96 -9 c26
-26 13 -38 -43 -38 -59 0 -64 4 -38 32 18 20 63 24 81 6z"/>
<path d="M13324 9076 c-24 -18 -10 -34 16 -18 29 18 58 15 70 -8 9 -17 6 -20
-27 -26 -53 -9 -83 -30 -83 -58 0 -35 21 -46 83 -43 l57 2 0 66 c0 51 -4 70
-18 82 -23 21 -71 22 -98 3z m89 -94 c-11 -31 -25 -42 -53 -42 -29 0 -48 26
-31 43 11 11 72 26 83 20 4 -2 4 -11 1 -21z"/>
<path d="M13490 9003 c0 -49 4 -83 10 -83 6 0 10 25 10 56 0 66 13 94 43 94
37 0 47 -19 47 -87 0 -35 4 -63 10 -63 13 0 13 126 0 151 -9 16 -20 19 -65 17
l-55 -2 0 -83z"/>
<path d="M14146 9081 c-1 -3 -4 -41 -5 -83 -2 -64 1 -78 13 -78 12 0 16 16 18
68 3 58 6 68 26 77 12 5 22 13 22 17 0 9 -69 8 -74 -1z"/>
<path d="M14250 9005 c0 -69 3 -85 15 -85 12 0 15 16 15 85 0 69 -3 85 -15 85
-12 0 -15 -16 -15 -85z"/>
<path d="M14310 9083 c0 -4 14 -43 31 -85 30 -76 51 -96 62 -60 3 9 17 47 31
85 18 47 22 67 13 67 -7 0 -24 -29 -37 -65 -13 -36 -27 -61 -31 -57 -4 4 -16
32 -27 62 -17 47 -42 79 -42 53z"/>
<path d="M14504 9076 c-26 -19 -10 -33 20 -17 30 16 60 11 64 -11 2 -12 -5
-19 -25 -23 -48 -10 -78 -30 -81 -53 -6 -39 14 -52 79 -50 l59 2 0 66 c0 52
-4 71 -18 83 -23 21 -71 22 -98 3z m76 -122 c-17 -20 -66 -18 -74 3 -9 21 4
34 46 42 27 6 34 4 36 -12 2 -10 -2 -25 -8 -33z"/>
<path d="M14681 9064 c-12 -15 -21 -38 -21 -51 0 -31 25 -79 45 -87 43 -16
105 1 105 29 0 19 -14 19 -30 0 -17 -20 -53 -19 -73 3 -21 23 -22 76 -1 96 20
20 58 20 74 1 10 -12 16 -13 24 -5 17 17 -21 40 -65 40 -29 0 -42 -6 -58 -26z"/>
<path d="M14849 9068 c5 -13 18 -47 30 -76 30 -75 28 -101 -9 -115 -36 -14
-39 -27 -7 -27 34 0 50 22 96 134 47 112 45 106 28 106 -7 0 -24 -29 -36 -65
-13 -36 -26 -65 -30 -65 -4 0 -18 29 -31 65 -13 36 -30 65 -37 65 -9 0 -10 -6
-4 -22z"/>
<path d="M15301 9064 c-47 -60 -10 -144 64 -144 74 0 111 84 64 144 -16 21
-29 26 -64 26 -35 0 -48 -5 -64 -26z m103 -9 c41 -42 17 -110 -39 -110 -35 0
-70 43 -60 74 9 31 33 51 60 51 13 0 30 -7 39 -15z"/>
<path d="M15570 9005 c0 -50 4 -85 10 -85 6 0 10 35 10 85 0 50 -4 85 -10 85
-6 0 -10 -35 -10 -85z"/>
<path d="M15672 9083 c-22 -9 -44 -63 -37 -92 10 -40 44 -71 80 -71 38 0 81
28 66 43 -6 6 -15 4 -26 -7 -36 -35 -95 -5 -95 48 0 56 51 83 96 51 27 -18 39
-7 17 17 -15 17 -70 24 -101 11z"/>
<path d="M15846 9004 c33 -81 34 -88 19 -110 -8 -13 -22 -24 -30 -24 -8 0 -15
-4 -15 -10 0 -17 40 -11 57 10 21 24 96 210 88 218 -9 9 -20 -9 -45 -70 -12
-32 -26 -56 -30 -53 -4 2 -17 32 -29 65 -12 33 -28 60 -36 60 -10 0 -4 -23 21
-86z"/>
<path d="M16000 8935 c0 -8 7 -15 15 -15 8 0 15 7 15 15 0 8 -7 15 -15 15 -8
0 -15 -7 -15 -15z"/>
<path d="M8230 8310 c-29 -6 -31 -8 -10 -10 25 -2 25 -2 -4 -10 -18 -6 -35 -5
-45 2 -25 15 -77 -18 -60 -39 7 -7 9 -16 5 -20 -3 -4 -13 2 -21 13 -14 18 -15
17 -9 -11 5 -29 5 -29 -10 -11 -9 11 -16 15 -16 10 0 -20 25 -34 62 -34 39 0
42 5 39 55 -1 17 5 20 36 21 21 1 41 -4 45 -10 5 -8 8 -7 8 2 0 9 34 12 135
12 l135 0 0 -40 c0 -33 -3 -40 -20 -40 -13 0 -20 -7 -20 -20 0 -13 7 -20 20
-20 13 0 20 -7 20 -20 0 -11 5 -20 10 -20 6 0 10 9 10 20 0 11 5 20 10 20 6 0
10 18 10 40 0 22 -4 40 -10 40 -5 0 -10 9 -10 20 0 11 5 20 10 20 6 0 10 -9
10 -20 0 -11 5 -20 10 -20 6 0 10 5 10 10 0 6 14 10 30 10 17 0 30 5 30 10 0
6 67 10 180 10 l180 0 0 -40 c0 -33 -3 -40 -20 -40 -13 0 -20 -7 -20 -20 0
-13 7 -20 20 -20 13 0 20 -7 20 -20 0 -11 5 -20 10 -20 6 0 10 9 10 20 0 11 5
20 10 20 6 0 10 18 10 40 0 22 -4 40 -10 40 -5 0 -10 9 -10 20 0 11 5 20 10
20 6 0 10 -9 10 -20 0 -11 5 -20 10 -20 6 0 10 5 10 10 0 6 14 10 30 10 17 0
30 5 30 10 0 6 73 10 200 10 127 0 200 -4 200 -10 0 -5 18 -10 40 -10 22 0 40
5 40 10 0 6 73 10 200 10 127 0 200 -4 200 -10 0 -5 18 -10 40 -10 22 0 40 5
40 10 0 6 73 10 200 10 127 0 200 -4 200 -10 0 -5 18 -10 40 -10 22 0 40 5 40
10 0 6 73 10 200 10 127 0 200 -4 200 -10 0 -5 18 -10 40 -10 22 0 40 5 40 10
0 6 73 10 200 10 127 0 200 -4 200 -10 0 -5 18 -10 40 -10 22 0 40 5 40 10 0
6 73 10 200 10 127 0 200 -4 200 -10 0 -5 18 -10 40 -10 22 0 40 5 40 10 0 6
73 10 200 10 127 0 200 -4 200 -10 0 -5 18 -10 40 -10 22 0 40 5 40 10 0 6 73
10 200 10 127 0 200 -4 200 -10 0 -5 18 -10 40 -10 22 0 40 5 40 10 0 6 73 10
200 10 127 0 200 -4 200 -10 0 -5 18 -10 40 -10 22 0 40 5 40 10 0 6 73 10
200 10 127 0 200 -4 200 -10 0 -5 18 -10 40 -10 22 0 40 5 40 10 0 6 73 10
200 10 127 0 200 -4 200 -10 0 -5 18 -10 40 -10 22 0 40 5 40 10 0 6 73 10
200 10 127 0 200 -4 200 -10 0 -5 18 -10 40 -10 22 0 40 5 40 10 0 6 73 10
200 10 127 0 200 -4 200 -10 0 -5 18 -10 40 -10 22 0 40 5 40 10 0 6 73 10
200 10 127 0 200 -4 200 -10 0 -5 18 -10 40 -10 22 0 40 5 40 10 0 6 73 10
200 10 127 0 200 -4 200 -10 0 -5 18 -10 40 -10 22 0 40 5 40 10 0 6 73 10
200 10 127 0 200 -4 200 -10 0 -5 18 -10 40 -10 22 0 40 5 40 10 0 6 73 10
200 10 127 0 200 -4 200 -10 0 -5 18 -10 40 -10 22 0 40 5 40 10 0 6 16 10 36
10 19 0 33 -4 30 -9 -9 -14 24 -22 42 -11 14 8 13 10 -8 11 -17 1 -20 3 -7 6
9 2 14 9 11 15 -6 9 12 6 52 -9 7 -2 15 0 19 6 6 11 -4 13 -67 15 -16 0 -28 4
-28 8 0 10 -9083 8 -9130 -2z m57 -6 c-3 -3 -12 -4 -19 -1 -8 3 -5 6 6 6 11 1
17 -2 13 -5z m-143 -49 c-4 -8 -8 -15 -10 -15 -2 0 -4 7 -4 15 0 8 4 15 10 15
5 0 7 -7 4 -15z"/>
<path d="M17487 8263 c-4 -3 -7 -19 -7 -35 0 -30 23 -39 34 -13 3 9 0 15 -10
15 -11 0 -15 6 -11 20 5 21 4 24 -6 13z"/>
<path d="M8360 8220 c0 -13 -7 -20 -20 -20 -13 0 -20 -7 -20 -20 0 -13 -7 -20
-20 -20 -16 0 -20 -7 -20 -30 0 -23 4 -30 20 -30 16 0 20 7 20 30 0 23 4 30
20 30 13 0 20 -7 20 -20 0 -11 5 -20 10 -20 6 0 10 9 10 20 0 11 5 20 10 20 6
0 10 9 10 20 0 11 -4 20 -10 20 -5 0 -10 9 -10 20 0 11 -4 20 -10 20 -5 0 -10
-9 -10 -20z"/>
<path d="M8840 8220 c0 -13 -7 -20 -20 -20 -13 0 -20 -7 -20 -20 0 -13 7 -20
20 -20 13 0 20 -7 20 -20 0 -11 5 -20 10 -20 6 0 10 9 10 20 0 11 5 20 10 20
6 0 10 9 10 20 0 11 -4 20 -10 20 -5 0 -10 9 -10 20 0 11 -4 20 -10 20 -5 0
-10 -9 -10 -20z"/>
<path d="M17522 8213 c-1 -16 1 -23 6 -16 4 7 12 9 17 5 16 -11 36 -62 25 -62
-6 0 -10 -10 -9 -22 0 -16 2 -18 6 -8 3 8 10 18 16 21 10 7 -32 100 -49 106
-5 2 -11 -9 -12 -24z"/>
<path d="M8031 8178 c-8 -18 -15 -49 -16 -68 -2 -19 -1 -25 2 -12 2 12 8 22
13 22 5 0 10 -10 13 -22 4 -25 11 -15 21 35 4 15 11 25 15 22 13 -7 0 39 -13
47 -18 12 -21 10 -35 -24z"/>
<path d="M9200 8180 c0 -17 7 -20 40 -20 33 0 40 3 40 20 0 17 -7 20 -40 20
-33 0 -40 -3 -40 -20z"/>
<path d="M9360 8180 c0 -17 7 -20 40 -20 33 0 40 3 40 20 0 17 -7 20 -40 20
-33 0 -40 -3 -40 -20z"/>
<path d="M9680 8180 c0 -17 7 -20 40 -20 33 0 40 3 40 20 0 17 -7 20 -40 20
-33 0 -40 -3 -40 -20z"/>
<path d="M9840 8180 c0 -17 7 -20 40 -20 33 0 40 3 40 20 0 17 -7 20 -40 20
-33 0 -40 -3 -40 -20z"/>
<path d="M10160 8180 c0 -17 7 -20 40 -20 33 0 40 3 40 20 0 17 -7 20 -40 20
-33 0 -40 -3 -40 -20z"/>
<path d="M10320 8180 c0 -17 7 -20 40 -20 33 0 40 3 40 20 0 17 -7 20 -40 20
-33 0 -40 -3 -40 -20z"/>
<path d="M10640 8180 c0 -17 7 -20 40 -20 33 0 40 3 40 20 0 17 -7 20 -40 20
-33 0 -40 -3 -40 -20z"/>
<path d="M10800 8180 c0 -17 7 -20 40 -20 33 0 40 3 40 20 0 17 -7 20 -40 20
-33 0 -40 -3 -40 -20z"/>
<path d="M11120 8180 c0 -17 7 -20 40 -20 33 0 40 3 40 20 0 17 -7 20 -40 20
-33 0 -40 -3 -40 -20z"/>
<path d="M11280 8180 c0 -17 7 -20 40 -20 33 0 40 3 40 20 0 17 -7 20 -40 20
-33 0 -40 -3 -40 -20z"/>
<path d="M11600 8180 c0 -17 7 -20 40 -20 33 0 40 3 40 20 0 17 -7 20 -40 20
-33 0 -40 -3 -40 -20z"/>
<path d="M11760 8180 c0 -17 7 -20 40 -20 33 0 40 3 40 20 0 17 -7 20 -40 20
-33 0 -40 -3 -40 -20z"/>
<path d="M12080 8180 c0 -17 7 -20 40 -20 33 0 40 3 40 20 0 17 -7 20 -40 20
-33 0 -40 -3 -40 -20z"/>
<path d="M12240 8180 c0 -17 7 -20 40 -20 33 0 40 3 40 20 0 17 -7 20 -40 20
-33 0 -40 -3 -40 -20z"/>
<path d="M12560 8180 c0 -17 7 -20 40 -20 33 0 40 3 40 20 0 17 -7 20 -40 20
-33 0 -40 -3 -40 -20z"/>
<path d="M12720 8180 c0 -17 7 -20 40 -20 33 0 40 3 40 20 0 17 -7 20 -40 20
-33 0 -40 -3 -40 -20z"/>
<path d="M13040 8180 c0 -17 7 -20 40 -20 33 0 40 3 40 20 0 17 -7 20 -40 20
-33 0 -40 -3 -40 -20z"/>
<path d="M13200 8180 c0 -17 7 -20 40 -20 33 0 40 3 40 20 0 17 -7 20 -40 20
-33 0 -40 -3 -40 -20z"/>
<path d="M13520 8180 c0 -17 7 -20 40 -20 33 0 40 3 40 20 0 17 -7 20 -40 20
-33 0 -40 -3 -40 -20z"/>
<path d="M13680 8180 c0 -17 7 -20 40 -20 33 0 40 3 40 20 0 17 -7 20 -40 20
-33 0 -40 -3 -40 -20z"/>
<path d="M14000 8180 c0 -17 7 -20 40 -20 33 0 40 3 40 20 0 17 -7 20 -40 20
-33 0 -40 -3 -40 -20z"/>
<path d="M14160 8180 c0 -17 7 -20 40 -20 33 0 40 3 40 20 0 17 -7 20 -40 20
-33 0 -40 -3 -40 -20z"/>
<path d="M14480 8180 c0 -17 7 -20 40 -20 33 0 40 3 40 20 0 17 -7 20 -40 20
-33 0 -40 -3 -40 -20z"/>
<path d="M14640 8180 c0 -17 7 -20 40 -20 33 0 40 3 40 20 0 17 -7 20 -40 20
-33 0 -40 -3 -40 -20z"/>
<path d="M14960 8180 c0 -17 7 -20 40 -20 33 0 40 3 40 20 0 17 -7 20 -40 20
-33 0 -40 -3 -40 -20z"/>
<path d="M15120 8180 c0 -17 7 -20 40 -20 33 0 40 3 40 20 0 17 -7 20 -40 20
-33 0 -40 -3 -40 -20z"/>
<path d="M15440 8180 c0 -17 7 -20 40 -20 33 0 40 3 40 20 0 17 -7 20 -40 20
-33 0 -40 -3 -40 -20z"/>
<path d="M15600 8180 c0 -17 7 -20 40 -20 33 0 40 3 40 20 0 17 -7 20 -40 20
-33 0 -40 -3 -40 -20z"/>
<path d="M15920 8180 c0 -17 7 -20 40 -20 33 0 40 3 40 20 0 17 -7 20 -40 20
-33 0 -40 -3 -40 -20z"/>
<path d="M16080 8180 c0 -17 7 -20 40 -20 33 0 40 3 40 20 0 17 -7 20 -40 20
-33 0 -40 -3 -40 -20z"/>
<path d="M16400 8180 c0 -17 7 -20 40 -20 33 0 40 3 40 20 0 17 -7 20 -40 20
-33 0 -40 -3 -40 -20z"/>
<path d="M16560 8180 c0 -17 7 -20 40 -20 33 0 40 3 40 20 0 17 -7 20 -40 20
-33 0 -40 -3 -40 -20z"/>
<path d="M16880 8180 c0 -17 7 -20 40 -20 33 0 40 3 40 20 0 17 -7 20 -40 20
-33 0 -40 -3 -40 -20z"/>
<path d="M17040 8180 c0 -17 7 -20 40 -20 33 0 40 3 40 20 0 17 -7 20 -40 20
-33 0 -40 -3 -40 -20z"/>
<path d="M17588 7867 c2 -142 0 -257 -5 -256 -25 4 -39 -3 -40 -22 -1 -12 -9
-29 -17 -38 -9 -10 -16 -26 -16 -36 0 -14 6 -16 30 -12 28 6 29 6 12 -12 -9
-9 -23 -16 -29 -13 -7 2 -13 -1 -13 -7 0 -18 28 -13 51 10 21 21 21 46 0 42
-6 -2 -11 4 -11 12 0 8 4 15 10 15 5 0 7 6 4 14 -3 8 -1 23 6 33 10 16 11 15
6 -7 -3 -14 -2 -31 3 -38 5 -9 10 3 15 34 8 59 6 469 -3 509 -3 16 -4 -87 -3
-228z"/>
<path d="M8120 8060 c0 -13 7 -20 20 -20 13 0 20 7 20 20 0 13 -7 20 -20 20
-13 0 -20 -7 -20 -20z"/>
<path d="M8200 8040 c0 -22 5 -40 10 -40 6 0 10 18 10 40 0 22 -4 40 -10 40
-5 0 -10 -18 -10 -40z"/>
<path d="M8004 7798 c1 -135 4 -249 8 -253 16 -16 28 6 16 28 -9 15 -15 95
-19 247 l-6 225 1 -247z"/>
<path d="M12406 8019 c-19 -19 -19 -19 20 -18 21 0 33 3 27 6 -7 2 -13 11 -13
19 0 19 -11 17 -34 -7z"/>
<path d="M12258 8003 c6 -2 18 -2 25 0 6 3 1 5 -13 5 -14 0 -19 -2 -12 -5z"/>
<path d="M8120 7980 c0 -13 -7 -20 -20 -20 -11 0 -20 -4 -20 -10 0 -5 9 -10
20 -10 13 0 20 -7 20 -20 0 -13 -7 -20 -20 -20 -11 0 -20 5 -20 10 0 6 -9 10
-20 10 -17 0 -20 -7 -20 -40 0 -33 3 -40 20 -40 16 0 20 -7 20 -30 0 -23 4
-30 20 -30 11 0 20 -4 20 -10 0 -5 9 -10 20 -10 11 0 20 5 20 10 0 6 9 10 20
10 17 0 20 7 20 50 0 43 -3 50 -20 50 -16 0 -20 7 -20 30 0 23 4 30 20 30 11
0 20 5 20 10 0 6 -9 10 -20 10 -13 0 -20 7 -20 20 0 13 -7 20 -20 20 -13 0
-20 -7 -20 -20z"/>
<path d="M12308 7983 c7 -3 16 -2 19 1 4 3 -2 6 -13 5 -11 0 -14 -3 -6 -6z"/>
<path d="M12448 7963 c7 -3 16 -2 19 1 4 3 -2 6 -13 5 -11 0 -14 -3 -6 -6z"/>
<path d="M12492 7945 c0 -16 2 -22 5 -12 2 9 2 23 0 30 -3 6 -5 -1 -5 -18z"/>
<path d="M12230 7946 c0 -11 -9 -13 -34 -10 -42 5 -46 -4 -48 -105 -1 -75 7
-96 35 -85 22 8 21 22 -3 62 -21 34 -28 88 -10 77 9 -6 14 8 11 28 0 4 3 7 8
7 13 0 22 -28 11 -35 -6 -4 -10 -12 -10 -18 0 -9 3 -8 8 1 5 7 8 -8 8 -37 -1
-29 5 -55 12 -63 11 -11 12 -10 7 3 -4 11 2 22 16 32 l21 16 -23 32 c-24 34
-36 75 -20 64 6 -3 15 3 21 14 7 13 7 22 0 26 -5 3 -10 0 -10 -9z m-50 -171
c0 -8 -4 -16 -9 -19 -5 -3 -8 5 -7 18 1 25 16 26 16 1z"/>
<path d="M12360 7956 c0 -2 9 -6 20 -9 11 -3 20 -1 20 4 0 5 -9 9 -20 9 -11 0
-20 -2 -20 -4z"/>
<path d="M12502 7902 c-7 -22 -12 -73 -12 -113 l0 -74 -40 0 c-34 0 -40 3 -42
23 l-3 24 -19 -21 c-19 -21 -19 -22 -1 -15 15 6 17 4 12 -10 -4 -10 -7 -22 -7
-27 0 -5 -12 -7 -27 -3 -22 4 -25 3 -13 -5 8 -6 31 -11 50 -10 59 2 70 -1 70
-15 0 -7 8 -16 18 -18 11 -3 19 0 19 8 0 8 -6 14 -14 14 -7 0 -13 5 -13 10 0
16 28 11 38 -7 6 -9 19 -17 31 -18 29 -2 27 11 -3 19 -19 4 -22 11 -18 31 2
14 9 22 15 18 6 -3 7 -1 3 5 -10 17 9 15 24 -3 7 -8 16 -13 20 -10 5 3 11 1
15 -5 8 -12 45 5 45 21 0 6 -7 3 -16 -6 -10 -9 -20 -13 -23 -8 -3 5 -21 15
-39 22 -18 8 -37 21 -43 30 -9 13 -10 12 -6 -6 3 -12 -1 -27 -9 -34 -12 -10
-14 2 -14 77 0 60 3 84 10 74 8 -13 11 -13 22 -1 10 11 10 14 0 18 -6 3 -10 9
-7 14 4 5 2 16 -3 25 -7 12 -11 6 -20 -24z"/>
<path d="M12703 7922 c-8 -5 -9 -13 -3 -22 5 -8 6 -26 3 -39 -4 -17 -2 -22 6
-17 6 4 11 18 11 32 0 13 5 24 10 24 6 0 10 7 10 15 0 16 -18 19 -37 7z"/>
<path d="M13073 7923 c-7 -3 -13 -9 -13 -14 0 -6 4 -7 10 -4 6 3 7 -1 4 -9 -3
-9 -1 -16 4 -16 6 0 13 -24 15 -52 l3 -53 2 63 c2 59 3 62 27 62 14 0 25 4 25
9 0 5 -12 8 -27 7 -16 -2 -30 0 -33 4 -3 4 -11 5 -17 3z"/>
<path d="M12316 7908 c5 -7 2 -9 -9 -5 -12 4 -14 2 -10 -10 5 -12 3 -14 -7 -8
-8 5 -11 4 -7 -2 4 -6 16 -13 28 -16 15 -4 19 -2 15 9 -3 8 -1 14 4 14 5 0 7
7 4 15 -4 8 -10 15 -16 15 -5 0 -6 -5 -2 -12z"/>
<path d="M12550 7912 c0 -5 24 -8 53 -9 38 0 45 2 27 8 -35 10 -80 11 -80 1z"/>
<path d="M12766 7906 c10 -8 21 -10 22 -5 2 5 8 7 12 4 5 -3 11 -1 15 5 4 6
-8 10 -31 10 -35 0 -36 -1 -18 -14z"/>
<path d="M12840 7910 c19 -13 30 -13 30 0 0 6 -10 10 -22 10 -19 0 -20 -2 -8
-10z"/>
<path d="M12974 7903 c3 -19 0 -21 -29 -18 -23 3 -37 -1 -46 -12 -11 -13 -11
-15 -1 -9 10 6 11 2 7 -16 -6 -24 -1 -26 62 -31 6 0 9 -6 6 -14 -3 -7 -9 -10
-14 -7 -5 3 -8 -8 -7 -24 1 -16 7 -28 13 -26 14 5 57 -58 44 -66 -5 -4 6 -7
26 -8 24 -1 35 3 35 13 0 13 11 17 73 30 13 2 17 -4 17 -26 0 -16 5 -29 10
-29 6 0 10 25 10 55 0 30 -4 55 -9 55 -5 0 -8 -8 -7 -17 4 -23 -11 -33 -50
-33 -16 0 -35 -5 -40 -10 -15 -15 -71 16 -80 43 -4 12 -7 45 -5 72 1 28 -3 62
-9 75 -9 22 -10 22 -6 3z m-34 -53 c0 -5 -4 -10 -10 -10 -5 0 -10 5 -10 10 0
6 5 10 10 10 6 0 10 -4 10 -10z m110 -160 c0 -5 -2 -10 -4 -10 -3 0 -8 5 -11
10 -3 6 -1 10 4 10 6 0 11 -4 11 -10z"/>
<path d="M12990 7912 c0 -5 7 -9 15 -9 8 0 12 4 9 9 -3 4 -9 8 -15 8 -5 0 -9
-4 -9 -8z"/>
<path d="M13184 7909 c-9 -15 108 -14 134 0 8 4 -18 8 -57 8 -39 0 -74 -3 -77
-8z"/>
<path d="M13339 7906 c-15 -10 -14 -13 7 -29 13 -10 24 -13 24 -7 0 5 -5 10
-11 10 -8 0 -8 4 0 14 16 19 0 28 -20 12z"/>
<path d="M12350 7871 c0 -25 6 -27 13 -6 4 8 2 17 -3 20 -6 4 -10 -3 -10 -14z"/>
<path d="M12431 7874 c0 -11 3 -14 6 -6 3 7 2 16 -1 19 -3 4 -6 -2 -5 -13z"/>
<path d="M13150 7878 c0 -4 4 -8 9 -8 6 0 12 4 15 8 3 5 -1 9 -9 9 -8 0 -15
-4 -15 -9z"/>
<path d="M12393 7866 c21 -16 22 -30 2 -22 -15 5 -10 -10 23 -63 1 -2 5 -1 8
2 4 4 1 14 -6 23 -11 12 -11 17 -1 23 17 11 -7 51 -29 51 -12 -1 -12 -3 3 -14z"/>
<path d="M13382 7853 c-5 -10 -6 -29 -1 -43 5 -17 7 -19 8 -7 1 10 6 15 11 12
6 -3 10 1 10 9 0 9 7 16 15 16 8 0 15 -5 15 -12 0 -6 2 -9 5 -7 2 3 2 15 -2
27 -7 27 -48 30 -61 5z"/>
<path d="M12574 7825 c-7 -28 5 -47 31 -51 8 -1 15 2 15 7 0 6 5 7 10 4 6 -3
10 -1 10 5 0 6 -12 9 -26 8 -17 -2 -28 2 -31 12 -4 13 -3 13 6 0 9 -12 11 -10
11 10 0 20 2 22 11 10 9 -13 10 -13 6 0 -7 27 -36 23 -43 -5z"/>
<path d="M12630 7845 c0 -5 5 -17 10 -25 5 -8 10 -10 10 -5 0 6 -5 17 -10 25
-5 8 -10 11 -10 5z"/>
<path d="M12790 7829 c0 -12 7 -15 25 -11 14 2 25 11 25 18 0 9 -9 13 -25 12
-16 -2 -25 -8 -25 -19z"/>
<path d="M13040 7816 c0 -34 15 -56 39 -56 8 0 11 3 7 8 -4 4 -12 7 -17 7 -5
0 -8 5 -6 10 1 6 5 9 10 8 4 -2 7 8 7 21 0 15 -7 26 -20 29 -17 4 -20 0 -20
-27z"/>
<path d="M13167 7833 c-11 -10 -8 -43 3 -43 6 0 10 11 10 25 0 26 -2 29 -13
18z"/>
<path d="M12700 7800 c0 -23 4 -30 20 -30 12 0 20 7 20 18 0 14 -2 15 -10 2
-8 -12 -10 -9 -10 13 0 15 -4 27 -10 27 -5 0 -10 -13 -10 -30z"/>
<path d="M12275 7810 c4 -6 10 -8 15 -5 4 3 14 -2 21 -11 10 -13 10 -17 -2
-25 -11 -8 -8 -9 10 -7 14 2 26 9 29 17 3 8 0 11 -7 7 -6 -4 -11 0 -11 9 0 9
-4 13 -10 10 -5 -3 -10 -1 -10 4 0 6 -9 11 -21 11 -11 0 -17 -5 -14 -10z"/>
<path d="M12512 7800 c0 -14 2 -19 5 -12 2 6 2 18 0 25 -3 6 -5 1 -5 -13z"/>
<path d="M13258 7788 c13 -13 55 -13 58 0 1 7 0 8 -3 2 -2 -5 -9 -10 -14 -10
-6 0 -8 3 -6 8 3 4 -6 7 -18 7 -13 0 -21 -3 -17 -7z"/>
<path d="M13401 7780 c0 -9 4 -21 11 -28 7 -7 9 -12 5 -12 -3 0 -14 8 -24 18
-10 9 -17 15 -16 13 2 -2 -10 -16 -26 -31 l-28 -27 37 -17 c20 -9 46 -16 58
-16 18 0 22 6 22 34 0 19 2 40 3 48 2 7 2 10 0 6 -8 -15 -32 -8 -36 10 -4 13
-5 13 -6 2z m-26 -68 c-3 -3 -11 0 -18 7 -9 10 -8 11 6 5 10 -3 15 -9 12 -12z"/>
<path d="M12765 7720 l-30 -8 33 -1 c17 0 32 4 32 9 0 6 -1 9 -2 9 -2 -1 -16
-5 -33 -9z"/>
<path d="M12232 7704 c5 -27 33 -39 60 -27 22 10 22 11 4 19 -13 5 -21 3 -24
-4 -2 -7 -8 -12 -13 -12 -4 0 -6 6 -3 14 3 7 -2 16 -11 20 -12 4 -16 1 -13
-10z"/>
<path d="M13270 7703 c31 -15 90 -26 90 -17 0 3 -58 19 -105 29 -11 3 -4 -3
15 -12z"/>
<path d="M12333 7703 c9 -2 23 -2 30 0 6 3 -1 5 -18 5 -16 0 -22 -2 -12 -5z"/>
<path d="M12681 7674 c-24 -31 -25 -29 12 -38 20 -5 27 -3 27 8 0 8 -6 17 -12
19 -10 4 -10 8 1 15 8 6 9 12 3 16 -6 3 -20 -6 -31 -20z"/>
<path d="M8120 7660 c0 -13 -7 -20 -20 -20 -13 0 -22 -9 -26 -25 -3 -14 -10
-22 -15 -19 -5 3 -7 10 -4 15 4 5 2 9 -3 9 -18 0 -20 -28 -6 -69 14 -42 11
-67 -6 -56 -5 3 -7 12 -3 20 3 8 0 15 -6 15 -6 0 -11 -6 -11 -14 0 -18 39 -66
53 -66 7 0 4 5 -6 11 -9 6 -15 15 -11 21 4 7 10 5 16 -3 7 -10 8 -8 5 9 -3 12
-1 22 4 22 5 0 9 14 9 30 0 17 -5 30 -11 30 -5 0 -7 -6 -3 -12 4 -8 2 -8 -7 1
-11 10 -11 15 -1 18 6 3 12 13 12 24 0 12 7 19 20 19 11 0 20 -4 20 -10 0 -5
9 -10 20 -10 11 0 20 5 20 10 0 6 9 10 20 10 11 0 20 5 20 10 0 6 -9 10 -20
10 -13 0 -20 7 -20 20 0 13 -7 20 -20 20 -13 0 -20 -7 -20 -20z"/>
<path d="M12800 7668 c0 -4 9 -8 20 -8 11 0 20 -4 20 -10 0 -5 -9 -10 -20 -10
-13 0 -20 -7 -20 -20 0 -16 7 -20 30 -20 28 0 30 3 30 34 0 30 4 35 28 39 15
2 1 4 -30 4 -32 0 -58 -4 -58 -9z"/>
<path d="M12948 7673 c6 -2 18 -2 25 0 6 3 1 5 -13 5 -14 0 -19 -2 -12 -5z"/>
<path d="M13266 7645 c-3 -9 -10 -14 -14 -11 -5 3 -22 8 -39 10 -28 5 -30 4
-30 -22 0 -15 2 -21 4 -14 5 14 53 17 53 2 0 -5 14 -10 30 -10 35 0 34 -1 16
34 -11 22 -15 24 -20 11z"/>
<path d="M12576 7633 c-3 -7 3 -10 16 -8 12 3 27 0 34 -5 8 -8 13 -5 16 8 4
16 0 19 -28 18 -19 -1 -36 -6 -38 -13z"/>
<path d="M13107 7643 c-10 -9 -9 -41 1 -47 4 -2 9 9 10 25 2 30 0 34 -11 22z"/>
<path d="M13160 7629 c0 -11 4 -18 10 -14 5 3 7 12 3 20 -7 21 -13 19 -13 -6z"/>
<path d="M17522 7595 c0 -16 2 -22 5 -12 2 9 2 23 0 30 -3 6 -5 -1 -5 -18z"/>
<path d="M12920 7540 c0 -13 7 -20 20 -20 13 0 20 7 20 20 0 13 -7 20 -20 20
-13 0 -20 -7 -20 -20z"/>
<path d="M8090 7465 c0 -8 9 -15 20 -15 17 0 19 -3 10 -19 -5 -11 -6 -22 -2
-25 12 -7 36 25 40 52 3 19 -1 22 -32 22 -25 0 -36 -4 -36 -15z"/>
<path d="M8205 7449 c-16 -8 -15 -8 8 -4 24 5 28 3 25 -12 -4 -21 -47 -21 -60
0 -5 8 -8 7 -8 -4 0 -18 43 -34 63 -23 7 3 1 -4 -13 -15 -17 -14 -20 -21 -10
-21 26 0 37 14 44 53 6 32 4 37 -11 36 -10 0 -27 -5 -38 -10z"/>
<path d="M17343 7423 c1 -21 7 -41 12 -45 6 -4 -2044 -9 -4555 -10 l-4565 -3
4540 -3 c2497 -1 4560 0 4585 4 43 6 44 6 21 19 -18 9 -20 14 -10 18 11 4 11
6 -2 6 -16 1 -23 31 -7 31 5 0 6 5 3 10 -13 22 -25 8 -22 -27z"/>
<path d="M17389 7442 c7 -6 11 -14 7 -20 -3 -5 5 -17 19 -26 13 -9 27 -12 30
-7 3 5 -4 12 -15 16 -11 3 -20 14 -20 23 0 15 2 15 11 2 9 -13 10 -13 6 0 -2
8 -14 16 -28 18 -17 2 -20 0 -10 -6z"/>
<path d="M17470 7445 c0 -2 9 -9 20 -15 16 -9 18 -8 14 5 -5 13 -34 22 -34 10z"/>
<path d="M8160 7391 c0 -5 7 -11 14 -14 10 -4 13 -1 9 9 -6 15 -23 19 -23 5z"/>
<path d="M12705 6865 c-14 -13 -25 -36 -25 -50 0 -32 41 -75 73 -75 36 0 67
35 67 75 0 69 -68 98 -115 50z m68 4 c28 -15 37 -28 37 -55 0 -24 -34 -64 -56
-64 -20 0 -64 45 -64 65 0 15 42 65 55 65 4 0 16 -5 28 -11z"/>
<path d="M12872 6815 c1 -79 1 -80 7 -22 5 46 12 62 31 77 25 20 17 28 -10 10
-9 -6 -17 -5 -22 3 -4 7 -7 -24 -6 -68z"/>
<path d="M11242 5757 c-43 -46 -24 -87 53 -116 54 -21 68 -43 36 -61 -23 -12
-59 1 -74 26 -4 7 -14 11 -22 8 -43 -17 16 -74 76 -74 63 0 96 49 69 100 -5
10 -32 26 -59 35 -50 16 -62 29 -53 53 6 17 52 15 73 -4 13 -11 22 -13 35 -6
16 9 15 12 -9 36 -35 35 -94 36 -125 3z"/>
<path d="M11430 5755 c0 -18 5 -25 20 -25 15 0 20 7 20 25 0 18 -5 25 -20 25
-15 0 -20 -7 -20 -25z"/>
<path d="M12750 5755 c0 -18 5 -25 20 -25 15 0 20 7 20 25 0 18 -5 25 -20 25
-15 0 -20 -7 -20 -25z"/>
<path d="M12970 5660 c0 -113 1 -120 20 -120 17 0 20 7 20 53 0 60 17 91 46
85 16 -3 19 -13 22 -71 3 -64 4 -67 27 -67 24 0 25 3 25 54 0 30 -4 66 -10 80
-13 36 -52 53 -85 38 -24 -11 -25 -11 -25 28 0 33 -3 40 -20 40 -19 0 -20 -7
-20 -120z"/>
<path d="M13294 5770 c-40 -16 -64 -59 -64 -112 0 -43 4 -54 34 -84 28 -28 41
-34 78 -34 52 0 85 21 104 66 24 58 20 64 -41 64 -42 0 -55 -3 -55 -15 0 -10
10 -15 30 -15 34 0 40 -19 14 -44 -25 -26 -79 -20 -103 10 -43 54 -11 134 54
134 18 0 38 -7 45 -15 16 -19 50 -20 50 -1 0 41 -89 69 -146 46z"/>
<path d="M14130 5660 c0 -113 1 -120 20 -120 19 0 20 7 20 120 0 113 -1 120
-20 120 -19 0 -20 -7 -20 -120z"/>
<path d="M12850 5735 c0 -9 -7 -18 -15 -21 -19 -8 -20 -34 -1 -34 9 0 15 -17
18 -54 5 -65 20 -86 59 -86 34 0 40 25 9 35 -16 5 -20 15 -20 56 0 42 3 49 20
49 11 0 20 7 20 15 0 8 -9 15 -20 15 -13 0 -20 7 -20 20 0 15 -7 20 -25 20
-16 0 -25 -6 -25 -15z"/>
<path d="M11540 5692 c-39 -39 -40 -83 -4 -118 20 -21 33 -25 65 -22 32 3 39
0 39 -15 0 -25 -27 -32 -67 -18 -48 18 -64 1 -27 -28 35 -28 76 -27 111 3 26
23 28 29 31 120 l4 96 -34 -1 c-18 0 -45 2 -60 6 -22 6 -33 2 -58 -23z m89
-26 c7 -8 11 -27 9 -43 -2 -23 -8 -29 -35 -31 -24 -2 -34 2 -43 18 -23 44 39
93 69 56z"/>
<path d="M11792 5711 c-7 -4 -24 -6 -38 -3 -24 4 -24 4 -24 -82 0 -79 2 -86
20 -86 18 0 20 7 20 59 0 64 15 87 50 76 17 -6 20 -15 20 -71 0 -57 2 -64 20
-64 18 0 20 7 20 74 0 66 -3 77 -22 90 -25 18 -46 20 -66 7z"/>
<path d="M12257 5713 c-4 -3 -23 -6 -42 -5 l-35 1 0 -114 c0 -108 1 -115 20
-115 16 0 20 7 20 34 l0 34 45 -6 c62 -7 95 22 95 84 0 35 -5 47 -31 68 -30
25 -59 33 -72 19z m47 -49 c22 -22 20 -60 -5 -77 -46 -33 -95 21 -64 69 18 28
47 31 69 8z"/>
<path d="M13550 5713 c-62 -23 -81 -103 -35 -148 37 -38 95 -35 129 6 14 17
26 39 26 49 0 65 -63 114 -120 93z m66 -62 c25 -49 -22 -95 -65 -65 -25 18
-27 56 -5 79 22 22 56 15 70 -14z"/>
<path d="M13754 5710 c-47 -19 -67 -77 -42 -123 18 -34 39 -46 81 -47 83 0
120 100 56 154 -31 27 -58 31 -95 16z m70 -46 c22 -22 20 -60 -5 -77 -46 -33
-97 19 -65 68 19 28 47 32 70 9z"/>
<path d="M13960 5707 c-53 -27 -62 -95 -19 -138 17 -17 30 -20 65 -16 48 5 49
5 34 -24 -12 -21 -41 -25 -69 -7 -10 6 -27 8 -37 4 -18 -7 -17 -9 9 -32 38
-32 90 -32 122 1 23 22 25 32 25 120 l0 95 -27 0 c-16 -1 -39 2 -53 5 -14 3
-36 0 -50 -8z m75 -47 c15 -17 16 -24 7 -46 -10 -21 -18 -25 -45 -22 -27 2
-33 8 -35 31 -6 53 38 75 73 37z"/>
<path d="M14239 5691 c-17 -18 -29 -40 -29 -56 0 -33 24 -81 45 -89 51 -19
134 8 108 35 -10 10 -18 10 -38 1 -29 -14 -69 0 -62 21 4 12 16 14 85 16 26 1
32 5 32 24 -1 26 -17 49 -47 65 -35 19 -63 14 -94 -17z m89 -28 c2 -9 -8 -13
-32 -13 -34 0 -44 8 -29 24 11 11 56 2 61 -11z"/>
<path d="M11430 5625 c0 -78 2 -85 20 -85 18 0 20 7 20 85 0 78 -2 85 -20 85
-18 0 -20 -7 -20 -85z"/>
<path d="M11982 5639 c5 -87 16 -98 99 -97 l59 1 0 83 c0 77 -2 84 -20 84 -18
0 -20 -7 -20 -54 0 -36 -5 -60 -16 -70 -33 -33 -52 -10 -55 67 -2 53 -4 57
-27 57 -24 0 -24 -1 -20 -71z"/>
<path d="M12452 5698 c3 -7 16 -46 29 -85 27 -86 50 -97 75 -35 33 83 30 81
50 19 26 -84 48 -77 85 28 16 44 29 81 29 83 0 1 -11 2 -24 2 -19 0 -26 -8
-36 -45 -7 -25 -16 -45 -20 -45 -4 0 -13 20 -20 45 -10 36 -17 45 -34 45 -17
0 -26 -11 -41 -52 l-19 -52 -16 49 c-13 38 -22 51 -40 53 -16 3 -21 0 -18 -10z"/>
<path d="M12750 5625 c0 -78 2 -85 20 -85 18 0 20 7 20 85 0 78 -2 85 -20 85
-18 0 -20 -7 -20 -85z"/>
<path d="M11362 4564 c-15 -10 -22 -25 -22 -48 0 -38 16 -55 74 -76 29 -11 42
-22 44 -38 2 -15 -2 -22 -15 -23 -31 -2 -47 2 -64 17 -18 16 -49 19 -49 4 0
-6 11 -22 25 -35 18 -19 35 -25 65 -25 43 0 90 33 90 63 0 26 -36 60 -81 76
-32 12 -44 22 -44 36 0 27 54 34 72 10 12 -18 43 -14 43 4 0 19 -53 51 -84 51
-17 0 -42 -7 -54 -16z"/>
<path d="M11550 4555 c0 -18 5 -25 20 -25 15 0 20 7 20 25 0 18 -5 25 -20 25
-15 0 -20 -7 -20 -25z"/>
<path d="M12870 4555 c0 -18 5 -25 20 -25 15 0 20 7 20 25 0 18 -5 25 -20 25
-15 0 -20 -7 -20 -25z"/>
<path d="M13090 4460 c0 -113 1 -120 20 -120 18 0 20 7 20 59 0 64 15 87 50
76 17 -6 20 -15 20 -71 0 -57 2 -64 20 -64 18 0 20 7 20 75 0 69 -2 76 -26 92
-21 13 -32 15 -55 6 -29 -11 -29 -11 -29 28 0 32 -3 39 -20 39 -19 0 -20 -7
-20 -120z"/>
<path d="M13375 4473 c-21 -60 -40 -114 -42 -120 -3 -8 4 -13 20 -13 18 0 27
7 31 25 6 22 11 25 55 25 44 0 49 -3 55 -25 5 -18 13 -25 31 -25 l24 0 -41
120 c-39 114 -43 120 -68 120 -26 0 -30 -7 -65 -107z m74 25 c25 -66 24 -68
-8 -68 -35 0 -35 -1 -19 51 13 45 16 47 27 17z"/>
<path d="M14020 4460 c0 -113 1 -120 20 -120 19 0 20 7 20 120 0 113 -1 120
-20 120 -19 0 -20 -7 -20 -120z"/>
<path d="M12970 4536 c0 -8 -7 -16 -15 -20 -8 -3 -15 -12 -15 -21 0 -8 7 -15
15 -15 11 0 15 -13 15 -53 0 -59 19 -87 58 -87 28 0 30 36 2 43 -16 4 -20 14
-20 51 0 39 3 46 20 46 11 0 20 7 20 15 0 8 -9 15 -20 15 -13 0 -20 7 -20 20
0 13 -7 20 -20 20 -11 0 -20 -6 -20 -14z"/>
<path d="M11673 4510 c-48 -20 -59 -101 -18 -140 20 -19 32 -22 65 -17 41 5
52 -7 28 -31 -15 -15 -43 -15 -68 0 -16 10 -22 10 -32 0 -11 -11 -9 -17 11
-33 33 -27 86 -25 116 6 23 22 25 32 25 120 l0 95 -27 0 c-16 -1 -39 1 -53 4
-14 3 -35 1 -47 -4z m71 -46 c30 -30 13 -74 -29 -74 -27 0 -45 18 -45 45 0 42
44 59 74 29z"/>
<path d="M11912 4511 c-7 -4 -24 -6 -38 -3 -24 4 -24 4 -24 -82 0 -79 2 -86
20 -86 18 0 20 7 20 59 0 66 18 93 48 74 12 -7 18 -27 20 -72 3 -53 6 -61 22
-61 18 0 20 7 20 68 0 73 -4 83 -37 101 -26 13 -34 14 -51 2z"/>
<path d="M12362 4512 c-7 -5 -24 -7 -38 -4 l-24 4 0 -116 c0 -109 1 -116 20
-116 16 0 20 7 20 35 0 33 1 34 30 29 63 -13 110 25 110 90 0 51 -80 103 -118
78z m63 -56 c31 -48 -18 -102 -64 -69 -25 17 -27 55 -5 77 22 23 51 20 69 -8z"/>
<path d="M13642 4512 c-7 -5 -24 -7 -38 -4 l-24 4 0 -116 c0 -109 1 -116 20
-116 16 0 20 7 20 35 0 33 1 34 30 29 63 -13 110 25 110 90 0 51 -80 103 -118
78z m63 -56 c23 -35 5 -76 -33 -76 -34 0 -52 16 -52 46 0 51 58 71 85 30z"/>
<path d="M13862 4512 c-7 -5 -24 -7 -38 -4 l-24 4 0 -116 c0 -109 1 -116 20
-116 16 0 20 7 20 35 0 33 1 34 30 29 63 -13 110 25 110 90 0 51 -80 103 -118
78z m63 -56 c31 -48 -18 -102 -64 -69 -25 17 -27 55 -5 77 22 23 51 20 69 -8z"/>
<path d="M14144 4509 c-49 -25 -62 -104 -23 -145 27 -29 83 -32 118 -8 32 23
12 41 -28 25 -22 -10 -34 -10 -51 -1 -36 20 -17 35 48 38 62 3 62 3 56 30 -13
54 -73 85 -120 61z m74 -46 c2 -9 -9 -13 -38 -13 -37 0 -41 2 -30 16 15 17 61
15 68 -3z"/>
<path d="M11550 4425 c0 -78 2 -85 20 -85 18 0 20 7 20 85 0 78 -2 85 -20 85
-18 0 -20 -7 -20 -85z"/>
<path d="M12100 4442 c0 -88 13 -102 93 -101 l57 1 0 84 c0 77 -2 84 -20 84
-18 0 -20 -7 -20 -60 0 -47 -4 -61 -18 -69 -35 -19 -52 4 -52 69 0 53 -2 60
-20 60 -18 0 -20 -7 -20 -68z"/>
<path d="M12570 4503 c0 -5 12 -43 26 -86 22 -67 29 -78 47 -75 14 2 25 17 36
50 9 26 19 49 22 52 3 3 13 -19 23 -49 13 -42 22 -55 37 -55 10 0 19 2 19 4 0
3 13 41 30 85 l29 81 -23 0 c-17 0 -26 -7 -30 -25 -3 -13 -11 -37 -17 -52
l-11 -28 -17 50 c-25 72 -51 73 -78 3 l-20 -52 -17 52 c-13 39 -23 52 -37 52
-10 0 -19 -3 -19 -7z"/>
<path d="M12870 4425 c0 -78 2 -85 20 -85 18 0 20 7 20 85 0 78 -2 85 -20 85
-18 0 -20 -7 -20 -85z"/>
<path d="M11036 3359 c-50 -39 -30 -88 49 -118 54 -21 68 -43 36 -61 -23 -12
-59 1 -74 26 -9 15 -37 8 -37 -10 0 -7 10 -22 23 -34 48 -45 147 -19 147 39 0
37 -19 57 -69 74 -49 16 -62 29 -54 53 6 17 53 15 74 -4 13 -11 22 -13 35 -6
16 9 15 12 -9 36 -33 32 -83 35 -121 5z"/>
<path d="M11220 3355 c0 -18 5 -25 20 -25 15 0 20 7 20 25 0 18 -5 25 -20 25
-15 0 -20 -7 -20 -25z"/>
<path d="M12540 3355 c0 -18 5 -25 20 -25 15 0 20 7 20 25 0 18 -5 25 -20 25
-15 0 -20 -7 -20 -25z"/>
<path d="M12760 3260 c0 -113 1 -120 20 -120 17 0 20 7 20 53 0 60 17 91 46
85 16 -3 19 -13 22 -71 3 -64 4 -67 27 -67 24 0 25 3 25 54 0 30 -4 66 -10 80
-13 36 -52 53 -85 38 -24 -11 -25 -11 -25 28 0 33 -3 40 -20 40 -19 0 -20 -7
-20 -120z"/>
<path d="M13020 3260 c0 -112 1 -120 19 -120 17 0 20 8 23 48 l3 47 53 3 c68
4 65 25 -4 32 -47 5 -49 6 -52 38 l-3 32 60 0 c54 0 61 2 61 20 0 18 -7 20
-80 20 l-80 0 0 -120z"/>
<path d="M13790 3262 l0 -119 69 -1 c66 -1 71 0 95 29 14 17 26 39 26 50 0 60
-67 113 -115 91 -24 -11 -25 -10 -25 28 0 36 -3 40 -25 40 l-25 0 0 -118z
m121 8 c19 -11 26 -54 11 -76 -25 -37 -82 -12 -82 36 0 41 33 60 71 40z"/>
<path d="M14440 3260 c0 -112 1 -120 19 -120 15 0 21 8 23 32 4 44 22 45 48 3
15 -24 29 -35 46 -35 l24 0 -31 50 c-31 51 -31 58 4 98 l20 22 -23 0 c-13 0
-39 -14 -57 -32 l-33 -32 0 67 c0 60 -2 67 -20 67 -19 0 -20 -7 -20 -120z"/>
<path d="M12640 3336 c0 -8 -7 -16 -15 -20 -8 -3 -15 -12 -15 -21 0 -8 7 -15
15 -15 11 0 15 -12 15 -48 0 -57 21 -92 56 -92 29 0 32 25 4 40 -15 8 -20 21
-20 51 0 32 4 42 20 46 11 3 20 11 20 18 0 7 -9 15 -20 18 -11 3 -20 12 -20
21 0 9 -8 16 -20 16 -11 0 -20 -6 -20 -14z"/>
<path d="M11330 3292 c-39 -39 -40 -83 -4 -119 22 -22 32 -25 68 -21 39 5 43
3 38 -14 -7 -27 -29 -33 -69 -19 -48 18 -64 1 -27 -28 30 -23 61 -27 97 -10
36 16 47 50 47 144 l0 85 -32 -1 c-18 0 -45 2 -60 6 -22 6 -33 2 -58 -23z m89
-26 c7 -8 11 -27 9 -43 -2 -23 -8 -29 -35 -31 -27 -3 -35 1 -45 22 -9 22 -8
29 7 46 21 24 48 26 64 6z"/>
<path d="M11582 3311 c-7 -4 -24 -6 -38 -3 -24 4 -24 4 -24 -82 0 -79 2 -86
20 -86 18 0 20 7 20 59 0 64 15 87 50 76 17 -6 20 -15 20 -71 0 -57 2 -64 20
-64 18 0 20 7 20 74 0 66 -3 77 -22 90 -25 18 -46 20 -66 7z"/>
<path d="M12032 3311 c-7 -4 -24 -6 -38 -3 l-24 4 0 -116 c0 -109 1 -116 20
-116 16 0 20 7 20 34 l0 34 44 -5 c38 -5 48 -2 70 20 18 19 26 37 26 62 0 63
-72 115 -118 86z m63 -51 c15 -16 17 -26 9 -48 -8 -22 -15 -27 -44 -27 -29 0
-36 5 -44 27 -8 22 -6 32 9 48 10 11 26 20 35 20 9 0 25 -9 35 -20z"/>
<path d="M13244 3310 c-28 -11 -39 -29 -26 -42 8 -8 15 -8 26 1 18 15 58 11
63 -6 3 -7 -11 -15 -34 -19 -46 -8 -73 -30 -73 -59 0 -34 20 -44 88 -43 l62 1
0 66 c0 72 -4 82 -37 100 -25 13 -40 13 -69 1z m66 -104 c0 -19 -26 -38 -47
-34 -27 5 -22 31 7 39 37 10 40 10 40 -5z"/>
<path d="M13444 3310 c-56 -23 -72 -103 -29 -145 33 -34 93 -34 124 -1 18 20
20 24 7 29 -9 4 -28 0 -43 -8 -23 -12 -31 -12 -48 -1 -26 18 -31 53 -9 77 20
23 47 25 64 5 13 -17 40 -10 40 9 0 30 -66 52 -106 35z"/>
<path d="M13635 3309 c-33 -19 -45 -41 -45 -84 0 -53 31 -85 82 -85 43 0 94
34 66 45 -9 4 -25 2 -37 -4 -27 -15 -37 -14 -55 5 -26 25 -19 30 38 31 66 1
75 6 69 37 -10 48 -76 79 -118 55z m73 -46 c2 -9 -9 -13 -38 -13 -37 0 -41 2
-30 16 15 17 61 15 68 -3z"/>
<path d="M14064 3310 c-56 -23 -72 -103 -29 -145 55 -56 155 -16 155 61 0 62
-70 108 -126 84z m72 -55 c14 -21 15 -31 5 -51 -9 -21 -17 -25 -43 -22 -43 4
-61 47 -33 78 25 27 51 25 71 -5z"/>
<path d="M14274 3310 c-47 -19 -67 -77 -42 -123 18 -34 39 -46 81 -47 109 -1
120 157 12 175 -17 2 -40 0 -51 -5z m70 -46 c19 -18 21 -55 4 -72 -22 -22 -67
-14 -80 13 -22 50 38 97 76 59z"/>
<path d="M11220 3225 c0 -78 2 -85 20 -85 18 0 20 7 20 85 0 78 -2 85 -20 85
-18 0 -20 -7 -20 -85z"/>
<path d="M11770 3253 c0 -77 16 -107 58 -111 18 -2 40 2 48 9 10 8 14 8 14 0
0 -6 9 -11 20 -11 18 0 20 7 20 85 0 78 -2 85 -20 85 -17 0 -20 -7 -20 -52 0
-57 -6 -71 -32 -81 -25 -9 -37 14 -39 76 -2 53 -4 57 -26 57 -21 0 -23 -4 -23
-57z"/>
<path d="M12242 3298 c3 -7 16 -46 29 -85 27 -86 50 -97 75 -35 33 83 30 81
50 19 15 -47 22 -57 38 -55 15 2 26 23 47 86 l28 82 -23 0 c-19 0 -26 -8 -36
-45 -7 -25 -16 -45 -20 -45 -4 0 -13 20 -20 45 -10 37 -17 45 -35 45 -19 0
-27 -10 -41 -52 l-17 -53 -17 50 c-13 38 -22 51 -40 53 -16 3 -21 0 -18 -10z"/>
<path d="M12540 3225 c0 -78 2 -85 20 -85 18 0 20 7 20 85 0 78 -2 85 -20 85
-18 0 -20 -7 -20 -85z"/>
</g>
</svg>
