<?xml version="1.0" standalone="no"?>
<!DOCTYPE svg PUBLIC "-//W3C//DTD SVG 20010904//EN"
 "http://www.w3.org/TR/2001/REC-SVG-20010904/DTD/svg10.dtd">
<svg version="1.0" xmlns="http://www.w3.org/2000/svg"
 width="2560.000000pt" height="1676.000000pt" viewBox="0 0 2560.000000 1676.000000"
 preserveAspectRatio="xMidYMid meet">

<g transform="translate(0.000000,1676.000000) scale(0.100000,-0.100000)"
fill="#000000" stroke="none">
<path d="M24320 16509 c-127 -25 -254 -137 -293 -259 -47 -149 -12 -301 95
-410 68 -69 188 -125 188 -87 0 6 18 31 40 55 22 24 40 49 40 57 0 8 7 18 17
23 12 7 16 23 14 68 -1 32 -3 60 -5 62 -3 2 -14 -2 -26 -8 -28 -15 -66 -5 -80
20 -9 17 -8 20 12 20 21 1 68 31 68 43 0 3 -18 8 -39 12 -27 4 -38 11 -35 20
3 7 1 16 -5 20 -7 4 -9 26 -5 60 l7 54 -37 22 c-24 14 -35 27 -32 36 3 8 6 25
6 38 0 33 22 51 71 59 35 6 46 3 67 -16 29 -27 52 -77 52 -113 0 -21 -5 -25
-27 -25 -27 1 -27 1 -9 15 20 15 20 15 0 14 -10 0 -28 -4 -39 -9 -17 -7 -17
-9 -3 -9 12 -1 15 -6 11 -18 -5 -12 -2 -15 9 -11 9 4 21 1 27 -5 6 -6 11 -8
11 -3 0 4 14 -1 30 -11 17 -9 30 -24 30 -33 0 -9 7 -25 15 -36 17 -22 20 -60
5 -69 -5 -3 -10 -14 -10 -24 0 -10 -7 -24 -15 -31 -18 -15 -19 -57 -3 -110 12
-38 14 -39 49 -34 40 7 69 -5 112 -45 l29 -26 29 35 c111 131 135 302 62 447
-81 162 -255 247 -433 212z m240 -104 c10 -12 10 -15 -3 -15 -8 0 -17 7 -21
15 -3 8 -2 15 3 15 5 0 14 -7 21 -15z m-115 -35 c17 -33 38 -127 25 -113 -5 4
-11 25 -14 46 -3 21 -13 51 -21 68 -9 16 -13 29 -11 29 3 0 12 -14 21 -30z
m35 -15 c23 -53 34 -58 26 -12 -3 17 2 8 12 -22 10 -30 23 -56 30 -59 15 -5
16 -22 1 -22 -21 0 -54 48 -83 123 -21 53 -9 46 14 -8z m-192 -162 c-2 -51
-13 -63 -33 -37 -19 25 -19 50 1 58 8 3 13 10 10 14 -3 5 2 9 10 9 11 0 14
-11 12 -44z m282 -29 c0 -8 -19 -13 -24 -6 -3 5 1 9 9 9 8 0 15 -2 15 -3z
m-348 -66 c-9 -9 -12 -7 -12 12 0 19 3 21 12 12 9 -9 9 -15 0 -24z m348 -68
c0 -5 -5 -10 -11 -10 -5 0 -7 5 -4 10 3 6 8 10 11 10 2 0 4 -4 4 -10z m34
-149 c-6 -6 -24 19 -24 34 1 6 7 1 15 -9 8 -11 12 -22 9 -25z m43 7 c-3 -8 -6
-5 -6 6 -1 11 2 17 5 13 3 -3 4 -12 1 -19z"/>
<path d="M21903 16260 c-86 -52 -82 -189 6 -235 39 -20 100 -19 130 1 22 16
24 15 67 -27 57 -56 71 -42 15 15 -42 43 -43 45 -27 67 22 32 20 97 -4 136
-37 62 -124 82 -187 43z m152 -40 c24 -25 30 -39 30 -75 0 -37 -6 -50 -33 -77
-27 -27 -40 -33 -77 -33 -37 0 -50 6 -77 33 -76 76 -15 201 92 187 20 -3 46
-16 65 -35z"/>
<path d="M880 16195 l-75 -75 78 -78 77 -77 77 77 78 78 -75 75 c-41 41 -77
75 -80 75 -3 0 -39 -34 -80 -75z m120 -20 l34 -35 -74 0 -74 0 34 35 c19 19
37 35 40 35 3 0 21 -16 40 -35z"/>
<path d="M22950 16200 l0 -70 -70 0 c-40 0 -70 -4 -70 -10 0 -6 30 -10 70 -10
l70 0 0 -70 c0 -40 4 -70 10 -70 6 0 10 30 10 70 l0 70 70 0 c40 0 70 4 70 10
0 6 -30 10 -70 10 l-70 0 0 70 c0 40 -4 70 -10 70 -6 0 -10 -30 -10 -70z"/>
<path d="M1447 16243 c-18 -17 -5 -33 28 -33 l35 0 0 -115 0 -115 25 0 c24 0
24 0 27 113 l3 112 33 3 c24 2 32 8 32 23 0 17 -8 19 -88 19 -49 0 -92 -3 -95
-7z"/>
<path d="M2010 16115 l0 -135 24 0 c21 0 25 5 28 37 4 50 22 52 53 4 19 -31
32 -41 51 -41 l26 0 -23 38 c-12 20 -28 46 -35 56 -11 17 -9 24 16 57 36 44
37 49 8 49 -12 0 -37 -18 -60 -42 l-38 -41 0 76 c0 75 -1 77 -25 77 l-25 0 0
-135z"/>
<path d="M2280 16115 l0 -135 25 0 c25 0 25 1 25 92 l0 91 41 -57 c23 -32 43
-55 45 -53 3 3 23 28 44 58 l40 53 0 -92 c0 -91 0 -92 25 -92 l25 0 0 135 c0
135 0 135 -23 135 -17 0 -35 -16 -67 -60 -24 -32 -46 -58 -49 -56 -3 3 -24 29
-46 60 -28 39 -47 56 -62 56 -23 0 -23 -2 -23 -135z"/>
<path d="M13290 16126 c0 -88 3 -106 15 -106 11 0 15 12 15 45 l0 45 50 0 50
0 0 -45 c0 -33 4 -45 15 -45 12 0 15 18 15 105 0 87 -3 105 -15 105 -11 0 -15
-12 -15 -45 l0 -45 -49 0 -50 0 -3 42 c-2 23 -9 43 -15 46 -10 3 -13 -22 -13
-102z"/>
<path d="M14820 16125 c0 -85 3 -105 15 -105 11 0 15 18 17 77 l3 76 29 -41
c16 -23 32 -42 36 -42 4 0 20 19 36 42 l29 41 3 -76 c2 -59 6 -77 17 -77 12 0
15 20 15 105 0 124 -11 134 -62 55 -18 -27 -35 -50 -38 -50 -3 0 -20 23 -39
50 -52 77 -61 69 -61 -55z"/>
<path d="M15250 16215 c0 -9 9 -15 25 -15 25 0 25 -1 25 -90 0 -73 3 -90 15
-90 12 0 15 17 15 89 0 88 0 90 25 93 52 6 28 23 -37 26 -56 2 -68 0 -68 -13z"/>
<path d="M15700 16125 c0 -63 4 -105 10 -105 6 0 10 8 10 18 0 10 6 26 13 37
13 17 16 16 42 -19 42 -55 63 -46 24 10 l-31 46 28 29 c19 20 23 29 13 29 -9
0 -28 -13 -44 -30 -16 -16 -32 -30 -37 -30 -4 0 -8 27 -8 60 0 33 -4 60 -10
60 -6 0 -10 -42 -10 -105z"/>
<path d="M16700 16215 c0 -9 9 -15 25 -15 24 0 25 -2 25 -74 0 -77 6 -106 21
-106 5 0 9 40 9 89 l0 90 27 3 c14 2 28 9 31 16 3 9 -15 12 -67 12 -56 0 -71
-3 -71 -15z"/>
<path d="M18334 16212 c-45 -36 -56 -90 -29 -142 19 -36 43 -50 88 -50 39 0
84 30 73 49 -5 8 -15 6 -33 -9 -33 -25 -54 -25 -87 1 -36 28 -37 89 -1 124 29
30 54 32 88 5 30 -24 37 -25 37 -6 0 41 -96 61 -136 28z"/>
<path d="M18670 16125 c0 -63 4 -105 10 -105 6 0 10 42 10 105 0 63 -4 105
-10 105 -6 0 -10 -42 -10 -105z"/>
<path d="M19190 16196 l0 -34 -43 5 c-34 4 -46 1 -61 -15 -23 -27 -24 -87 0
-113 19 -21 73 -26 92 -7 9 9 12 9 12 0 0 -7 7 -12 15 -12 12 0 15 18 15 105
0 87 -3 105 -15 105 -10 0 -15 -10 -15 -34z m-16 -62 c21 -20 20 -53 -1 -76
-20 -22 -41 -23 -65 -1 -22 20 -23 51 -1 75 20 22 46 23 67 2z"/>
<path d="M20240 16126 c0 -89 3 -106 15 -106 13 0 15 16 13 102 -2 70 -7 103
-15 106 -10 3 -13 -22 -13 -102z"/>
<path d="M20470 16127 l0 -103 55 -2 c76 -2 102 24 95 93 -4 39 -31 57 -77 52
l-43 -5 0 34 c0 24 -5 34 -15 34 -12 0 -15 -18 -15 -103z m112 6 c22 -20 23
-51 1 -75 -31 -34 -83 -12 -83 37 0 48 47 70 82 38z"/>
<path d="M2990 16200 c0 -11 -7 -20 -15 -20 -9 0 -15 -9 -15 -25 0 -16 6 -25
15 -25 11 0 15 -11 15 -39 0 -45 15 -92 33 -103 7 -4 24 -8 40 -8 35 0 39 37
5 42 -20 3 -23 10 -26 55 -3 47 -1 52 20 55 30 4 33 43 3 43 -13 0 -21 8 -23
23 -5 30 -52 32 -52 2z"/>
<path d="M24446 16147 c-17 -45 -22 -142 -7 -133 5 3 7 15 4 26 -3 11 2 48 12
81 20 72 15 88 -9 26z"/>
<path d="M1654 16156 c-27 -23 -28 -23 -7 -34 16 -9 24 -8 33 3 16 19 44 19
60 0 10 -12 10 -16 -1 -19 -8 -2 -34 -10 -59 -18 -55 -16 -75 -55 -45 -88 20
-23 83 -28 103 -8 9 9 12 9 12 0 0 -7 9 -12 20 -12 18 0 20 7 20 78 0 83 -4
93 -37 111 -34 17 -69 13 -99 -13z m96 -99 c0 -21 -36 -49 -57 -45 -10 2 -18
12 -18 23 0 18 15 26 68 34 4 0 7 -5 7 -12z"/>
<path d="M1856 16159 c-46 -36 -30 -71 48 -103 32 -14 37 -18 26 -31 -17 -20
-33 -19 -54 4 -19 21 -46 18 -46 -5 0 -40 103 -60 133 -26 34 38 14 79 -48 99
-38 12 -47 43 -13 43 13 0 29 -5 35 -11 15 -15 44 -4 37 14 -6 17 -47 37 -73
37 -10 0 -30 -9 -45 -21z"/>
<path d="M2614 16156 c-27 -23 -28 -23 -7 -34 16 -9 24 -8 33 3 16 19 44 19
60 0 10 -12 10 -16 -1 -19 -8 -2 -34 -10 -59 -18 -55 -16 -75 -55 -45 -88 20
-23 83 -28 103 -8 9 9 12 9 12 0 0 -7 9 -12 20 -12 18 0 20 7 20 78 0 83 -4
93 -37 111 -34 17 -69 13 -99 -13z m96 -99 c0 -21 -36 -49 -57 -45 -10 2 -18
12 -18 23 0 18 15 26 68 34 4 0 7 -5 7 -12z"/>
<path d="M2816 16159 c-46 -36 -30 -71 48 -103 32 -14 37 -18 26 -31 -17 -20
-33 -19 -55 5 -14 16 -21 17 -38 8 -20 -11 -20 -11 7 -34 51 -45 136 -24 136
33 0 24 -25 47 -65 60 -38 12 -47 43 -13 43 13 0 29 -5 35 -11 15 -15 44 -4
37 14 -6 17 -47 37 -73 37 -10 0 -30 -9 -45 -21z"/>
<path d="M3139 16151 c-39 -39 -40 -96 -3 -140 21 -26 33 -31 68 -31 39 0 86
21 86 39 0 14 -33 22 -44 11 -15 -15 -62 -12 -76 5 -18 22 -10 26 61 28 l64 2
-2 35 c-4 76 -97 107 -154 51z m101 -31 c10 -19 8 -20 -35 -20 -46 0 -54 7
-33 28 19 19 56 14 68 -8z"/>
<path d="M3330 16080 l0 -100 25 0 c24 0 25 2 25 71 0 69 1 71 30 82 18 7 30
19 30 29 0 21 -13 23 -43 7 -16 -9 -22 -9 -25 0 -2 6 -12 11 -23 11 -17 0 -19
-8 -19 -100z"/>
<path d="M13517 16159 c-27 -16 -38 -53 -26 -89 13 -35 35 -50 78 -50 34 0 71
39 71 75 0 37 -37 75 -73 75 -18 0 -40 -5 -50 -11z m77 -25 c21 -20 20 -53 -1
-76 -22 -24 -49 -23 -67 4 -20 29 -20 47 1 70 20 22 46 23 67 2z"/>
<path d="M13670 16094 c0 -59 3 -74 15 -74 11 0 15 13 15 54 0 60 19 88 48 69
12 -7 18 -27 20 -67 4 -67 22 -76 22 -10 0 55 14 84 40 84 26 0 40 -29 40 -84
0 -25 5 -46 10 -46 13 0 13 106 0 131 -12 21 -50 25 -80 9 -12 -7 -21 -7 -25
0 -3 5 -28 9 -55 9 l-50 -2 0 -73z"/>
<path d="M13941 16144 c-12 -15 -21 -37 -21 -49 0 -12 9 -34 21 -49 23 -30 72
-35 105 -12 24 18 10 34 -16 18 -26 -16 -45 -15 -64 4 -27 26 -18 34 39 34 51
0 55 2 55 23 0 57 -82 78 -119 31z m89 -14 c10 -19 8 -20 -35 -20 -46 0 -54 7
-33 28 19 19 56 14 68 -8z"/>
<path d="M15050 16164 c0 -5 12 -39 26 -76 28 -71 27 -97 -6 -105 -25 -7 -26
-23 -2 -23 35 0 46 18 101 158 16 40 18 52 7 52 -7 0 -21 -21 -31 -47 -10 -27
-21 -52 -25 -56 -4 -4 -16 16 -27 44 -17 46 -43 77 -43 53z"/>
<path d="M15410 16155 c-18 -21 -6 -29 19 -13 16 10 26 10 39 2 24 -16 18 -28
-17 -35 -38 -8 -61 -26 -61 -49 0 -28 23 -40 73 -38 l47 2 0 61 c0 34 -5 66
-12 73 -17 17 -73 15 -88 -3z m80 -71 c0 -20 -24 -44 -45 -44 -32 0 -43 20
-20 37 19 13 65 18 65 7z"/>
<path d="M15562 16158 c-28 -28 -9 -61 41 -73 35 -9 38 -45 4 -45 -13 0 -28 5
-35 12 -17 17 -28 2 -12 -17 16 -19 74 -20 90 0 19 23 7 49 -32 68 -21 10 -38
25 -38 33 0 17 24 18 50 2 24 -15 37 -4 20 17 -15 18 -71 20 -88 3z"/>
<path d="M15862 16158 c-28 -28 -9 -61 41 -73 35 -9 38 -45 4 -45 -13 0 -28 5
-35 12 -17 17 -28 2 -12 -17 16 -19 74 -20 90 0 19 23 7 49 -32 68 -21 10 -38
25 -38 33 0 17 24 18 50 2 24 -15 37 -4 20 17 -15 18 -71 20 -88 3z"/>
<path d="M16860 16150 c-12 -12 -20 -33 -20 -55 0 -45 29 -75 74 -75 18 0 39
7 46 15 18 22 8 26 -27 13 -25 -9 -35 -9 -47 1 -32 27 -19 41 39 41 48 0 55 2
55 20 0 29 -36 60 -70 60 -17 0 -39 -9 -50 -20z m78 -12 c21 -21 13 -28 -28
-28 -22 0 -40 4 -40 8 0 14 23 32 40 32 9 0 21 -5 28 -12z"/>
<path d="M17030 16155 c-18 -21 -6 -29 19 -13 16 10 26 10 39 2 24 -16 18 -28
-17 -35 -38 -8 -61 -26 -61 -49 0 -28 23 -40 73 -38 l47 2 0 61 c0 34 -5 66
-12 73 -17 17 -73 15 -88 -3z m80 -71 c0 -20 -24 -44 -45 -44 -32 0 -43 20
-20 37 19 13 65 18 65 7z"/>
<path d="M17170 16094 c0 -59 3 -74 15 -74 11 0 15 13 15 54 0 60 19 88 48 69
12 -7 18 -27 20 -67 4 -67 22 -76 22 -10 0 55 14 84 40 84 26 0 40 -29 40 -84
0 -25 5 -46 10 -46 17 0 12 116 -6 134 -18 18 -47 21 -74 6 -12 -7 -21 -7 -25
0 -3 5 -28 9 -55 9 l-50 -2 0 -73z"/>
<path d="M17440 16155 c-19 -23 -7 -49 33 -68 20 -9 37 -22 37 -27 0 -17 -31
-24 -51 -12 -30 19 -44 14 -24 -8 21 -24 77 -27 95 -5 19 23 7 49 -33 68 -20
9 -37 24 -37 32 0 17 35 21 45 5 9 -15 25 -12 25 4 0 27 -69 36 -90 11z"/>
<path d="M18525 16157 c-24 -18 -3 -32 23 -16 23 15 52 6 52 -16 0 -10 -9 -15
-28 -15 -54 0 -93 -50 -59 -78 7 -6 36 -10 65 -10 l52 1 0 58 c0 39 -5 63 -16
73 -19 20 -64 21 -89 3z m75 -80 c0 -19 -21 -37 -42 -37 -24 0 -35 29 -17 41
21 13 59 11 59 -4z"/>
<path d="M18750 16148 c-43 -46 -8 -128 55 -128 18 0 38 7 45 15 16 19 5 34
-12 17 -25 -25 -78 -8 -78 25 0 9 17 13 55 13 46 0 55 3 55 18 0 58 -78 84
-120 40z m74 -4 c33 -13 17 -34 -24 -34 -41 0 -49 7 -28 28 13 13 28 15 52 6z"/>
<path d="M18910 16093 c0 -42 4 -73 10 -73 6 0 10 21 10 46 0 55 14 84 40 84
26 0 40 -29 40 -84 0 -25 5 -46 10 -46 16 0 12 125 -3 139 -8 6 -35 10 -60 9
l-47 -2 0 -73z"/>
<path d="M19275 16157 c-24 -18 -3 -32 23 -16 23 15 52 6 52 -16 0 -10 -9 -15
-28 -15 -54 0 -93 -50 -59 -78 7 -6 36 -10 65 -10 l52 1 0 58 c0 39 -5 63 -16
73 -19 20 -64 21 -89 3z m75 -80 c0 -19 -21 -37 -42 -37 -24 0 -35 29 -17 41
21 13 59 11 59 -4z"/>
<path d="M19420 16093 c0 -42 4 -73 10 -73 6 0 10 21 10 46 0 51 14 84 35 84
8 0 15 4 15 9 0 5 -16 9 -35 8 l-35 -1 0 -73z"/>
<path d="M20310 16093 c0 -58 3 -73 15 -73 12 0 15 13 15 59 0 51 3 61 20 66
34 11 50 -12 50 -71 0 -30 5 -54 10 -54 16 0 12 125 -3 139 -8 6 -35 10 -60 9
l-47 -2 0 -73z"/>
<path d="M20683 16155 c-29 -20 -37 -59 -19 -94 25 -48 82 -56 121 -16 30 30
32 64 4 99 -24 30 -71 35 -106 11z m81 -21 c21 -20 20 -53 -1 -76 -20 -22 -41
-23 -65 -1 -22 20 -23 51 -1 75 20 22 46 23 67 2z"/>
<path d="M20830 16163 c0 -5 9 -19 20 -33 25 -32 25 -37 -6 -77 -23 -30 -23
-33 -6 -33 10 0 25 11 32 25 7 14 16 25 20 25 4 0 13 -11 20 -25 7 -14 19 -25
27 -25 18 0 16 10 -7 40 -11 14 -20 30 -20 35 0 6 9 21 20 35 36 46 15 58 -23
14 l-23 -26 -13 26 c-13 24 -41 37 -41 19z"/>
<path d="M24453 15848 c-29 -45 -60 -119 -52 -124 5 -3 18 -2 29 1 17 5 20 12
15 39 -5 26 -1 39 20 64 20 24 23 32 11 32 -8 0 -18 -6 -23 -12z"/>
<path d="M3570 14341 l0 -241 40 0 39 0 3 88 3 87 81 5 c53 3 89 11 107 23 62
40 82 116 49 189 -28 65 -68 81 -209 86 l-113 4 0 -241z m213 148 c30 -16 37
-28 37 -66 0 -48 -38 -73 -111 -73 l-59 0 0 75 0 75 56 0 c30 0 65 -5 77 -11z"/>
<path d="M4670 14565 c-27 -14 -45 -42 -54 -87 -5 -23 -12 -28 -37 -28 -29 0
-30 -2 -27 -37 3 -33 7 -38 31 -41 l27 -3 0 -135 0 -134 45 0 45 0 0 135 0
135 35 0 c34 0 35 1 35 40 0 39 -1 40 -35 40 -27 0 -35 4 -35 18 0 26 20 42
52 42 25 0 28 3 28 35 0 35 -1 35 -42 35 -24 -1 -54 -7 -68 -15z"/>
<path d="M4810 14535 l0 -45 39 0 c44 0 49 7 43 56 -4 32 -6 34 -43 34 l-39 0
0 -45z"/>
<path d="M4960 14340 l0 -240 40 0 40 0 0 240 0 240 -40 0 -40 0 0 -240z"/>
<path d="M3960 14276 l0 -176 40 0 40 0 0 113 c0 132 9 153 71 163 36 6 39 9
39 40 0 30 -3 34 -27 34 -16 -1 -39 -7 -53 -15 -31 -18 -41 -18 -37 -2 1 7
-12 13 -35 15 l-38 3 0 -175z"/>
<path d="M4255 14428 c-102 -60 -115 -216 -23 -293 115 -97 298 -17 298 132 0
70 -19 114 -65 149 -31 23 -49 29 -104 32 -54 2 -73 -1 -106 -20z m154 -74
c73 -62 37 -184 -55 -184 -41 0 -89 40 -98 80 -7 39 14 92 45 114 34 23 73 20
108 -10z"/>
<path d="M4810 14275 l0 -175 40 0 40 0 0 175 0 175 -40 0 -40 0 0 -175z"/>
<path d="M5174 14432 c-58 -37 -79 -78 -79 -159 0 -79 15 -110 74 -150 65 -44
164 -37 216 15 32 32 31 38 -5 57 -28 14 -31 14 -50 -5 -29 -29 -100 -28 -127
3 -11 12 -23 30 -26 40 -6 16 4 17 123 17 l130 0 0 35 c0 48 -21 94 -59 130
-28 25 -41 30 -99 33 -53 2 -73 -1 -98 -16z m125 -57 c26 -13 41 -33 41 -56 0
-5 -36 -9 -80 -9 -59 0 -80 3 -80 13 0 26 47 66 78 67 7 0 26 -7 41 -15z"/>
<path d="M3840 13570 c0 -38 -12 -52 -25 -30 -8 13 -55 13 -55 -1 0 -5 4 -8 9
-5 5 4 21 2 35 -4 47 -17 46 -93 -1 -111 -39 -14 -73 12 -73 56 0 18 5 37 10
40 6 3 10 12 10 18 -1 23 -40 -36 -40 -60 0 -53 80 -94 111 -57 12 14 14 14
20 -3 4 -10 8 30 8 90 1 59 -1 107 -4 107 -3 0 -5 -18 -5 -40z"/>
<path d="M5864 13505 c0 -60 1 -84 3 -52 2 32 2 81 0 110 -2 29 -3 3 -3 -58z"/>
<path d="M6228 13599 c-10 -5 -18 -19 -18 -29 0 -11 -7 -20 -15 -20 -8 0 -15
-4 -15 -10 0 -5 7 -10 15 -10 10 0 15 -17 18 -67 l3 -68 2 68 c2 60 4 67 22
67 11 0 20 5 20 10 0 6 -9 10 -20 10 -27 0 -25 24 3 43 24 18 12 22 -15 6z"/>
<path d="M3550 13500 l0 -100 65 0 c37 0 65 4 65 10 0 6 -27 10 -60 10 l-60 0
0 40 0 39 58 4 57 3 -57 2 -58 2 0 40 0 39 63 4 62 3 -67 2 -68 2 0 -100z"/>
<path d="M3900 13590 c0 -5 5 -10 10 -10 6 0 10 5 10 10 0 6 -4 10 -10 10 -5
0 -10 -4 -10 -10z"/>
<path d="M7090 13590 c0 -5 5 -10 10 -10 6 0 10 5 10 10 0 6 -4 10 -10 10 -5
0 -10 -4 -10 -10z"/>
<path d="M3980 13566 c0 -8 -6 -17 -12 -20 -10 -5 -10 -7 0 -12 7 -3 12 -24
12 -50 0 -52 14 -84 36 -84 8 0 12 5 9 10 -4 6 -11 8 -16 5 -5 -4 -9 20 -9 54
0 48 3 61 15 61 8 0 15 5 15 10 0 6 -7 10 -15 10 -8 0 -15 7 -15 15 0 8 -4 15
-10 15 -5 0 -10 -6 -10 -14z"/>
<path d="M7001 13568 c0 -10 -8 -18 -16 -18 -8 0 -15 -4 -15 -10 0 -5 7 -10
15 -10 11 0 15 -13 15 -53 0 -54 12 -77 39 -77 11 0 9 5 -7 16 -18 12 -22 25
-22 65 0 42 3 49 20 49 11 0 20 5 20 10 0 6 -9 10 -19 10 -11 0 -22 8 -24 18
-4 16 -5 16 -6 0z"/>
<path d="M3900 13475 c0 -43 4 -75 10 -75 6 0 10 32 10 75 0 43 -4 75 -10 75
-6 0 -10 -32 -10 -75z"/>
<path d="M4111 13548 c-1 -4 10 -38 24 -75 29 -76 27 -113 -7 -113 -15 0 -19
-3 -12 -10 18 -18 41 0 62 48 42 97 61 152 54 152 -4 0 -18 -27 -30 -60 -22
-55 -42 -78 -42 -47 0 14 -48 116 -49 105z"/>
<path d="M4298 13536 c-58 -44 -29 -136 43 -136 28 0 69 44 69 73 0 24 -39 83
-40 60 0 -6 5 -15 10 -18 6 -3 10 -21 10 -40 0 -34 -27 -65 -57 -65 -22 0 -53
39 -53 65 0 32 36 68 61 62 10 -3 19 -1 19 4 0 13 -42 10 -62 -5z"/>
<path d="M4450 13495 c0 -42 5 -60 20 -75 23 -23 50 -26 68 -8 9 9 12 9 12 0
0 -7 3 -12 8 -12 8 0 7 139 -2 147 -3 4 -6 -21 -6 -55 0 -51 -3 -63 -20 -72
-14 -8 -26 -8 -40 0 -19 10 -25 45 -23 118 1 6 -3 12 -8 12 -5 0 -9 -25 -9
-55z"/>
<path d="M4622 13475 l1 -80 6 65 c5 58 9 65 29 68 12 2 22 8 22 13 0 13 -27
11 -36 -2 -4 -8 -9 -7 -15 2 -5 9 -8 -18 -7 -66z"/>
<path d="M4762 13450 c1 -58 3 -88 5 -67 4 32 7 37 21 32 43 -18 61 -17 86 8
33 33 33 71 1 102 -26 27 -64 32 -83 13 -10 -10 -15 -10 -22 2 -6 10 -9 -21
-8 -90z m96 73 c52 -45 11 -127 -51 -104 -45 17 -49 88 -5 109 31 15 33 14 56
-5z"/>
<path d="M4962 13530 c-42 -40 -24 -112 33 -126 25 -6 65 10 65 27 0 6 -10 3
-22 -5 -30 -21 -44 -20 -68 4 -32 32 -24 40 40 40 53 0 60 2 60 20 0 27 -35
60 -63 60 -13 0 -33 -9 -45 -20z m69 0 c10 -6 19 -20 19 -30 0 -17 -7 -20 -44
-20 -53 0 -64 12 -36 40 23 23 33 24 61 10z"/>
<path d="M5119 13514 c-2 -22 -2 -57 1 -79 4 -35 5 -32 10 25 4 58 7 65 28 68
12 2 22 8 22 13 0 13 -27 11 -36 -2 -5 -8 -9 -8 -14 1 -5 7 -9 -3 -11 -26z"/>
<path d="M5222 13538 c-24 -24 -13 -49 28 -66 32 -12 40 -20 38 -36 -4 -26
-40 -33 -58 -11 -7 8 -17 15 -23 15 -5 0 -2 -9 8 -20 10 -11 28 -20 41 -20 22
0 54 23 54 40 0 13 -30 40 -44 40 -7 0 -21 6 -31 14 -16 12 -17 16 -6 30 17
20 35 20 55 0 9 -8 16 -12 16 -7 0 16 -24 33 -45 33 -12 0 -26 -5 -33 -12z"/>
<path d="M5372 13527 c-31 -33 -29 -80 4 -106 15 -12 34 -21 44 -21 10 0 29 9
44 21 34 27 35 71 1 104 -30 31 -65 32 -93 2z m83 -12 c32 -31 31 -50 0 -81
-27 -27 -59 -25 -82 5 -24 31 -15 68 22 89 28 16 33 15 60 -13z"/>
<path d="M5542 13475 l1 -80 6 63 c6 67 21 86 56 76 29 -9 29 -10 36 -77 l6
-62 1 62 c2 81 -29 114 -78 83 -9 -6 -17 -5 -22 3 -4 7 -7 -24 -6 -68z"/>
<path d="M5714 13535 c-22 -17 -12 -20 17 -4 26 14 59 2 59 -21 0 -13 -10 -20
-39 -25 -47 -8 -65 -26 -56 -54 8 -26 46 -37 74 -21 14 7 21 7 21 0 0 -5 5
-10 10 -10 6 0 10 26 10 58 0 44 -5 63 -18 75 -23 21 -52 22 -78 2z m76 -80
c0 -28 -37 -52 -65 -41 -25 9 -15 49 15 57 43 12 50 10 50 -16z"/>
<path d="M5973 13475 c0 -44 2 -61 4 -37 2 23 2 59 0 80 -2 20 -4 1 -4 -43z"/>
<path d="M6030 13475 c0 -92 17 -100 22 -10 3 71 1 85 -13 85 -5 0 -9 -34 -9
-75z"/>
<path d="M6070 13539 c0 -5 4 -7 10 -4 5 3 19 1 30 -5 17 -9 20 -21 20 -70 0
-38 4 -60 11 -60 20 0 6 120 -16 136 -22 17 -55 18 -55 3z"/>
<path d="M6316 13527 c-15 -15 -26 -38 -26 -52 0 -32 41 -75 73 -75 35 0 67
35 67 73 0 43 -17 65 -57 73 -26 5 -37 1 -57 -19z m92 -15 c26 -34 8 -84 -35
-97 -25 -7 -73 32 -73 60 0 9 11 27 25 41 27 27 59 26 83 -4z"/>
<path d="M6483 13475 c0 -44 2 -60 4 -35 5 71 11 87 35 93 12 4 19 9 16 12 -3
4 -15 2 -26 -4 -15 -8 -22 -8 -25 2 -3 6 -5 -24 -4 -68z"/>
<path d="M6570 13475 c0 -43 4 -75 10 -75 6 0 10 27 10 60 0 48 4 61 19 70 25
13 27 13 45 -6 10 -10 17 -36 18 -72 l1 -57 6 59 c5 44 11 62 27 72 34 23 57
-3 65 -73 l6 -58 2 61 c1 48 -3 65 -17 77 -23 21 -36 21 -67 1 -15 -10 -25
-12 -25 -5 0 17 -48 25 -65 11 -10 -9 -15 -9 -15 -1 0 6 -4 11 -10 11 -6 0
-10 -32 -10 -75z"/>
<path d="M6853 13543 c-7 -2 -13 -9 -13 -14 0 -6 8 -5 20 1 27 15 60 3 60 -20
0 -14 -10 -20 -40 -25 -42 -7 -64 -32 -54 -59 8 -22 47 -30 73 -16 14 7 21 7
21 0 0 -5 5 -10 10 -10 6 0 10 26 10 58 0 77 -32 108 -87 85z m67 -88 c0 -29
-31 -49 -61 -40 -29 9 -21 47 11 56 43 12 50 10 50 -16z"/>
<path d="M7090 13475 c0 -43 4 -75 10 -75 6 0 10 32 10 75 0 43 -4 75 -10 75
-6 0 -10 -32 -10 -75z"/>
<path d="M7175 13525 c-30 -29 -32 -65 -5 -96 10 -13 19 -19 20 -13 0 5 -5 15
-11 21 -20 20 -6 76 22 92 24 13 29 13 53 -2 36 -24 37 -80 1 -103 -14 -9 -32
-14 -40 -10 -8 3 -15 1 -15 -4 0 -14 42 -12 61 3 43 33 46 94 6 122 -31 22
-65 18 -92 -10z"/>
<path d="M7375 13539 c-4 -6 -13 -8 -21 -5 -11 4 -14 -9 -13 -67 l2 -72 6 58
c5 42 12 63 26 73 39 29 59 8 66 -68 l6 -63 1 62 c2 44 -2 66 -14 77 -18 18
-50 21 -59 5z"/>
<path d="M6410 12505 c0 -22 4 -25 40 -25 l40 0 0 -140 0 -140 30 0 30 0 0
140 0 140 40 0 c36 0 40 3 40 25 l0 25 -110 0 -110 0 0 -25z"/>
<path d="M7100 12365 l0 -165 30 0 c28 0 30 2 30 39 0 22 6 44 15 51 9 7 17
11 18 9 2 -2 17 -25 33 -51 25 -41 34 -48 61 -48 l33 0 -45 72 -45 72 40 41
c22 22 40 44 40 48 0 4 -14 7 -32 7 -25 0 -41 -10 -75 -47 l-42 -48 -1 93 0
92 -30 0 -30 0 0 -165z"/>
<path d="M7427 12523 c-4 -3 -7 -78 -7 -165 l0 -158 30 0 29 0 3 112 3 113 49
-68 c28 -37 52 -67 56 -67 3 0 26 28 50 62 l45 61 3 -106 3 -107 29 0 30 0 0
165 0 165 -25 0 c-20 0 -37 -15 -76 -70 -28 -38 -55 -70 -59 -70 -5 0 -31 32
-60 70 -37 50 -58 70 -74 70 -13 0 -26 -3 -29 -7z"/>
<path d="M8300 12475 c0 -8 -9 -20 -20 -27 -11 -7 -20 -23 -20 -35 0 -16 6
-23 20 -23 18 0 20 -7 20 -69 0 -85 22 -121 76 -121 29 0 34 3 34 24 0 18 -6
25 -22 28 -21 3 -23 9 -26 71 -3 66 -3 67 23 67 20 0 25 5 25 25 0 20 -5 25
-25 25 -20 0 -25 5 -25 25 0 21 -5 25 -30 25 -20 0 -30 -5 -30 -15z"/>
<path d="M6660 12413 l-32 -26 24 -13 c18 -10 26 -10 38 0 27 24 49 25 72 6
l23 -18 -28 -11 c-16 -6 -40 -11 -53 -11 -31 0 -84 -50 -84 -79 0 -35 35 -61
81 -61 22 0 49 5 60 10 13 7 19 7 19 0 0 -5 11 -10 25 -10 25 0 25 0 25 99 0
96 -1 100 -26 120 -39 31 -104 28 -144 -6z m113 -131 c-14 -39 -77 -58 -90
-26 -8 20 8 35 49 43 40 9 49 6 41 -17z"/>
<path d="M6902 12420 c-27 -25 -29 -71 -4 -93 10 -9 34 -22 53 -28 49 -17 62
-29 48 -45 -16 -20 -46 -17 -70 7 -13 13 -27 18 -40 14 -25 -8 -24 -21 6 -50
19 -20 34 -25 75 -25 59 0 90 24 90 68 0 35 -22 57 -75 74 -23 8 -41 20 -43
31 -5 27 26 32 58 9 25 -19 30 -19 46 -6 18 13 18 15 -9 39 -36 32 -103 35
-135 5z"/>
<path d="M7836 12419 c-31 -25 -33 -35 -5 -49 16 -9 23 -8 32 3 7 8 19 16 27
19 22 8 60 -9 60 -27 0 -8 -2 -15 -4 -15 -30 0 -114 -24 -128 -37 -23 -21 -23
-75 0 -96 22 -20 102 -23 120 -5 9 9 12 9 12 0 0 -7 13 -12 30 -12 l30 0 0 86
c0 121 -21 153 -101 154 -32 0 -54 -6 -73 -21z m114 -127 c0 -48 -82 -71 -88
-25 -3 17 3 24 25 29 15 3 33 7 38 9 21 7 25 5 25 -13z"/>
<path d="M8075 12415 c-46 -45 -26 -90 51 -115 36 -12 49 -22 49 -36 0 -28
-48 -31 -75 -4 -16 16 -24 18 -40 10 -17 -9 -18 -14 -8 -30 16 -25 51 -40 97
-40 49 0 84 27 84 64 0 35 -26 61 -78 79 -28 10 -40 20 -40 33 0 27 39 30 64
5 17 -17 22 -18 38 -6 17 13 17 15 -6 39 -34 36 -101 37 -136 1z"/>
<path d="M8478 12411 c-31 -27 -33 -34 -33 -91 0 -57 2 -64 33 -91 41 -37 114
-41 156 -8 14 11 26 24 26 29 0 14 -41 23 -53 11 -26 -26 -107 -3 -107 30 0 5
38 9 85 9 l85 0 0 30 c0 69 -45 110 -119 110 -31 0 -49 -7 -73 -29z m110 -27
c35 -24 26 -34 -33 -34 -30 0 -55 4 -55 9 0 12 40 41 55 41 6 0 21 -7 33 -16z"/>
<path d="M8710 12320 l0 -120 30 0 30 0 0 83 c0 89 8 107 47 107 18 0 23 6 23
25 0 30 -33 35 -62 8 -17 -15 -18 -15 -18 0 0 11 -8 17 -25 17 l-25 0 0 -120z"/>
<path d="M20250 12245 l0 -105 70 0 c56 0 70 3 70 15 0 11 -12 15 -50 15 -49
0 -50 1 -50 30 0 29 2 30 45 30 33 0 45 4 45 15 0 11 -12 15 -45 15 -43 0 -45
1 -45 30 0 29 1 30 50 30 38 0 50 4 50 15 0 12 -14 15 -70 15 l-70 0 0 -105z"/>
<path d="M20530 12317 c0 -32 -1 -32 -39 -29 -32 3 -42 -1 -60 -23 -27 -35
-27 -65 0 -98 18 -24 26 -27 80 -25 l59 2 0 103 c0 96 -1 103 -20 103 -16 0
-20 -7 -20 -33z m-12 -66 c18 -11 11 -61 -10 -75 -23 -14 -52 3 -56 33 -6 40
32 64 66 42z"/>
<path d="M20610 12330 c0 -13 7 -20 20 -20 13 0 20 7 20 20 0 13 -7 20 -20 20
-13 0 -20 -7 -20 -20z"/>
<path d="M20860 12245 c0 -98 1 -105 20 -105 17 0 20 7 20 40 0 40 0 40 38 40
50 0 75 26 70 71 -4 41 -34 59 -100 59 l-48 0 0 -105z m98 66 c9 -1 12 -11 10
-28 -2 -23 -8 -29 -35 -31 -30 -3 -33 -1 -33 26 0 34 6 41 28 37 9 -2 23 -4
30 -4z"/>
<path d="M21372 12338 c-7 -7 -12 -18 -12 -25 0 -8 -7 -16 -15 -19 -18 -7 -20
-31 -3 -36 8 -3 11 -24 9 -61 -2 -52 -1 -57 18 -57 19 0 21 6 21 60 0 53 2 60
20 60 11 0 20 7 20 15 0 8 -9 15 -20 15 -11 0 -20 5 -20 11 0 6 9 13 20 16 11
3 20 12 20 19 0 17 -41 19 -58 2z"/>
<path d="M21450 12330 c0 -13 7 -20 20 -20 13 0 20 7 20 20 0 13 -7 20 -20 20
-13 0 -20 -7 -20 -20z"/>
<path d="M21530 12245 c0 -87 3 -105 15 -105 12 0 15 18 15 105 0 87 -3 105
-15 105 -12 0 -15 -18 -15 -105z"/>
<path d="M20700 12315 c0 -9 -7 -18 -15 -21 -8 -4 -15 -12 -15 -20 0 -8 7 -14
15 -14 11 0 15 -11 15 -41 0 -53 15 -79 45 -79 27 0 34 24 10 34 -10 3 -15 19
-15 46 0 29 4 40 15 40 8 0 15 7 15 15 0 8 -6 15 -14 15 -7 0 -16 9 -19 20 -6
23 -37 27 -37 5z"/>
<path d="M21210 12293 c-88 -32 -73 -153 19 -153 39 0 81 38 81 74 0 45 -61
93 -100 79z m50 -47 c28 -35 -11 -93 -47 -70 -36 22 -23 84 17 84 10 0 23 -7
30 -14z"/>
<path d="M21642 12289 c-44 -16 -57 -94 -22 -129 25 -25 82 -27 105 -4 13 13
14 19 4 25 -8 4 -19 3 -26 -2 -18 -15 -57 -7 -61 13 -3 14 6 17 50 20 47 3 53
5 50 23 -8 44 -56 70 -100 54z m58 -45 c0 -9 -11 -14 -30 -14 -33 0 -39 14
-13 28 21 12 43 5 43 -14z"/>
<path d="M20610 12215 c0 -68 2 -75 20 -75 18 0 20 7 20 75 0 68 -2 75 -20 75
-18 0 -20 -7 -20 -75z"/>
<path d="M21040 12214 c0 -67 2 -74 19 -74 17 0 20 8 23 53 2 43 7 54 26 62
37 16 26 33 -23 33 l-45 0 0 -74z"/>
<path d="M21450 12215 c0 -68 2 -75 20 -75 18 0 20 7 20 75 0 68 -2 75 -20 75
-18 0 -20 -7 -20 -75z"/>
<path d="M4650 12083 c-68 -11 -188 -60 -252 -102 -192 -125 -310 -312 -338
-534 -29 -232 85 -506 274 -659 124 -100 308 -168 453 -168 42 0 72 -4 69 -9
-3 -5 -16 -7 -29 -4 -19 4 -20 3 -4 -7 22 -14 23 -45 1 -36 -9 3 -22 6 -30 6
-9 0 -12 5 -9 10 10 17 -16 11 -90 -19 -38 -16 -69 -34 -68 -39 1 -5 -8 -8
-20 -5 -21 5 -21 5 -5 -12 20 -21 167 -130 301 -221 89 -62 109 -78 90 -72
-12 4 -153 -68 -148 -74 3 -3 -14 -4 -37 -3 -105 6 -558 230 -848 420 -76 50
-169 97 -242 125 -56 20 -168 50 -188 50 -8 0 -10 -61 -8 -237 3 -209 5 -242
22 -273 26 -49 64 -88 111 -113 l40 -22 1095 0 c1231 0 1152 -5 1224 75 58 65
66 110 66 386 l0 243 -102 -45 c-57 -25 -148 -63 -202 -84 -54 -22 -154 -71
-222 -110 l-123 -71 -102 11 c-55 5 -147 10 -203 10 l-101 1 84 39 c91 44 221
120 463 272 185 117 298 176 419 219 l89 32 0 311 0 311 -51 30 c-28 16 -57
38 -66 47 -14 16 -19 14 -72 -25 -31 -24 -94 -69 -141 -101 -47 -32 -96 -73
-110 -90 -13 -17 -49 -57 -79 -89 -58 -61 -71 -61 -71 -1 0 41 -44 193 -71
247 -93 184 -277 327 -476 371 -66 15 -229 20 -293 9z m253 -418 c23 -25 109
-96 192 -158 152 -113 195 -159 195 -206 1 -24 4 -22 51 29 l50 55 -6 -70
c-27 -311 -227 -536 -522 -589 -20 -3 -33 -1 -33 5 0 5 22 43 50 83 27 40 57
91 66 112 16 40 51 84 66 84 30 0 104 49 138 92 22 28 40 54 40 57 0 4 -28 6
-62 3 l-63 -4 105 53 c58 29 100 54 94 56 -16 5 -212 -65 -262 -93 -55 -32
-69 -55 -95 -156 l-22 -83 -94 -3 c-58 -2 -98 1 -107 8 -7 7 -25 48 -39 93
-15 47 -38 94 -53 111 -33 35 -117 75 -232 110 -120 36 -83 10 120 -82 21 -10
14 -11 -47 -9 -78 2 -78 4 -25 -61 23 -29 57 -54 101 -76 58 -28 69 -38 98
-90 18 -32 56 -89 83 -127 28 -38 50 -73 50 -77 0 -16 -111 8 -184 39 -226 94
-356 281 -385 550 l-7 70 52 -52 52 -51 6 29 c9 41 48 78 206 199 165 125 218
180 266 277 l37 74 39 -78 c21 -43 58 -98 81 -124z m57 -1035 c0 -5 -5 -10
-11 -10 -5 0 -7 5 -4 10 3 6 8 10 11 10 2 0 4 -4 4 -10z m-90 -510 c0 -5 -5
-10 -11 -10 -5 0 -7 5 -4 10 3 6 8 10 11 10 2 0 4 -4 4 -10z"/>
<path d="M6430 11842 c0 -147 18 -166 22 -24 l3 97 30 -43 c17 -23 36 -50 43
-60 13 -16 13 -16 8 1 -3 10 -2 16 3 12 5 -3 22 15 38 40 15 24 31 44 36 45 4
0 7 -43 7 -95 0 -60 4 -95 11 -95 14 0 10 181 -5 199 -8 11 -8 13 2 7 7 -4 12
-1 12 8 0 31 -25 15 -63 -39 -21 -30 -41 -55 -45 -55 -4 0 -19 20 -34 43 -15
24 -37 52 -48 62 -20 18 -20 18 -20 -103z"/>
<path d="M8903 11840 c-1 -82 2 -115 7 -97 10 34 28 57 44 57 6 0 22 -18 36
-40 14 -22 28 -40 33 -40 10 0 3 13 -29 57 -30 40 -30 54 1 83 14 13 23 25 20
28 -2 3 -26 -17 -52 -44 l-48 -49 -6 85 c-5 80 -5 77 -6 -40z"/>
<path d="M9528 11949 c-10 -5 -18 -21 -18 -34 0 -18 -5 -25 -20 -25 -11 0 -20
-4 -20 -10 0 -5 9 -10 20 -10 17 0 20 -8 23 -77 l3 -78 2 78 2 77 55 0 55 0 2
-77 2 -78 5 75 6 75 43 3 42 3 0 -77 c0 -43 2 -75 4 -73 2 2 6 42 9 87 l5 84
-49 -4 c-32 -2 -50 1 -54 10 -7 20 6 42 26 42 10 0 19 5 19 10 0 16 -26 11
-43 -8 -10 -10 -17 -26 -17 -35 0 -14 -10 -17 -56 -17 -47 0 -55 3 -52 18 2 9
13 21 26 27 12 5 22 13 22 17 0 11 -22 9 -42 -3z"/>
<path d="M10574 11840 c0 -69 1 -97 3 -62 2 34 2 90 0 125 -2 34 -3 6 -3 -63z"/>
<path d="M8450 11915 c0 -9 -7 -18 -15 -21 -8 -4 -15 -10 -15 -15 0 -5 7 -9
15 -9 12 0 15 -13 15 -59 0 -41 5 -65 16 -75 18 -18 44 -21 44 -6 0 6 -8 10
-17 8 -15 -3 -18 7 -21 64 -3 62 -1 67 20 71 l23 4 -22 8 c-13 4 -23 16 -23
26 0 11 -4 19 -10 19 -5 0 -10 -7 -10 -15z"/>
<path d="M10460 11915 c0 -9 -7 -18 -15 -21 -8 -4 -15 -10 -15 -15 0 -5 7 -9
15 -9 12 0 15 -13 15 -59 0 -61 15 -91 46 -91 21 0 17 17 -6 23 -17 4 -20 14
-20 66 0 48 3 61 15 61 8 0 15 5 15 10 0 6 -7 10 -15 10 -8 0 -15 9 -15 20 0
11 -4 20 -10 20 -5 0 -10 -7 -10 -15z"/>
<path d="M6722 11878 c-20 -20 -13 -29 11 -14 22 15 67 12 67 -4 0 -5 2 -15 6
-23 4 -11 -6 -16 -40 -19 -55 -7 -76 -22 -76 -54 0 -34 41 -52 83 -36 24 9 33
9 39 -1 4 -6 8 23 8 65 0 66 -3 79 -19 88 -26 14 -64 13 -79 -2z m83 -78 c19
-30 -53 -82 -82 -59 -24 20 -12 53 22 60 46 10 53 10 60 -1z"/>
<path d="M6882 11803 c1 -49 3 -70 5 -48 7 88 13 106 40 116 43 16 63 -11 63
-88 0 -35 4 -63 10 -63 6 0 10 28 10 65 0 52 -4 69 -20 85 -21 21 -65 27 -75
10 -3 -5 -11 -10 -16 -10 -6 0 -7 5 -4 10 3 6 1 10 -4 10 -7 0 -10 -32 -9 -87z"/>
<path d="M7088 11879 c-30 -17 -20 -28 11 -13 23 11 34 12 54 3 37 -17 24 -45
-24 -52 -21 -3 -45 -12 -54 -20 -47 -47 27 -105 77 -60 17 15 18 15 18 0 0
-10 5 -17 10 -17 6 0 10 29 10 68 0 54 -4 72 -18 85 -21 19 -58 22 -84 6z m82
-93 c0 -41 -56 -68 -84 -41 -20 21 -6 52 26 58 51 10 58 7 58 -17z"/>
<path d="M7265 11864 c-62 -67 14 -167 95 -124 22 12 31 -5 19 -37 -11 -31
-56 -40 -92 -20 -19 12 -27 13 -25 5 3 -7 17 -19 32 -26 22 -11 33 -11 57 -2
42 18 49 37 49 141 0 78 -2 90 -14 80 -11 -9 -20 -9 -35 -2 -32 18 -60 13 -86
-15z m103 -7 c19 -15 15 -74 -8 -97 -39 -39 -100 -12 -100 44 0 64 57 92 108
53z"/>
<path d="M7492 11883 c-16 -6 -42 -56 -42 -82 0 -32 48 -81 80 -81 25 0 89 39
65 40 -6 0 -16 -5 -21 -10 -20 -20 -68 -17 -85 5 -35 45 -31 50 33 47 81 -5
90 -1 77 38 -16 43 -61 62 -107 43z m85 -31 c21 -28 15 -32 -47 -32 -65 0 -72
8 -38 40 26 24 63 20 85 -8z"/>
<path d="M7693 11878 c3 -7 17 -44 32 -81 24 -60 26 -73 17 -105 -10 -31 -9
-34 3 -21 17 17 97 210 90 217 -4 4 -39 -68 -59 -122 -9 -26 -18 -13 -46 62
-12 34 -27 62 -32 62 -6 0 -8 -6 -5 -12z"/>
<path d="M7895 11865 c-51 -50 -14 -144 57 -145 73 -1 110 99 54 146 -36 31
-80 31 -111 -1z m114 -21 c16 -36 14 -57 -9 -82 -25 -26 -66 -29 -92 -5 -21
19 -24 70 -5 94 26 34 89 30 106 -7z"/>
<path d="M8080 11835 c0 -30 5 -66 12 -80 14 -30 53 -43 81 -26 16 10 21 10
28 -1 5 -7 8 24 7 77 l-1 90 -7 -65 c-8 -80 -13 -90 -49 -90 -41 0 -51 17 -51
87 0 35 -4 63 -10 63 -5 0 -10 -25 -10 -55z"/>
<path d="M8270 11805 c0 -104 18 -114 22 -12 3 66 5 72 26 75 12 2 22 8 22 13
0 13 -24 11 -38 -3 -9 -9 -12 -9 -12 0 0 7 -4 12 -10 12 -6 0 -10 -35 -10 -85z"/>
<path d="M8574 11876 c-27 -20 -11 -31 19 -12 27 19 53 13 68 -15 11 -21 8
-23 -50 -33 -43 -8 -61 -22 -61 -50 0 -45 45 -60 88 -30 20 14 22 14 22 0 0
-9 5 -16 11 -16 17 0 9 132 -9 153 -18 21 -61 22 -88 3z m84 -93 c-3 -32 -42
-55 -75 -47 -15 4 -20 12 -17 27 4 25 13 34 39 40 48 11 56 8 53 -20z"/>
<path d="M8746 11871 c-24 -26 -10 -50 40 -72 48 -20 56 -42 23 -59 -16 -9
-26 -8 -44 4 -33 22 -42 20 -20 -4 10 -11 30 -20 45 -20 26 0 60 26 60 46 0
15 -37 43 -66 50 -32 8 -42 31 -21 52 14 14 20 14 44 2 45 -23 50 -23 24 -1
-29 26 -63 27 -85 2z"/>
<path d="M9086 11874 c-26 -26 -15 -47 37 -72 50 -24 59 -45 28 -62 -22 -11
-50 -4 -68 19 -11 14 -12 14 -13 -1 0 -39 79 -52 104 -16 21 29 3 57 -45 73
-36 12 -50 42 -28 56 7 4 11 11 7 14 -3 3 -13 -2 -22 -11z"/>
<path d="M9145 11871 c17 -10 32 -16 35 -14 8 7 -32 33 -49 33 -9 0 -3 -8 14
-19z"/>
<path d="M9310 11865 c-69 -73 25 -189 101 -125 28 23 22 25 -15 6 -15 -8 -36
-11 -47 -9 -19 5 -49 39 -49 55 0 5 32 8 71 8 l71 0 -6 28 c-15 61 -84 82
-126 37z m90 -5 c32 -32 24 -40 -40 -40 -33 0 -60 4 -60 9 0 13 50 51 66 51 8
0 23 -9 34 -20z"/>
<path d="M9828 11876 c-18 -13 -38 -57 -38 -81 0 -27 51 -75 79 -75 31 0 74
27 66 41 -4 5 -13 3 -21 -6 -23 -23 -70 -19 -88 7 -44 62 14 136 79 102 38
-19 44 -17 16 6 -27 23 -68 25 -93 6z"/>
<path d="M9994 11805 c0 -49 1 -71 3 -48 2 23 2 64 0 90 -2 26 -3 8 -3 -42z"/>
<path d="M10086 11869 c-36 -29 -37 -89 0 -126 21 -21 32 -24 61 -20 38 7 61
22 50 34 -4 4 -13 1 -19 -5 -16 -16 -71 -15 -86 0 -7 7 -12 20 -12 30 0 15 9
18 65 18 57 0 65 2 65 19 0 10 -9 30 -21 45 -25 32 -66 34 -103 5z m82 -5 c40
-28 28 -44 -33 -44 -41 0 -55 4 -55 14 0 16 37 46 55 46 6 0 21 -7 33 -16z"/>
<path d="M10262 11804 l1 -89 6 67 c7 74 17 91 56 91 37 0 45 -17 45 -90 0
-35 4 -63 10 -63 17 0 12 123 -6 148 -16 23 -67 31 -79 12 -5 -8 -11 -7 -21 1
-12 10 -14 -2 -12 -77z"/>
<path d="M10650 11819 c42 -102 38 -149 -14 -149 -13 0 -17 -3 -10 -10 17 -17
52 1 67 33 40 85 79 189 73 194 -3 3 -13 -10 -21 -30 -8 -21 -22 -53 -30 -74
-8 -20 -17 -34 -20 -31 -2 2 -15 33 -29 68 -13 35 -29 66 -35 68 -6 2 3 -29
19 -69z"/>
<path d="M7695 11660 c3 -5 10 -10 16 -10 5 0 9 5 9 10 0 6 -7 10 -16 10 -8 0
-12 -4 -9 -10z"/>
<path d="M6468 11378 c-3 -96 -5 -104 -25 -113 -13 -5 -23 -13 -23 -16 0 -12
45 3 58 19 7 10 12 49 12 108 0 130 -19 131 -22 2z"/>
<path d="M7564 11360 c0 -69 1 -97 3 -62 2 34 2 90 0 125 -2 34 -3 6 -3 -63z"/>
<path d="M7630 11360 c0 -73 4 -120 10 -120 6 0 10 47 10 120 0 73 -4 120 -10
120 -6 0 -10 -47 -10 -120z"/>
<path d="M7153 11460 c3 -8 18 -61 33 -117 16 -57 33 -103 39 -103 9 0 22 37
56 163 5 21 14 35 18 33 4 -3 18 -43 31 -89 23 -88 35 -115 45 -106 6 7 65
208 65 223 0 28 -20 -19 -41 -96 -13 -49 -27 -88 -30 -88 -4 0 -10 12 -13 28
-22 89 -48 162 -59 162 -7 0 -23 -38 -36 -87 -13 -49 -27 -92 -32 -97 -6 -7
-49 114 -49 141 0 5 -7 18 -16 29 -9 12 -14 13 -11 4z"/>
<path d="M7480 11460 c0 -5 5 -10 10 -10 6 0 10 5 10 10 0 6 -4 10 -10 10 -5
0 -10 -4 -10 -10z"/>
<path d="M7700 11460 c0 -5 5 -10 10 -10 6 0 10 5 10 10 0 6 -4 10 -10 10 -5
0 -10 -4 -10 -10z"/>
<path d="M6578 11399 c-10 -5 -18 -14 -18 -20 0 -5 11 -2 25 7 21 14 31 15 51
5 38 -17 27 -42 -25 -55 -56 -14 -77 -43 -55 -74 17 -24 44 -28 77 -11 16 9
22 9 25 0 2 -6 8 -11 13 -11 16 0 10 123 -7 148 -16 24 -56 29 -86 11z m82
-87 c0 -44 -64 -78 -89 -48 -25 30 10 64 67 65 15 1 22 -5 22 -17z"/>
<path d="M6730 11325 c0 -50 4 -85 10 -85 6 0 10 28 10 64 0 63 6 76 42 89 33
12 53 -18 59 -90 l6 -68 1 72 c2 53 -2 76 -14 87 -18 18 -47 20 -75 6 -13 -7
-19 -7 -19 0 0 5 -4 10 -10 10 -6 0 -10 -35 -10 -85z"/>
<path d="M6947 11398 c-16 -13 -37 -59 -37 -83 0 -7 12 -27 26 -44 31 -37 70
-41 105 -11 28 23 22 25 -16 6 -29 -15 -49 -12 -77 12 -35 30 -22 42 47 42 63
0 65 1 65 25 0 52 -71 84 -113 53z m91 -26 c21 -27 14 -32 -49 -32 -52 0 -60
2 -57 17 8 40 78 50 106 15z"/>
<path d="M7480 11325 c0 -50 4 -85 10 -85 6 0 10 35 10 85 0 50 -4 85 -10 85
-6 0 -10 -35 -10 -85z"/>
<path d="M7700 11325 c0 -50 4 -85 10 -85 6 0 10 35 10 85 0 50 -4 85 -10 85
-6 0 -10 -35 -10 -85z"/>
<path d="M7802 11398 c-7 -7 -12 -17 -12 -22 0 -6 4 -5 9 3 21 32 90 12 91
-26 0 -8 -13 -13 -32 -13 -52 0 -83 -21 -83 -55 0 -40 43 -57 85 -33 27 15 29
15 33 0 3 -9 5 15 6 55 1 53 -3 76 -15 87 -18 19 -65 21 -82 4z m83 -78 c18
-29 -44 -76 -78 -58 -29 15 -18 52 18 59 46 10 53 10 60 -1z"/>
<path d="M7960 11328 c0 -49 3 -88 8 -88 4 0 6 17 4 38 -2 21 0 53 5 72 7 29
15 36 38 38 40 5 55 -20 55 -90 0 -83 19 -72 22 13 3 64 5 73 26 80 39 15 62
-20 62 -91 0 -33 4 -60 10 -60 14 0 13 106 -1 133 -22 41 -59 49 -91 20 -17
-15 -19 -15 -36 0 -22 20 -53 22 -70 5 -10 -10 -15 -10 -22 2 -7 10 -10 -14
-10 -72z"/>
<path d="M8260 11395 c-23 -27 -4 -62 42 -77 23 -7 43 -17 45 -23 10 -35 -60
-52 -83 -21 -7 10 -15 13 -18 7 -8 -12 32 -41 57 -41 32 0 57 20 57 45 0 19
-10 29 -45 45 -32 14 -45 26 -45 41 0 28 27 35 61 15 16 -9 29 -13 29 -7 0 29
-79 41 -100 16z"/>
<path d="M3520 11131 c0 -14 11 -21 38 -27 20 -4 43 -8 50 -7 7 1 11 -2 7 -5
-3 -3 16 -11 42 -18 26 -7 49 -11 50 -10 2 2 -21 13 -50 25 -28 13 -60 27 -70
33 -51 26 -67 28 -67 9z"/>
<path d="M3890 10915 c13 -14 30 -25 38 -25 9 0 13 -3 10 -6 -10 -9 25 -39 62
-54 19 -8 37 -17 40 -21 11 -15 162 -79 172 -73 7 4 8 2 4 -4 -4 -7 -2 -12 3
-12 20 0 26 -3 36 -16 6 -8 28 -23 50 -34 l40 -19 -30 25 c-52 44 -129 100
-165 120 -19 10 -41 23 -48 28 -7 5 -53 28 -104 52 -50 23 -96 48 -101 53 -23
23 -29 10 -7 -14z"/>
<path d="M3550 9240 l0 -120 75 0 c60 0 75 3 75 15 0 12 -13 15 -60 15 l-60 0
0 40 0 40 55 0 c30 0 55 5 55 10 0 6 -25 10 -55 10 l-55 0 0 40 0 40 60 0 c47
0 60 3 60 15 0 12 -15 15 -75 15 l-75 0 0 -120z"/>
<path d="M4210 9340 c0 -11 7 -20 15 -20 8 0 15 9 15 20 0 11 -7 20 -15 20 -8
0 -15 -9 -15 -20z"/>
<path d="M4290 9240 c0 -100 3 -120 15 -120 13 0 15 20 15 120 0 100 -2 120
-15 120 -12 0 -15 -20 -15 -120z"/>
<path d="M3806 9293 c-3 -3 -19 -6 -36 -5 l-30 1 0 -85 c0 -68 3 -84 15 -84
12 0 15 14 15 63 0 81 26 110 64 71 11 -10 16 -34 16 -75 0 -46 3 -59 15 -59
12 0 15 14 15 63 0 81 26 110 64 71 11 -10 16 -34 16 -75 0 -46 3 -59 15 -59
12 0 15 13 15 61 0 70 -11 96 -47 110 -19 7 -32 6 -50 -6 -15 -11 -29 -13 -36
-7 -18 14 -44 21 -51 15z"/>
<path d="M4070 9289 c-13 -6 -28 -15 -32 -22 -11 -18 13 -27 29 -11 18 17 45
18 61 2 20 -20 14 -27 -30 -34 -66 -11 -97 -54 -62 -88 18 -19 75 -21 92 -4 9
9 12 9 12 0 0 -7 7 -12 16 -12 14 0 16 11 12 70 -4 72 -15 93 -53 103 -11 3
-31 1 -45 -4z m70 -99 c0 -15 -38 -50 -54 -50 -7 0 -20 7 -27 16 -11 14 -10
18 6 30 22 16 75 19 75 4z"/>
<path d="M4210 9205 c0 -69 3 -85 15 -85 12 0 15 16 15 85 0 69 -3 85 -15 85
-12 0 -15 -16 -15 -85z"/>
<path d="M20749 9121 c-24 -24 -29 -38 -29 -76 0 -63 39 -105 98 -105 44 0 90
29 78 49 -5 8 -15 6 -33 -9 -33 -26 -56 -25 -88 3 -21 17 -27 32 -27 62 0 68
69 108 112 65 29 -29 53 -25 32 6 -28 42 -103 45 -143 5z"/>
<path d="M20940 9045 c0 -63 4 -105 10 -105 6 0 10 21 10 46 0 55 14 84 40 84
26 0 40 -29 40 -84 0 -25 5 -46 10 -46 6 0 10 28 10 64 0 75 -13 91 -65 83
-34 -6 -35 -5 -35 29 0 19 -4 34 -10 34 -6 0 -10 -42 -10 -105z"/>
<path d="M21123 9083 c-7 -2 -13 -11 -13 -19 0 -17 5 -17 29 -2 22 13 51 5 51
-15 0 -9 -15 -17 -40 -21 -46 -7 -67 -34 -50 -66 9 -17 20 -20 65 -18 l55 2 0
61 c0 34 -5 66 -12 73 -12 12 -62 15 -85 5z m67 -86 c0 -31 -51 -50 -66 -25
-8 13 22 38 48 38 10 0 18 -6 18 -13z"/>
<path d="M21260 9014 c0 -59 3 -74 15 -74 12 0 15 13 15 59 0 51 3 61 20 66
34 11 50 -12 50 -71 0 -41 4 -54 15 -54 19 0 21 83 2 120 -11 21 -20 25 -65
27 l-52 1 0 -74z"/>
<path d="M21435 9068 c-43 -63 12 -144 80 -118 21 8 25 7 25 -10 0 -31 -43
-47 -73 -27 -30 20 -43 10 -20 -15 25 -28 77 -24 102 8 17 22 21 41 21 104 l0
76 -60 2 c-51 1 -61 -1 -75 -20z m89 -14 c19 -18 20 -38 6 -65 -15 -27 -56
-24 -76 6 -15 23 -15 27 0 50 19 29 47 32 70 9z"/>
<path d="M21621 9064 c-12 -15 -21 -37 -21 -49 0 -12 9 -34 21 -49 23 -30 72
-35 105 -12 24 18 10 34 -16 18 -26 -16 -45 -15 -64 4 -27 27 -18 34 43 34 56
0 59 1 54 23 -15 61 -85 79 -122 31z m89 -14 c10 -19 8 -20 -35 -20 -46 0 -54
7 -33 28 19 19 56 14 68 -8z"/>
<path d="M3545 8890 c3 -5 8 -10 11 -10 2 0 4 5 4 10 0 6 -5 10 -11 10 -5 0
-7 -4 -4 -10z"/>
<path d="M4158 8854 c-45 -24 -70 -91 -52 -138 3 -9 10 -16 15 -16 6 0 5 9 -2
21 -15 29 -3 81 24 107 65 61 167 19 167 -68 0 -19 -6 -33 -16 -37 -22 -8 -33
6 -35 48 -3 34 -4 36 -46 38 -39 2 -44 -1 -53 -25 -6 -15 -8 -35 -5 -44 6 -19
59 -43 70 -32 3 3 25 6 48 7 41 0 42 1 45 37 4 46 -10 74 -51 98 -38 24 -72
25 -109 4z m86 -76 c16 -26 -4 -53 -40 -53 -23 0 -30 5 -32 23 -2 13 -1 30 2
38 8 20 56 14 70 -8z"/>
<path d="M3550 8766 c0 -65 -4 -88 -16 -101 -9 -9 -14 -18 -11 -21 2 -3 12 2
21 11 12 13 16 37 16 106 0 49 -2 89 -5 89 -3 0 -5 -38 -5 -84z"/>
<path d="M3632 8838 c-7 -7 -12 -16 -12 -21 0 -5 7 -1 16 7 20 20 38 20 58 0
21 -20 14 -31 -27 -39 -40 -9 -57 -22 -57 -45 0 -31 27 -45 63 -32 24 9 33 9
39 -1 4 -6 8 16 8 50 0 43 -5 66 -16 77 -18 19 -55 21 -72 4z m73 -68 c9 -14
-12 -48 -34 -55 -28 -9 -52 5 -49 28 4 27 70 49 83 27z"/>
<path d="M3772 8775 c1 -80 1 -80 7 -22 5 42 12 63 26 73 39 29 59 8 66 -68
l6 -63 1 61 c2 49 -2 64 -18 79 -17 15 -24 16 -47 6 -21 -10 -28 -9 -34 1 -5
7 -8 -22 -7 -67z"/>
<path d="M3952 8834 c-47 -32 -18 -134 39 -134 25 0 59 17 59 30 0 5 -13 2
-29 -7 -27 -16 -30 -16 -55 0 -46 30 -34 47 34 47 65 0 75 11 43 47 -10 10
-15 14 -10 9 4 -6 7 -18 7 -28 0 -15 -8 -18 -44 -18 -25 0 -48 5 -51 11 -9 14
22 47 49 52 20 4 20 4 1 6 -11 0 -31 -6 -43 -15z"/>
<path d="M4382 8838 c-7 -7 -12 -16 -12 -21 0 -5 7 -1 16 7 20 20 38 20 58 0
22 -21 14 -30 -38 -43 -52 -13 -65 -36 -36 -65 18 -18 24 -19 52 -8 25 9 34 9
40 -1 4 -6 8 16 8 50 0 43 -5 66 -16 77 -18 19 -55 21 -72 4z m73 -68 c9 -14
-12 -48 -34 -55 -28 -9 -52 5 -49 28 4 27 70 49 83 27z"/>
<path d="M4550 8837 c-20 -10 -26 -21 -28 -59 -3 -39 1 -49 20 -62 27 -19 57
-20 81 -2 26 20 20 29 -8 10 -30 -19 -62 -11 -77 21 -26 57 28 113 78 80 13
-8 24 -11 24 -6 0 12 -33 31 -52 31 -7 0 -24 -6 -38 -13z"/>
<path d="M4693 8775 c0 -44 2 -60 4 -35 7 89 22 112 64 90 15 -9 19 -22 19
-70 0 -33 4 -60 10 -60 6 0 10 27 10 60 0 48 4 61 19 70 41 22 57 0 64 -90 2
-25 4 -14 3 25 -1 66 -2 70 -28 79 -21 7 -32 6 -46 -7 -17 -15 -19 -15 -35 0
-14 14 -22 15 -47 6 -21 -8 -30 -8 -34 1 -2 6 -4 -25 -3 -69z"/>
<path d="M4962 8827 c-29 -31 -29 -77 1 -105 13 -12 31 -22 41 -22 24 0 56 18
56 32 0 6 -8 4 -18 -5 -25 -22 -48 -21 -72 3 -32 32 -24 40 40 40 51 0 60 3
60 18 0 24 -41 62 -66 62 -11 0 -30 -10 -42 -23z m78 -7 c28 -28 17 -40 -35
-40 -24 0 -46 4 -50 10 -7 12 30 50 50 50 8 0 24 -9 35 -20z"/>
<path d="M5211 8824 c-12 -15 -21 -38 -21 -51 0 -27 41 -73 65 -73 22 0 55 18
55 31 0 5 -11 2 -25 -7 -23 -15 -27 -15 -49 0 -45 29 -42 81 5 106 16 9 26 8
45 -5 13 -8 24 -11 24 -6 0 13 -34 31 -59 31 -11 0 -29 -12 -40 -26z"/>
<path d="M5382 8827 c-31 -33 -29 -80 4 -106 15 -12 34 -21 44 -21 34 0 70 39
70 75 0 24 -7 39 -26 54 -35 27 -65 27 -92 -2z m83 -12 c14 -13 25 -31 25 -40
0 -20 -44 -65 -64 -65 -18 0 -56 38 -56 56 0 27 20 63 37 67 31 8 33 8 58 -18z"/>
<path d="M5553 8775 c1 -73 1 -75 4 -18 4 70 24 94 63 73 17 -9 20 -21 20 -70
0 -33 4 -60 9 -60 5 0 7 22 4 49 -4 41 -2 52 16 70 40 40 64 20 72 -61 l6 -63
1 61 c2 48 -2 65 -16 77 -23 21 -46 22 -61 3 -10 -12 -16 -12 -41 2 -24 14
-33 15 -49 5 -15 -10 -21 -10 -24 0 -3 7 -5 -24 -4 -68z"/>
<path d="M5120 8715 c0 -8 5 -15 10 -15 6 0 10 7 10 15 0 8 -4 15 -10 15 -5 0
-10 -7 -10 -15z"/>
<path d="M4149 8671 c16 -15 37 -21 67 -21 24 0 44 3 44 8 0 4 -18 6 -39 4
-25 -3 -49 2 -67 13 l-29 17 24 -21z"/>
<path d="M3550 7801 c0 -99 3 -121 15 -121 11 0 15 18 17 85 l3 84 59 -84 c32
-47 65 -85 72 -85 11 0 14 25 14 120 0 99 -3 120 -15 120 -11 0 -15 -19 -17
-87 l-3 -87 -60 83 c-33 47 -66 86 -72 89 -10 3 -13 -25 -13 -117z"/>
<path d="M3825 7850 c-12 -4 -26 -14 -33 -23 -10 -12 -10 -16 2 -20 8 -3 20 1
26 9 15 17 42 18 58 2 20 -20 14 -27 -29 -34 -22 -4 -50 -15 -62 -24 -18 -15
-20 -22 -12 -46 8 -23 18 -30 42 -32 18 -2 41 2 53 8 13 7 20 7 20 0 0 -5 7
-10 16 -10 14 0 16 11 12 70 -4 72 -15 93 -53 103 -11 3 -29 2 -40 -3z m65
-100 c0 -15 -38 -50 -54 -50 -7 0 -20 7 -27 16 -11 14 -10 18 6 30 22 16 75
19 75 4z"/>
<path d="M4116 7845 c-14 -8 -28 -10 -31 -4 -3 5 -33 8 -65 7 l-60 -2 0 -83
c0 -67 3 -83 15 -83 12 0 15 13 15 59 0 41 5 65 16 75 38 39 64 10 64 -71 0
-49 3 -63 15 -63 12 0 15 13 15 59 0 41 5 65 16 75 38 39 64 10 64 -71 0 -49
3 -63 15 -63 12 0 15 14 15 68 0 37 -4 72 -8 79 -15 23 -58 32 -86 18z"/>
<path d="M4313 7852 c-32 -5 -63 -49 -63 -89 0 -68 81 -107 139 -67 34 24 11
39 -26 17 -29 -16 -32 -16 -57 0 -47 31 -34 47 39 47 59 0 65 2 65 21 0 47
-44 80 -97 71z m48 -32 c38 -21 23 -40 -31 -40 -54 0 -59 4 -33 32 18 20 36
23 64 8z"/>
<path d="M20749 7681 c-24 -24 -29 -38 -29 -76 0 -63 39 -105 98 -105 44 0 90
29 78 49 -5 8 -15 6 -33 -9 -33 -26 -56 -25 -88 3 -21 17 -27 32 -27 62 0 68
69 108 112 65 29 -29 53 -25 32 6 -28 42 -103 45 -143 5z"/>
<path d="M20940 7605 c0 -63 4 -105 10 -105 6 0 10 21 10 46 0 55 14 84 40 84
26 0 40 -29 40 -84 0 -25 5 -46 10 -46 6 0 10 28 10 64 0 75 -13 91 -65 83
-34 -6 -35 -5 -35 29 0 19 -4 34 -10 34 -6 0 -10 -42 -10 -105z"/>
<path d="M21123 7643 c-7 -2 -13 -11 -13 -19 0 -17 5 -17 29 -2 22 13 51 5 51
-15 0 -9 -15 -17 -40 -21 -46 -7 -67 -34 -50 -66 9 -17 20 -20 65 -18 l55 2 0
61 c0 34 -5 66 -12 73 -12 12 -62 15 -85 5z m67 -86 c0 -31 -51 -50 -66 -25
-8 13 22 38 48 38 10 0 18 -6 18 -13z"/>
<path d="M21260 7574 c0 -59 3 -74 15 -74 12 0 15 13 15 59 0 51 3 61 20 66
34 11 50 -12 50 -71 0 -41 4 -54 15 -54 19 0 21 83 2 120 -11 21 -20 25 -65
27 l-52 1 0 -74z"/>
<path d="M21435 7628 c-43 -63 12 -144 80 -118 21 8 25 7 25 -10 0 -31 -43
-47 -73 -27 -30 20 -43 10 -20 -15 25 -28 77 -24 102 8 17 22 21 41 21 104 l0
76 -60 2 c-51 1 -61 -1 -75 -20z m89 -14 c19 -18 20 -38 6 -65 -15 -27 -56
-24 -76 6 -15 23 -15 27 0 50 19 29 47 32 70 9z"/>
<path d="M21621 7624 c-12 -15 -21 -37 -21 -49 0 -12 9 -34 21 -49 23 -30 72
-35 105 -12 24 18 10 34 -16 18 -26 -16 -45 -15 -64 4 -27 27 -18 34 43 34 56
0 59 1 54 23 -15 61 -85 79 -122 31z m89 -14 c10 -19 8 -20 -35 -20 -46 0 -54
7 -33 28 19 19 56 14 68 -8z"/>
<path d="M4530 7365 c0 -63 4 -105 10 -105 6 0 10 42 10 105 0 63 -4 105 -10
105 -6 0 -10 -42 -10 -105z"/>
<path d="M4604 7365 c0 -60 1 -84 3 -52 2 32 2 81 0 110 -2 29 -3 3 -3 -58z"/>
<path d="M3580 7374 c0 -77 -2 -86 -20 -91 -11 -3 -20 -9 -20 -14 0 -15 19
-10 40 11 17 17 20 33 20 100 0 47 -4 80 -10 80 -6 0 -10 -35 -10 -86z"/>
<path d="M4183 7445 c35 -129 53 -185 59 -185 6 0 17 33 54 163 7 24 20 13 28
-23 11 -59 38 -140 45 -140 9 0 64 190 57 197 -5 5 -46 -125 -46 -145 0 -6 -4
-13 -9 -16 -5 -3 -19 32 -32 79 -12 47 -27 85 -33 85 -6 0 -22 -39 -35 -86
-13 -47 -27 -82 -31 -77 -4 4 -15 40 -25 78 -10 39 -22 75 -28 80 -6 6 -7 3
-4 -10z"/>
<path d="M3674 7394 c-19 -15 -19 -16 1 -9 44 16 52 16 64 1 17 -20 8 -32 -30
-40 -57 -11 -78 -48 -43 -77 12 -10 22 -10 47 -1 24 9 33 9 39 -1 4 -6 8 18 8
55 0 56 -3 69 -19 78 -27 14 -44 13 -67 -6z m76 -74 c0 -27 -47 -57 -69 -43
-23 15 -20 35 9 50 37 19 60 16 60 -7z"/>
<path d="M3810 7335 c0 -43 4 -75 10 -75 6 0 10 27 10 60 0 50 3 61 21 70 11
7 18 14 15 17 -3 3 -12 0 -21 -7 -10 -8 -15 -9 -15 -1 0 6 -4 11 -10 11 -6 0
-10 -32 -10 -75z"/>
<path d="M3880 7401 c0 -5 7 -11 15 -15 11 -4 15 -22 15 -68 0 -44 3 -59 10
-48 12 19 13 72 1 103 -9 24 -41 45 -41 28z"/>
<path d="M4010 7403 c-45 -16 -54 -86 -17 -121 13 -12 31 -22 41 -22 23 0 56
18 56 31 0 5 -11 2 -25 -7 -43 -28 -86 2 -80 56 2 14 4 28 4 32 1 4 11 12 22
19 28 15 69 -3 69 -30 0 -16 -8 -21 -42 -24 -41 -3 -41 -4 10 -5 46 -2 52 0
52 18 0 39 -49 68 -90 53z"/>
<path d="M4473 7335 c0 -44 2 -61 4 -37 2 23 2 59 0 80 -2 20 -4 1 -4 -43z"/>
<path d="M4663 7335 c0 -44 2 -61 4 -37 2 23 2 59 0 80 -2 20 -4 1 -4 -43z"/>
<path d="M4744 7394 c-19 -16 -13 -16 30 2 8 3 24 -4 35 -15 16 -16 21 -17 21
-6 0 15 -29 35 -52 35 -8 0 -23 -7 -34 -16z"/>
<path d="M4892 7335 c2 -76 2 -77 5 -18 4 70 24 94 63 73 17 -9 20 -21 20 -70
0 -33 4 -60 10 -60 5 0 8 26 6 61 -2 46 -7 65 -21 75 -23 17 -51 18 -61 3 -4
-8 -9 -7 -15 2 -5 9 -8 -18 -7 -66z"/>
<path d="M5013 7403 c-7 -2 -13 -9 -13 -15 0 -6 6 -6 15 2 20 16 54 3 60 -23
3 -12 6 -42 8 -67 3 -37 4 -34 5 17 2 79 -23 108 -75 86z"/>
<path d="M5152 7398 c-24 -24 -13 -49 28 -66 32 -12 40 -20 38 -36 -4 -27 -34
-32 -59 -10 -10 9 -21 15 -24 12 -3 -3 6 -13 21 -22 48 -32 104 5 68 45 -10
11 -22 19 -29 19 -6 0 -20 6 -30 14 -16 12 -17 16 -6 30 17 20 35 20 55 0 9
-8 16 -11 16 -5 0 12 -32 31 -52 31 -8 0 -19 -5 -26 -12z"/>
<path d="M4761 7341 c-29 -8 -46 -33 -38 -55 9 -24 36 -31 68 -19 20 8 29 8
33 -1 2 -6 5 10 5 37 1 43 -1 47 -21 46 -13 -1 -34 -4 -47 -8z m59 -18 c0 -22
-29 -53 -50 -53 -22 0 -44 26 -35 40 17 28 85 39 85 13z"/>
<path d="M3550 6336 c0 -129 1 -136 20 -136 17 0 20 7 20 50 l0 50 40 0 c51 0
85 16 99 47 17 36 13 59 -13 90 -21 24 -32 28 -95 31 l-71 4 0 -136z m132 72
c23 -37 -8 -72 -60 -66 -21 2 -28 9 -30 31 -6 49 4 60 45 54 20 -4 40 -12 45
-19z"/>
<path d="M5140 6424 c0 -40 -2 -45 -17 -38 -10 4 -35 8 -57 8 -79 0 -115 -98
-60 -163 21 -26 33 -31 68 -31 23 0 47 5 54 12 9 9 12 9 12 0 0 -7 9 -12 20
-12 19 0 20 7 20 135 0 128 -1 135 -20 135 -17 0 -20 -7 -20 -46z m-25 -84
c20 -23 23 -63 5 -85 -15 -18 -61 -20 -78 -3 -21 21 -15 75 10 92 29 21 41 20
63 -4z"/>
<path d="M5330 6450 c-22 -22 -27 -69 -9 -87 9 -9 6 -19 -10 -39 -28 -36 -28
-88 1 -108 26 -19 80 -21 110 -5 14 8 23 8 31 0 6 -6 24 -11 41 -11 l30 0 -28
29 -29 30 21 35 21 36 -24 0 c-13 0 -28 -8 -34 -17 -9 -17 -10 -17 -29 0 -20
18 -20 18 4 42 45 45 17 115 -46 115 -17 0 -39 -9 -50 -20z m77 -36 c3 -8 -2
-23 -11 -32 -16 -16 -18 -16 -31 1 -7 11 -11 25 -8 33 7 19 42 18 50 -2z m-18
-128 c27 -29 20 -46 -18 -46 -32 0 -45 25 -29 54 12 22 20 20 47 -8z"/>
<path d="M5645 6445 c-49 -48 -24 -102 60 -132 42 -16 50 -23 50 -43 0 -21 -6
-26 -31 -28 -20 -2 -36 4 -49 18 -19 21 -50 27 -60 10 -4 -6 8 -24 25 -40 81
-76 216 0 155 87 -8 12 -38 29 -66 38 -54 18 -69 36 -49 60 17 21 50 19 75 -5
13 -12 29 -18 38 -14 24 9 21 19 -14 48 -41 35 -100 36 -134 1z"/>
<path d="M6610 6445 c0 -20 5 -25 25 -25 20 0 25 5 25 25 0 20 -5 25 -25 25
-20 0 -25 -5 -25 -25z"/>
<path d="M6720 6425 c0 -8 -9 -19 -20 -25 -11 -6 -20 -18 -20 -26 0 -9 9 -18
20 -21 17 -5 20 -14 20 -63 0 -64 18 -90 63 -90 20 0 27 5 27 20 0 13 -7 20
-19 20 -23 0 -31 19 -31 71 0 35 2 39 26 39 21 0 25 4 22 23 -2 12 -9 23 -15
23 -7 1 -17 2 -23 3 -5 0 -10 10 -10 21 0 13 -7 20 -20 20 -11 0 -20 -7 -20
-15z"/>
<path d="M3795 6388 c-30 -17 -36 -32 -19 -45 13 -10 20 -9 31 3 19 19 57 14
61 -7 2 -12 -7 -18 -35 -22 -73 -12 -107 -62 -67 -101 18 -19 85 -21 102 -4 9
9 12 9 12 0 0 -7 9 -12 20 -12 18 0 20 7 20 79 0 74 -2 81 -26 100 -29 23 -68
27 -99 9z m59 -145 c-25 -18 -49 -12 -49 12 0 14 9 21 30 25 36 7 47 -16 19
-37z"/>
<path d="M3980 6380 c-38 -38 -19 -84 40 -100 24 -6 40 -17 40 -26 0 -23 -28
-28 -56 -9 -14 9 -33 14 -41 10 -14 -5 -13 -9 7 -30 45 -48 140 -26 140 32 0
24 -25 47 -65 60 -38 12 -47 43 -13 43 13 0 29 -5 35 -11 7 -7 20 -8 30 -5 16
7 15 10 -10 32 -34 29 -80 31 -107 4z"/>
<path d="M4160 6380 c-38 -38 -20 -80 43 -100 38 -12 49 -36 22 -46 -8 -4 -27
1 -41 11 -14 9 -33 14 -41 10 -14 -5 -13 -9 7 -30 45 -48 140 -26 140 32 0 24
-25 47 -65 60 -38 12 -47 43 -13 43 13 0 29 -5 35 -11 7 -7 20 -8 30 -5 16 7
15 10 -10 32 -34 29 -80 31 -107 4z"/>
<path d="M4302 6389 c3 -8 18 -53 34 -101 25 -74 32 -88 51 -88 18 0 25 12 44
68 l22 67 22 -65 c18 -55 25 -65 45 -65 19 0 27 12 55 92 17 51 29 95 27 98
-3 3 -13 5 -23 5 -12 0 -23 -16 -35 -52 -24 -77 -25 -77 -48 -12 -28 79 -52
81 -81 7 -11 -29 -23 -53 -27 -53 -3 0 -14 23 -23 50 -9 28 -20 50 -25 50 -5
0 -16 3 -26 7 -13 5 -16 2 -12 -8z"/>
<path d="M4668 6383 c-85 -53 -49 -183 51 -183 56 0 102 41 104 92 2 84 -84
135 -155 91z m92 -43 c24 -24 25 -48 4 -78 -18 -26 -56 -29 -78 -6 -24 23 -20
70 6 88 30 21 44 20 68 -4z"/>
<path d="M4857 6393 c-4 -3 -7 -48 -7 -100 0 -93 0 -93 25 -93 24 0 25 2 25
65 0 63 1 67 30 83 47 27 38 68 -10 42 -13 -7 -21 -7 -25 0 -7 11 -28 13 -38
3z"/>
<path d="M5891 6386 c-87 -48 -54 -186 46 -186 37 0 83 22 83 39 0 14 -33 22
-44 11 -22 -22 -86 -6 -86 22 0 4 32 8 70 8 l70 0 0 31 c0 66 -79 108 -139 75z
m77 -38 c21 -21 13 -28 -33 -28 -25 0 -45 4 -45 8 0 15 24 32 45 32 12 0 26
-5 33 -12z"/>
<path d="M6101 6384 c-81 -57 -45 -184 53 -184 44 0 86 22 86 44 0 21 -31 28
-50 11 -40 -36 -100 6 -86 60 10 39 43 51 83 30 27 -15 36 -16 46 -6 9 10 6
17 -16 37 -33 28 -82 32 -116 8z"/>
<path d="M6270 6328 c0 -67 11 -105 34 -120 17 -12 71 -9 84 4 9 9 12 9 12 0
0 -7 9 -12 20 -12 19 0 20 7 20 100 0 93 -1 100 -20 100 -18 0 -20 -7 -20 -63
0 -76 -15 -103 -53 -93 -25 6 -26 10 -29 78 -3 66 -5 72 -25 73 -22 2 -23 -2
-23 -67z"/>
<path d="M6487 6393 c-4 -3 -7 -48 -7 -100 0 -93 0 -93 25 -93 24 0 25 2 25
71 0 69 1 71 30 82 18 7 30 19 30 29 0 20 -13 23 -40 8 -13 -7 -21 -7 -25 0
-7 11 -28 13 -38 3z"/>
<path d="M6617 6394 c-4 -4 -7 -49 -7 -101 0 -93 0 -93 25 -93 l26 0 -3 97
c-2 79 -6 98 -18 101 -9 1 -19 0 -23 -4z"/>
<path d="M6830 6388 c0 -8 16 -53 35 -101 19 -47 32 -93 29 -102 -4 -9 -20
-19 -36 -22 -20 -4 -28 -11 -26 -22 4 -23 51 -25 76 -4 18 15 112 230 112 256
0 5 -10 7 -22 5 -17 -2 -28 -18 -47 -66 -13 -34 -28 -59 -31 -55 -4 4 -17 33
-28 63 -14 40 -25 56 -41 58 -13 2 -21 -2 -21 -10z"/>
<path d="M3550 5441 c0 -101 2 -121 15 -121 11 0 15 12 15 45 l0 45 40 0 c74
0 114 68 71 121 -14 18 -31 23 -80 27 l-61 4 0 -121z m114 73 c33 -33 6 -74
-50 -74 -34 0 -34 0 -34 45 0 45 0 45 34 45 19 0 42 -7 50 -16z"/>
<path d="M4970 5514 c0 -40 -2 -45 -15 -34 -21 18 -83 15 -105 -5 -41 -37 -30
-131 15 -149 25 -9 64 -7 86 4 13 7 19 7 19 0 0 -5 7 -10 15 -10 13 0 15 20
15 120 0 100 -2 120 -15 120 -11 0 -15 -12 -15 -46z m-16 -77 c19 -26 19 -30
6 -54 -23 -41 -56 -48 -86 -18 -29 30 -31 58 -3 86 26 26 57 21 83 -14z"/>
<path d="M3785 5490 c-12 -4 -26 -14 -33 -23 -10 -12 -10 -16 2 -20 8 -3 20 1
26 9 15 17 42 18 58 2 20 -20 14 -27 -29 -34 -57 -9 -84 -33 -75 -67 8 -32 46
-45 88 -29 16 6 28 6 28 1 0 -5 7 -9 16 -9 14 0 16 11 12 70 -4 72 -15 93 -53
103 -11 3 -29 2 -40 -3z m65 -100 c0 -15 -38 -50 -54 -50 -7 0 -20 7 -27 16
-11 14 -10 18 6 30 22 16 75 19 75 4z"/>
<path d="M3950 5487 c-28 -14 -39 -58 -18 -74 7 -6 27 -15 43 -20 20 -6 30
-16 30 -29 0 -24 -37 -31 -55 -9 -13 16 -40 21 -40 7 0 -20 39 -42 72 -42 73
0 79 63 10 95 -26 12 -41 25 -40 35 5 21 36 24 58 5 22 -20 40 -1 19 20 -22
21 -52 25 -79 12z"/>
<path d="M4118 5488 c-14 -5 -29 -16 -32 -25 -10 -24 18 -58 56 -69 36 -11 49
-40 22 -51 -10 -3 -30 1 -47 11 -36 20 -47 13 -22 -14 35 -39 115 -18 115 30
0 21 -35 50 -60 50 -22 0 -40 20 -33 36 7 18 38 18 56 0 7 -8 19 -11 26 -7 8
5 7 12 -6 23 -26 22 -45 26 -75 16z"/>
<path d="M4563 5492 c-59 -9 -83 -103 -38 -147 55 -56 147 -18 147 60 0 59
-47 96 -109 87z m55 -38 c32 -22 28 -83 -7 -101 -60 -29 -109 49 -61 97 24 24
38 25 68 4z"/>
<path d="M4233 5478 c2 -7 15 -46 28 -86 28 -87 44 -90 70 -13 11 30 21 56 24
59 2 2 12 -23 21 -57 24 -85 43 -82 73 12 13 39 26 78 28 85 3 6 -2 12 -10 12
-11 0 -22 -19 -33 -55 -10 -30 -21 -55 -24 -55 -3 0 -14 25 -24 56 -22 71 -44
70 -64 -3 -8 -29 -18 -53 -21 -53 -4 0 -15 25 -25 55 -11 36 -22 55 -33 55 -8
0 -13 -6 -10 -12z"/>
<path d="M4720 5403 c0 -49 4 -83 10 -83 11 0 13 10 10 55 -2 43 15 82 39 90
35 11 23 24 -19 22 l-40 -1 0 -83z"/>
<path d="M20749 5321 c-24 -24 -29 -38 -29 -76 0 -63 39 -105 98 -105 44 0 90
29 78 49 -5 8 -15 6 -33 -9 -33 -26 -56 -25 -88 3 -21 17 -27 32 -27 62 0 68
69 108 112 65 29 -29 53 -25 32 6 -28 42 -103 45 -143 5z"/>
<path d="M20940 5245 c0 -63 4 -105 10 -105 6 0 10 21 10 46 0 55 14 84 40 84
26 0 40 -29 40 -84 0 -25 5 -46 10 -46 6 0 10 28 10 64 0 75 -13 91 -65 83
-34 -6 -35 -5 -35 29 0 19 -4 34 -10 34 -6 0 -10 -42 -10 -105z"/>
<path d="M21123 5283 c-7 -2 -13 -11 -13 -19 0 -17 5 -17 29 -2 22 13 51 5 51
-15 0 -9 -15 -17 -40 -21 -46 -7 -67 -34 -50 -66 9 -17 20 -20 65 -18 l55 2 0
61 c0 34 -5 66 -12 73 -12 12 -62 15 -85 5z m67 -86 c0 -31 -51 -50 -66 -25
-8 13 22 38 48 38 10 0 18 -6 18 -13z"/>
<path d="M21260 5214 c0 -59 3 -74 15 -74 12 0 15 13 15 59 0 51 3 61 20 66
34 11 50 -12 50 -71 0 -56 15 -73 26 -28 8 31 -1 91 -17 110 -7 8 -29 13 -60
12 l-49 -1 0 -73z"/>
<path d="M21435 5268 c-43 -63 12 -144 80 -118 21 8 25 7 25 -10 0 -30 -46
-45 -75 -26 -29 19 -40 9 -18 -16 25 -28 77 -24 102 8 17 22 21 41 21 104 l0
76 -60 2 c-51 1 -61 -1 -75 -20z m89 -14 c19 -18 20 -38 6 -65 -15 -27 -56
-24 -76 6 -15 23 -15 27 0 50 19 29 47 32 70 9z"/>
<path d="M21621 5264 c-12 -15 -21 -37 -21 -49 0 -12 9 -34 21 -49 23 -30 72
-35 105 -12 24 18 10 34 -16 18 -26 -16 -45 -15 -64 4 -27 27 -18 34 43 34 56
0 59 1 54 23 -15 61 -85 79 -122 31z m89 -14 c10 -19 8 -20 -35 -20 -46 0 -54
7 -33 28 19 19 56 14 68 -8z"/>
<path d="M3565 5000 c-17 -18 -17 -21 -1 -45 20 -30 37 -32 59 -7 21 23 21 36
1 56 -21 21 -37 20 -59 -4z"/>
<path d="M3716 5001 c-36 -40 15 -91 55 -55 24 21 24 36 1 57 -24 22 -35 21
-56 -2z"/>
<path d="M3866 5004 c-9 -8 -16 -21 -16 -28 0 -15 32 -46 47 -46 13 0 43 33
43 48 0 15 -29 42 -45 42 -7 0 -21 -7 -29 -16z"/>
<path d="M4017 5002 c-23 -25 -21 -39 7 -57 44 -29 86 17 50 56 -21 24 -36 24
-57 1z"/>
<path d="M4174 5012 c-6 -4 -14 -16 -18 -28 -9 -28 28 -63 51 -48 32 20 38 41
19 63 -20 22 -34 25 -52 13z"/>
<path d="M4316 5004 c-23 -22 -20 -41 9 -60 24 -16 27 -16 45 1 25 22 25 37 2
58 -23 21 -36 21 -56 1z"/>
<path d="M4474 5012 c-19 -13 -23 -39 -8 -61 19 -26 36 -27 57 -3 21 23 21 36
1 56 -17 17 -33 20 -50 8z"/>
<path d="M4614 4999 c-13 -15 -16 -24 -8 -36 20 -32 41 -38 63 -19 26 23 26
38 3 59 -24 22 -35 21 -58 -4z"/>
<path d="M3550 3956 c0 -129 1 -136 20 -136 17 0 20 7 20 50 l0 50 40 0 c51 0
85 16 99 47 17 36 13 59 -13 90 -21 24 -32 28 -95 31 l-71 4 0 -136z m132 72
c23 -37 -8 -72 -60 -66 -21 2 -28 9 -30 31 -6 49 4 60 45 54 20 -4 40 -12 45
-19z"/>
<path d="M4163 4075 c-12 -8 -23 -25 -25 -38 -2 -12 -10 -22 -18 -22 -24 0
-25 -36 -1 -42 19 -5 21 -13 21 -79 0 -67 2 -74 20 -74 18 0 20 7 20 74 0 70
1 75 23 78 30 4 30 42 0 46 -27 4 -20 32 8 32 12 0 19 7 19 20 0 25 -35 27
-67 5z"/>
<path d="M3770 3920 l0 -100 25 0 c24 0 25 2 25 71 0 69 1 71 30 82 18 7 30
19 30 29 0 21 -13 23 -42 7 -11 -6 -23 -7 -27 -3 -3 5 -14 10 -23 12 -16 3
-18 -7 -18 -98z"/>
<path d="M3944 4009 c-25 -13 -54 -60 -54 -89 0 -29 26 -77 49 -90 34 -18 96
-12 117 11 16 17 16 22 4 29 -19 12 -27 12 -35 0 -11 -18 -64 -11 -75 10 -10
19 -8 20 60 20 l70 0 0 34 c0 62 -76 104 -136 75z m76 -44 c18 -22 9 -27 -41
-23 -41 3 -42 4 -25 21 22 21 49 22 66 2z"/>
<path d="M4274 3986 c-38 -38 -43 -70 -19 -116 19 -36 43 -50 87 -50 33 0 78
23 78 39 0 14 -33 22 -44 11 -18 -18 -64 -12 -76 10 -12 22 -16 21 73 22 l57
0 0 33 c0 25 -8 40 -31 59 -43 37 -83 34 -125 -8z m94 -18 c21 -21 13 -28 -33
-28 -43 0 -45 1 -35 20 12 22 49 27 68 8z"/>
<path d="M4478 4012 c-16 -3 -18 -16 -18 -98 0 -94 0 -94 25 -94 24 0 25 2 25
65 0 63 1 67 30 83 16 9 30 25 30 35 0 19 -17 22 -40 7 -8 -5 -19 -5 -25 -1
-5 4 -18 6 -27 3z"/>
<path d="M4644 4010 c-57 -23 -72 -107 -28 -159 21 -26 33 -31 68 -31 39 0 86
21 86 39 0 14 -33 22 -44 11 -22 -22 -86 -6 -86 22 0 4 30 8 68 10 l67 3 -2
35 c-3 61 -66 96 -129 70z m76 -50 c10 -19 8 -20 -35 -20 -46 0 -54 7 -33 28
19 19 56 14 68 -8z"/>
<path d="M4810 3920 c0 -100 0 -100 25 -100 23 0 24 3 27 71 3 84 21 107 57
75 17 -16 21 -31 21 -83 0 -56 2 -63 20 -63 18 0 20 7 20 80 0 69 -3 82 -22
100 -24 22 -68 26 -86 8 -9 -9 -15 -9 -24 0 -31 31 -38 14 -38 -88z"/>
<path d="M5061 4006 c-88 -49 -53 -186 47 -186 37 0 92 30 92 50 0 15 -39 18
-51 4 -6 -8 -22 -14 -35 -14 -54 0 -75 76 -29 106 23 15 27 15 50 0 30 -20 67
-13 58 10 -7 19 -56 44 -85 44 -13 -1 -34 -7 -47 -14z"/>
<path d="M5268 4004 c-37 -20 -56 -81 -38 -124 17 -40 46 -60 90 -60 34 0 80
22 80 39 0 14 -33 22 -44 11 -18 -18 -64 -12 -76 10 -10 19 -8 20 60 20 l70 0
0 34 c0 26 -7 41 -31 60 -34 29 -71 32 -111 10z m80 -36 c21 -21 13 -28 -33
-28 -43 0 -45 1 -35 20 12 22 49 27 68 8z"/>
<path d="M5472 4008 c-28 -14 -39 -53 -21 -74 8 -9 33 -25 57 -35 37 -16 42
-22 32 -34 -17 -20 -33 -19 -54 4 -19 21 -46 18 -46 -5 0 -40 103 -60 133 -26
34 38 14 79 -48 99 -38 12 -47 43 -13 43 13 0 29 -5 35 -11 15 -15 44 -4 37
14 -6 17 -47 37 -72 36 -9 0 -27 -5 -40 -11z"/>
<path d="M3550 3020 l0 -120 75 0 c91 0 101 18 13 22 l-63 3 0 40 0 40 63 3
c79 4 72 22 -9 22 l-59 0 0 40 0 40 65 0 c51 0 65 3 65 15 0 12 -15 15 -75 15
l-75 0 0 -120z"/>
<path d="M4110 3020 c0 -73 4 -120 10 -120 6 0 10 5 10 10 0 7 6 7 19 0 52
-27 113 -1 127 55 8 31 -12 82 -37 95 -25 14 -83 12 -97 -2 -9 -9 -12 -2 -12
35 0 26 -4 47 -10 47 -6 0 -10 -47 -10 -120z m122 13 c10 -9 18 -30 18 -46 0
-60 -59 -88 -100 -47 -56 56 23 146 82 93z"/>
<path d="M4320 3020 c0 -73 4 -120 10 -120 6 0 10 47 10 120 0 73 -4 120 -10
120 -6 0 -10 -47 -10 -120z"/>
<path d="M4790 3095 c0 -42 -11 -58 -25 -35 -3 6 -24 10 -45 10 -30 0 -43 -6
-59 -26 -46 -59 -10 -144 62 -144 18 0 39 6 46 13 11 10 14 10 18 0 14 -39 23
1 23 107 0 73 -4 120 -10 120 -5 0 -10 -20 -10 -45z m-28 -62 c37 -34 12 -113
-36 -113 -27 0 -40 9 -55 37 -32 61 40 122 91 76z"/>
<path d="M5150 3020 c0 -73 4 -120 10 -120 6 0 10 10 10 22 0 12 8 30 17 41
17 18 19 17 54 -25 47 -54 61 -45 20 13 -17 23 -31 45 -31 50 0 4 12 21 26 38
39 46 7 38 -43 -11 l-43 -42 0 77 c0 45 -4 77 -10 77 -6 0 -10 -47 -10 -120z"/>
<path d="M6020 3093 c0 -37 -3 -44 -12 -35 -13 13 -66 16 -93 6 -25 -10 -47
-62 -40 -95 13 -58 74 -86 126 -59 13 7 19 7 19 0 0 -5 5 -10 10 -10 6 0 10
47 10 120 0 73 -4 120 -10 120 -5 0 -10 -21 -10 -47z m-11 -75 c33 -59 -28
-121 -83 -84 -31 20 -35 69 -9 98 25 28 73 20 92 -14z"/>
<path d="M3740 2983 c0 -49 4 -83 10 -83 6 0 10 25 10 56 0 66 13 94 43 94 37
0 47 -19 47 -87 0 -49 3 -63 15 -63 19 0 21 103 2 140 -11 22 -19 25 -70 26
l-57 1 0 -84z"/>
<path d="M3944 3056 c-26 -19 -10 -33 20 -17 30 16 60 11 64 -11 2 -12 -5 -19
-25 -23 -70 -14 -102 -55 -73 -91 15 -16 71 -19 87 -3 8 8 13 8 17 0 17 -27
26 -6 26 57 0 54 -4 72 -18 85 -23 21 -71 22 -98 3z m76 -122 c-17 -20 -66
-18 -74 3 -9 21 4 34 46 42 27 6 34 4 36 -12 2 -10 -2 -25 -8 -33z"/>
<path d="M4411 3044 c-46 -59 -10 -144 62 -144 41 0 77 23 61 40 -8 8 -14 7
-24 -5 -17 -21 -56 -19 -80 5 -33 33 -24 40 50 40 62 0 70 2 70 19 0 10 -9 30
-21 45 -16 20 -29 26 -59 26 -30 0 -43 -6 -59 -26z m103 -16 c15 -24 5 -30
-53 -26 l-52 3 17 23 c19 27 71 27 88 0z"/>
<path d="M4874 3053 c-12 -12 -13 -18 -4 -21 6 -2 17 1 23 7 16 16 52 14 68
-5 16 -19 -2 -34 -41 -34 -54 0 -91 -55 -58 -88 15 -15 63 -16 89 -2 13 7 19
7 19 0 0 -5 5 -10 10 -10 17 0 12 136 -6 154 -21 21 -78 20 -100 -1z m82 -108
c-22 -34 -69 -32 -74 2 -3 17 3 24 25 29 15 3 33 7 38 9 22 6 27 -15 11 -40z"/>
<path d="M5040 2984 c0 -68 3 -84 15 -84 12 0 15 14 15 70 0 66 1 70 25 76 39
10 30 23 -15 22 l-40 0 0 -84z"/>
<path d="M5380 2983 c0 -49 4 -83 10 -83 6 0 10 25 10 56 0 66 13 94 43 94 37
0 47 -19 47 -87 0 -35 4 -63 10 -63 6 0 10 26 10 59 0 63 15 91 49 91 30 0 41
-22 41 -87 0 -35 4 -63 10 -63 17 0 12 136 -6 154 -18 18 -65 21 -81 5 -8 -8
-17 -8 -31 0 -11 6 -41 10 -66 9 l-46 -2 0 -83z"/>
<path d="M5697 3058 c-64 -49 -27 -158 53 -158 39 0 72 26 84 66 8 26 -9 73
-32 90 -22 17 -83 18 -105 2z m95 -25 c37 -34 8 -113 -42 -113 -28 0 -60 35
-60 67 0 55 61 83 102 46z"/>
<path d="M6112 3047 c-31 -33 -30 -96 1 -125 30 -28 87 -29 111 -3 10 11 13
22 8 25 -5 3 -15 -1 -22 -9 -19 -23 -66 -19 -84 7 -9 12 -16 26 -16 30 0 5 32
8 71 8 l71 0 -7 28 c-10 42 -34 62 -75 62 -25 0 -43 -7 -58 -23z m98 -16 c15
-30 14 -31 -45 -31 -59 0 -64 4 -38 32 22 24 69 24 83 -1z"/>
<path d="M3615 2038 c-37 -100 -85 -241 -85 -248 0 -6 10 -10 23 -10 16 0 26
9 34 30 10 28 15 30 61 30 46 0 51 -2 62 -30 9 -21 19 -30 36 -30 13 0 24 2
24 4 0 2 -21 63 -46 135 -45 127 -47 131 -76 131 -16 0 -31 -6 -33 -12z m50
-94 c23 -55 20 -64 -20 -64 -19 0 -35 1 -35 3 0 9 32 97 36 97 2 0 11 -16 19
-36z"/>
<path d="M5067 2043 c-4 -3 -7 -64 -7 -135 l0 -128 25 0 c24 0 24 2 27 91 l3
91 42 -57 41 -57 39 52 38 51 3 -85 c3 -84 3 -86 27 -86 l25 0 0 135 c0 129
-1 135 -20 135 -13 0 -35 -21 -63 -59 -23 -33 -44 -60 -47 -60 -3 0 -25 26
-48 59 -40 55 -67 72 -85 53z"/>
<path d="M4880 2005 c0 -8 -9 -19 -20 -25 -11 -6 -20 -18 -20 -26 0 -9 9 -18
20 -21 17 -5 20 -14 20 -63 0 -64 18 -90 63 -90 20 0 27 5 27 20 0 13 -7 20
-19 20 -23 0 -31 19 -31 71 0 35 2 39 26 39 21 0 25 4 22 23 -2 14 -11 23 -25
25 -15 2 -23 10 -23 23 0 12 -7 19 -20 19 -11 0 -20 -7 -20 -15z"/>
<path d="M7200 2000 c0 -11 -7 -20 -15 -20 -9 0 -15 -9 -15 -25 0 -16 6 -25
15 -25 11 0 15 -11 15 -39 0 -45 15 -92 33 -103 7 -4 24 -8 40 -8 35 0 39 37
5 42 -20 3 -23 10 -26 55 -3 47 -1 52 20 55 31 4 32 42 1 46 -15 2 -23 10 -23
23 0 14 -7 19 -25 19 -18 0 -25 -5 -25 -20z"/>
<path d="M3834 1970 c-33 -13 -54 -50 -54 -93 0 -54 43 -97 97 -97 41 0 83 22
83 44 0 21 -30 28 -46 11 -18 -18 -55 -20 -72 -3 -19 19 -14 73 9 93 19 19 21
19 55 0 27 -15 37 -16 47 -6 9 10 6 17 -16 37 -29 25 -65 30 -103 14z"/>
<path d="M4032 1955 c-39 -33 -50 -80 -28 -123 20 -39 44 -52 94 -52 28 0 45
7 62 26 21 21 22 27 10 34 -20 13 -26 12 -40 -5 -28 -34 -90 -4 -90 43 0 23
32 62 51 62 6 0 24 -8 40 -17 23 -14 31 -15 41 -5 19 19 -21 52 -69 59 -32 4
-44 0 -71 -22z"/>
<path d="M4260 1967 c-33 -16 -63 -77 -54 -111 19 -77 118 -103 175 -47 81 81
-18 210 -121 158z m78 -43 c43 -30 20 -104 -33 -104 -54 0 -72 90 -22 110 30
12 30 12 55 -6z"/>
<path d="M4440 1902 c0 -97 14 -122 69 -122 20 0 42 5 49 12 9 9 12 9 12 0 0
-7 9 -12 20 -12 19 0 20 7 20 101 0 88 -2 100 -16 95 -9 -3 -20 -6 -24 -6 -5
0 -10 -33 -12 -72 -3 -71 -4 -73 -30 -76 -35 -4 -48 25 -48 104 0 47 -2 54
-20 54 -18 0 -20 -7 -20 -78z"/>
<path d="M4650 1880 c0 -100 0 -100 25 -100 23 0 24 3 27 71 3 84 21 107 57
75 17 -16 21 -31 21 -83 0 -56 2 -63 20 -63 18 0 20 7 20 80 0 69 -3 82 -22
100 -24 22 -68 26 -86 8 -8 -8 -15 -9 -20 -3 -4 6 -15 11 -24 13 -16 3 -18 -7
-18 -98z"/>
<path d="M5405 1958 c-26 -20 -26 -22 -10 -34 14 -11 20 -10 32 2 19 19 57 14
61 -7 2 -12 -7 -18 -35 -22 -73 -12 -107 -62 -67 -101 18 -19 85 -21 102 -4 9
9 12 9 12 0 0 -7 9 -12 20 -12 18 0 20 7 20 79 0 74 -2 81 -26 100 -34 27 -74
27 -109 -1z m69 -135 c-25 -18 -49 -12 -49 12 0 14 9 21 30 25 36 7 47 -16 19
-37z"/>
<path d="M5587 1973 c-4 -3 -7 -48 -7 -100 0 -93 0 -93 25 -93 24 0 25 2 25
69 0 74 13 98 48 86 24 -7 32 -33 32 -102 0 -46 3 -53 20 -53 18 0 20 7 20 79
0 59 -4 84 -16 95 -23 23 -59 30 -85 15 -17 -9 -24 -9 -27 0 -4 12 -25 15 -35
4z"/>
<path d="M5815 1958 c-26 -20 -26 -22 -10 -34 14 -11 20 -10 32 2 19 19 57 14
61 -7 2 -12 -7 -18 -35 -22 -73 -12 -107 -62 -67 -101 18 -19 85 -21 102 -4 9
9 12 9 12 0 0 -7 9 -12 20 -12 18 0 20 7 20 79 0 74 -2 81 -26 100 -34 27 -74
27 -109 -1z m85 -107 c0 -24 -24 -44 -47 -39 -27 5 -22 41 7 49 38 11 40 10
40 -10z"/>
<path d="M6029 1965 c-35 -19 -51 -64 -38 -110 14 -49 48 -69 105 -61 39 5 45
4 40 -10 -3 -9 -6 -17 -6 -19 0 -3 -9 -9 -20 -15 -15 -8 -29 -7 -56 6 -26 13
-38 14 -47 5 -18 -18 23 -52 70 -58 32 -4 44 -1 71 22 l32 27 0 114 c0 106 -1
114 -19 114 -11 0 -21 -5 -23 -11 -3 -9 -9 -9 -25 0 -28 15 -52 13 -84 -4z
m83 -37 c28 -22 31 -55 9 -77 -27 -27 -56 -27 -75 1 -21 30 -20 44 4 68 23 23
40 25 62 8z"/>
<path d="M6263 1968 c-23 -11 -53 -64 -53 -93 0 -25 28 -73 49 -85 34 -18 96
-12 117 11 16 17 16 22 4 29 -19 12 -27 12 -35 0 -11 -18 -64 -11 -75 10 -10
19 -8 20 60 20 l70 0 0 34 c0 63 -76 104 -137 74z m75 -40 c21 -21 13 -28 -33
-28 -43 0 -45 1 -35 20 12 22 49 27 68 8z"/>
<path d="M6437 1974 c-4 -4 -7 -49 -7 -101 0 -93 0 -93 25 -93 24 0 25 2 25
70 0 58 3 71 19 80 25 13 27 13 45 -6 11 -11 16 -35 16 -80 0 -57 2 -64 20
-64 17 0 20 7 20 53 0 91 18 119 61 97 16 -9 19 -22 19 -80 0 -68 1 -70 25
-70 24 0 25 2 25 68 0 79 -15 113 -54 127 -21 7 -34 6 -55 -6 -24 -14 -30 -14
-47 -2 -12 9 -30 12 -49 8 -44 -8 -48 -8 -66 -1 -8 4 -18 3 -22 0z"/>
<path d="M6791 1953 c-17 -16 -31 -37 -32 -48 -7 -83 24 -125 91 -125 47 0 80
14 80 35 0 18 -21 24 -47 12 -27 -12 -69 -2 -77 18 -4 12 6 15 64 15 38 0 72
5 75 10 12 20 -16 80 -45 95 -43 22 -76 18 -109 -12z m99 -33 c10 -19 8 -20
-35 -20 -46 0 -54 7 -33 28 19 19 56 14 68 -8z"/>
<path d="M6980 1878 c0 -91 1 -98 20 -98 18 0 20 7 20 64 0 65 14 96 44 96 26
0 36 -26 36 -92 0 -66 1 -68 25 -68 24 0 25 2 25 75 0 67 -3 79 -25 100 -26
27 -54 31 -86 15 -12 -7 -19 -7 -19 -1 0 5 -9 9 -20 8 -19 -1 -20 -8 -20 -99z"/>
<path d="M21717 1164 c-18 -19 0 -24 84 -24 68 0 90 3 87 13 -5 13 -158 23
-171 11z"/>
<path d="M21627 1104 c-12 -12 -8 -24 8 -24 12 0 15 -25 17 -147 l3 -148 145
0 145 0 3 148 c2 125 5 147 18 147 9 0 14 6 12 13 -4 9 -49 13 -174 15 -94 1
-173 -1 -177 -4z m293 -159 l0 -135 -120 0 -120 0 0 135 0 135 120 0 120 0 0
-135z"/>
<path d="M3550 959 l0 -121 66 4 c60 4 70 7 95 36 23 26 29 42 29 80 0 80 -50
122 -145 122 l-45 0 0 -121z m137 71 c51 -47 33 -139 -31 -160 -20 -6 -46 -10
-58 -8 -22 3 -23 8 -26 96 l-3 92 49 0 c34 0 54 -6 69 -20z"/>
<path d="M3980 960 c0 -73 4 -120 10 -120 6 0 10 47 10 120 0 73 -4 120 -10
120 -6 0 -10 -47 -10 -120z"/>
<path d="M4265 1030 c-3 -11 -11 -20 -16 -20 -5 0 -9 -4 -9 -10 0 -5 7 -10 15
-10 12 0 15 -14 15 -63 0 -65 11 -87 42 -87 24 0 23 16 -2 23 -17 4 -20 14
-20 66 0 54 2 61 20 61 11 0 20 5 20 10 0 6 -9 10 -20 10 -13 0 -20 7 -20 20
0 11 -4 20 -9 20 -5 0 -13 -9 -16 -20z"/>
<path d="M5780 1035 c0 -9 -7 -18 -15 -21 -8 -4 -15 -10 -15 -15 0 -5 7 -9 15
-9 12 0 15 -14 15 -63 0 -36 5 -68 12 -75 15 -15 48 -16 48 -2 0 6 -6 10 -14
10 -19 0 -26 22 -26 81 0 42 3 49 20 49 11 0 20 5 20 10 0 6 -9 10 -20 10 -13
0 -20 7 -20 20 0 11 -4 20 -10 20 -5 0 -10 -7 -10 -15z"/>
<path d="M3802 987 c-31 -33 -30 -96 1 -125 30 -28 87 -29 111 -3 10 11 13 22
8 25 -5 3 -15 -1 -22 -9 -19 -23 -66 -19 -84 7 -9 12 -16 26 -16 30 0 5 32 8
71 8 l71 0 -7 28 c-10 42 -34 62 -75 62 -25 0 -43 -7 -58 -23z m96 -9 c26 -26
13 -38 -43 -38 -59 0 -64 4 -38 32 18 20 63 24 81 6z"/>
<path d="M4072 987 c-31 -33 -30 -96 1 -125 30 -28 87 -29 111 -3 10 11 13 22
8 25 -5 3 -15 -1 -22 -9 -19 -23 -66 -19 -84 7 -9 12 -16 26 -16 30 0 5 32 8
71 8 l71 0 -7 28 c-10 42 -34 62 -75 62 -25 0 -43 -7 -58 -23z m96 -9 c26 -26
13 -38 -43 -38 -59 0 -64 4 -38 32 18 20 63 24 81 6z"/>
<path d="M4381 984 c-25 -31 -27 -64 -6 -103 16 -31 33 -41 74 -41 34 0 77 28
62 43 -6 6 -15 4 -26 -7 -31 -30 -95 -11 -95 30 0 11 15 14 65 14 61 0 65 1
65 23 0 62 -99 91 -139 41z m97 -6 c26 -26 13 -38 -38 -38 -51 0 -64 12 -38
38 15 15 61 15 76 0z"/>
<path d="M4634 993 c-12 -12 -13 -18 -4 -21 6 -2 17 1 23 7 15 15 50 14 65 -1
20 -20 14 -27 -29 -34 -22 -4 -50 -15 -62 -24 -18 -15 -20 -22 -12 -46 8 -23
18 -30 42 -32 18 -2 41 2 53 8 13 7 20 7 20 0 0 -5 5 -10 10 -10 17 0 12 136
-6 154 -21 21 -78 20 -100 -1z m82 -108 c-22 -34 -69 -32 -74 2 -3 17 3 24 25
29 15 3 33 7 38 9 22 6 27 -15 11 -40z"/>
<path d="M4822 987 c-31 -33 -30 -96 1 -125 29 -28 87 -29 110 -4 22 24 10 35
-17 17 -11 -8 -28 -15 -38 -15 -26 0 -58 36 -58 65 0 51 70 86 100 50 7 -8 17
-12 22 -9 5 3 2 14 -8 25 -25 28 -85 25 -112 -4z"/>
<path d="M5012 987 c-31 -33 -30 -96 1 -125 29 -28 87 -29 110 -4 24 26 11 33
-23 14 -57 -33 -112 28 -79 87 18 31 63 40 88 17 23 -21 36 -8 14 16 -24 27
-84 24 -111 -5z"/>
<path d="M5201 984 c-47 -60 -10 -144 64 -144 74 0 111 84 64 144 -16 21 -29
26 -64 26 -35 0 -48 -5 -64 -26z m103 -9 c41 -42 17 -110 -39 -110 -35 0 -70
43 -60 74 9 31 33 51 60 51 13 0 30 -7 39 -15z"/>
<path d="M5390 947 c0 -88 15 -107 86 -106 l54 2 0 83 c0 69 -3 84 -15 84 -13
0 -15 -12 -14 -60 2 -63 -10 -90 -42 -90 -29 0 -49 39 -49 97 0 29 -4 53 -10
53 -6 0 -10 -28 -10 -63z"/>
<path d="M5580 923 c0 -49 4 -83 10 -83 6 0 10 25 10 56 0 66 13 94 43 94 37
0 47 -19 47 -87 0 -35 4 -63 10 -63 6 0 10 30 10 69 0 87 -12 102 -81 99 l-49
-2 0 -83z"/>
</g>
</svg>
